<?xml version="1.0" encoding="UTF-8"?>
<!DOCTYPE svg PUBLIC "-//W3C//DTD SVG 1.1//EN" "http://www.w3.org/Graphics/SVG/1.1/DTD/svg11.dtd">
<!-- Creator: CorelDRAW -->
<svg xmlns="http://www.w3.org/2000/svg" xml:space="preserve" width="2048px" height="2048px" style="shape-rendering:geometricPrecision; text-rendering:geometricPrecision; image-rendering:optimizeQuality; fill-rule:evenodd; clip-rule:evenodd"
viewBox="0 0 2048 2048"
 xmlns:xlink="http://www.w3.org/1999/xlink">
 <defs>
  <style type="text/css">
   <![CDATA[
    .fil6 {fill:none}
    .fil0 {fill:#74ACDF}
    .fil5 {fill:#843511}
    .fil4 {fill:#85340A}
    .fil1 {fill:#EEEEEE}
    .fil2 {fill:#F6B40E}
    .fil3 {fill:#85340A;fill-rule:nonzero}
   ]]>
  </style>
 </defs>
 <g id="Layer_x0020_1">
  <metadata id="CorelCorpID_0Corel-Layer"/>
  <rect class="fil0" x="255.999" y="562.744" width="1536" height="307.504"/>
  <rect class="fil1" x="255.999" y="870.248" width="1536" height="307.504"/>
  <rect class="fil0" x="255.999" y="1177.75" width="1536" height="307.504"/>
  <path class="fil2" d="M1018.17 1026.42l52.5213 114.437c0,0 0.901182,2.19095 2.36221,1.58622 1.46102,-0.604725 0.558662,-2.78504 0.558662,-2.78504l-43.78 -118.07zm-1.2626 44.5276c-0.638977,17.4047 10.0701,26.9776 8.67166,42.5174 -1.39488,15.5386 7.13977,24.3284 9.11457,30.3768 1.98307,6.0378 -2.13662,9.65198 -0.362599,10.5165 1.77756,0.858662 5.67048,-3.91063 4.40079,-12.5091 -1.27087,-8.59016 -7.78819,-11.1425 -6.25512,-30.124 1.53189,-18.9839 -7.77166,-23.4095 -5.50867,-40.7244l-10.0606 -0.0531496z"/>
  <path class="fil3" d="M1019.1 1025.99l18.4866 40.2803 0.0307087 -0.238583 2.02677 0.264567c-0.173622,1.3252 -0.276378,2.57362 -0.320079,3.75945l32.2973 70.3713 0.0200788 0.0448819c0.0011811,0.00236221 0.504331,1.23543 1.02402,1.02047 0.506693,-0.209055 -0.0011811,-1.4563 -0.00236221,-1.45866l-0.011811 -0.0236221 -43.78 -118.07 1.92284 -0.713386 43.78 118.07 -0.00236221 0.0011811c0.113386,0.28937 1.16221,3.13819 -1.12913,4.08662 -2.27953,0.94252 -3.56457,-1.84252 -3.68977,-2.12835l-0.00354331 -0.00708662 -0.00472441 -0.00944883 -30.2044 -65.8111c0.457087,3.7937 1.50473,6.98504 2.57599,10.2543 1.87323,5.70945 3.82205,11.6492 3.04488,21.2858 -0.990946,12.2752 1.45158,17.5158 3.57874,22.0784 1.14921,2.46851 2.21457,4.75276 2.66811,7.81654 0.669686,4.54252 -0.0448819,8.10591 -1.16102,10.4173 -0.458268,0.949607 -0.99567,1.70906 -1.54134,2.25118 -0.624804,0.622441 -1.29803,0.994489 -1.92992,1.0878 -0.429922,0.0637796 -0.846851,0.00590552 -1.22717,-0.177165 -1.55197,-0.754725 -1.15512,-1.93347 -0.538583,-3.74292 0.570473,-1.67717 1.42323,-4.18229 0.373229,-7.37835 -0.500788,-1.53662 -1.49291,-3.33307 -2.63268,-5.4 -3.2126,-5.82284 -7.57205,-13.7268 -6.52678,-25.3819 0.679134,-7.55906 -1.62047,-13.7421 -4.00748,-20.1591 -2.45197,-6.59056 -4.9937,-13.4232 -4.66772,-22.3063l2.04331 0.0732284c-0.31063,8.47914 2.15788,15.1181 4.54016,21.5197 2.46851,6.63662 4.84843,13.0335 4.12796,21.0496 -0.989765,11.0315 3.19961,18.626 6.28583,24.2197 1.18701,2.15433 2.22047,4.02402 2.78386,5.75197 1.26142,3.84095 0.277559,6.73229 -0.380315,8.66812 -0.263386,0.774804 -0.582284,1.20945 -0.510237,1.2437l0.0318898 -0.00708662 0.00354331 0c0.205512,-0.0295276 0.479528,-0.204331 0.787796,-0.511418 0.390945,-0.388583 0.787796,-0.956694 1.14213,-1.69134 0.967324,-2.00315 1.57914,-5.1437 0.976772,-9.22914 -0.407481,-2.76024 -1.41496,-4.91811 -2.5004,-7.24961 -2.23347,-4.78937 -4.79764,-10.2921 -3.763,-23.1036 0.745276,-9.23623 -1.1374,-14.9764 -2.94803,-20.4921 -1.56378,-4.76811 -3.07559,-9.37678 -2.9067,-15.8504l-20.0221 -43.6252 1.85906 -0.850394z"/>
  <path class="fil2" d="M1017.68 1024l4.73977 125.831c0,0 -0.00708662,2.36221 1.57795,2.37166 1.57795,0 1.57795,-2.37166 1.57795,-2.37166l4.73032 -125.831zm-18.1961 40.6607c-7.2567,15.8268 -1.02992,28.7717 -8.26654,42.5894 -7.2378,13.8272 -2.71299,25.2118 -3.19961,31.5579 -0.478347,6.34489 -5.6693,8.10355 -4.36418,9.57993 1.31811,1.47047 6.73347,-1.45039 8.85237,-9.87875 2.1189,-8.41654 -2.92914,-13.2768 5.74961,-30.2221 8.68111,-16.9536 1.77638,-24.5988 10.5012,-39.724l-9.27284 -3.90237z"/>
  <path class="fil3" d="M1019.52 1023.94l1.67835 44.5205 1.78347 1.0252c-0.622441,1.07835 -1.15984,2.1189 -1.62756,3.12638l2.64095 70.069 4.46575 -118.741 3.68977 0.129921 -4.73032 125.765 0.00590552 0c0,0.011811 -0.00472441,4.21418 -3.42992,4.21654l-0.00708662 0c-3.44646,-0.0200788 -3.4252,-4.20355 -3.4252,-4.21536l0.00590552 0 -2.42244 -64.2863c-0.0720473,0.811418 -0.134646,1.62284 -0.196063,2.43898 -0.46063,6.06497 -0.941339,12.378 -5.42835,21.1417 -5.50985,10.7575 -5.26536,16.4197 -5.05158,21.3496 0.120473,2.79213 0.232677,5.3752 -0.549213,8.48268 -1.15984,4.61811 -3.27756,7.7752 -5.29252,9.57993 -0.863386,0.774804 -1.73622,1.32638 -2.53229,1.65473 -0.987402,0.407481 -1.93347,0.504331 -2.72126,0.307087 -0.577559,-0.144095 -1.07953,-0.440552 -1.47284,-0.881103l-0.00708662 -0.00826772c-1.6252,-1.83662 -0.620079,-2.98347 0.934253,-4.7504l0.00354331 0.00354331c1.09488,-1.24725 2.73071,-3.11103 2.96221,-6.19252 0.11811,-1.5437 -0.106299,-3.54213 -0.364961,-5.83937 -0.753544,-6.71575 -1.77756,-15.8339 3.77362,-26.4366 3.43229,-6.55394 3.67205,-13.0524 3.9189,-19.7953 0.259843,-7.1067 0.531496,-14.4756 4.30394,-22.7055l3.3567 1.53307c-3.46536,7.56142 -3.72402,14.5547 -3.97087,21.3024 -0.262205,7.16812 -0.518504,14.0811 -4.33701,21.3732 -5.02205,9.5941 -4.07008,18.0768 -3.36969,24.3225 0.27874,2.48504 0.522048,4.64646 0.379134,6.51969 -0.090945,1.20118 -0.32126,2.25591 -0.637796,3.18662 0.575197,-1.14567 1.09016,-2.49803 1.48583,-4.07126 0.655512,-2.60788 0.555119,-4.92284 0.447638,-7.42678 -0.233858,-5.37993 -0.500788,-11.5595 5.45552,-23.1874 4.1374,-8.08229 4.59095,-14.0256 5.02441,-19.7362 0.381496,-5.02914 0.751182,-9.89056 3.36969,-15.841l-1.80118 -47.804 3.68977 -0.129921zm4.47992 126.21c-0.0755906,0.111024 -0.111024,0.209055 0,0.211417 0.114567,-0.00236221 0.0779528,-0.100394 0,-0.211417z"/>
  <path class="fil2" d="M1018.17 1021.58l-43.78 118.061c0,0 -0.911812,2.18977 0.549213,2.79449 1.46102,0.604725 2.36221,-1.58504 2.36221,-1.58504l52.5307 -114.438zm-32.3764 30.5918c-12.7536,11.8618 -11.9528,26.1933 -23.9315,36.1985 -11.9776,9.99568 -12.1606,22.2473 -15.0354,27.926 -2.87481,5.66811 -8.34568,5.31615 -7.69843,7.17402 0.650788,1.86614 6.78071,1.2437 11.9622,-5.73189 5.17441,-6.96969 2.37047,-13.3866 16.8756,-25.7268 14.5028,-12.339 11.0587,-22.037 24.9047,-32.6835l-7.07717 -7.1563z"/>
  <path class="fil3" d="M1019.91 1022.23l-15.4937 41.7827 1.24725 1.61575c-0.979135,0.753544 -1.86851,1.50236 -2.6811,2.25l-24.3414 65.6422 49.5166 -107.869 3.3567 1.53307 -52.4941 114.357c-0.00354331,0.00944883 -1.62047,3.90945 -4.77874,2.60788l-0.00708662 0c-2.97992,-1.23425 -1.74331,-4.70433 -1.57323,-5.14252l-0.00354331 -0.0011811 22.3973 -60.4004c-0.380315,0.728741 -0.751182,1.45984 -1.12323,2.19567 -2.74607,5.42599 -5.60552,11.0728 -13.1055,17.4532 -9.20788,7.83308 -11.1484,13.161 -12.835,17.798 -0.95315,2.62087 -1.83662,5.04567 -3.75118,7.62402 -2.85236,3.84095 -6.02717,5.94685 -8.58072,6.83623 -1.08307,0.376772 -2.09291,0.546851 -2.95158,0.54567 -1.06772,-0.00354331 -1.97599,-0.275197 -2.62795,-0.759449 -0.483071,-0.360236 -0.833859,-0.82441 -1.02756,-1.38307l-0.00236221 0.0011811c-0.805512,-2.31024 0.563386,-2.99173 2.67874,-4.03111l-0.0011811 -0.00236221c1.49173,-0.733465 3.72166,-1.83071 5.11772,-4.5815 0.705119,-1.39488 1.25906,-3.31299 1.89449,-5.51811 1.87441,-6.49843 4.42087,-15.3248 13.6039,-22.9878l-0.00236221 -0.00354331c5.69056,-4.75394 8.39764,-10.6677 11.2051,-16.8 2.96103,-6.47008 6.03189,-13.1776 12.6543,-19.337l2.51811 2.70709c-6.09804,5.67048 -9.00946,12.0295 -11.8158,18.163 -2.99055,6.5315 -5.87245,12.828 -12.1878,18.104l-0.00708662 0c-8.31733,6.93898 -10.6819,15.1335 -12.4228,21.1677 -0.69567,2.41181 -1.30039,4.50945 -2.14016,6.17008 -0.555119,1.0937 -1.18465,1.99016 -1.84725,2.7378 0.986221,-0.842127 1.99488,-1.90748 2.9752,-3.22796 1.59331,-2.14606 2.38819,-4.32756 3.24567,-6.68386 1.84134,-5.06103 3.95788,-10.8744 13.9193,-19.3477 6.91418,-5.88189 9.60828,-11.2004 12.1937,-16.3099 2.28071,-4.50355 4.48583,-8.86064 9.17953,-13.3571l16.6264 -44.8359 3.47244 1.2874zm-44.191 118.305c-0.112205,0.0755906 -0.177165,0.152362 -0.0673229,0.198425l-0.0011811 0.00236221c0.0992127,0.0366142 0.0992127,-0.0696851 0.068504,-0.200788z"/>
  <path class="fil2" d="M1019.53 1019.54l-85.6229 92.3198c0,0 -1.67717,1.67717 -0.558662,2.79449 1.11732,1.10906 2.78622,-0.558662 2.78622,-0.558662l92.328 -85.6288zm-41.6185 15.8799c-16.3228,6.06615 -21.0721,19.6228 -35.9634,24.2752 -14.9008,4.65827 -19.7492,15.9071 -24.5717,20.0445 -4.83189,4.14685 -9.74528,1.72441 -9.85985,3.6874 -0.11811,1.9748 5.78504,3.74055 13.2402,-0.719292 7.45276,-4.45394 7.30985,-11.4567 25.4362,-17.3067 18.1276,-5.85237 18.6484,-16.1362 35.5146,-20.6681l-3.79607 -9.313z"/>
  <path class="fil3" d="M1020.88 1020.8l-30.2929 32.6634 0.529134 1.98189c-1.19646,0.32126 -2.30788,0.67441 -3.34607,1.05473l-47.6351 51.3615 87.065 -80.7497 2.51811 2.70709 -92.2761 85.5839 0.0011811 0.0011811c-0.00826772,0.00826772 -2.96693,2.96929 -5.39882,0.558662l-0.00708662 0c-2.42362,-2.42362 0.551575,-5.40591 0.559843,-5.41418l0.0011811 0.0011811 43.7516 -47.1733c-0.629528,0.526772 -1.24961,1.05945 -1.87441,1.59567 -4.61575,3.96378 -9.4193,8.08938 -18.7866,11.1142 -11.5099,3.71221 -15.3343,7.88623 -18.6626,11.5181 -1.88977,2.06221 -3.6378,3.96851 -6.38859,5.6126 -4.11733,2.46378 -7.86969,3.19252 -10.5721,3.03189 -1.14567,-0.068504 -2.13543,-0.296457 -2.91614,-0.623623l-0.00826772 0c-0.969686,-0.4063 -1.69843,-1.00748 -2.11772,-1.70669l0 -0.00708662c-0.309449,-0.519685 -0.457087,-1.08307 -0.421654,-1.66654 0.147638,-2.44606 1.67126,-2.54882 4.02048,-2.69882 1.65709,-0.106299 4.13386,-0.265748 6.48426,-2.28425 1.16339,-0.996851 2.41536,-2.56654 3.8563,-4.37244 4.21536,-5.28426 9.94489,-12.4618 21.3662,-16.0335 7.063,-2.2063 11.8287,-6.63426 16.7717,-11.2276 5.2063,-4.8378 10.6051,-9.85394 19.0996,-13.011l1.2874 3.45827c-7.78938,2.89607 -12.9213,7.663 -17.8689,12.2599 -5.25827,4.88622 -10.3276,9.59646 -18.189,12.052 -10.3406,3.23386 -15.6602,9.89765 -19.5732,14.8028 -1.55788,1.95354 -2.9126,3.64961 -4.34764,4.88032 -0.918898,0.788977 -1.83189,1.37244 -2.71772,1.80827 1.22362,-0.401575 2.55118,-0.99567 3.94961,-1.83189 2.30669,-1.37835 3.87284,-3.08622 5.56418,-4.93229 3.63898,-3.97087 7.82127,-8.53465 20.2547,-12.5457 8.64922,-2.79213 13.1705,-6.6756 17.5134,-10.4055 3.82914,-3.28937 7.53308,-6.4689 13.5874,-8.82638l32.5122 -35.0551 2.70709 2.51811zm-86.08 92.3942c-0.132284,0.0236221 -0.225591,0.0661418 -0.142913,0.148819l-0.00354331 0.00354331c0.0814961,0.0767717 0.122835,-0.0188977 0.146457,-0.152362z"/>
  <path class="fil4" d="M1031.96 1069.06c0.840946,16.7126 10.3122,24.1134 8.44607,39.3449 4.09252,-12.0425 -5.75906,-21.3815 -5.20158,-39.1725zm-14.1236 -43.8508l35.974 78.5977 -30.1406 -81.0142 -5.83347 2.41654z"/>
  <path class="fil4" d="M1014.1 1068.67c-5.61496,15.7654 0.307087,26.2323 -7.24725,39.5906 8.38347,-9.56457 2.85827,-21.9591 10.1858,-38.1815zm3.74055 -45.9178l3.15591 86.3788 3.15473 -86.3883 -6.31063 0.00944883z"/>
  <path class="fil4" d="M997.762 1061.49c-11.2217,12.4122 -9.75355,24.3473 -21.841,33.8032 11.4024,-5.63504 11.0421,-19.2 24.0118,-31.3866zm21.0307 -40.9949l-30.1418 81.0166 35.9729 -78.6012 -5.83111 -2.41536z"/>
  <path class="fil4" d="M985.412 1048.6c-15.1146,7.16812 -18.3331,18.7488 -33.1158,22.8591 12.6921,-0.829134 17.5488,-13.5012 34.1977,-19.7941zm35.1177 -29.8276l-58.8508 63.313 63.3107 -58.8591 -4.45985 -4.45394z"/>
  <path class="fil2" d="M1021.58 1018.17l-114.438 52.5213c0,0 -2.18977,0.902363 -1.58622,2.36339 0.605906,1.45984 2.78504,0.558662 2.78504,0.558662l118.071 -43.7811zm-44.5288 -1.2626c-17.4047,-0.638977 -26.9764,10.0713 -42.5174,8.67284 -15.5386,-1.39725 -24.3284,7.13859 -30.3768,9.11221 -6.03898,1.98425 -9.65198,-2.13543 -10.5165,-0.360236 -0.858662,1.77638 3.91063,5.6693 12.5079,4.39843 8.59135,-1.26969 11.1437,-7.78819 30.1252,-6.25394 18.9839,1.53189 23.4095,-7.77166 40.7244,-5.50748l0.0531496 -10.0618z"/>
  <path class="fil3" d="M1022.35 1019.85l-40.4906 18.5835 -0.264567 2.03032c-1.22835,-0.16063 -2.38819,-0.258662 -3.49488,-0.304725l-63.7111 29.2394 111.383 -41.3008 1.2874 3.47244 -118.071 43.7811 -0.0011811 -0.00354331c-0.437008,0.167717 -3.90118,1.39134 -5.13544,-1.58268l0 -0.00708662c-1.30394,-3.15591 2.59725,-4.77638 2.60669,-4.77992l58.4823 -26.8394c-0.79252,0.249213 -1.57914,0.505512 -2.37047,0.765355 -5.78622,1.89685 -11.8063,3.87166 -21.6059,3.0815 -12.0579,-0.972048 -17.1921,1.42087 -21.6638,3.50433 -2.5252,1.17638 -4.86142,2.26536 -8.04804,2.73662 -4.72559,0.696851 -8.46142,-0.0590552 -10.8957,-1.23543 -1.03819,-0.501969 -1.87323,-1.09488 -2.47677,-1.70315 -0.748819,-0.752363 -1.2,-1.58386 -1.31811,-2.38701l-0.0011811 0c-0.0885827,-0.594095 -0.00590552,-1.17165 0.251575,-1.70788 1.07599,-2.21339 2.52402,-1.72087 4.75158,-0.962599 1.57205,0.533859 3.92126,1.33347 6.85749,0.369685 1.46339,-0.477166 3.22796,-1.45158 5.25473,-2.57008 5.91378,-3.26339 13.9441,-7.69371 25.8532,-6.62363 7.37481,0.662599 13.4752,-1.60512 19.8012,-3.96024 6.66615,-2.48032 13.5791,-5.05158 22.6217,-4.71969l-0.129921 3.68977c-8.31851,-0.304725 -14.8784,2.13425 -21.2043,4.48819 -6.7252,2.50276 -13.2095,4.91457 -21.4075,4.17756 -10.7811,-0.969686 -18.2516,3.15236 -23.7532,6.18898 -2.18977,1.20827 -4.09489,2.26063 -5.89252,2.84646 -1.15039,0.377953 -2.21811,0.569292 -3.20433,0.630709 1.28504,0.0968505 2.74016,0.0555119 4.35591,-0.183071 2.63977,-0.389764 4.74567,-1.37244 7.02048,-2.43189 4.88268,-2.27599 10.4894,-4.88859 23.5181,-3.8374 9.07087,0.732284 14.7319,-1.12559 20.1721,-2.90906 4.79528,-1.57441 9.43465,-3.09331 15.9402,-2.95158l43.4504 -19.9417 1.53307 3.3567zm-114.517 52.5579c0,0 -0.204331,-0.0897638 -0.369685,-0.127559 -0.0744095,0.109843 -0.151181,0.174803 -0.196063,0.0673229l-0.00236221 0.0011811 0.00236221 0.00590552 -1.70788 0.701575 -1.70788 0.701575m3.61181 -1.47756c-0.12874,-0.0295276 -0.233858,-0.0295276 -0.198425,0.068504m-0.806694 -3.37087l0.687402 1.71496 0.497244 1.24016 0.190158 0.474804"/>
  <path class="fil2" d="M1024 1017.68l-125.83 4.73977c0,0 -2.36339,-0.00944883 -2.37284,1.57795 0,1.57795 2.37284,1.57795 2.37284,1.57795l125.83 4.73032zm-40.6595 -18.1961c-15.828,-7.25788 -28.7729,-1.02874 -42.5906,-8.26536 -13.826,-7.23898 -25.2118,-2.71418 -31.5567,-3.20079 -6.34607,-0.478347 -8.10473,-5.6693 -9.58111,-4.363 -1.46929,1.31693 1.45039,6.73347 9.87757,8.85119 8.4189,2.1189 13.278,-2.92796 30.2244,5.75079 16.9536,8.67993 24.5977,1.77638 39.7229,10.5l3.90355 -9.27284z"/>
  <path class="fil3" d="M1024.07 1019.53l-44.5252 1.67835 -1.02402 1.78228c-1.07717,-0.62126 -2.11654,-1.15866 -3.12402,-1.62638l-70.0548 2.63977 118.728 4.46693 -0.129921 3.68977 -125.767 -4.7315 0 0.00590552c-0.011811,0 -4.22363,0 -4.22363,-3.42874 0,-3.45236 4.21181,-3.43229 4.22363,-3.43229l0 0.00590552 64.2945 -2.42362c-0.816142,-0.0720473 -1.6311,-0.133465 -2.45079,-0.196063 -6.0626,-0.46063 -12.3744,-0.940158 -21.1406,-5.42717 -10.7575,-5.51103 -16.4209,-5.26536 -21.3508,-5.05276 -2.79095,0.121654 -5.37402,0.233858 -8.47796,-0.548032 -4.62048,-1.15984 -7.77875,-3.27992 -9.58465,-5.29607 -0.773623,-0.863386 -1.32402,-1.73504 -1.65236,-2.5311 -0.408662,-0.988583 -0.505512,-1.92992 -0.307087,-2.7189 0.144095,-0.577559 0.440552,-1.07953 0.881103,-1.47284l0.00826772 -0.00708662c1.83662,-1.6252 2.98583,-0.620079 4.75158,0.934253l-0.00354331 0.00354331c1.24725,1.09488 3.11103,2.72953 6.19371,2.96103 1.54606,0.11811 3.54567,-0.106299 5.84292,-0.36378 6.71457,-0.753544 15.8291,-1.77756 26.4307,3.77244 6.55158,3.43229 13.0512,3.67205 19.7941,3.9189 7.1067,0.259843 14.478,0.531496 22.7091,4.30512l-1.53307 3.3567c-7.5626,-3.46654 -14.5583,-3.7252 -21.3059,-3.97205 -7.16812,-0.262205 -14.0811,-0.518504 -21.3721,-4.33701 -9.59292,-5.02205 -18.0721,-4.0689 -24.3166,-3.36851 -2.48504,0.277559 -4.64764,0.520867 -6.52323,0.377953 -1.20473,-0.090945 -2.26181,-0.322441 -3.19607,-0.640158 1.14685,0.578741 2.50394,1.0937 4.08071,1.48937 2.60669,0.655512 4.92048,0.555119 7.42205,0.446457 5.37993,-0.232677 11.5606,-0.500788 23.1886,5.4567 8.08465,4.13859 14.0268,4.58977 19.7351,5.02323 5.03032,0.381496 9.8941,0.751182 15.8457,3.37087l47.804 -1.80118 0.129921 3.68977zm-126.201 4.47638c-0.113386,-0.0826772 -0.21378,-0.121654 -0.21378,0 0,0.122835 0.100394,0.0826772 0.21378,0z"/>
  <path class="fil2" d="M1026.42 1018.17l-118.062 -43.78c0,0 -2.18977,-0.910631 -2.79449,0.549213 -0.603544,1.46102 1.58622,2.36221 1.58622,2.36221l114.438 52.5307zm-30.5941 -32.3764c-11.8606,-12.7536 -26.1921,-11.9528 -36.1973,-23.9315 -9.99568,-11.9776 -22.2461,-12.1595 -27.9248,-15.0354 -5.67048,-2.87481 -5.31615,-8.34568 -7.17402,-7.69725 -1.86732,0.649607 -1.24488,6.77953 5.73189,11.9622 6.96851,5.17323 13.3854,2.36929 25.7256,16.8744 12.339,14.5028 22.037,11.0575 32.6835,24.9024l7.15512 -7.07481z"/>
  <path class="fil3" d="M1025.77 1019.91l-41.7839 -15.4937 -1.61575 1.24725c-0.753544,-0.979135 -1.50236,-1.86732 -2.25,-2.6811l-65.6422 -24.3414 107.87 49.5166 -1.53307 3.3567 -114.358 -52.4941c-0.00944883,-0.00354331 -3.90709,-1.62047 -2.60788,-4.77874l0 -0.00708662c1.23425,-2.97992 4.70433,-1.74331 5.14252,-1.57323l0.0011811 -0.00354331 60.3993 22.3973c-0.728741,-0.380315 -1.45984,-0.751182 -2.19449,-1.12323 -5.42599,-2.74607 -11.0728,-5.60552 -17.4532,-13.1055 -7.83308,-9.20788 -13.161,-11.1484 -17.7992,-12.835 -2.61969,-0.95315 -5.04331,-1.83662 -7.62166,-3.75 -3.84449,-2.85591 -5.95276,-6.03426 -6.83977,-8.59016l0 -0.00708662c-0.375591,-1.08307 -0.544489,-2.08701 -0.542126,-2.93858 0.00354331,-1.06772 0.277559,-1.97599 0.759449,-2.62441 0.356693,-0.48189 0.825591,-0.83504 1.38307,-1.02756l-0.0011811 -0.00236221c2.31378,-0.806694 2.99055,0.561024 4.02992,2.67756l0.00236221 -0.0011811c0.733465,1.49173 1.83071,3.72166 4.58268,5.11772 1.38662,0.700394 3.31181,1.25787 5.52638,1.89685l0 0.00236221c6.49725,1.87205 15.3189,4.42087 22.9784,13.5992l0.00354331 -0.00236221c4.75394,5.69056 10.6677,8.39883 16.8012,11.2063 6.47008,2.96103 13.1776,6.03308 19.337,12.6532l-2.70709 2.51811c-5.67166,-6.09686 -12.0295,-9.00827 -18.163,-11.8146 -6.53032,-2.98937 -12.8291,-5.87363 -18.1051,-12.189l0 -0.00708662c-6.9378,-8.31615 -15.1323,-10.6819 -21.1654,-12.4205l-0.00708662 0c-2.40355,-0.694489 -4.49292,-1.29803 -6.16418,-2.14252 -1.0937,-0.555119 -1.99252,-1.18465 -2.73898,-1.84725 0.843308,0.987402 1.90866,1.99488 3.22914,2.97638 2.14606,1.59213 4.32638,2.38701 6.6815,3.24449 5.06221,1.84134 10.8744,3.95788 19.3488,13.9193 5.88189,6.91418 11.2004,9.60828 16.3099,12.1937 4.50355,2.28071 8.86064,4.48583 13.3571,9.17953l44.837 16.6264 -1.2874 3.47244zm-118.306 -44.191c-0.0755906,-0.112205 -0.152362,-0.177165 -0.198425,-0.0673229l-0.00236221 -0.0011811c-0.0366142,0.0992127 0.0696851,0.0992127 0.200788,0.068504z"/>
  <path class="fil2" d="M1028.46 1019.53l-92.3186 -85.6205c0,0 -1.67835,-1.67717 -2.79567,-0.557481 -1.10906,1.11614 0.558662,2.78504 0.558662,2.78504l85.63 92.328zm-15.8811 -41.6185c-6.06615,-16.324 -19.6228,-21.0721 -24.274,-35.9646 -4.65945,-14.8996 -15.9083,-19.748 -20.0457,-24.5705 -4.14685,-4.83189 -1.72323,-9.7441 -3.6874,-9.85985 -1.9748,-0.11811 -3.74055,5.78504 0.719292,13.2413 4.45394,7.45276 11.4579,7.30985 17.3067,25.4351 5.85237,18.1276 16.1362,18.6496 20.6681,35.5146l9.313 -3.79607z"/>
  <path class="fil3" d="M1027.2 1020.88l-32.6646 -30.2941 -1.98189 0.529134c-0.32126,-1.19646 -0.67441,-2.30788 -1.05473,-3.34607l-51.3544 -47.6292 80.7438 87.0615 -2.70709 2.51811 -85.5851 -92.2796 -0.0011811 0.0011811c-0.00826772,-0.00826772 -2.96929,-2.96575 -0.559843,-5.39882l0.00708662 -0.00708662c2.42481,-2.42244 5.39882,0.551575 5.40709,0.559843l-0.0011811 0.0011811 47.1792 43.7563c-0.526772,-0.630709 -1.06299,-1.25197 -1.60039,-1.87795 -3.96378,-4.61575 -8.09056,-9.4193 -11.113,-18.7854 -3.71339,-11.5099 -7.88741,-15.3354 -11.5193,-18.6638 -2.06221,-1.88977 -3.97087,-3.6378 -5.61378,-6.38977 -2.46378,-4.11733 -3.19134,-7.86969 -3.03071,-10.5697 0.068504,-1.14567 0.296457,-2.13543 0.623623,-2.91614l0 -0.00826772c0.4063,-0.969686 1.00748,-1.69843 1.70669,-2.11772l0.00708662 0c0.519685,-0.309449 1.08307,-0.457087 1.66654,-0.421654 2.44606,0.144095 2.54882,1.67008 2.69882,4.02048 0.105118,1.65709 0.266929,4.13504 2.28307,6.48308 0.996851,1.16339 2.56772,2.41654 4.37363,3.8563 5.28426,4.21536 12.463,9.94253 16.0347,21.3673 2.20512,7.06064 6.63308,11.8264 11.2264,16.7693 4.8378,5.2063 9.85394,10.6051 13.011,19.0996l-3.45827 1.2874c-2.89488,-7.79056 -7.66182,-12.9213 -12.2599,-17.8689 -4.88622,-5.25827 -9.59646,-10.3276 -12.0508,-18.1866 -3.23386,-10.3429 -9.89883,-15.6614 -14.8039,-19.5744 -1.95354,-1.55788 -3.65079,-2.91142 -4.8815,-4.34764 -0.787796,-0.917717 -1.37244,-1.83071 -1.80827,-2.71654 0.401575,1.22244 0.99567,2.55 1.83189,3.94725 1.37835,2.30788 3.0874,3.87402 4.93347,5.56536 3.97205,3.64016 8.53465,7.82245 12.5469,20.2559 2.79095,8.64804 6.67441,13.1693 10.4043,17.5122 3.28937,3.82914 6.4689,7.5319 8.82638,13.5874l35.0563 32.5134 -2.51811 2.70709zm-92.4013 -86.0823c-0.0248032,-0.127559 -0.0673229,-0.217323 -0.144095,-0.15 -0.0826772,0.0838583 0.011811,0.127559 0.144095,0.15z"/>
  <path class="fil4" d="M978.942 1031.96c-16.7138,0.836221 -24.1134,10.311 -39.3461,8.44489 12.0437,4.09252 21.3815,-5.75906 39.1725,-5.20158zm43.852 -14.1236l-78.5989 35.974 81.0154 -30.1406 -2.41654 -5.83347z"/>
  <path class="fil4" d="M979.329 1014.1c-15.7654,-5.61615 -26.2323,0.307087 -39.5894,-7.24843 9.56339,8.38347 21.9579,2.85945 38.1815,10.1858zm45.9166 3.74055l-86.3788 3.15591 86.3894 3.15473 -0.0106299 -6.31063z"/>
  <path class="fil4" d="M986.513 997.762c-12.4122,-11.2217 -24.3473,-9.75355 -33.8032,-21.8398 5.63504,11.4 19.2012,11.041 31.3866,24.0118zm40.9949 21.0295l-81.0154 -30.1429 78.6001 35.974 2.41536 -5.83111z"/>
  <path class="fil4" d="M999.402 985.412c-7.16693,-15.1146 -18.7488,-18.3331 -22.8579,-33.1158 0.827953,12.6921 13.5012,17.5488 19.7929,34.1977zm29.8276 35.1177l-63.3142 -58.8497 58.8603 63.3095 4.45394 -4.45985z"/>
  <path class="fil2" d="M1029.83 1021.58l-52.5213 -114.438c0,0 -0.901182,-2.18977 -2.36339,-1.58504 -1.45984,0.604725 -0.557481,2.78504 -0.557481,2.78504l43.78 118.07zm1.2626 -44.5276c0.638977,-17.4059 -10.0701,-26.9776 -8.67166,-42.5185 1.39606,-15.5386 -7.13977,-24.3284 -9.11339,-30.3756 -1.98307,-6.03898 2.13543,-9.65316 0.361418,-10.5177 -1.77756,-0.858662 -5.67048,3.91063 -4.39843,12.5091 1.26969,8.59016 7.78701,11.1425 6.25276,30.124 -1.53189,18.9839 7.77166,23.4095 5.50867,40.7244l10.0606 0.0543308z"/>
  <path class="fil3" d="M1028.15 1022.35l-18.5835 -40.4906 -2.02914 -0.264567c0.16063,-1.22835 0.259843,-2.38819 0.304725,-3.4937l-29.237 -63.7052 41.2973 111.376 -3.47244 1.2874 -43.78 -118.07 0.00354331 -0.0011811c-0.167717,-0.437008 -1.39252,-3.90118 1.58858,-5.13544 3.15945,-1.3063 4.77638,2.59606 4.77992,2.60551l26.8441 58.4894c-0.248032,-0.794883 -0.509056,-1.58386 -0.768898,-2.37756 -1.89803,-5.78504 -3.87284,-11.8051 -3.08268,-21.6059 0.973229,-12.0579 -1.41851,-17.1921 -3.50197,-21.6638 -1.17638,-2.52402 -2.26536,-4.86024 -2.73662,-8.04686 -0.699213,-4.72559 0.056693,-8.46024 1.23307,-10.8957 0.500788,-1.03701 1.09488,-1.87205 1.70315,-2.47677 0.753544,-0.748819 1.58504,-1.19882 2.38819,-1.31929l0 -0.0011811c0.594095,-0.0885827 1.17165,-0.00590552 1.70788,0.251575 2.21339,1.07599 1.72087,2.52402 0.962599,4.75158 -0.533859,1.57323 -1.33228,3.92244 -0.368504,6.85867 0.477166,1.46457 1.45158,3.22796 2.57008,5.25709 3.26339,5.91378 7.69134,13.9417 6.62245,25.8496 -0.662599,7.37481 1.60512,13.474 3.95906,19.8012 2.48032,6.66615 5.05158,13.5791 4.71969,22.6229l-3.68977 -0.129921c0.304725,-8.31969 -2.13425,-14.8795 -4.48819,-21.2055 -2.50158,-6.7252 -4.91339,-13.2106 -4.17638,-21.4075 0.967324,-10.7787 -3.15236,-18.2492 -6.1878,-23.7496 -1.20827,-2.19095 -2.25945,-4.09607 -2.84646,-5.89489 -0.379134,-1.15394 -0.570473,-2.22402 -0.63189,-3.2126 -0.0980316,1.2874 -0.0555119,2.74607 0.184252,4.36418 0.389764,2.63858 1.37126,4.74449 2.43189,7.0193 2.27599,4.88268 4.88741,10.4894 3.83504,23.5181 -0.732284,9.07324 1.12559,14.7319 2.91024,20.1721 1.57205,4.79646 3.09449,9.43465 2.95158,15.9425l19.9406 43.4481 -3.3567 1.53307zm-52.5579 -114.517c0,0 0.0874016,-0.199606 0.126378,-0.36378 -0.115748,-0.0755906 -0.186614,-0.154725 -0.0732284,-0.200788l-1.40315 -3.41575m1.47638 3.61654c0.0318898,-0.134646 0.0318898,-0.244488 -0.0732284,-0.200788m3.37677 -0.810237l-1.71496 0.687402 -1.24252 0.498426 -0.472441 0.188977"/>
  <path class="fil2" d="M1030.32 1024l-4.73977 -125.83c0,0 0.00944883,-2.36221 -1.57795,-2.37166 -1.57795,-0.0011811 -1.57795,2.37166 -1.57795,2.37166l-4.73032 125.83zm18.1973 -40.6607c7.2567,-15.8268 1.02756,-28.7717 8.26536,-42.5894 7.2378,-13.826 2.71299,-25.2106 3.19961,-31.5567 0.478347,-6.34607 5.6693,-8.10355 4.36418,-9.58111 -1.31811,-1.46929 -6.73347,1.45158 -8.85237,9.87875 -2.11772,8.41772 2.92914,13.2768 -5.74961,30.2233 -8.68111,16.9536 -1.77756,24.5977 -10.5012,39.7217l9.27402 3.90355z"/>
  <path class="fil3" d="M1028.47 1024.06l-1.67717 -44.5217 -1.7811 -1.02284c0.620079,-1.07599 1.15866,-2.11417 1.6252,-3.12047l-2.63977 -70.056 -4.46457 118.722 -3.68977 -0.129921 4.72914 -125.764 -0.00590552 0c0,-0.011811 -0.00236221,-4.22599 3.43111,-4.22599l0.00708662 0.00826772c3.43937,0.022441 3.42284,4.20591 3.42284,4.21772l-0.00590552 0 2.42244 64.2993c0.0720473,-0.816142 0.134646,-1.63228 0.197244,-2.45315 0.46063,-6.06378 0.940158,-12.3768 5.42835,-21.1429 5.50985,-10.7587 5.26418,-16.4232 5.0504,-21.3543 -0.120473,-2.79095 -0.232677,-5.37284 0.548032,-8.47914 1.15984,-4.61811 3.27874,-7.7752 5.29489,-9.58111 0.864568,-0.773623 1.7374,-1.32402 2.53229,-1.65236 0.989765,-0.407481 1.93228,-0.505512 2.72126,-0.307087 0.577559,0.144095 1.07953,0.440552 1.47284,0.881103l0.00708662 0.00826772c1.6252,1.83662 0.620079,2.98347 -0.934253,4.7504 -1.09606,1.24606 -2.73544,3.11103 -2.96693,6.19134 -0.11811,1.54725 0.106299,3.54331 0.36378,5.84174 0.753544,6.71339 1.77638,15.8291 -3.77362,26.4307 -3.43111,6.55276 -3.67087,13.0524 -3.91772,19.7965 -0.258662,7.10552 -0.530315,14.4756 -4.30158,22.7055l-3.3567 -1.53307c3.46536,-7.56142 3.72284,-14.5559 3.96851,-21.3024 0.262205,-7.1693 0.517323,-14.0823 4.33583,-21.3744 5.02205,-9.59292 4.07008,-18.0732 3.36969,-24.3166 -0.27874,-2.48622 -0.520867,-4.64646 -0.377953,-6.52205 0.090945,-1.20354 0.32126,-2.25945 0.636615,-3.19252 -0.576378,1.14449 -1.09016,2.5004 -1.48583,4.07363 -0.654331,2.60669 -0.553937,4.92048 -0.446457,7.42323 0.233858,5.38111 0.501969,11.563 -5.45433,23.1921 -4.13859,8.08347 -4.59095,14.028 -5.02441,19.7374 -0.381496,5.03032 -0.751182,9.89528 -3.37205,15.848l1.80118 47.7945 -3.68977 0.129921zm-4.47756 -126.204c0.0767717,-0.111024 0.113386,-0.211417 0.00472441,-0.216142l0 0.00826772c-0.119291,0 -0.0838583,0.0980316 -0.00472441,0.207874z"/>
  <path class="fil2" d="M1029.83 1026.42l43.7811 -118.061c0,0 0.910631,-2.18977 -0.550394,-2.79449 -1.45984,-0.604725 -2.36221,1.58504 -2.36221,1.58504l-52.5307 114.438zm32.3764 -30.5929c12.7536,-11.8606 11.9528,-26.1921 23.9315,-36.1985 11.9776,-9.99568 12.1595,-22.2461 15.0354,-27.9248 2.87481,-5.6693 8.34568,-5.31615 7.69843,-7.17402 -0.650788,-1.86732 -6.78071,-1.2437 -11.9622,5.73189 -5.17323,6.96851 -2.37047,13.3854 -16.8756,25.7256 -14.5016,12.339 -11.0575,22.037 -24.9024,32.6847l7.07481 7.15512z"/>
  <path class="fil3" d="M1028.09 1025.77l15.4937 -41.7827 -1.24725 -1.61575c0.980316,-0.753544 1.86851,-1.50236 2.6811,-2.25l24.3449 -65.6504 -49.5201 107.877 -3.3567 -1.53307 52.4941 -114.357c0.00354331,-0.00944883 1.62284,-3.90945 4.77874,-2.60788l0.00708662 0c2.97874,1.23425 1.74331,4.70315 1.57441,5.14134l0.00354331 0.0011811 -22.3961 60.3945c0.380315,-0.726379 0.748819,-1.45512 1.12087,-2.18977 2.74725,-5.42481 5.6067,-11.0717 13.1055,-17.452 9.20788,-7.83426 11.1484,-13.1634 12.8362,-17.8004 0.95315,-2.61969 1.83662,-5.04331 3.75,-7.62166 2.85118,-3.83859 6.03071,-5.94685 8.59016,-6.83623l-0.0011811 -0.00236221c1.08189,-0.375591 2.08937,-0.54567 2.94567,-0.543308 1.06772,0.00354331 1.9748,0.277559 2.62559,0.759449 0.48189,0.356693 0.83504,0.825591 1.02756,1.38307l0.00236221 -0.0011811c0.805512,2.31969 -0.563386,2.99292 -2.67756,4.03347l-0.00708662 0c-1.48819,0.731103 -3.71221,1.82599 -5.11063,4.5815 -0.7063,1.39725 -1.26024,3.31418 -1.89567,5.5193 -1.87559,6.50315 -4.42559,15.3343 -13.6004,22.9902 -5.69174,4.75512 -8.39883,10.6677 -11.2063,16.8012 -2.96103,6.47008 -6.03189,13.1764 -12.6532,19.3358l-2.51811 -2.70709c6.09686,-5.67048 9.00827,-12.0284 11.8146,-18.1618 2.98937,-6.53268 5.87363,-12.8291 12.189,-18.1051 8.3256,-6.94725 10.689,-15.1358 12.4287,-21.1666 0.69567,-2.41181 1.30158,-4.50945 2.14134,-6.17126 0.557481,-1.09961 1.19291,-2.00197 1.86024,-2.75079 -0.989765,0.844489 -2.00197,1.91339 -2.98819,3.24095 -1.59213,2.14606 -2.38701,4.32638 -3.24449,6.6815 -1.84134,5.05985 -3.95788,10.8744 -13.9205,19.35 -6.91418,5.88308 -9.60591,11.2004 -12.1937,16.3087 -2.27953,4.50473 -4.48583,8.86182 -9.17953,13.3583l-16.6264 44.8359 -3.47244 -1.2874zm44.191 -118.305c0.112205,-0.0744095 0.177165,-0.152362 0.0673229,-0.198425l0.0011811 -0.00236221c-0.0992127,-0.0366142 -0.0992127,0.0696851 -0.068504,0.200788z"/>
  <path class="fil2" d="M1028.47 1028.46l85.6205 -92.3186c0,0 1.67717,-1.67835 0.558662,-2.79449 -1.11732,-1.11024 -2.78622,0.557481 -2.78622,0.557481l-92.3268 85.6288zm41.6185 -15.8799c16.3228,-6.06615 21.0709,-19.6228 35.9634,-24.274 14.9008,-4.65827 19.748,-15.9083 24.5705,-20.0457 4.83307,-4.14685 9.74528,-1.72323 9.85985,-3.6874 0.11811,-1.9748 -5.78504,-3.73937 -13.2402,0.720473 -7.45276,4.45276 -7.30985,11.4567 -25.4362,17.3055 -18.1276,5.85237 -18.6484,16.1374 -35.5146,20.6681l3.79725 9.313z"/>
  <path class="fil3" d="M1027.12 1027.2l30.2941 -32.6634 -0.529134 -1.97953c1.19528,-0.32126 2.30551,-0.67441 3.3437,-1.05473l47.6351 -51.3615 -87.0627 80.7497 -2.51811 -2.70709 92.2761 -85.5863 -0.0011811 -0.0011811c0.00826772,-0.00826772 2.96693,-2.96575 5.39764,-0.558662l0.00708662 0c2.42835,2.42835 -0.550394,5.40591 -0.558662,5.41418l-0.0011811 -0.0011811 -43.7516 47.1733c0.627166,-0.52441 1.24725,-1.05827 1.86969,-1.59331 4.61575,-3.96378 9.42048,-8.09174 18.789,-11.113 11.5099,-3.71457 15.3366,-7.88977 18.665,-11.5217 1.88977,-2.06221 3.6378,-3.96851 6.38859,-5.6126 4.1126,-2.4626 7.86024,-3.19134 10.5626,-3.03189 1.14921,0.068504 2.14016,0.296457 2.92087,0.622441 0.980316,0.409843 1.71142,1.00748 2.12953,1.70788l0 0.00708662c0.309449,0.519685 0.457087,1.08307 0.421654,1.66654 -0.147638,2.44606 -1.67126,2.54882 -4.02048,2.69882 -1.65591,0.106299 -4.13268,0.266929 -6.48426,2.28425 -1.16339,0.996851 -2.41654,2.56772 -3.8563,4.37363 -4.21418,5.28426 -9.94135,12.463 -21.365,16.0347 -7.06182,2.20512 -11.8287,6.63308 -16.7717,11.2252 -5.20512,4.83898 -10.6063,9.85513 -19.1008,13.011l-1.2874 -3.45827c7.79174,-2.89488 12.9236,-7.66182 17.8701,-12.2599 5.25945,-4.88504 10.3276,-9.59528 18.189,-12.0496 10.3429,-3.23386 15.6591,-9.89883 19.5721,-14.8039 1.55788,-1.95354 2.91142,-3.65079 4.34764,-4.8815 0.921261,-0.791339 1.8378,-1.37717 2.72717,-1.81299 -1.22599,0.401575 -2.55709,0.998032 -3.95788,1.83662 -2.30551,1.37717 -3.87166,3.08622 -5.56418,4.93229 -3.64016,3.97205 -7.82245,8.53583 -20.2571,12.5492 -8.6504,2.78977 -13.1717,6.67323 -17.5158,10.4043 -3.82796,3.28819 -7.53071,6.4689 -13.5862,8.82638l-32.5099 35.0528 -2.70709 -2.51811zm86.08 -92.3942c0.132284,-0.022441 0.225591,-0.0661418 0.142913,-0.148819l0.00354331 -0.00354331c-0.0826772,-0.0779528 -0.124016,0.0188977 -0.146457,0.152362z"/>
  <path class="fil4" d="M1016.04 978.941c-0.837402,-16.7126 -10.3122,-24.1122 -8.44607,-39.3449 -4.09252,12.0437 5.75906,21.3792 5.20158,39.1725zm14.1248 43.852l-35.9752 -78.5989 30.1406 81.0142 5.83465 -2.41536z"/>
  <path class="fil4" d="M1033.9 979.329c5.61496,-15.7654 -0.308268,-26.2323 7.24725,-39.5894 -8.38229,9.56339 -2.85945,21.9579 -10.1858,38.1815zm-3.74055 45.9166l-3.15591 -86.3788 -3.15473 86.3883 6.31063 -0.00944883z"/>
  <path class="fil4" d="M1050.24 986.513c11.2217,-12.4122 9.75355,-24.3461 21.841,-33.8032 -11.4012,5.63504 -11.0421,19.2012 -24.0118,31.3866zm-21.0307 40.9949l30.1441 -81.0154 -35.9752 78.6001 5.83111 2.41536z"/>
  <path class="fil4" d="M1062.59 999.402c15.1146,-7.16693 18.3319,-18.7488 33.1146,-22.8579 -12.691,0.827953 -17.5488,13.5012 -34.1977,19.7929zm-35.1177 29.8252l58.8508 -63.3107 -63.3107 58.8591 4.45985 4.45158z"/>
  <path class="fil2" d="M1026.42 1029.83l114.437 -52.5213c0,0 2.18977,-0.901182 1.58622,-2.36221 -0.604725,-1.46102 -2.78504,-0.558662 -2.78504,-0.558662l-118.07 43.78zm44.5276 1.2626c17.4059,0.638977 26.9764,-10.0701 42.5174,-8.67166 15.5386,1.39606 24.3284,-7.13977 30.3756,-9.11457 6.04016,-1.98189 9.65316,2.13662 10.5177,0.362599 0.859843,-1.77756 -3.91063,-5.67048 -12.5079,-4.40079 -8.59135,1.27087 -11.1437,7.78819 -30.1252,6.25512 -18.9839,-1.53189 -23.4095,7.77166 -40.7244,5.50867l-0.0531496 10.0606z"/>
  <path class="fil3" d="M1025.65 1028.15l40.4894 -18.5823 0.264567 -2.03032c1.22835,0.16063 2.38937,0.258662 3.49488,0.304725l63.6993 -29.2347 -111.37 41.2949 -1.2874 -3.47244 118.07 -43.78 0.0011811 0.00354331c0.437008,-0.167717 3.90118,-1.39252 5.13544,1.58977 1.30394,3.15709 -2.59725,4.7752 -2.60669,4.77874l-58.4882 26.8429c0.794883,-0.249213 1.58268,-0.507874 2.37638,-0.767717 5.78504,-1.89803 11.8051,-3.87284 21.6059,-3.08268 12.0567,0.97441 17.191,-1.41851 21.6626,-3.50197 2.52638,-1.17638 4.86378,-2.26654 8.04922,-2.73662 4.72796,-0.698032 8.46497,0.0590552 10.9004,1.23543 1.03465,0.500788 1.86851,1.0937 2.47323,1.70079 0.748819,0.757087 1.19882,1.59095 1.31811,2.3941 0.0885827,0.592914 0.00472441,1.16811 -0.251575,1.70197 -1.07599,2.21221 -2.52402,1.71969 -4.7504,0.96378 -1.57205,-0.53504 -3.92126,-1.33347 -6.85985,-0.368504 -1.46339,0.477166 -3.22914,1.45158 -5.25827,2.57008 -5.91378,3.26339 -13.9417,7.69016 -25.8484,6.62126 -7.37481,-0.662599 -13.474,1.60512 -19.8012,3.95906 -6.66615,2.48032 -13.578,5.05158 -22.6217,4.71969l0.129921 -3.68977c8.31969,0.304725 14.8784,-2.13425 21.2043,-4.48819 6.7252,-2.50158 13.2106,-4.91339 21.4075,-4.17638 10.7776,0.967324 18.248,-3.15118 23.7484,-6.18662 2.19095,-1.20827 4.09725,-2.25945 5.89607,-2.84646 1.15512,-0.379134 2.22638,-0.569292 3.21496,-0.63189 -1.2874,-0.0980316 -2.74607,-0.0555119 -4.36536,0.183071 -2.63858,0.388583 -4.74567,1.37126 -7.02166,2.43189 -4.88268,2.27599 -10.4894,4.88859 -23.5169,3.83504 -9.07324,-0.732284 -14.7319,1.12559 -20.1721,2.91024 -4.79646,1.57205 -9.43465,3.09449 -15.9414,2.95158l-43.4481 19.9406 -1.53307 -3.3567zm114.516 -52.5579c0,0 0.199606,0.0874016 0.364961,0.127559 0.0755906,-0.115748 0.154725,-0.185433 0.200788,-0.0732284l3.41575 -1.40315m-3.61654 1.47638c0.133465,0.0318898 0.244488,0.0318898 0.200788,-0.0732284m0.809056 3.37559l-0.687402 -1.71496 -0.497244 -1.24134 -0.190158 -0.473622"/>
  <path class="fil2" d="M1024 1030.32l125.83 -4.74095c0,0 2.36339,0.00708662 2.37284,-1.57795 0,-1.57795 -2.37284,-1.57795 -2.37284,-1.57795l-125.83 -4.73032zm40.6607 18.1961c15.8268,7.25788 28.7717,1.02992 42.5894,8.26654 13.8272,7.2378 25.2118,2.71299 31.5567,3.19961 6.34607,0.478347 8.10473,5.67048 9.58111,4.36418 1.47047,-1.31811 -1.45158,-6.73347 -9.87757,-8.85119 -8.41772,-2.1189 -13.278,2.92796 -30.2244,-5.75079 -16.9524,-8.68111 -24.5977,-1.77638 -39.7217,-10.5012l-3.90355 9.27284z"/>
  <path class="fil3" d="M1023.94 1028.47l44.5252 -1.67717 1.02284 -1.77992c1.0748,0.620079 2.11063,1.15748 3.11693,1.62402l70.0725 -2.64095 -118.737 -4.46339 0.129921 -3.68977 125.765 4.72796 0 -0.00590552c0.011811,0 4.22481,0 4.22481,3.43229 0,3.44882 -4.21181,3.42992 -4.22363,3.42992l0 -0.00590552 -64.3087 2.42362c0.820867,0.0732284 1.63937,0.134646 2.46378,0.197244 6.06378,0.459449 12.3768,0.938977 21.1406,5.42481 10.761,5.51221 16.4209,5.26654 21.352,5.05276 2.79095,-0.120473 5.37402,-0.232677 8.48032,0.549213 4.6252,1.16102 7.78465,3.28347 9.58702,5.30079l0.00708662 0c0.761812,0.853938 1.30984,1.72441 1.64055,2.52756 0.4063,0.987402 0.504331,1.92874 0.305906,2.71654l-0.0011811 0c-0.146457,0.582284 -0.441733,1.08071 -0.879922,1.47284l-0.00826772 0.00708662c-1.83425,1.62402 -2.98229,0.620079 -4.74922,-0.933072l0.00354331 -0.00354331c-1.24606,-1.09488 -3.10984,-2.72835 -6.19489,-2.95984 -1.54606,-0.11811 -3.54567,0.105118 -5.8441,0.362599 -6.71457,0.753544 -15.828,1.77638 -26.4307,-3.77362 -6.55158,-3.43111 -13.05,-3.67087 -19.7929,-3.91772 -7.1067,-0.259843 -14.4756,-0.531496 -22.7067,-4.30512l1.53307 -3.3567c7.5626,3.46654 14.5559,3.7252 21.3036,3.97205 7.16812,0.262205 14.0799,0.517323 21.3709,4.33583 9.59292,5.02205 18.0721,4.07008 24.3166,3.36969 2.48622,-0.277559 4.65,-0.519685 6.52441,-0.376772 1.20709,0.0897638 2.26536,0.322441 3.19961,0.640158 -1.14685,-0.578741 -2.50394,-1.09488 -4.08189,-1.49055 -2.60669,-0.655512 -4.92166,-0.555119 -7.42442,-0.447638 -5.37993,0.233858 -11.5595,0.501969 -23.1898,-5.4567 -8.08229,-4.13622 -14.0268,-4.58859 -19.7351,-5.02087 -5.03268,-0.381496 -9.89765,-0.751182 -15.8516,-3.37323l-47.7957 1.80118 -0.129921 -3.68977zm126.2 -4.47284c0.113386,0.0826772 0.21378,0.122835 0.21378,0 0,-0.121654 -0.100394,-0.0814961 -0.21378,0z"/>
  <path class="fil2" d="M1021.58 1029.83l118.061 43.78c0,0 2.18858,0.911812 2.79449,-0.549213 0.603544,-1.45984 -1.58622,-2.36221 -1.58622,-2.36221l-114.437 -52.5307zm30.5929 32.3764c11.8606,12.7536 26.1921,11.9539 36.1973,23.9315 9.99686,11.9776 22.2461,12.1606 27.9248,15.0354 5.67048,2.87481 5.31615,8.34686 7.17402,7.69843 1.86732,-0.650788 1.24488,-6.77953 -5.73189,-11.9622 -6.96851,-5.17323 -13.3854,-2.37047 -25.7256,-16.8744 -12.3378,-14.5039 -22.037,-11.0599 -32.6835,-24.9059l-7.15512 7.07717z"/>
  <path class="fil3" d="M1022.23 1028.09l41.7839 15.4937 1.61457 -1.24606c0.752363,0.979135 1.50118,1.86732 2.24764,2.67874l65.6445 24.3425 -107.869 -49.5166 1.53307 -3.3567 114.357 52.4941c0.00944883,0.00354331 3.90945,1.62284 2.60788,4.77874l0 0.00708662c-1.23662,2.97992 -4.70552,1.74331 -5.14252,1.57323l-0.0011811 0.00354331 -60.404 -22.3984c0.729922,0.381496 1.46102,0.751182 2.19803,1.12441 5.42717,2.74607 11.074,5.60552 17.4543,13.1067 7.83426,9.2067 13.161,11.1473 17.798,12.835 2.62087,0.95315 5.04567,1.8378 7.62284,3.75 3.84449,2.85591 5.95276,6.03426 6.83977,8.59016l0 0.00708662c0.375591,1.08307 0.544489,2.08701 0.542126,2.93858 -0.00354331,1.06772 -0.277559,1.97599 -0.759449,2.62441 -0.356693,0.48189 -0.825591,0.83504 -1.38307,1.02756l0.0011811 0.00236221c-2.31378,0.806694 -2.99055,-0.561024 -4.02992,-2.67756l-0.00236221 0.0011811c-0.733465,-1.49173 -1.83071,-3.72284 -4.58268,-5.1189 -1.39488,-0.705119 -3.31299,-1.25906 -5.51693,-1.89449 -6.50315,-1.87559 -15.3343,-4.42559 -22.9925,-13.6016 -4.75394,-5.68937 -10.6665,-8.39764 -16.8,-11.2051 -6.4689,-2.96103 -13.1764,-6.03308 -19.3358,-12.6543l2.70709 -2.51811c5.67048,6.09686 12.0307,9.00946 18.1618,11.8158 6.53268,2.98937 12.828,5.87363 18.104,12.1878 6.94843,8.32678 15.1382,10.6902 21.1689,12.4299 2.41181,0.69567 4.50945,1.30039 6.1689,2.14016 1.09134,0.553937 1.98898,1.18228 2.73425,1.8437 -0.843308,-0.98504 -1.9063,-1.99252 -3.22441,-2.97166 -2.14725,-1.59331 -4.32638,-2.38701 -6.68268,-3.24449 -5.05985,-1.84252 -10.8732,-3.95906 -19.3477,-13.9193 -5.88189,-6.91536 -11.2004,-9.60946 -16.311,-12.1949 -4.50473,-2.28071 -8.86182,-4.48701 -13.3583,-9.18072l-44.8335 -16.6252 1.2874 -3.47244zm118.305 44.191c0.0755906,0.112205 0.152362,0.177165 0.198425,0.0673229l0.00236221 0.0011811c0.0366142,-0.0992127 -0.0696851,-0.0992127 -0.200788,-0.068504z"/>
  <path class="fil2" d="M1019.54 1028.47l92.3186 85.6229c0,0 1.67717,1.67717 2.79449,0.558662 1.10906,-1.11732 -0.558662,-2.78622 -0.558662,-2.78622l-85.6288 -92.328zm15.8799 41.6185c6.06615,16.324 19.6228,21.0721 24.274,35.9622 4.65945,14.902 15.9083,19.7504 20.0457,24.5729 4.14685,4.83189 1.72323,9.74528 3.6874,9.86103 1.97599,0.116929 3.74055,-5.78504 -0.720473,-13.2413 -4.45276,-7.45394 -11.4567,-7.30985 -17.3055,-25.4351 -5.85119,-18.1288 -16.1362,-18.6496 -20.6681,-35.5146l-9.313 3.79488z"/>
  <path class="fil3" d="M1020.8 1027.12l32.6622 30.2929 1.98307 -0.529134c0.32126,1.19646 0.67441,2.30788 1.05473,3.34725l51.3591 47.6327 -80.7497 -87.0627 2.70709 -2.51811 85.5863 92.2761 0.0011811 -0.0011811c0.00826772,0.00826772 2.96811,2.97166 0.558662,5.39882l-0.00708662 0.00708662c-2.42481,2.42008 -5.39882,-0.551575 -5.40709,-0.559843l0.0011811 -0.0011811 -47.1756 -43.7552c0.526772,0.629528 1.06063,1.25079 1.59685,1.87559 3.96378,4.61575 8.09174,9.42048 11.113,18.789 3.71339,11.5075 7.88741,15.3331 11.5193,18.6614 2.06221,1.88977 3.97205,3.63898 5.61496,6.39213 2.46142,4.11142 3.19016,7.85906 3.03071,10.5614 -0.068504,1.14685 -0.296457,2.1378 -0.623623,2.92087 -0.409843,0.980316 -1.00748,1.71142 -1.70788,2.12953 -0.516142,0.309449 -1.08189,0.457087 -1.67244,0.421654 -2.44725,-0.144095 -2.55,-1.66772 -2.7,-4.02048 -0.106299,-1.65709 -0.266929,-4.13386 -2.28189,-6.48308 -0.996851,-1.16221 -2.56654,-2.41418 -4.37244,-3.85512 -5.28426,-4.21536 -12.4654,-9.94371 -16.037,-21.3673 -2.20512,-7.063 -6.63308,-11.8299 -11.2264,-16.7728 -4.8378,-5.2063 -9.85394,-10.6063 -13.0099,-19.1008l3.45827 -1.2874c2.89488,7.79174 7.66182,12.9225 12.2587,17.8701 4.88622,5.25945 9.59646,10.3287 12.0508,18.1902 3.23386,10.3429 9.90001,15.6614 14.8063,19.5744 1.95236,1.55669 3.64961,2.9126 4.88032,4.34646 0.791339,0.922442 1.37717,1.83898 1.81299,2.72953 -0.401575,-1.22717 -0.996851,-2.55827 -1.83662,-3.96024 -1.37835,-2.30906 -3.08859,-3.87638 -4.93465,-5.56772 -3.97205,-3.64016 -8.53583,-7.82245 -12.5469,-20.2536 -2.78977,-8.6504 -6.67323,-13.1717 -10.4043,-17.5158 -3.28937,-3.82796 -6.4689,-7.5319 -8.8252,-13.5862l-35.0551 -32.5122 2.51811 -2.70709zm92.4001 86.0823c0.0236221,0.126378 0.0673229,0.216142 0.142913,0.148819 0.0826772,-0.0838583 -0.0106299,-0.126378 -0.142913,-0.148819z"/>
  <path class="fil4" d="M1069.06 1016.04c16.7126,-0.839764 24.1122,-10.3122 39.3449,-8.44607 -12.0425,-4.09252 -21.3792,5.76024 -39.1725,5.20158zm-43.8508 14.1236l78.5977 -35.974 -81.0142 30.1406 2.41654 5.83347z"/>
  <path class="fil4" d="M1068.67 1033.9c15.7654,5.61496 26.2323,-0.307087 39.5894,7.24725 -9.56339,-8.38347 -21.9579,-2.85827 -38.1815,-10.1858zm-45.9166 -3.74055l86.3788 -3.15591 -86.3883 -3.15473 0.00944883 6.31063z"/>
  <path class="fil4" d="M1061.49 1050.24c12.411,11.2205 24.3461,9.75355 33.802,21.8398 -5.63504,-11.4012 -19.2012,-11.041 -31.3866,-24.0118zm-40.9949 -21.0307l81.0166 30.1429 -78.6012 -35.974 -2.41536 5.83111z"/>
  <path class="fil4" d="M1048.6 1062.59c7.16812,15.1146 18.7488,18.3343 22.8579,33.1158 -0.827953,-12.691 -13.5012,-17.5488 -19.7929,-34.1977zm-29.824 -35.1177l63.3107 58.8508 -58.8603 -63.3107 -4.4504 4.45985z"/>
  <path class="fil2" d="M1075.28 1024c0,28.3205 -22.9606,51.28 -51.28,51.28 -28.3193,0 -51.28,-22.9595 -51.28,-51.28 0,-28.3193 22.9606,-51.2788 51.28,-51.2788 28.3205,-0.0011811 51.28,22.9595 51.28,51.2788z"/>
  <path class="fil5" d="M1041.48 1013.03c-3.49725,0 -6.85276,1.52362 -8.8252,4.67717 3.94843,3.55158 12.6543,3.93307 18.5776,-0.402756 -2.56063,-2.76024 -6.24567,-4.27441 -9.75237,-4.27441zm-0.0543308 0.812599c3.4063,-0.0649607 6.59764,1.50473 7.04056,3.05551 -3.94843,4.3441 -10.2496,3.96614 -14.198,0.809056 1.7315,-2.7567 4.50709,-3.82087 7.15749,-3.86457z"/>
  <path class="fil4" d="M1042.14 1010.6c-5.1189,0 -6.30945,1.19055 -8.67875,3.15709 -2.36221,1.97244 -3.54449,1.57559 -3.93898,1.97244 -0.396851,0.396851 0,1.57914 0.78189,1.18228 0.794883,-0.398032 2.37166,-1.18228 4.73268,-3.15473 2.37284,-1.9748 4.73268,-1.9748 7.10316,-1.9748 7.10316,0 11.041,5.92323 11.8347,5.52638 0.785434,-0.396851 -3.94725,-6.70749 -11.8347,-6.70867z"/>
  <path class="fil4" d="M1056.34 1012.96c-9.06851,-7.88741 -20.5075,-9.06851 -26.8252,-3.15473 -1.54134,2.07284 -2.53347,4.2815 -2.93977,6.58819 -0.79252,4.49764 0.614174,9.34725 4.12914,14.3221 -0.398032,0 -1.18937,0.388583 -1.57677,0.785434 -3.13819,-5.98701 -4.24607,-12.1417 -3.21851,-17.9917 0.269292,-1.52362 0.694489,-3.02717 1.23425,-4.48819 8.68111,-7.10316 20.5158,-7.89686 29.1969,3.93898z"/>
  <path class="fil4" d="M1044.9 1016.9c0,1.95709 -1.5874,3.54213 -3.54449,3.54213 -1.96299,0 -3.5504,-1.58504 -3.5504,-3.54213 0,-1.96654 1.5874,-3.55158 3.5504,-3.55158 1.95827,0 3.54449,1.58504 3.54449,3.55158z"/>
  <path class="fil4" d="M1051.62 1019.28c-6.7063,5.12953 -13.4138,4.73268 -17.3622,2.36339 -3.93898,-2.36339 -3.93898,-3.15709 -3.15473,-3.15709 0.785434,0 1.57795,0.793701 4.73268,2.37166 3.15473,1.57559 7.88741,1.57677 15.7843,-1.57795z"/>
  <path class="fil4" d="M1016.16 1031.08c-1.6878,0.316536 -2.88544,1.81181 -2.88544,3.52559 0,1.95473 1.61339,3.51496 3.56811,3.51496 1.16221,0 2.22638,-0.549213 2.88425,-1.49528 1.37008,1.02638 3.26457,1.13504 4.27323,1.15394 0.152362,0 0.360236,0 0.459449,0 1.00984,-0.0188977 2.90315,-0.127559 4.27323,-1.15394 0.667323,0.946064 1.72087,1.49528 2.88425,1.49528 1.95473,0 3.57874,-1.56024 3.57874,-3.51496 0,-1.71378 -1.2,-3.20906 -2.88425,-3.52559 0.946064,0.334252 1.54843,1.25315 1.54843,2.25473 0,1.3063 -1.05473,2.35984 -2.36103,2.35984 -1.25197,0 -2.2878,-0.989765 -2.35984,-2.24292 -0.387402,0.766536 -1.91339,3.05551 -4.90394,3.17362 -3.00236,-0.11811 -4.52481,-2.40709 -4.90276,-3.17362 -0.0838583,1.25315 -1.11024,2.24292 -2.37284,2.24292 -1.30512,0 -2.35984,-1.05354 -2.35984,-2.35984 0,-1.00158 0.611811,-1.91103 1.56024,-2.25473z"/>
  <path class="fil4" d="M1020.01 1041.59c-3.94488,0 -5.5063,3.56929 -9.0567,5.93977 1.97244,-0.784253 3.52323,-2.34213 6.28111,-3.92008 2.76851,-1.57914 5.12008,0.341339 6.69804,0.341339l0.0531496 -0.0011811c1.57914,0 3.92953,-1.91929 6.69567,-0.340158 2.76142,1.57795 4.37363,3.13583 6.34607,3.92008 -3.5504,-2.37047 -5.17323,-5.93977 -9.12048,-5.93977 -0.785434,0 -2.34213,0.425197 -3.92126,1.20709l-0.0531496 0c-1.57795,-0.78189 -3.13819,-1.20709 -3.92244,-1.20709z"/>
  <path class="fil4" d="M1018.68 1046.26c-1.55788,0.0744095 -3.61418,0.379134 -6.5693,1.27205 7.10197,-1.57559 8.66221,0.80315 11.8252,0.80315l0.0531496 0c3.15473,0 4.72323,-2.37874 11.8264,-0.80315 -7.88741,-2.37047 -9.45591,-0.810237 -11.8264,-0.810237l-0.0531496 0c-1.48819,0 -2.65984,-0.576378 -5.25591,-0.461811z"/>
  <path class="fil4" d="M1012.46 1047.48c-0.459449,0.00944883 -0.955513,0.00944883 -1.49528,0.0531496 8.28072,0.793701 4.29803,5.54528 12.9791,5.54528l0.0531496 0c8.68111,0 4.75158,-4.75158 13.0323,-5.54528 -8.66812,-0.784253 -5.93032,4.32638 -13.0323,4.32638l-0.0531496 0c-6.66142,0 -4.61457,-4.45985 -11.4839,-4.37953z"/>
  <path class="fil4" d="M1031.1 1060.29c0,-3.92363 -3.17362,-7.09607 -7.09371,-7.09607 -3.92008,0 -7.10197,3.17362 -7.10197,7.09607 0.784253,-3.28229 3.72166,-5.60788 7.10197,-5.60788 3.38032,0 6.31772,2.32559 7.09371,5.60788z"/>
  <path class="fil4" d="M992.12 1012.96c9.0756,-7.88741 20.504,-9.06851 26.824,-3.15473 1.54134,2.07284 2.53229,4.2815 2.9374,6.58819 0.794883,4.49764 -0.603544,9.34725 -4.12796,14.3221 0.398032,0 1.19055,0.388583 1.58622,0.785434 3.12874,-5.98701 4.23662,-12.1417 3.20906,-17.9917 -0.269292,-1.52362 -0.694489,-3.02717 -1.23425,-4.48819 -8.67993,-7.10316 -20.5158,-7.89686 -29.1945,3.93898z"/>
  <path class="fil4" d="M1006.32 1010.6c5.12953,0 6.30827,1.19055 8.68111,3.15709 2.36929,1.97244 3.55158,1.57559 3.9378,1.97244 0.398032,0.396851 0,1.57914 -0.784253,1.18228 -0.784253,-0.398032 -2.36929,-1.18228 -4.7315,-3.15473 -2.37047,-1.9748 -4.73386,-1.9748 -7.10316,-1.9748 -7.09253,0 -11.041,5.92323 -11.8264,5.52638 -0.793701,-0.396851 3.93898,-6.70749 11.8264,-6.70867z"/>
  <path class="fil5" d="M1006.07 1013.03c-3.49607,0 -6.84804,1.52362 -8.82402,4.67717 3.94843,3.55158 12.6567,3.93307 18.5776,-0.402756 -2.56772,-2.76024 -6.24686,-4.27441 -9.75355,-4.27441zm-0.0531496 0.812599c3.40866,-0.0649607 6.58938,1.50473 7.03938,3.05551 -3.94725,4.3441 -10.2496,3.96614 -14.1969,0.809056 1.73032,-2.7567 4.50827,-3.82087 7.15749,-3.86457z"/>
  <path class="fil4" d="M1010.08 1016.9c0,1.95709 -1.58858,3.54213 -3.54213,3.54213 -1.96654,0 -3.55158,-1.58504 -3.55158,-3.54213 0,-1.96654 1.58504,-3.55158 3.55158,-3.55158 1.95354,0 3.54095,1.58504 3.54213,3.55158z"/>
  <path class="fil4" d="M996.841 1019.28c6.70749,5.12953 13.4138,4.73268 17.3622,2.36339 3.93898,-2.36339 3.93898,-3.15709 3.15355,-3.15709 -0.783071,0 -1.57559,0.793701 -4.73268,2.37166 -3.15355,1.57559 -7.88623,1.57677 -15.7831,-1.57795z"/>
 </g>
 <rect class="fil6" width="2048" height="2048"/>
</svg>
