<?xml version="1.0" encoding="UTF-8"?>
<!DOCTYPE svg PUBLIC "-//W3C//DTD SVG 1.1//EN" "http://www.w3.org/Graphics/SVG/1.1/DTD/svg11.dtd">
<!-- Creator: CorelDRAW -->
<svg xmlns="http://www.w3.org/2000/svg" xml:space="preserve" width="2048px" height="2048px" style="shape-rendering:geometricPrecision; text-rendering:geometricPrecision; image-rendering:optimizeQuality; fill-rule:evenodd; clip-rule:evenodd"
viewBox="0 0 2048 2048"
 xmlns:xlink="http://www.w3.org/1999/xlink">
 <defs>
  <style type="text/css">
   <![CDATA[
    .fil4 {fill:none}
    .fil0 {fill:darkblue}
    .fil3 {fill:#FAFAFA}
    .fil2 {fill:#E1464A;fill-rule:nonzero}
    .fil1 {fill:#FAFAFA;fill-rule:nonzero}
   ]]>
  </style>
 </defs>
 <g id="Layer_x0020_1">
  <metadata id="CorelCorpID_0Corel-Layer"/>
  <rect class="fil0" x="255.999" y="562.744" width="1536" height="922.513"/>
  <polygon class="fil1" points="255.999,693.171 421.132,693.171 255.999,610.308 255.999,562.744 350.485,562.744 581.478,677.891 581.478,562.744 711.565,562.744 711.565,677.891 942.584,562.744 1037.88,562.744 1037.88,610.308 871.928,693.171 1037.88,693.171 1037.88,823.703 871.928,823.703 1037.88,906.553 1037.88,954.152 942.584,954.152 711.565,838.992 711.565,954.152 581.478,954.152 581.478,838.992 350.485,954.152 255.999,954.152 255.999,906.553 421.132,823.703 255.999,823.703 "/>
  <polygon class="fil2" points="976.415,562.746 715.437,693.265 777.915,693.265 1037.88,562.746 "/>
  <polygon class="fil2" points="1037.87,954.15 777.632,823.697 840.377,823.697 1037.87,923.046 "/>
  <polygon class="fil2" points="517.476,693.265 255.999,562.746 255.999,593.915 454.455,693.265 "/>
  <polygon class="fil2" points="516.937,823.699 255.999,954.152 318.437,954.152 579.415,823.699 "/>
  <polygon class="fil2" points="255.999,720.252 609.202,720.252 609.202,562.744 685.636,562.744 685.636,720.252 1037.88,720.252 1037.88,796.687 685.636,796.687 685.636,954.142 609.202,954.142 609.202,796.687 255.999,796.687 "/>
  <polygon class="fil3" points="776.111,1261.48 716.278,1225.88 754.725,1167.81 689.584,1192.53 668.032,1126.04 646.883,1192.53 581.576,1167.81 620.19,1225.88 560.191,1261.48 629.739,1267.52 620.19,1336.55 668.032,1286.05 716.278,1336.55 706.728,1267.52 "/>
  <polygon class="fil3" points="1424.46,1312.94 1457.7,1310.09 1429.2,1293.16 1447.48,1265.48 1416.46,1277.19 1406.1,1245.56 1396.13,1277.19 1365.11,1265.48 1383.41,1293.16 1354.91,1310.09 1387.97,1312.94 1383.41,1345.81 1406.1,1321.72 1429.2,1345.81 "/>
  <polygon class="fil3" points="1273.11,1017.91 1244.62,1000.98 1262.91,973.223 1231.88,985.025 1221.77,953.426 1211.56,985.025 1180.53,973.223 1198.83,1000.98 1170.33,1017.91 1203.4,1020.7 1198.83,1053.64 1221.77,1029.55 1244.62,1053.64 1240.05,1020.7 "/>
  <polygon class="fil3" points="1493.12,1087.23 1509.28,1073.52 1488.15,1071.97 1480.05,1052.25 1472.06,1071.97 1450.84,1073.52 1467.08,1087.23 1462.1,1107.92 1480.05,1096.66 1498.1,1107.92 "/>
  <polygon class="fil3" points="1588.56,971.553 1621.78,968.615 1593.13,951.755 1611.65,924.077 1580.39,935.831 1570.35,904.244 1560.23,935.831 1529.2,924.077 1547.49,951.755 1518.92,968.615 1552.07,971.553 1547.49,1004.49 1570.35,980.368 1593.29,1004.49 "/>
  <polygon class="fil3" points="1457.7,817.99 1429.2,801.011 1447.48,773.417 1416.46,785.135 1406.1,753.501 1396.13,785.135 1365.11,773.417 1383.41,801.011 1354.91,817.99 1387.97,820.893 1383.41,853.712 1406.1,829.707 1429.2,853.712 1424.46,820.893 "/>
 </g>
 <rect class="fil4" width="2048" height="2048"/>
</svg>
