<?xml version="1.0" encoding="UTF-8"?>
<!DOCTYPE svg PUBLIC "-//W3C//DTD SVG 1.1//EN" "http://www.w3.org/Graphics/SVG/1.1/DTD/svg11.dtd">
<!-- Creator: CorelDRAW -->
<svg xmlns="http://www.w3.org/2000/svg" xml:space="preserve" width="2048px" height="2048px" style="shape-rendering:geometricPrecision; text-rendering:geometricPrecision; image-rendering:optimizeQuality; fill-rule:evenodd; clip-rule:evenodd"
viewBox="0 0 2048 2048"
 xmlns:xlink="http://www.w3.org/1999/xlink">
 <defs>
  <style type="text/css">
   <![CDATA[
    .fil6 {fill:none}
    .fil2 {fill:#005EAC}
    .fil0 {fill:#009B3A}
    .fil5 {fill:#231F20}
    .fil4 {fill:#F7FAFD}
    .fil1 {fill:#FFE52B}
    .fil3 {fill:white}
   ]]>
  </style>
 </defs>
 <g id="Layer_x0020_1">
  <metadata id="CorelCorpID_0Corel-Layer"/>
  <rect class="fil0" x="256" y="562.5" width="1536" height="923"/>
  <rect class="fil1" transform="matrix(1.24455 -0.707107 1.24455 0.707107 407.947 1024)" width="495.002" height="495.002"/>
  <g id="_362417616">
   <path id="_362420760" class="fil2" d="M1247.07 1024c0,123.247 -99.8753,223.151 -223.074,223.151 -123.2,0 -223.075,-99.9036 -223.075,-223.149 0,-123.241 99.8753,-223.149 223.075,-223.149 123.2,0 223.074,99.9083 223.074,223.148z"/>
   <path id="_362420112" class="fil3" d="M1246.04 1061.92l-9.37914 35.8843c0,0 -149.667,-160.012 -431.412,-126.812l12.8043 -37.2933c0,0 249.245,-41.2323 427.987,128.221z"/>
   <polygon id="_362420256" class="fil4" points="1095.85,945.464 1098.04,952.36 1105.12,952.36 1099.39,956.623 1101.58,963.519 1095.85,959.258 1090.12,963.519 1092.31,956.623 1086.57,952.36 1093.66,952.36 "/>
   <polygon id="_362420616" class="fil4" points="1184.07,1094.64 1186.26,1101.53 1193.34,1101.53 1187.61,1105.79 1189.8,1112.69 1184.07,1108.43 1178.33,1112.69 1180.53,1105.79 1174.8,1101.53 1181.88,1101.53 "/>
   <polygon id="_362419776" class="fil4" points="1029.59,1115.38 1031.78,1122.27 1038.87,1122.27 1033.13,1126.54 1035.33,1133.43 1029.59,1129.17 1023.86,1133.43 1026.06,1126.54 1020.32,1122.27 1027.41,1122.27 "/>
   <polygon id="_362419608" class="fil4" points="1145.86,1159.97 1147.71,1165.79 1153.68,1165.79 1148.85,1169.38 1150.7,1175.2 1145.86,1171.6 1141.03,1175.2 1142.88,1169.38 1138.05,1165.79 1144.02,1165.79 "/>
   <polygon id="_362419320" class="fil4" points="1177.68,1129.26 1179.53,1135.07 1185.5,1135.07 1180.66,1138.67 1182.51,1144.48 1177.68,1140.89 1172.85,1144.48 1174.69,1138.67 1169.86,1135.07 1175.83,1135.07 "/>
   <polygon id="_362419368" class="fil4" points="1187.77,1116.56 1189.62,1122.38 1195.59,1122.38 1190.76,1125.97 1192.6,1131.79 1187.77,1128.19 1182.94,1131.79 1184.78,1125.97 1179.95,1122.38 1185.93,1122.38 "/>
   <polygon id="_362419968" class="fil4" points="1083.77,1009.46 1085.3,1014.3 1090.28,1014.3 1086.25,1017.3 1087.79,1022.14 1083.77,1019.15 1079.74,1022.14 1081.28,1017.3 1077.26,1014.3 1082.22,1014.3 "/>
   <polygon id="_362419560" class="fil4" points="1026.44,1049.4 1028.21,1055.06 1033.95,1055.06 1029.3,1058.56 1031.09,1064.22 1026.44,1060.72 1021.79,1064.22 1023.56,1058.56 1018.92,1055.06 1024.66,1055.06 "/>
   <polygon id="_362419704" class="fil4" points="945.927,1024.35 947.705,1030.01 953.439,1030.01 948.793,1033.51 950.572,1039.17 945.927,1035.67 941.285,1039.17 943.06,1033.51 938.414,1030.01 944.147,1030.01 "/>
   <polygon id="_362419944" class="fil4" points="863.672,1065.84 865.909,1073.05 873.131,1073.05 867.276,1077.5 869.522,1084.71 863.672,1080.25 857.822,1084.71 860.059,1077.5 854.206,1073.05 861.426,1073.05 "/>
   <polygon id="_362420040" class="fil4" points="842.43,972.861 844.668,980.067 851.888,980.067 846.038,984.522 848.28,991.732 842.43,987.276 836.58,991.732 838.817,984.522 832.968,980.067 840.188,980.067 "/>
   <polygon id="_362419488" class="fil4" points="941.71,1134.71 943.881,1141.6 950.902,1141.6 945.215,1145.87 947.394,1152.77 941.71,1148.51 936.022,1152.77 938.198,1145.87 932.506,1141.6 939.531,1141.6 "/>
   <polygon id="_362418720" class="fil4" points="1053.1,1072.96 1054.88,1078.62 1060.61,1078.62 1055.96,1082.12 1057.75,1087.78 1053.1,1084.28 1048.46,1087.78 1050.23,1082.12 1045.58,1078.62 1051.32,1078.62 "/>
   <polygon id="_362419080" class="fil4" points="1098.88,1171.55 1100.42,1176.38 1105.39,1176.38 1101.36,1179.38 1102.9,1184.22 1098.88,1181.23 1094.85,1184.22 1096.39,1179.38 1092.37,1176.38 1097.34,1176.38 "/>
   <polygon id="_362418600" class="fil4" points="1112.45,1140.8 1113.99,1145.63 1118.96,1145.63 1114.93,1148.63 1116.48,1153.47 1112.45,1150.48 1108.43,1153.47 1109.96,1148.63 1105.94,1145.63 1110.91,1145.63 "/>
   <polygon id="_362418888" class="fil4" points="1006.48,1072.07 1008.02,1076.9 1012.99,1076.9 1008.96,1079.9 1010.51,1084.74 1006.48,1081.75 1002.46,1084.74 1004,1079.9 999.973,1076.9 1004.94,1076.9 "/>
   <polygon id="_362419272" class="fil4" points="885.06,1055.59 886.339,1059.7 890.463,1059.7 887.122,1062.24 888.406,1066.36 885.06,1063.81 881.727,1066.36 883.001,1062.24 879.66,1059.7 883.784,1059.7 "/>
   <polygon id="_362419248" class="fil4" points="1145.78,1140.8 1147.32,1145.63 1152.29,1145.63 1148.27,1148.63 1149.81,1153.47 1145.78,1150.48 1141.76,1153.47 1143.3,1148.63 1139.27,1145.63 1144.24,1145.63 "/>
   <polygon id="_362418840" class="fil4" points="1145.8,1178.75 1147.14,1182.96 1151.46,1182.96 1147.96,1185.57 1149.3,1189.78 1145.8,1187.18 1142.3,1189.78 1143.64,1185.57 1140.14,1182.96 1144.46,1182.96 "/>
   <polygon id="_362419008" class="fil4" points="908.781,1087.3 910.51,1092.89 916.106,1092.89 911.577,1096.34 913.309,1101.93 908.781,1098.48 904.247,1101.93 905.976,1096.34 901.448,1092.89 907.044,1092.89 "/>
   <polygon id="_362418960" class="fil4" points="835.439,1087.3 837.167,1092.89 842.763,1092.89 838.235,1096.34 839.968,1101.93 835.439,1098.48 830.905,1101.93 832.634,1096.34 828.106,1092.89 833.702,1092.89 "/>
   <polygon id="_362419104" class="fil4" points="1022.29,1090 1023.64,1094.21 1027.96,1094.21 1024.46,1096.82 1025.79,1101.03 1022.29,1098.43 1018.79,1101.03 1020.13,1096.82 1016.63,1094.21 1020.95,1094.21 "/>
   <polygon id="_362419128" class="fil4" points="902.831,1116.7 904.168,1120.9 908.489,1120.9 904.988,1123.51 906.33,1127.72 902.831,1125.12 899.326,1127.72 900.664,1123.51 897.167,1120.9 901.489,1120.9 "/>
   <polygon id="_362418504" class="fil4" points="1213.81,1098.92 1215.15,1103.13 1219.47,1103.13 1215.97,1105.74 1217.31,1109.95 1213.81,1107.35 1210.3,1109.95 1211.65,1105.74 1208.15,1103.13 1212.47,1103.13 "/>
   <polygon id="_362418264" class="fil4" points="1162.45,1140.8 1163.99,1145.63 1168.96,1145.63 1164.93,1148.63 1166.48,1153.47 1162.45,1150.48 1158.42,1153.47 1159.96,1148.63 1155.94,1145.63 1160.91,1145.63 "/>
   <polygon id="_362418312" class="fil4" points="1079.98,1139.46 1081.52,1144.3 1086.49,1144.3 1082.46,1147.3 1084,1152.14 1079.98,1149.15 1075.95,1152.14 1077.49,1147.3 1073.47,1144.3 1078.44,1144.3 "/>
   <polygon id="_362418000" class="fil4" points="1028.41,1187.98 1029.13,1190.29 1031.45,1190.29 1029.57,1191.72 1030.29,1194.03 1028.41,1192.6 1026.53,1194.03 1027.25,1191.72 1025.38,1190.29 1027.7,1190.29 "/>
   <path id="_362418024" class="fil5" d="M837.213 948.2c0,-2.02441 0.324803,-3.72756 0.967324,-5.10355 0.483071,-1.01221 1.1374,-1.92402 1.97008,-2.72953 0.830316,-0.805512 1.74213,-1.40197 2.73425,-1.79291 1.31693,-0.52441 2.83347,-0.786615 4.55315,-0.786615 3.11339,-0.0011811 5.60906,0.90945 7.4752,2.72835 1.87087,1.81772 2.80866,4.34882 2.80866,7.59095 0,3.21142 -0.929528,5.72599 -2.7874,7.54134 -1.85433,1.81654 -4.33347,2.72244 -7.43741,2.72244 -3.14528,-0.0011811 -5.64213,-0.902363 -7.49646,-2.70827 -1.85788,-1.80709 -2.7874,-4.29213 -2.7874,-7.46221zm4.3878 -0.137008c0,2.25827 0.553937,3.96733 1.66654,5.13189 1.10433,1.16339 2.51221,1.74449 4.22126,1.74449 1.70433,0 3.10866,-0.575197 4.20355,-1.73032 1.09606,-1.15866 1.64173,-2.8878 1.64173,-5.19685 0,-2.28307 -0.532678,-3.98504 -1.59921,-5.11063 -1.06299,-1.12323 -2.47914,-1.68425 -4.24607,-1.68425 -1.76221,0 -3.1878,0.571654 -4.26733,1.70433 -1.08307,1.1374 -1.62047,2.85236 -1.62047,5.14134z"/>
   <path id="_362418360" class="fil5" d="M1065.47 982.911c0,-2.02441 0.320079,-3.72756 0.961418,-5.10237 0.479528,-1.01339 1.14213,-1.9252 1.97126,-2.73071 0.829134,-0.805512 1.74213,-1.40197 2.73307,-1.79173 1.31693,-0.525591 2.83347,-0.787796 4.55906,-0.787796 3.10866,0 5.60434,0.90945 7.4752,2.72835 1.86614,1.8189 2.80394,4.35 2.80394,7.59095 0,3.2126 -0.929528,5.72717 -2.78386,7.54134 -1.85788,1.81536 -4.33347,2.72362 -7.44095,2.72362 -3.14173,0 -5.64213,-0.903544 -7.49174,-2.70945 -1.8626,-1.80591 -2.7874,-4.29213 -2.7874,-7.46221zm4.37835 -0.135827c0,2.25827 0.558662,3.96733 1.67126,5.13071 1.10433,1.16339 2.51221,1.74567 4.22126,1.74567 1.70788,0 3.11221,-0.576378 4.20355,-1.7315 1.09606,-1.15748 1.64173,-2.88662 1.64173,-5.19567 0,-2.28307 -0.533859,-3.98622 -1.59567,-5.11063 -1.06654,-1.12323 -2.48386,-1.68543 -4.24961,-1.68543 -1.76339,0 -3.1878,0.571654 -4.2626,1.70551 -1.08307,1.13622 -1.62992,2.85236 -1.62992,5.14134z"/>
   <path id="_362417928" class="fil5" d="M865.901 957.654l0 -20.7957 10.5295 0c2.64567,0 4.57441,0.184252 5.77914,0.5563 1.19528,0.37441 2.15433,1.03819 2.87835,1.99016 0.721654,0.956694 1.08425,2.04449 1.08425,3.2752 0,1.55669 -0.54567,2.84646 -1.63347,3.85985 -1.0878,1.01693 -2.71654,1.65473 -4.88386,1.92047 1.07953,0.531496 1.9748,1.11496 2.6752,1.74921 0.700394,0.633071 1.65,1.76102 2.84646,3.38032l3.02481 4.06418 -5.99174 0 -3.6 -4.53071c-1.2874,-1.62284 -2.17087,-2.64449 -2.64567,-3.06378 -0.474804,-0.421654 -0.975591,-0.712205 -1.50827,-0.864568 -0.529134,-0.16063 -1.37599,-0.237402 -2.5252,-0.237402l-1.02047 -0.0011811 0 8.69764 -5.00906 0zm5.00906 -12.0236l3.69922 0c2.40827,0 3.90473,-0.0850394 4.50473,-0.253937 0.591733,-0.168898 1.06181,-0.461811 1.39961,-0.875198 0.341339,-0.415748 0.512599,-0.93189 0.512599,-1.55433 0,-0.700394 -0.225591,-1.26378 -0.670867,-1.68898 -0.45,-0.42874 -1.07126,-0.698032 -1.8874,-0.814961 -0.403937,-0.0472441 -1.62047,-0.0696851 -3.65079,-0.0696851l-3.90709 0 0 5.25709z"/>
   <path id="_362418168" class="fil5" d="M1038.11 980.461l6.54449 -19.741 10.0004 3.31654c2.50394,0.831497 4.27441,1.61575 5.29961,2.34803 1.02165,0.729922 1.72087,1.66181 2.11299,2.79567 0.387402,1.13504 0.382677,2.27953 -0.00472441,3.44764 -0.486615,1.47756 -1.41614,2.52992 -2.76614,3.15 -1.35,0.622441 -3.09567,0.715749 -5.23819,0.287008 0.855119,0.844489 1.52599,1.67835 1.9878,2.5004 0.467717,0.823229 1.01221,2.18858 1.63819,4.10551l1.59095 4.81181 -5.68229 -1.88858 -1.99252 -5.43071c-0.712205,-1.94882 -1.2248,-3.19607 -1.54961,-3.74292 -0.32126,-0.549213 -0.700394,-0.982678 -1.15866,-1.29567 -0.445276,-0.317717 -1.22953,-0.659056 -2.32087,-1.02165l-0.966142 -0.318898 -2.7378 8.25355 -4.75748 -1.57677zm8.54056 -9.83505l3.50906 1.16339c2.28662,0.757087 3.73701,1.15039 4.35709,1.17638 0.617717,0.0259843 1.15039,-0.102756 1.60039,-0.390945 0.458268,-0.284646 0.779528,-0.721654 0.979135,-1.31102 0.217323,-0.666142 0.183071,-1.26969 -0.10748,-1.81536 -0.288189,-0.546851 -0.796064,-1.00158 -1.52953,-1.36772 -0.37441,-0.172441 -1.51654,-0.577559 -3.45,-1.21654l-3.70866 -1.22835 -1.65 4.99016z"/>
   <path id="_362417880" class="fil5" d="M1114.09 1009.68l9.7252 -18.3874 9.30827 4.92874c2.33268,1.23425 3.94961,2.29606 4.84134,3.19252 0.883465,0.887009 1.42087,1.92047 1.62047,3.10394 0.19252,1.18347 0,2.3126 -0.575197,3.4004 -0.728741,1.3748 -1.81654,2.26181 -3.24922,2.64567 -1.4374,0.390945 -3.17599,0.194882 -5.21339,-0.579922 0.705119,0.975591 1.22599,1.90512 1.54606,2.79213 0.325985,0.891733 0.633071,2.32914 0.933072,4.32048l0.775985 5.00788 -5.29607 -2.79921 -1.06299 -5.68819c-0.382677,-2.0374 -0.679134,-3.35315 -0.908268,-3.94488 -0.22441,-0.596457 -0.52441,-1.08307 -0.929528,-1.47165 -0.390945,-0.387402 -1.09961,-0.853938 -2.12008,-1.38662l-0.900001 -0.479528 -4.06654 7.6878 -4.42914 -2.34213zm10.05 -8.28308l3.26693 1.72441c2.13307,1.12559 3.49961,1.75512 4.10315,1.87914 0.604725,0.129921 1.15394,0.0885827 1.64646,-0.115748 0.496063,-0.209055 0.887009,-0.588189 1.17874,-1.13386 0.32126,-0.62126 0.392126,-1.22126 0.196063,-1.80827 -0.196063,-0.588189 -0.624804,-1.12087 -1.28386,-1.60039 -0.341339,-0.232677 -1.40315,-0.820867 -3.19961,-1.77047l-3.45355 -1.82953 -2.45433 4.65473z"/>
   <path id="_362418336" class="fil5" d="M893.872 937.169l8.65394 0c1.95,0 3.43819,0.134646 4.45866,0.399213 1.37953,0.361418 2.55473,1.00512 3.5374,1.92992 0.979135,0.925985 1.72914,2.05512 2.23701,3.39567 0.51378,1.33701 0.77126,2.99173 0.77126,4.95237 0,1.72441 -0.242126,3.2126 -0.720473,4.46221 -0.587008,1.52362 -1.42087,2.7567 -2.51221,3.7004 -0.820867,0.715749 -1.92992,1.26969 -3.32599,1.67244 -1.04528,0.294095 -2.44134,0.441733 -4.19174,0.441733l-8.90788 0 0 -20.954zm4.72914 3.54213l0 13.8685 3.5504 0c1.32874,0 2.28307,-0.068504 2.87008,-0.200788 0.77126,-0.17126 1.4126,-0.461811 1.92166,-0.870473 0.504331,-0.407481 0.920079,-1.08307 1.24134,-2.02087 0.324803,-0.935434 0.483071,-2.21693 0.483071,-3.83622 0,-1.61811 -0.158268,-2.86063 -0.483071,-3.72756 -0.320079,-0.86693 -0.77126,-1.54016 -1.34528,-2.02677 -0.579922,-0.486615 -1.31339,-0.816142 -2.2004,-0.986221 -0.662599,-0.132284 -1.96654,-0.199606 -3.9,-0.199606l-2.1378 0z"/>
   <polygon id="_362417232" class="fil5" points="920.959,958.822 921.831,937.887 939.172,938.611 939.027,942.15 926.417,941.623 926.226,946.267 937.939,946.757 937.789,950.299 926.076,949.809 925.839,955.479 938.918,956.025 938.768,959.565 "/>
   <polygon id="_362417688" class="fil5" points="1137.56,1022.12 1147.33,1003.58 1162.69,1011.67 1161.03,1014.8 1149.87,1008.92 1147.7,1013.04 1158.08,1018.5 1156.43,1021.64 1146.05,1016.17 1143.4,1021.19 1154.98,1027.3 1153.33,1030.43 "/>
   <polygon id="_362417016" class="fil5" points="985.106,967.368 988.355,950.261 1002.53,952.953 1001.97,955.841 991.672,953.886 990.955,957.681 1000.53,959.499 999.976,962.397 990.401,960.578 989.522,965.211 1000.21,967.237 999.665,970.13 "/>
   <polygon id="_362417064" class="fil5" points="946.448,961.373 948.864,940.556 955.26,941.302 957.426,955.942 962.86,942.181 969.285,942.927 966.868,963.744 962.905,963.283 964.794,946.893 958.672,962.793 954.576,962.315 952.331,945.447 950.41,961.831 "/>
   <path id="_362417592" class="fil5" d="M1204.88 1055.91c0.754725,-1.87914 1.69134,-3.33662 2.8004,-4.37008 0.82441,-0.762993 1.77402,-1.35827 2.84528,-1.8 1.07126,-0.438189 2.14134,-0.650788 3.20788,-0.64252 1.41378,0.00826772 2.92087,0.325985 4.52126,0.970867 2.88425,1.16221 4.8626,2.9374 5.91733,5.32559 1.05,2.37874 0.97441,5.07874 -0.238583,8.08347 -1.19528,2.97874 -2.99528,4.96654 -5.39528,5.95748 -2.4,0.992127 -5.03741,0.912993 -7.91694,-0.245669 -2.92087,-1.17874 -4.9004,-2.94567 -5.94095,-5.3126 -1.05,-2.37047 -0.988583,-5.02087 0.199606,-7.96654zm4.11733 1.51299c-0.846851,2.1 -0.967324,3.89174 -0.372048,5.38701 0.596457,1.48819 1.68425,2.54646 3.26693,3.19252 1.58386,0.633071 3.1004,0.624804 4.54607,-0.034252 1.45039,-0.666142 2.59961,-2.06575 3.46299,-4.21654 0.849213,-2.11654 0.990946,-3.89174 0.42874,-5.32914 -0.570473,-1.44213 -1.6748,-2.49095 -3.31299,-3.15 -1.63701,-0.657875 -3.17008,-0.662599 -4.59095,-0.011811 -1.42913,0.649607 -2.57481,2.0374 -3.42874,4.16221z"/>
   <path id="_362417136" class="fil5" d="M1182.58 1039.91l4.01575 2.2878c-0.532678,1.25433 -0.624804,2.3752 -0.287008,3.37559 0.337796,0.99567 1.09488,1.90394 2.27835,2.72126 1.25433,0.870473 2.35866,1.29095 3.30473,1.27441 0.959056,-0.0165354 1.64528,-0.329528 2.06221,-0.949607 0.271654,-0.383859 0.375591,-0.812599 0.296457,-1.27559 -0.0791339,-0.458268 -0.370866,-1.01693 -0.891733,-1.68307 -0.362599,-0.441733 -1.23425,-1.39961 -2.59606,-2.87126 -1.7752,-1.8874 -2.85827,-3.44528 -3.24213,-4.67835 -0.540945,-1.73386 -0.349607,-3.25512 0.563386,-4.57087 0.587008,-0.855119 1.41142,-1.45039 2.48268,-1.80827 1.06654,-0.350788 2.25,-0.367323 3.56693,-0.0259843 1.30866,0.334252 2.69528,1.00866 4.1752,2.03386 2.40827,1.67126 3.9,3.3874 4.4752,5.15788 0.575197,1.77165 0.366142,3.44173 -0.64252,5.03386l-3.97087 -2.57953c0.429922,-0.970867 0.496063,-1.8378 0.220866,-2.59134 -0.282284,-0.754725 -0.962599,-1.50473 -2.05748,-2.25827 -1.12559,-0.783071 -2.14252,-1.19173 -3.0626,-1.22953 -0.579922,-0.0165354 -1.0252,0.183071 -1.3252,0.616536 -0.270473,0.39567 -0.312992,0.86693 -0.125197,1.4126 0.233858,0.69567 1.1752,1.89213 2.7874,3.58347 1.61221,1.6878 2.74134,3.0626 3.35433,4.09607 0.62126,1.04173 0.937796,2.09528 0.946064,3.15827 0.0165354,1.07008 -0.346063,2.1378 -1.0748,3.1878 -0.662599,0.962599 -1.58386,1.64173 -2.78032,2.05748 -1.18228,0.408662 -2.48268,0.421654 -3.88701,0.0543308 -1.40433,-0.37441 -2.94213,-1.1374 -4.61221,-2.30433 -2.4378,-1.68307 -3.96733,-3.46654 -4.59213,-5.34567 -0.628347,-1.87441 -0.425197,-3.8374 0.617717,-5.87953z"/>
   <path id="_362417112" class="fil5" d="M1161.67 1026.84l4.01221 2.28307c-0.532678,1.25315 -0.624804,2.3752 -0.287008,3.37914 0.337796,0.990946 1.09961,1.90394 2.28307,2.71654 1.25433,0.870473 2.35394,1.29095 3.30355,1.27913 0.955513,-0.0165354 1.64173,-0.333071 2.05866,-0.954331 0.271654,-0.383859 0.379134,-0.807875 0.296457,-1.27441 -0.0755906,-0.459449 -0.370866,-1.01693 -0.891733,-1.68425 -0.357874,-0.437008 -1.22953,-1.39961 -2.59606,-2.86654 -1.77047,-1.8874 -2.85473,-3.45 -3.24213,-4.67835 -0.540945,-1.73386 -0.349607,-3.25866 0.56693,-4.57559 0.583465,-0.850394 1.4126,-1.45039 2.48386,-1.80473 1.06181,-0.354331 2.25,-0.366142 3.56575,-0.0248032 1.30512,0.333071 2.69173,1.00866 4.1752,2.03386 2.40473,1.67126 3.89646,3.3874 4.47048,5.15433 0.579922,1.76693 0.367323,3.44173 -0.636615,5.03268l-3.97087 -2.57953c0.425197,-0.969686 0.496063,-1.83662 0.216142,-2.59134 -0.282284,-0.753544 -0.962599,-1.50354 -2.05748,-2.26181 -1.12087,-0.779528 -2.1378,-1.18347 -3.05906,-1.2248 -0.583465,-0.0212599 -1.0252,0.183071 -1.3252,0.616536 -0.274016,0.39567 -0.316536,0.865749 -0.12874,1.4126 0.237402,0.69567 1.17874,1.89095 2.7874,3.58701 1.61693,1.68307 2.74134,3.05788 3.35788,4.09134 0.616536,1.04173 0.937796,2.09646 0.94252,3.16299 0.0165354,1.07126 -0.346063,2.13307 -1.07126,3.18307 -0.666142,0.962599 -1.58386,1.64173 -2.77914,2.06221 -1.18701,0.403937 -2.48386,0.416929 -3.89174,0.0507874 -1.40433,-0.375591 -2.9374,-1.1374 -4.60866,-2.30079 -2.43662,-1.6878 -3.97087,-3.47008 -4.59567,-5.34922 -0.624804,-1.87559 -0.420473,-3.8374 0.62126,-5.87481z"/>
   <path id="_362417376" class="fil5" d="M1100.52 995.807l1.46339 -3.14882 8.68701 4.05 -3.47008 7.44922c-1.20118,0.370866 -2.74252,0.466536 -4.62166,0.296457 -1.87914,-0.166536 -3.64134,-0.637796 -5.2878,-1.40433 -2.1,-0.979135 -3.73347,-2.23819 -4.89922,-3.78307 -1.18347,-1.54606 -1.80473,-3.26339 -1.87559,-5.15079 -0.0708662,-1.89095 0.312992,-3.73583 1.14567,-5.52874 0.908268,-1.94528 2.14606,-3.47126 3.72992,-4.57559 1.57914,-1.10551 3.40748,-1.66181 5.46142,-1.68425 1.57559,-0.0248032 3.31772,0.411024 5.22993,1.30394 2.48386,1.16221 4.2,2.54882 5.15433,4.16811 0.941339,1.61929 1.2248,3.37559 0.82441,5.263l-4.34174 -1.15866c0.138189,-1.04528 -0.0578741,-2.00788 -0.583465,-2.90315 -0.540945,-0.889371 -1.39134,-1.60394 -2.55355,-2.15079 -1.7752,-0.82441 -3.41693,-0.956694 -4.95,-0.396851 -1.53307,0.559843 -2.77559,1.86378 -3.73347,3.92008 -1.03701,2.21811 -1.2874,4.13032 -0.73819,5.73544 0.538583,1.60394 1.66772,2.80748 3.38386,3.60827 0.84567,0.399213 1.77047,0.636615 2.77559,0.728741 0.99567,0.0874016 1.90394,0.0496063 2.72481,-0.103937l1.1126 -2.3752 -4.63819 -2.15906z"/>
   <path id="_362417448" class="fil5" d="M1014.73 973.43l6.82087 -19.8709 6.39213 2.19449c2.42126,0.830316 3.9626,1.46929 4.63347,1.92284 1.0252,0.688583 1.74921,1.65827 2.17087,2.92205 0.416929,1.26142 0.357874,2.68465 -0.187795,4.26851 -0.420473,1.22244 -0.99567,2.17205 -1.7126,2.85473 -0.728741,0.681497 -1.51299,1.14449 -2.3504,1.38543 -0.840946,0.245669 -1.63701,0.322441 -2.39173,0.23504 -1.01575,-0.135827 -2.42481,-0.51378 -4.22835,-1.13268l-2.59134 -0.889371 -2.56654 7.47875 -3.98859 -1.3689zm9.65434 -15.1406l-1.94528 5.67166 2.18268 0.748819c1.57087,0.538583 2.65866,0.793701 3.25866,0.765355 0.6,-0.0271654 1.13268,-0.210236 1.57914,-0.553937 0.454725,-0.341339 0.791339,-0.805512 0.992127,-1.39725 0.249213,-0.725197 0.240945,-1.39961 -0.0259843,-2.01851 -0.257481,-0.618898 -0.682678,-1.09252 -1.29095,-1.43622 -0.445276,-0.252756 -1.3878,-0.624804 -2.8252,-1.1185l-1.9252 -0.661418z"/>
  </g>
 </g>
 <rect class="fil6" width="2048" height="2048"/>
</svg>
