<?xml version="1.0" encoding="UTF-8"?>
<!DOCTYPE svg PUBLIC "-//W3C//DTD SVG 1.1//EN" "http://www.w3.org/Graphics/SVG/1.1/DTD/svg11.dtd">
<!-- Creator: CorelDRAW -->
<svg xmlns="http://www.w3.org/2000/svg" xml:space="preserve" width="2048px" height="2048px" style="shape-rendering:geometricPrecision; text-rendering:geometricPrecision; image-rendering:optimizeQuality; fill-rule:evenodd; clip-rule:evenodd"
viewBox="0 0 2048 2048"
 xmlns:xlink="http://www.w3.org/1999/xlink">
 <defs>
  <style type="text/css">
   <![CDATA[
    .fil2 {fill:none}
    .fil1 {fill:#EEEEEE}
    .fil0 {fill:red}
   ]]>
  </style>
 </defs>
 <g id="Layer_x0020_1">
  <metadata id="CorelCorpID_0Corel-Layer"/>
  <rect class="fil0" x="255.999" y="562.5" width="382.065" height="923"/>
  <rect class="fil1" x="638.064" y="562.5" width="771.871" height="923"/>
  <rect class="fil0" x="1409.94" y="562.5" width="382.065" height="923"/>
  <path class="fil0" d="M1298.08 1002.61l0 0zm-404.367 -204.554l26.6315 147.2 -57.7111 -67.3193 -19.5343 -22.787 -7.96536 28.9748 -9.62245 35.0032 -78.0733 -17.1874 -25.5496 -5.62441 6.6756 25.3122 21.4087 81.1701 0.0307087 -0.00826772 1.26378 4.93111c1.32165,4.9689 5.99174,5.67993 3.95433,6.43701l-1.4374 0.624804 -29.0788 14.2217 -21.9473 10.7339 18.6354 15.7665 140.485 118.853 0.125197 0.124016c0.427559,0.354331 0.780709,0.929528 1.00039,1.6252 0.179528,0.568111 0.229134,1.12323 0.102756,1.56732l0.0413386 0.011811 -12.2244 41.9835 -6.75591 23.2063 23.9421 -2.8937 138.927 -16.7941 0.96378 0 -16.0004 147.333 64.0016 0 -16.0004 -147.333 0.86693 0 55.5 6.71339c27.4937,3.33189 54.6308,6.62363 83.5607,10.0807l24.0307 2.87244 -6.84449 -23.2477 -12.2162 -41.491 0.0212599 -0.00472441c-0.167717,-0.662599 -0.121654,-1.3748 0.090945,-2.03504 0.211417,-0.65315 0.569292,-1.2189 1.02402,-1.59449l0.125197 -0.124016 140.447 -118.853 18.6354 -15.7713 -21.9473 -10.7291 -29.0906 -14.2217 -1.4374 -0.687402c-2.09173,-0.774804 2.64567,-1.32402 3.86929,-5.97756l1.43032 -5.51103 21.4075 -80.9788 6.69095 -25.3122 -25.565 5.62441 -78.1194 17.1874 -9.57639 -35.0032 -7.93465 -28.9984 -19.565 22.8106 -57.7063 67.2768 26.5276 -147.157 5.89843 -32.7201 -29.211 15.8457 -36.874 20.0032 -0.249213 0.187795 -1.03465 0.5563c-1.50118,0.788977 -2.79685,1.3689 -3.7689,1.65l-50.7378 -98.5583 -14.1827 -27.5492 -14.1921 27.5492 -50.7851 98.582c-1.01339,-0.281103 -2.37638,-0.894095 -3.95079,-1.7374 -0.655512,-0.350788 0.414567,0.199606 -0.791339,-0.49252l-0.37441 -0.187795 -37.0111 -20.0032 -29.1532 -15.7559 5.90315 32.6303z"/>
 </g>
 <rect class="fil2" width="2048" height="2048"/>
</svg>
