<?xml version="1.0" encoding="UTF-8"?>
<!DOCTYPE svg PUBLIC "-//W3C//DTD SVG 1.1//EN" "http://www.w3.org/Graphics/SVG/1.1/DTD/svg11.dtd">
<!-- Creator: CorelDRAW -->
<svg xmlns="http://www.w3.org/2000/svg" xml:space="preserve" width="2048px" height="2048px" style="shape-rendering:geometricPrecision; text-rendering:geometricPrecision; image-rendering:optimizeQuality; fill-rule:evenodd; clip-rule:evenodd"
viewBox="0 0 2048 2048"
 xmlns:xlink="http://www.w3.org/1999/xlink">
 <defs>
  <style type="text/css">
   <![CDATA[
    .fil4 {fill:none}
    .fil0 {fill:#00539A}
    .fil2 {fill:#E1464A}
    .fil1 {fill:#EEEEEE}
    .fil3 {fill:#FFD534}
   ]]>
  </style>
 </defs>
 <g id="Layer_x0020_1">
  <metadata id="CorelCorpID_0Corel-Layer"/>
  <rect class="fil0" x="255.999" y="562.499" width="1536" height="923"/>
  <polygon class="fil1" points="1792,1247.63 255.999,1247.63 255.999,1022.42 1792,1022.42 "/>
  <polygon class="fil2" points="1792,1172.56 1792,1097.5 255.999,1097.5 255.999,1172.56 "/>
  <polygon class="fil3" points="832.649,878.729 822.549,910.123 789.323,910.123 816.304,929.657 805.938,961.022 832.649,941.534 859.362,961.022 849.133,929.39 875.978,910.255 842.884,910.255 "/>
  <polygon class="fil3" points="707.849,919.333 697.746,950.727 664.521,950.727 691.504,970.261 681.136,1001.63 707.849,982.138 734.562,1001.63 724.333,969.999 751.178,950.857 718.084,950.857 "/>
  <polygon class="fil3" points="630.6,1025.51 620.499,1056.9 587.273,1056.9 614.255,1076.44 603.889,1107.81 630.6,1088.32 657.313,1107.81 647.084,1076.17 673.928,1057.03 640.836,1057.03 "/>
  <polygon class="fil3" points="630.696,1156.7 620.593,1188.1 587.367,1188.1 614.35,1207.63 603.983,1239 630.696,1219.51 657.409,1239 647.18,1207.37 674.025,1188.23 640.93,1188.23 "/>
  <polygon class="fil3" points="707.846,1262.78 697.743,1294.17 664.519,1294.17 691.497,1313.71 681.135,1345.07 707.846,1325.58 734.555,1345.07 724.329,1313.44 751.175,1294.3 718.079,1294.3 "/>
  <polygon class="fil3" points="832.649,1303.38 822.549,1334.78 789.323,1334.78 816.304,1354.31 805.938,1385.68 832.649,1366.19 859.362,1385.68 849.133,1354.05 875.978,1334.91 842.884,1334.91 "/>
  <polygon class="fil3" points="957.337,919.333 967.441,950.727 1000.67,950.727 973.684,970.261 984.05,1001.63 957.337,982.138 930.628,1001.63 940.854,969.999 914.014,950.857 947.104,950.857 "/>
  <polygon class="fil3" points="1034.59,1025.51 1044.69,1056.9 1077.92,1056.9 1050.94,1076.44 1061.3,1107.81 1034.59,1088.32 1007.88,1107.81 1018.11,1076.17 991.262,1057.03 1024.35,1057.03 "/>
  <polygon class="fil3" points="1034.5,1156.7 1044.6,1188.1 1077.82,1188.1 1050.84,1207.63 1061.21,1239 1034.5,1219.51 1007.78,1239 1018.01,1207.37 991.165,1188.23 1024.26,1188.23 "/>
  <polygon class="fil3" points="957.344,1262.78 967.445,1294.17 1000.67,1294.17 973.69,1313.71 984.056,1345.07 957.344,1325.58 930.631,1345.07 940.861,1313.44 914.016,1294.3 947.108,1294.3 "/>
 </g>
 <rect class="fil4" width="2048" height="2048"/>
</svg>
