<?xml version="1.0" encoding="UTF-8"?>
<!DOCTYPE svg PUBLIC "-//W3C//DTD SVG 1.1//EN" "http://www.w3.org/Graphics/SVG/1.1/DTD/svg11.dtd">
<!-- Creator: CorelDRAW -->
<svg xmlns="http://www.w3.org/2000/svg" xml:space="preserve" width="2048px" height="2048px" style="shape-rendering:geometricPrecision; text-rendering:geometricPrecision; image-rendering:optimizeQuality; fill-rule:evenodd; clip-rule:evenodd"
viewBox="0 0 2048 2048"
 xmlns:xlink="http://www.w3.org/1999/xlink">
 <defs>
  <style type="text/css">
   <![CDATA[
    .fil5 {fill:none}
    .fil2 {fill:black}
    .fil4 {fill:#BF9400}
    .fil0 {fill:#CE1127}
    .fil1 {fill:#FAFAFA}
    .fil3 {fill:white}
   ]]>
  </style>
 </defs>
 <g id="Layer_x0020_1">
  <metadata id="CorelCorpID_0Corel-Layer"/>
  <rect class="fil0" x="255.999" y="562.499" width="1536" height="307.667"/>
  <rect class="fil1" x="255.999" y="870.166" width="1536" height="307.667"/>
  <rect class="fil2" x="255.999" y="1177.83" width="1536" height="307.667"/>
  <path class="fil3" d="M1024 1152.18c26.5158,0 52.0477,-2.16142 67.3678,-6.48308 5.59843,-1.5815 6.28583,-4.12441 5.89371,-8.64095 6.08741,-2.35748 2.94449,-9.42757 8.05276,-10.0181 -5.10827,0.785434 -5.49922,-7.0689 -10.6063,-6.28347 -0.785434,-6.8752 -7.46457,-8.25001 -14.5335,-6.08977 -12.2575,3.74292 -34.5685,5.5004 -56.1745,4.71496 -21.6059,-0.786615 -43.917,-0.972048 -56.1745,-4.71496 -7.0689,-2.16024 -13.748,-0.785434 -14.5335,6.08977 -5.10709,-0.785434 -5.49804,7.0689 -10.6063,6.28347 5.10827,0.590552 1.96536,7.66064 8.05276,10.0181 -0.392126,4.51654 0.295276,7.05945 5.89371,8.64095 15.3177,4.32166 40.852,6.48308 67.3678,6.48308z"/>
  <path class="fil4" d="M944.619 1127.31c1.20354,0.83504 1.62638,2.2937 2.05748,3.81733 0.624804,2.17914 1.27559,4.4315 4.20237,5.56063l0.27874 0.109843 -0.0259843 0.294095c-0.393307,4.48111 0.324803,6.74056 5.61024,8.22638 14.5701,4.11142 39.0851,6.4689 67.2579,6.4689 28.1729,0 52.6878,-2.35748 67.2579,-6.4689 5.28544,-1.48583 6.00355,-3.74528 5.61024,-8.22638l-0.0259843 -0.294095 0.276378 -0.109843c2.92914,-1.12913 3.57992,-3.3815 4.20473,-5.56063 0.431103,-1.52362 0.853938,-2.98229 2.0563,-3.81733 -1.58268,-0.479528 -2.64567,-1.84252 -3.67559,-3.16772 -1.35,-1.74331 -2.61496,-3.3874 -4.93465,-2.99528l-0.405118 0.0625985 -0.0496063 -0.4063c-0.662599,-5.8193 -5.51811,-6.68504 -8.35394,-6.68504 -1.76221,0 -3.6626,0.314173 -5.67756,0.921261 -10.0713,3.07559 -27.3,4.91693 -46.0819,4.91693 -3.41339,0 -6.8504,-0.0625985 -10.2142,-0.185433 -2.9941,-0.109843 -5.99646,-0.207874 -8.98583,-0.305906 -18.8622,-0.607087 -36.6803,-1.18465 -47.2855,-4.42559 -2.01378,-0.607087 -3.91654,-0.921261 -5.67638,-0.921261 -2.83583,0 -7.69134,0.865749 -8.35394,6.68504l-0.0496063 0.4063 -0.405118 -0.0625985c-2.34449,-0.399213 -3.58465,1.25787 -4.93465,2.99528 -1.0311,1.3252 -2.09291,2.68819 -3.67677,3.16772zm79.3808 25.2626c-28.2473,0 -52.8355,-2.36929 -67.48,-6.49371 -5.62087,-1.59685 -6.54804,-4.21063 -6.19843,-8.76379 -3.0626,-1.31457 -3.76772,-3.78307 -4.39489,-5.96693 -0.577559,-2.00079 -1.03228,-3.57166 -3.10512,-3.89055l-0.196063 -0.0248032 0.109843 -0.786615 0.184252 0.0259843c2.20866,0.250394 3.44882,-1.32638 4.76339,-3.02008 1.27559,-1.64646 2.60079,-3.34607 4.90985,-3.34607 0.115748,0 0.238583,0.00708662 0.362599,0.0177165 0.667323,-4.4563 3.95788,-6.99095 9.08387,-6.99095 1.83543,0 3.82323,0.325985 5.89725,0.957875 10.5154,3.21142 28.2827,3.78662 47.0894,4.38898 2.99528,0.0980316 5.99646,0.197244 8.98701,0.305906 3.3626,0.122835 6.7878,0.185433 10.1882,0.185433 18.7075,0 35.85,-1.82953 45.8611,-4.88032 2.0752,-0.63189 4.063,-0.957875 5.89843,-0.957875 5.12599,0 8.41418,2.53465 9.08387,6.98504 2.56063,-0.183071 3.93425,1.60984 5.27244,3.33425 1.31339,1.6937 2.56536,3.27047 4.76339,3.02008l0.184252 -0.0259843 0.109843 0.786615 -0.196063 0.0248032c-2.0752,0.318898 -2.52992,1.88977 -3.1063,3.89055 -0.625985,2.18386 -1.3311,4.65237 -4.3937,5.96693 0.349607,4.55315 -0.577559,7.16693 -6.19961,8.76379 -14.6457,4.12441 -39.2327,6.49371 -67.4788,6.49371z"/>
  <path class="fil4" d="M962.818 1124.62c-1.22717,0 -1.22717,1.82835 0,1.82835 1.22717,0 1.24016,-1.82835 0,-1.82835z"/>
  <path class="fil4" d="M963.701 1121.09c-1.22717,0 -1.22717,1.82717 0,1.82717 1.22835,0 1.24725,-1.82717 0,-1.82717z"/>
  <path class="fil4" d="M963.212 1136.8c-1.22835,0 -1.22835,1.83071 0,1.83071 1.22717,0 1.23898,-1.83071 0,-1.83071z"/>
  <path class="fil4" d="M967.141 1138.07c-1.22953,0 -1.22953,1.83071 -0.00236221,1.83071 1.22953,0 1.24016,-1.83071 0.00236221,-1.83071z"/>
  <path class="fil4" d="M972.246 1139.35c-1.22835,0 -1.22835,1.82953 0,1.82953 1.22717,0 1.24016,-1.82953 0,-1.82953z"/>
  <path class="fil4" d="M1038.04 1128.35c-1.22717,0 -1.22717,1.82835 0,1.82835 1.22835,0 1.24725,-1.82835 0,-1.82835z"/>
  <path class="fil4" d="M1038.53 1132.08c-1.22835,0 -1.22835,1.82953 0,1.82953 1.22717,0 1.24488,-1.82953 0,-1.82953z"/>
  <path class="fil4" d="M1042.36 1143.18c-1.2248,0 -1.2248,1.82953 0,1.82953 1.22835,0 1.24725,-1.82953 0,-1.82953z"/>
  <path class="fil4" d="M1046 1142.98c-1.22835,0 -1.22835,1.82835 0,1.82835 1.22717,0 1.24488,-1.82835 0,-1.82835z"/>
  <path class="fil4" d="M1089.6 1134.15c-1.22835,0 -1.22835,1.82953 0,1.82953 1.22717,0 1.24488,-1.82953 0,-1.82953z"/>
  <path class="fil4" d="M974.493 1137.51c-0.595276,0 -1.27087,-0.122835 -2.02559,-0.376772 -1.86614,-0.617717 -2.72599,-1.10906 -3.05788,-1.77165 -0.589371,0.318898 -1.41024,0.207874 -2.78622,-0.240945 -1.50354,-0.484252 -2.81103,-1.09724 -2.31969,-3.3567 0.37441,-1.7315 1.13504,-4.49292 2.01378,-7.68426l0.833859 -3.0378c0.0614174,-0.210236 0.257481,-0.350788 0.485433,-0.277559 0.209055,0.0625985 0.33189,0.270473 0.276378,0.486615l-0.83504 3.0378c-0.883465,3.17835 -1.63937,5.93386 -2.01378,7.64764 -0.318898,1.48465 0.173622,1.91575 1.80473,2.43543 1.33819,0.429922 1.92756,0.620079 2.41772,0.080315 0.0555119,-0.368504 0.209055,-0.754725 0.381496,-1.19646 0.158268,-0.392126 0.336614,-0.840946 0.479528,-1.36299 0.551575,-2.0315 0.858662,-2.09173 1.04173,-2.14134 0.147638,-0.0366142 0.33189,0.0295276 0.429922,0.140551 0.080315,0.0921261 0.330709,0.386221 -0.282284,2.00079 -0.51378,1.34528 -0.870473,2.27835 -1.27677,2.85355 0,0.100394 0.011811,0.178347 0.0496063,0.258662 0.20315,0.424016 1.03228,0.858662 2.60315,1.38071 1.36063,0.448819 2.36811,0.448819 3.09331,-0.00590552 0.852757,-0.533859 1.3878,-1.7563 1.6441,-3.7441 0,-0.00590552 0,-0.0106299 0.00708662,-0.0106299 -0.0377953,0.0649607 -0.0980316,0.127559 -0.178347,0.162992 -0.185433,0.105118 -0.424016,0.0200788 -0.522048,-0.177165 -0.318898,-0.630709 -0.140551,-1.31339 0.190158,-1.64528 0.239764,-0.245669 0.552756,-0.318898 0.822048,-0.183071 0.448819,0.220866 0.602363,0.871654 0.466536,1.95118 -0.294095,2.26536 -0.93189,3.63425 -2.0126,4.30985 -0.490158,0.305906 -1.06181,0.466536 -1.73032,0.466536z"/>
  <path class="fil4" d="M966.01 1134.94c-0.0496063,0 -0.0921261,-0.0129921 -0.134646,-0.0248032 -2.42008,-0.90945 -3.96614,-2.43071 -3.83032,-3.7878 0.0720473,-0.791339 0.71693,-1.82362 3.3626,-2.27244 0.196063,-0.0295276 0.416929,0.105118 0.447638,0.325985 0.0377953,0.209055 -0.102756,0.412205 -0.323622,0.45 -1.64528,0.281103 -2.64095,0.851575 -2.70118,1.57559 -0.0980316,0.957875 1.30039,2.20984 3.31299,2.97047 0.210236,0.0744095 0.308268,0.308268 0.233858,0.504331 -0.0602363,0.16063 -0.207874,0.258662 -0.367323,0.258662z"/>
  <path class="fil4" d="M990.892 1131.6c-0.773623,0 -1.36299,0.510237 -1.68189,1.0689 -0.589371,1.01929 -0.589371,2.63858 0.773623,3.7878l0.4063 0.349607c0.127559,0.109843 0.256299,0.220866 0.396851,0.343701 0.301181,-0.165354 0.596457,-0.343701 0.890552,-0.526772 1.20236,-0.755906 1.84725,-1.83071 1.7315,-2.87362 -0.0992127,-0.896457 -0.774804,-1.63937 -1.85433,-2.02677 -0.233858,-0.0850394 -0.454725,-0.122835 -0.662599,-0.122835zm5.35158 12.1772c-0.147638,0 -0.294095,-0.022441 -0.441733,-0.0602363 -0.539764,-0.158268 -0.994489,-0.539764 -1.30748,-1.11732 -0.424016,-0.760631 -0.522048,-1.72914 -0.409843,-2.43543 -1.30276,-0.467717 -2.43189,-1.28268 -3.40158,-2.07992 -1.52126,0.760631 -3.19252,1.21417 -5.48622,1.12677 -1.31339,-0.0425197 -2.18504,-0.250394 -2.79449,-0.64252 -0.532678,1.21536 -1.55197,2.3126 -3.0626,3.33189 -0.183071,0.109843 -0.42874,0.0673229 -0.551575,-0.111024 -0.115748,-0.183071 -0.068504,-0.429922 0.109843,-0.552756 1.51063,-0.999213 2.4626,-2.06103 2.89134,-3.23977 -0.448819,-0.577559 -0.67441,-1.38071 -0.890552,-2.4378 -0.115748,-0.532678 -0.318898,-1.82244 0.210236,-2.27717 0.17126,-0.145276 0.379134,-0.188977 0.582284,-0.115748 0.590552,0.209055 0.902363,1.33819 1.05473,2.24646 0.142913,0.829134 0.11811,1.62047 -0.0673229,2.36339 0.491339,0.424016 1.25315,0.608268 2.54292,0.649607 2.0126,0.0744095 3.46063,-0.269292 4.81181,-0.896457 -0.0555119,-0.0425197 -0.111024,-0.0850394 -0.16063,-0.127559l-0.403937 -0.343701c-1.70669,-1.44213 -1.68189,-3.49252 -0.938977,-4.77992 0.718111,-1.24016 2.01851,-1.74449 3.29528,-1.29095 1.3689,0.49252 2.23465,1.46693 2.37047,2.67638 0.145276,1.35 -0.640158,2.70118 -2.10118,3.62008 -0.220866,0.135827 -0.441733,0.271654 -0.662599,0.401575 0.938977,0.747638 2.01378,1.47874 3.21614,1.83425 0.207874,0.068504 0.333071,0.282284 0.270473,0.490158 -0.17126,0.552756 -0.111024,1.52835 0.263386,2.21693 0.216142,0.386221 0.497244,0.63189 0.840946,0.729922 0.368504,0.111024 0.700394,-0.0732284 0.927166,-0.233858 0.79252,-0.589371 1.73622,-2.27126 1.81181,-5.09528 0.0720473,-2.95748 0.26811,-5.89134 0.587008,-8.95985 0.0259843,-0.220866 0.210236,-0.424016 0.429922,-0.355512 0.223229,0.0248032 0.381496,0.220866 0.356693,0.42874 -0.324803,3.05788 -0.514961,5.97284 -0.590552,8.91142 -0.0602363,2.59843 -0.883465,4.78229 -2.13425,5.69646 -0.381496,0.283465 -0.774804,0.42874 -1.16693,0.42874z"/>
  <path class="fil4" d="M1002.59 1140.49c-0.200788,0 -0.37441,-0.16063 -0.392126,-0.361418 -0.177165,-2.27717 0.318898,-5.12599 0.761812,-7.63583 0.295276,-1.6878 0.576378,-3.28347 0.614174,-4.48701 0.00472441,-0.207874 0.183071,-0.380315 0.392126,-0.380315l0.011811 0c0.220866,0.00472441 0.387402,0.183071 0.381496,0.403937 -0.0377953,1.25906 -0.325985,2.87953 -0.627166,4.59804 -0.42874,2.46732 -0.918898,5.25945 -0.747638,7.43859 0.011811,0.214961 -0.148819,0.4063 -0.362599,0.424016 -0.00708662,0 -0.0188977,0 -0.0318898,0z"/>
  <path class="fil4" d="M1020.24 1140.84c1.31457,0 2.51693,0.392126 3.14292,2.07402 0.239764,0.638977 0.564567,1.01929 0.915355,1.08071 0.323622,0.0614174 0.698032,-0.165354 1.06654,-0.607087 0.891733,-1.0748 1.0878,-2.24173 1.27795,-3.37559l0.0307087 -0.178347c0.257481,-1.50354 0.115748,-2.00079 -0.0437008,-2.16142 -0.0295276,-0.0177165 -0.0921261,-0.0850394 -0.288189,-0.0377953 -1.54606,0.333071 -7.60512,0.0755906 -8.65512,0.0141732 -0.994489,-0.0614174 -2.09882,-0.210236 -2.95748,-0.553937 0.0484252,1.77992 -0.129921,2.87953 -0.577559,3.57402 1.06181,-0.011811 1.97599,0.0602363 2.82402,0.140551 0.876379,0.0791339 1.63228,0.153543 2.36811,0.0791339 0.301181,-0.0236221 0.602363,-0.0484252 0.896457,-0.0484252zm-14.6079 5.44961c-0.122835,0 -0.251575,-0.0602363 -0.325985,-0.17126 -0.120473,-0.184252 -0.0732284,-0.42874 0.105118,-0.551575 2.84882,-1.89095 3.78071,-3.15591 3.95315,-4.67835 -0.700394,-0.527953 -1.25906,-1.3063 -1.64528,-2.3126 -0.307087,-0.811418 -0.269292,-1.49291 0.0862205,-1.88032 0.233858,-0.238583 0.565748,-0.323622 0.896457,-0.21378 0.668504,0.209055 1.17284,1.06772 1.35118,2.29016 0.0850394,0.620079 0.133465,1.17756 0.120473,1.70669 0.542126,0.305906 1.20473,0.446457 1.89213,0.409843 0.244488,-0.0354331 0.477166,-0.0732284 0.700394,-0.111024 0.256299,-0.0732284 0.447638,-0.196063 0.6,-0.367323 0.479528,-0.551575 0.662599,-1.71851 0.564567,-3.76181 -0.336614,-0.264567 -0.564567,-0.590552 -0.63189,-1.00158 -0.0980316,-0.577559 -0.0177165,-0.969686 0.225591,-1.16575 0.148819,-0.116929 0.344882,-0.134646 0.52441,-0.0614174 0.336614,0.159449 0.563386,0.67441 0.617717,1.43504 0.00708662,0.11811 0.0129921,0.233858 0.0248032,0.351969 0.627166,0.336614 1.68189,0.576378 3.04488,0.656693 1.95118,0.115748 7.16221,0.269292 8.43426,0.0106299 0.50315,-0.115748 0.829134,0.0625985 1.00512,0.233858 0.577559,0.551575 0.461811,1.75512 0.270473,2.85355l-0.0177165 0.105118c-0.20315,1.25315 -0.42874,2.59134 -1.46102,3.82323 -0.718111,0.853938 -1.3748,0.951969 -1.79882,0.878741 -0.454725,-0.0732284 -1.07953,-0.411024 -1.52126,-1.58386 -0.49252,-1.30039 -1.32047,-1.6937 -3.22914,-1.51063 -0.823229,0.080315 -1.64528,0 -2.51575,-0.0850394 -1.14095,-0.111024 -2.42599,-0.226772 -3.98268,-0.0366142 -0.27874,0.0791339 -0.546851,0.111024 -0.780709,0.121654 -0.0980316,0.0425197 -0.196063,0.00708662 -0.283465,0.00708662 -0.64252,0 -1.2378,-0.122835 -1.76693,-0.361418 -0.294095,1.63701 -1.41614,3.02481 -4.23544,4.90985 -0.0732284,0.0354331 -0.147638,0.0602363 -0.220866,0.0602363z"/>
  <path class="fil4" d="M1032.15 1140.68c0.318898,0.0874016 0.687402,0.0248032 0.999213,-0.190158 0.584646,-0.386221 0.89882,-1.13504 0.865749,-2.04331 -0.0248032,-0.797245 -0.478347,-1.24606 -0.88819,-1.40551 -0.405118,-0.153543 -0.829134,-0.0661418 -1.09961,0.214961 -0.564567,0.582284 -0.514961,1.85315 0.122835,3.42402zm-5.40237 1.28976c-0.183071,0 -0.348425,-0.134646 -0.386221,-0.318898 -0.0425197,-0.214961 0.105118,-0.418111 0.314173,-0.46063 0.355512,-0.068504 0.760631,-0.159449 1.18465,-0.258662 1.14685,-0.262205 2.4,-0.570473 3.36851,-0.484252 -0.772442,-2.21457 -0.207874,-3.28347 0.233858,-3.73111 0.497244,-0.522048 1.25197,-0.669686 1.93937,-0.4063 0.833859,0.32126 1.36299,1.12441 1.39961,2.11181 0.0366142,1.18465 -0.405118,2.18032 -1.21536,2.72481 -0.595276,0.394488 -1.30039,0.454725 -1.89095,0.196063 -0.699213,-0.318898 -2.34449,0.0507874 -3.6567,0.356693 -0.437008,0.0980316 -0.848032,0.197244 -1.21536,0.263386 -0.0248032,0.00708662 -0.0496063,0.00708662 -0.0755906,0.00708662z"/>
  <path class="fil4" d="M1041.53 1138.88c-0.0720473,0 -0.134646,0 -0.196063,0.0106299 -0.737008,0.0625985 -1.41024,0.454725 -1.55788,0.774804 -0.0862205,0.196063 -0.16063,0.465355 -0.0259843,0.638977 0.11811,0.158268 0.416929,0.225591 0.742914,0.194882 0.485433,-0.0614174 1.11024,-0.398032 1.40669,-1.14095 0.0472441,-0.124016 0.0980316,-0.258662 0.140551,-0.416929 -0.178347,-0.0507874 -0.356693,-0.0614174 -0.510237,-0.0614174zm-1.21417 2.41772c-0.517323,0 -0.946064,-0.185433 -1.19764,-0.529134 -0.165354,-0.21378 -0.386221,-0.686221 -0.0555119,-1.42323 0.283465,-0.637796 1.20945,-1.15276 2.20984,-1.24016 0.330709,-0.022441 0.649607,-0.00472441 0.938977,0.0744095 0.431103,-2.4189 0.320079,-6.62363 -0.324803,-9.28702 -0.0484252,-0.21378 0.0732284,-0.424016 0.288189,-0.472441 0.209055,-0.0614174 0.422835,0.0732284 0.472441,0.28937 0.700394,2.86654 0.791339,7.29686 0.294095,9.81969 0.172441,0.12874 0.32126,0.281103 0.437008,0.459449 0.399213,0.602363 1.0252,1.19173 2.47205,1.00748l0.314173 -0.0366142c2.00788,-0.232677 2.84173,-0.325985 2.80394,-4.0937 -0.0602363,-0.0129921 -0.109843,-0.0307087 -0.158268,-0.0673229 -1.21536,-0.896457 -1.17992,-1.53425 -1.0441,-1.83543 0.147638,-0.33189 0.504331,-0.509056 0.921261,-0.429922 0.491339,0.090945 1.0063,0.577559 1.0441,1.44213 0.196063,5.1189 -0.994489,5.4815 -3.47481,5.77087l-0.308268 0.0354331c-1.9252,0.214961 -2.76142,-0.662599 -3.22559,-1.35118 0,-0.00472441 0,-0.0106299 0,-0.0106299 -0.0330709,0.0791339 -0.0625985,0.159449 -0.0874016,0.231496 -0.429922,1.05709 -1.3311,1.53662 -2.03858,1.62165 -0.0980316,0.0177165 -0.196063,0.0248032 -0.281103,0.0248032z"/>
  <path class="fil4" d="M1053.87 1134.5c-0.0248032,0 -0.0496063,0 -0.0744095,0.0106299 -0.140551,0.0496063 -0.269292,0.355512 -0.231496,0.848032 0.0850394,1.25197 0.612993,1.95236 2.35512,3.11693 0.185433,-0.883465 0.080315,-1.74213 -0.422835,-2.47914 -0.817323,-1.19764 -1.38071,-1.49646 -1.62638,-1.49646zm-1.3878 9.62245c-0.122835,0 -0.245669,-0.0555119 -0.318898,-0.159449 -0.122835,-0.178347 -0.0850394,-0.424016 0.0862205,-0.551575 1.54606,-1.11732 2.87835,-2.66339 3.44882,-4.2 -0.0602363,0 -0.135827,-0.022441 -0.196063,-0.0602363 -1.71969,-1.15394 -2.61378,-2.04331 -2.72362,-3.74528 -0.0555119,-0.84567 0.231496,-1.45866 0.760631,-1.6441 0.522048,-0.178347 1.38543,-0.00472441 2.60788,1.79291 1.79764,2.63977 -0.368504,6.27284 -3.43111,8.49449 -0.0732284,0.0496063 -0.153543,0.0732284 -0.233858,0.0732284z"/>
  <path class="fil4" d="M1062.15 1134.71c-0.227953,0 -0.497244,0.103937 -0.810237,0.318898 -0.675591,0.441733 -1.05709,1.28858 -0.861024,1.87795 0.190158,0.577559 0.798426,0.675591 1.30748,0.637796 0.448819,-0.0236221 0.934253,-0.0555119 1.44331,-0.103937 0,-0.270473 -0.0129921,-0.546851 -0.0496063,-0.83504 -0.108662,-0.987402 -0.392126,-1.66181 -0.778347,-1.84725 -0.080315,-0.0307087 -0.166536,-0.0484252 -0.251575,-0.0484252zm-1.62165 8.04095c-0.147638,0 -0.294095,-0.0862205 -0.355512,-0.233858 -0.090945,-0.196063 0,-0.429922 0.197244,-0.516142 1.67953,-0.748819 2.62559,-2.01378 2.82166,-3.7689 -0.488977,0.0496063 -0.943702,0.0755906 -1.36772,0.0980316 -1.54606,0.0625985 -1.96299,-0.798426 -2.0941,-1.17756 -0.305906,-0.933072 0.198425,-2.13662 1.16693,-2.78622 0.688583,-0.454725 1.30158,-0.564567 1.83543,-0.318898 0.655512,0.311811 1.08662,1.16457 1.23307,2.47323 0.0318898,0.288189 0.0496063,0.564567 0.0496063,0.840946 3.97677,-0.46063 9.46418,-1.65709 14.5394,-3.62244 0.20315,-0.0779528 0.437008,0.0248032 0.510237,0.227953 0.0744095,0.20315 -0.0236221,0.429922 -0.226772,0.509056 -5.4815,2.12362 -11.0043,3.25394 -14.8476,3.67559 -0.190158,2.1189 -1.31339,3.67796 -3.30118,4.56142 -0.0496063,0.0248032 -0.111024,0.0377953 -0.16063,0.0377953z"/>
  <path class="fil4" d="M1070.62 1132.44c0.54567,2.12362 1.22717,3.93307 1.9937,4.85433 0.431103,0.510237 1.00158,0.633071 1.59095,0.314173 0.84567,-0.454725 1.50945,-1.7315 1.06654,-3.19252 -0.257481,-0.864568 -0.937796,-1.38071 -1.46575,-1.65709 -0.96378,-0.514961 -2.17323,-0.650788 -3.13701,-0.336614 -0.0236221,0.00472441 -0.0354331,0.00472441 -0.0484252,0.0177165zm2.93977 6.1252c-0.577559,0 -1.12205,-0.256299 -1.54606,-0.766536 -0.848032,-1.01339 -1.55433,-2.87835 -2.1189,-4.99725 -1.25079,0.865749 -1.96299,2.69528 -1.52126,4.24252 0.0555119,0.207874 -0.0625985,0.42874 -0.270473,0.488977 -0.209055,0.0507874 -0.429922,-0.0602363 -0.490158,-0.26811 -0.552756,-1.94646 0.42874,-4.27323 2.08583,-5.26654 -0.466536,-1.92756 -0.810237,-4.00158 -1.01929,-5.79449 -0.0248032,-0.220866 0.135827,-0.416929 0.343701,-0.441733 0.216142,-0.0555119 0.416929,0.133465 0.442914,0.343701 0.207874,1.81536 0.539764,3.77362 0.957875,5.56654l0 0c1.16575,-0.362599 2.60079,-0.21378 3.75,0.386221 0.93189,0.497244 1.58977,1.25197 1.86024,2.13662 0.550394,1.85433 -0.343701,3.49843 -1.46221,4.1067 -0.33189,0.177165 -0.675591,0.263386 -1.01221,0.263386z"/>
  <path class="fil4" d="M1081.83 1130.94c-1.01221,0 -2.03622,0.504331 -2.55827,1.26496 -0.258662,0.37441 -0.504331,0.988583 -0.20315,1.76221 0.368504,0.969686 1.35,1.11024 1.90276,1.11024 1.20236,0 2.49213,-0.637796 2.98937,-1.48465 0.276378,-0.47126 0.276378,-0.957875 -0.00708662,-1.44803 -0.588189,-1.05 -1.5815,-1.20473 -2.12362,-1.20473zm-0.858662 4.92284c-1.27559,0 -2.23937,-0.588189 -2.63858,-1.61457 -0.33189,-0.852757 -0.220866,-1.73622 0.294095,-2.48504 0.662599,-0.981497 1.92756,-1.6063 3.20315,-1.6063 1.20945,0 2.23583,0.575197 2.81103,1.59449 0.412205,0.737008 0.412205,1.52244 0,2.23347 -0.637796,1.09252 -2.18386,1.87795 -3.66969,1.87795z"/>
  <path class="fil4" d="M1084.4 1132.73c-0.185433,0 -0.344882,-0.122835 -0.381496,-0.307087 -0.0484252,-0.207874 0.0850394,-0.424016 0.295276,-0.466536 0.822048,-0.183071 2.56536,-1.05473 3.60827,-1.71732 0.185433,-0.122835 0.424016,-0.0625985 0.539764,0.122835 0.116929,0.183071 0.0625985,0.421654 -0.122835,0.539764 -1.11614,0.711024 -2.91024,1.60748 -3.85394,1.81772 -0.0307087,0.0106299 -0.0625985,0.0106299 -0.0850394,0.0106299z"/>
  <path class="fil4" d="M1090.22 1131.83c-0.447638,0 -0.889371,-0.0921261 -1.32047,-0.263386 -2.25709,-0.933072 -3.82914,-4.17402 -4.01457,-8.24292 -0.0673229,-1.52953 -0.589371,-2.56063 -1.50827,-2.96457 -1.06181,-0.472441 -2.60315,-0.111024 -3.84331,0.895276 -0.158268,0.135827 -0.416929,0.111024 -0.551575,-0.0602363 -0.135827,-0.167717 -0.111024,-0.411024 0.0614174,-0.551575 1.20827,-0.996851 3.12874,-1.68425 4.65237,-1.00748 0.840946,0.380315 1.87205,1.31811 1.97599,3.65079 0.172441,3.77008 1.55315,6.73465 3.52323,7.55079 1.10551,0.459449 2.27008,0.159449 3.3815,-0.848032 0.226772,-0.201969 0.216142,-0.380315 0.191339,-0.409843 0,0.0106299 -0.173622,0.0980316 -0.36378,0.477166 -0.090945,0.197244 -0.33189,0.283465 -0.522048,0.178347 -0.196063,-0.0933072 -0.274016,-0.33189 -0.175984,-0.520867 0.421654,-0.855119 0.912993,-0.90945 1.14685,-0.90945 0.307087,0.0248032 0.557481,0.222047 0.662599,0.516142 0.111024,0.318898 0.0625985,0.810237 -0.411024,1.24488 -0.914174,0.840946 -1.90866,1.26496 -2.88425,1.26496z"/>
  <path class="fil4" d="M988.548 1133.91c-0.0177165,0 -0.0377953,0 -0.0602363,-0.00472441l-1.96536 -0.28937c-0.209055,-0.0366142 -0.356693,-0.232677 -0.33189,-0.453544 0.0377953,-0.210236 0.245669,-0.356693 0.454725,-0.33189l1.96299 0.294095c0.210236,0.0377953 0.356693,0.233858 0.33189,0.447638 -0.0354331,0.190158 -0.201969,0.337796 -0.392126,0.337796z"/>
  <path class="fil3" d="M1116.71 1114.07l-6.67914 -153.984c-1.26378,-23.152 -21.2114,-18.463 -36.1382,-9.42875 -14.928,9.03426 -31.8201,9.69804 -49.8886,3.02008 -18.0685,6.67796 -34.9607,6.01418 -49.8886,-3.02008 -14.9268,-9.03426 -34.8744,-13.7232 -36.1394,9.42875l-6.67796 153.984 185.412 0z"/>
  <path class="fil4" d="M1116.71 1114.47c-0.209055,0 -0.381496,-0.165354 -0.393307,-0.373229l-6.67796 -153.986c-0.411024,-7.56851 -2.87362,-12.6012 -7.31693,-14.9457 -6.21142,-3.27638 -16.7681,-1.10551 -28.2284,5.83819 -14.6752,8.88072 -31.5284,9.92363 -50.0894,3.09803 -18.561,6.8256 -35.4142,5.78268 -50.0918,-3.09803 -11.465,-6.94371 -22.0099,-9.12166 -28.2272,-5.83819 -4.44331,2.34449 -6.89882,7.37717 -7.31575,14.9528l-6.67796 153.979c-0.011811,0.207874 -0.184252,0.373229 -0.393307,0.373229 -0.00472441,0 -0.011811,0 -0.0177165,0 -0.214961,-0.011811 -0.386221,-0.197244 -0.37441,-0.411024l6.67796 -153.984c0.42874,-7.87678 3.03189,-13.1232 7.73386,-15.6095 9.30473,-4.91103 23.3847,2.46142 29.0008,5.86182 14.4921,8.77087 31.1622,9.78308 49.5496,2.98819l0.135827 -0.0484252 0.135827 0.0484252c18.3874,6.80197 35.0575,5.79331 49.5496,-2.98819 5.61615,-3.4004 19.6831,-10.7728 29.0008,-5.86182 4.70197,2.48622 7.30512,7.73268 7.73386,15.6024l6.67796 153.991c0.011811,0.21378 -0.159449,0.399213 -0.37441,0.411024 -0.00708662,0 -0.0129921,0 -0.0177165,0z"/>
  <path class="fil3" d="M1039.31 959.513c5.10709,3.14292 10.4232,2.54055 13.5662,2.14843 -11.1957,-6.48071 -13.9595,-26.9327 -12.9638,-35.7473 1.96417,-17.4791 -2.16024,-26.9079 -12.3744,-28.4799 -2.45551,-0.379134 -3.92717,-1.07953 -7.75749,-1.57087 -3.24095,-0.416929 -5.89371,2.25945 -7.36536,5.00788 -2.94685,-2.06103 -5.10709,-1.96299 -8.44607,-3.14055 -3.89174,-1.37599 -8.34686,-0.296457 -8.83938,6.48189l1.57205 -0.688583c1.27677,1.67008 3.24095,0.588189 5.79331,2.25945 2.55355,1.6689 7.01575,4.15512 7.8567,11.8819 1.67008,15.3201 -0.292914,31.0335 -15.2221,43.9961 3.14292,0.392126 8.45788,0.994489 13.5662,-2.14843 -1.52362,2.17914 -3.25394,4.09961 -5.1189,5.68347 6.87993,-1.35591 11.661,-3.51142 14.6799,-7.95473 1.17992,1.27677 4.76457,5.20512 5.74607,7.46457 0.981497,-2.25945 4.59685,-6.13937 5.77559,-7.41497 3.02599,4.37599 7.82008,6.56221 14.6504,7.90512 -1.86496,-1.58386 -3.59646,-3.50433 -5.1189,-5.68347z"/>
  <path class="fil4" d="M1029.82 956.664l0.281103 0.399213c2.56536,3.72048 6.49371,5.98465 12.9756,7.44568 -1.47874,-1.39843 -2.84764,-2.99528 -4.0878,-4.7752l0.527953 -0.559843c2.63858,1.62756 5.60315,2.41299 9.07205,2.41299 1.12913,0 2.16024,-0.0791339 3.12992,-0.184252 -10.4953,-7.1067 -13.1835,-26.7484 -12.202,-35.5323 1.95236,-17.3256 -1.98898,-26.5028 -12.0425,-28.0418 -1.0441,-0.165354 -1.90984,-0.381496 -2.83583,-0.615355 -1.2626,-0.318898 -2.70118,-0.67441 -4.90985,-0.956694 -3.78071,-0.491339 -6.32126,3.59764 -6.97323,4.8l-0.209055 0.392126 -0.354331 -0.256299c-1.91457,-1.33347 -3.48662,-1.7374 -5.31615,-2.20394 -0.938977,-0.240945 -1.91575,-0.491339 -3.04488,-0.890552 -0.93189,-0.33189 -1.85315,-0.497244 -2.72362,-0.497244 -3.11811,0 -5.06575,2.11772 -5.5252,5.98465l1.24016 -0.54567 0.190158 0.244488c0.565748,0.742914 1.27559,0.848032 2.26536,0.993308 0.946064,0.142913 2.12362,0.325985 3.43111,1.17402l0.411024 0.269292c2.54055,1.6441 6.80079,4.3878 7.62402,11.9008 1.30039,11.9941 1.17756,29.5051 -14.6953,43.7563 1.03228,0.111024 2.14843,0.209055 3.36378,0.209055 3.46772,0 6.43229,-0.785434 9.07205,-2.41063l0.527953 0.557481c-1.24016,1.77992 -2.61614,3.3815 -4.0878,4.7752 6.53032,-1.47402 10.4634,-3.75118 13.0063,-7.48819l0.276378 -0.405118 0.336614 0.356693c1.93228,2.09882 4.33937,4.87323 5.4567,6.86103 1.28858,-2.27008 4.21654,-5.4378 5.38937,-6.70749l0.429922 -0.461811zm-27.6508 9.20788l1.14685 -0.976772c1.43032,-1.20827 2.77441,-2.61378 4.00158,-4.19174 -2.35748,1.12323 -4.95945,1.6689 -7.90512,1.6689 -1.60866,0 -3.02008,-0.158268 -4.33229,-0.318898l-0.872835 -0.109843 0.662599 -0.577559c12.541,-10.8874 17.1921,-24.3543 15.0886,-43.6583 -0.775985,-7.13741 -4.67953,-9.66024 -7.26969,-11.3244l-0.409843 -0.270473c-1.16102,-0.760631 -2.20394,-0.918898 -3.11693,-1.05473 -0.95315,-0.147638 -1.84843,-0.281103 -2.57362,-1.05591l-1.90276 0.829134 0.0507874 -0.644882c0.477166,-6.65434 4.61339,-7.37127 6.37087,-7.37127 0.96378,0 1.97008,0.184252 2.9941,0.546851 1.09252,0.379134 2.04921,0.624804 2.97047,0.865749 1.78701,0.459449 3.34016,0.851575 5.2063,2.0811 1.73977,-3.04016 4.21654,-4.83544 6.75945,-4.88032l0.129921 0c0.217323,0.00236221 0.43937,0.0141732 0.659056,0.0425197 2.25827,0.294095 3.71929,0.662599 5.00906,0.981497 0.902363,0.220866 1.75512,0.441733 2.7626,0.590552 10.402,1.6063 14.6811,11.3291 12.7039,28.9146 -1.00158,8.8689 1.79291,29.0138 12.7665,35.3599l1.00748 0.588189 -1.15512 0.147638c-1.31221,0.16063 -2.72599,0.318898 -4.33229,0.318898 -2.94685,0 -5.54764,-0.552756 -7.91221,-1.6689 1.23425,1.57087 2.57244,2.97638 4.00866,4.19174l1.14213 0.976772 -1.47402 -0.28937c-7.31693,-1.44331 -11.7295,-3.75 -14.6197,-7.67127 -1.4126,1.53898 -4.49292,4.92756 -5.37638,6.95315l-0.356693 0.823229 -0.356693 -0.823229c-0.624804,-1.44095 -2.47205,-3.85276 -5.35158,-6.99567 -2.85355,3.93898 -7.27442,6.25985 -14.6445,7.71379l-1.47874 0.28937z"/>
  <path class="fil4" d="M1039.3 959.905c-0.122835,0 -0.245669,-0.0555119 -0.318898,-0.165354 -4.0878,-5.86182 -6.27284,-13.1291 -6.13819,-20.4744 0,-0.216142 0.178347,-0.387402 0.392126,-0.387402l0.00708662 0c0.21378,0 0.387402,0.184252 0.387402,0.398032 -0.131102,7.18111 1.99961,14.2902 5.99646,20.0162 0.120473,0.178347 0.0779528,0.416929 -0.0980316,0.54567 -0.0696851,0.0496063 -0.147638,0.0673229 -0.227953,0.0673229z"/>
  <path class="fil4" d="M1029.76 957.733c-0.122835,0 -0.244488,-0.0625985 -0.318898,-0.172441 -2.77441,-4.00748 -4.06181,-9.88111 -4.06181,-18.4866 0,-0.220866 0.170079,-0.393307 0.390945,-0.393307 0.220866,0 0.394488,0.172441 0.394488,0.393307 0,8.43308 1.24488,14.1662 3.91536,18.039 0.121654,0.178347 0.0862205,0.424016 -0.0992127,0.54567 -0.0614174,0.0496063 -0.146457,0.0744095 -0.220866,0.0744095z"/>
  <path class="fil4" d="M1008.7 959.905c-0.0744095,0 -0.16063,-0.0177165 -0.220866,-0.0673229 -0.185433,-0.121654 -0.220866,-0.367323 -0.0980316,-0.54567 3.98977,-5.72599 6.11811,-12.8398 5.98937,-20.0162 0,-0.21378 0.173622,-0.398032 0.387402,-0.398032l0.00472441 0c0.216142,0 0.394488,0.17126 0.394488,0.387402 0.134646,7.34056 -2.0504,14.6126 -6.13819,20.4744 -0.0744095,0.109843 -0.196063,0.165354 -0.318898,0.165354z"/>
  <path class="fil4" d="M1018.3 957.635c-0.0732284,0 -0.148819,-0.0248032 -0.220866,-0.0673229 -0.173622,-0.122835 -0.222047,-0.368504 -0.0980316,-0.546851 2.62559,-3.86693 3.85276,-9.5752 3.85276,-17.9469 0,-0.220866 0.173622,-0.393307 0.394488,-0.393307 0.220866,0 0.390945,0.172441 0.390945,0.393307 0,8.54292 -1.26378,14.387 -3.98859,18.3886 -0.080315,0.109843 -0.20315,0.172441 -0.330709,0.172441z"/>
  <path class="fil4" d="M996.699 903.524c1.27677,1.67008 3.24095,0.588189 5.79331,2.25945 2.34449,1.53425 6.29882,3.76063 7.5756,10.1138 -0.589371,-2.74843 1.36181,-5.49922 3.81614,-5.20394 -4.22244,-6.58111 -13.3547,-8.8382 -17.1851,-7.1693z"/>
  <polygon class="fil4" points="1028.52,1046.51 1041.48,1104.65 1037.16,1108.97 1032.64,1105.63 1024.98,1054.17 1028.71,1106.22 1024,1111.32 1019.29,1106.22 1023.02,1054.17 1015.36,1105.63 1010.84,1108.97 1006.52,1104.65 1019.48,1046.51 "/>
  <path class="fil4" d="M1019.69 1106.08l4.30985 4.67126 4.30748 -4.67126 -3.71811 -51.8823 0.786615 -0.0862205 7.63347 51.3 4.11378 3.04488 3.92835 -3.92835 -12.8539 -57.6225 -8.39646 0 -12.8516 57.6225 3.92717 3.92835 4.11378 -3.04488 7.63347 -51.3 0.786615 0.0862205 -3.72048 51.8823zm4.30985 5.8252l-5.1189 -5.54292 3.00827 -41.9398 -6.163 41.4307 -4.92284 3.63307 -4.71378 -4.71496 0.0496063 -0.207874 13.024 -58.4434 9.67324 0 0.0614174 0.305906 13.0122 58.3453 -0.147638 0.16063 -4.56615 4.55433 -4.92284 -3.63307 -0.0248032 -0.16063 -6.13819 -41.2701 3.00827 41.9398 -5.1189 5.54292z"/>
  <path class="fil4" d="M948.155 954.884l-6.48898 149.616 -10.3724 9.57402 6.67796 -153.984c3.04488,-1.67008 8.5819,-5.40237 10.1835,-5.2063z"/>
  <path class="fil4" d="M938.352 960.323l-6.62835 152.818 9.55631 -8.8193 6.463 -149.008c-1.43504,0.283465 -4.34528,2.02559 -6.72638,3.44882 -0.969686,0.577559 -1.88386,1.12913 -2.66457,1.56024zm-7.48701 154.684l0.0366142 -0.950788 6.68977 -154.207 0.191339 -0.102756c0.80315,-0.441733 1.79173,-1.03228 2.82874,-1.65709 3.10512,-1.85433 6.29646,-3.74528 7.59213,-3.59764l0.362599 0.0484252 -0.0188977 0.36378 -6.49489 149.775 -11.1874 10.3287z"/>
  <path class="fil4" d="M961.548 965.098l-5.45079 125.702 -10.3843 9.82087 6.25276 -144.165c2.11181,2.25827 8.21339,7.5626 9.58229,8.64213z"/>
  <path class="fil4" d="M952.318 957.382l-6.17008 142.288 9.56339 -9.04135 5.4378 -125.347c-1.50945,-1.21417 -6.40867,-5.47441 -8.83111,-7.89922zm-7.04174 144.19l0.0425197 -0.970867 6.29174 -145.09 0.638977 0.675591c2.07402,2.22166 8.18623,7.53544 9.53741,8.60552l0.16063 0.122835 -0.00590552 0.200788 -5.4567 125.856 -11.2087 10.6004z"/>
  <path class="fil4" d="M973.389 974.918l-4.50118 103.729 -8.74489 8.32323 5.14252 -118.631c2.24646,2.06103 6.98623,5.89134 8.10355,6.57875z"/>
  <path class="fil4" d="M965.642 969.185l-5.07048 116.828 7.92993 -7.53662 4.48111 -103.349c-1.31339,-0.889371 -5.10591,-3.96378 -7.34056,-5.94213zm-5.94213 118.742l0.0507874 -0.97441 5.17914 -119.472 0.627166 0.569292c2.2937,2.1189 6.95906,5.87481 8.03268,6.53741l0.198425 0.122835 -0.00708662 0.225591 -4.50591 103.884 -9.5752 9.10749z"/>
  <path class="fil4" d="M985.32 980.517l-3.73347 86.0516 -8.74489 8.32323 4.24134 -97.7139c1.74213,1.07953 5.98937,3.23504 8.23701,3.33898z"/>
  <path class="fil4" d="M977.444 977.853l-4.16693 96.0804 7.92284 -7.53662 3.71457 -85.5237c-2.18622,-0.276378 -5.64804,-1.97599 -7.47048,-3.02008zm-5.03977 97.995l0.0448819 -0.97441 4.26496 -98.3835 0.570473 0.356693c1.77402,1.09134 5.95394,3.17953 8.05276,3.27756l0.386221 0.0106299 -0.0129921 0.393307 -3.73701 86.2123 -9.5693 9.10749z"/>
  <path class="fil4" d="M997.509 980.32l-3.22323 74.243 -8.74489 8.27245 3.55394 -81.926c1.90748,0.0980316 7.35237,-0.0980316 8.41418,-0.589371z"/>
  <path class="fil4" d="M989.469 981.32l-3.49252 80.5666 7.92284 -7.49528 3.19252 -73.5379c-1.59567,0.356693 -5.113,0.473622 -6.8067,0.473622 -0.301181,0 -0.570473,0 -0.816142,-0.00708662zm-4.36536 82.4694l0.0425197 -0.970867 3.57284 -82.3146 0.393307 0.0129921c0.305906,0.0177165 0.712205,0.0248032 1.17284,0.0248032l0.00472441 0c2.75079,0 6.32245,-0.233858 7.04646,-0.577559l0.589371 -0.270473 -0.0248032 0.644882 -3.22796 74.3965 -9.5693 9.05434z"/>
  <path class="fil4" d="M1099.84 954.884l6.48662 149.616 10.3748 9.57402 -6.67914 -153.984c-3.0437,-1.67008 -8.58072,-5.40237 -10.1823,-5.2063z"/>
  <path class="fil4" d="M1106.72 1104.32l9.55631 8.8193 -6.62717 -152.818c-0.780709,-0.431103 -1.69488,-0.982678 -2.66457,-1.56024 -2.4189,-1.44685 -5.38347,-3.21614 -6.72638,-3.45945l6.46182 149.019zm10.4161 10.6854l-11.1898 -10.3287 -0.00590552 -0.16063 -6.50552 -149.978 0.361418 -0.0484252c1.29567,-0.147638 4.49292,1.74331 7.59331,3.59764 1.03701,0.624804 2.02559,1.21536 2.82874,1.65709l0.191339 0.102756 0.011811 0.223229 6.71457 154.935z"/>
  <path class="fil4" d="M1086.45 965.098l5.45079 125.702 10.3843 9.82087 -6.25276 -144.165c-2.11181,2.25827 -8.21339,7.5626 -9.58229,8.64213z"/>
  <path class="fil4" d="M1092.29 1090.63l9.56339 9.04135 -6.17008 -142.288c-2.42362,2.42481 -7.32166,6.68504 -8.83111,7.89922l5.4378 125.347zm10.435 10.9441l-11.2087 -10.6004 -0.00472441 -0.153543 -5.45788 -125.903 0.159449 -0.122835c1.35,-1.07008 7.46457,-6.38386 9.53859,-8.60552l0.637796 -0.675591 0.0366142 0.93189 6.29882 145.129z"/>
  <path class="fil4" d="M1074.61 974.918l4.49882 103.729 8.74725 8.32323 -5.14252 -118.631c-2.24646,2.06103 -6.98623,5.89134 -8.10355,6.57875z"/>
  <path class="fil4" d="M1079.5 1078.48l7.93229 7.53662 -5.07048 -116.828c-2.23465,1.97835 -6.02717,5.05276 -7.34174,5.94213l4.47992 103.349zm8.80394 9.45119l-9.57639 -9.10749 -0.00590552 -0.152362 -4.50591 -103.957 0.198425 -0.122835c1.07244,-0.662599 5.73898,-4.41851 8.03268,-6.53741l0.625985 -0.569292 5.23111 120.447z"/>
  <path class="fil4" d="M1062.68 980.517l3.73111 86.0516 8.74725 8.32323 -4.24134 -97.7139c-1.74213,1.07953 -5.98937,3.23504 -8.23701,3.33898z"/>
  <path class="fil4" d="M1066.8 1066.4l7.9252 7.53662 -4.16693 -96.0804c-1.82244,1.0441 -5.28426,2.7437 -7.47048,3.02008l3.71221 85.5237zm8.79568 9.45119l-9.56694 -9.10749 -0.00708662 -0.153543 -3.74292 -86.452 0.38504 -0.0106299c2.1,-0.0980316 6.27993,-2.18622 8.05394,-3.27756l0.570473 -0.356693 0.0248032 0.669686 4.28268 98.6883z"/>
  <path class="fil4" d="M1050.49 980.32l3.22323 74.243 8.74489 8.27245 -3.55394 -81.926c-1.90748,0.0980316 -7.35237,-0.0980316 -8.41418,-0.589371z"/>
  <path class="fil4" d="M1054.1 1054.39l7.92284 7.49528 -3.49252 -80.5666c-0.245669,0.00708662 -0.514961,0.00708662 -0.816142,0.00708662 -1.6937,0 -5.21103,-0.116929 -6.8067,-0.472441l3.19252 73.5367zm8.79331 9.39804l-9.56694 -9.05434 -0.00708662 -0.153543 -3.24567 -74.8879 0.588189 0.270473c0.725197,0.343701 4.30158,0.577559 7.05237,0.577559 0.46063,0 0.86693,-0.00708662 1.17284,-0.0248032l0.392126 -0.0129921 0.0188977 0.392126 3.59528 82.8934z"/>
  <polygon class="fil3" points="995.717,1020.58 969.791,1111.32 1005.14,1116.04 1019.68,1048.47 "/>
  <path class="fil4" d="M970.294 1110.99l34.5425 4.60866 14.4189 -67.0182 -23.3599 -27.1914 -25.6016 89.6009zm35.1579 5.48032l-0.356693 -0.0425197 -35.8087 -4.7752 0.122835 -0.441733 26.1295 -91.441 0.472441 0.552756 24.0981 28.037 -0.0507874 0.197244 -14.6067 67.9134z"/>
  <polygon class="fil3" points="1052.28,1020.58 1078.21,1111.32 1042.86,1116.04 1028.32,1048.47 "/>
  <path class="fil4" d="M1028.74 1048.58l14.4189 67.0182 34.5425 -4.60866 -25.6016 -89.6009 -23.3599 27.1914zm13.8036 67.8898l-0.0732284 -0.349607 -14.5843 -67.7611 0.135827 -0.146457 24.4347 -28.4433 0.20315 0.700394 26.0469 91.1824 -0.452363 0.0602363 -35.7107 4.75748z"/>
  <path class="fil4" d="M990.315 1059.38l-3.78544 -7.58741c-0.100394,-0.188977 -0.0200788,-0.429922 0.175984,-0.520867 0.198425,-0.105118 0.431103,-0.0188977 0.522048,0.177165l3.28347 6.5563 8.6504 -9.40394c0.140551,-0.147638 0.390945,-0.170079 0.557481,-0.0177165 0.159449,0.146457 0.165354,0.399213 0.0177165,0.557481l-9.42166 10.239z"/>
  <path class="fil4" d="M1001.33 1065.96l-3.45 -30.5977c-0.0248032,-0.214961 0.134646,-0.411024 0.349607,-0.435827 0.20315,-0.0366142 0.412205,0.134646 0.434646,0.350788l3.23032 28.7173 10.0158 -12.4217c0.135827,-0.172441 0.387402,-0.197244 0.552756,-0.0614174 0.172441,0.134646 0.196063,0.380315 0.0625985,0.551575l-11.1957 13.8969z"/>
  <path class="fil4" d="M1014.18 1073.81c-0.16063,0 -0.308268,-0.0980316 -0.369685,-0.257481l-6.08859 -16.4988c-0.0732284,-0.201969 0.0248032,-0.429922 0.232677,-0.50315 0.198425,-0.0744095 0.431103,0.0236221 0.504331,0.233858l6.08977 16.4977c0.0732284,0.20315 -0.0271654,0.429922 -0.23504,0.504331 -0.0437008,0.011811 -0.0862205,0.0236221 -0.133465,0.0236221z"/>
  <path class="fil4" d="M1004.14 1085.92l-4.25552 -15.8728 -6.22796 9.5315 -4.3878 -11.5689 -9.00473 8.24883c-0.154725,0.152362 -0.411024,0.140551 -0.551575,-0.0248032 -0.148819,-0.159449 -0.142913,-0.412205 0.022441,-0.552756l9.85276 -9.03426 4.25197 11.2134 6.34134 -9.71576 4.3878 16.3394 8.75906 -7.82599c0.159449,-0.148819 0.405118,-0.135827 0.551575,0.0366142 0.147638,0.158268 0.129921,0.405118 -0.0354331,0.552756l-9.70394 8.67284z"/>
  <path class="fil4" d="M1007.65 1104.75c-0.184252,0 -0.343701,-0.122835 -0.380315,-0.307087l-3.11693 -14.5843 -8.16497 10.7965 -4.51181 -12.6437 -6.85512 9.60473 -6.55512 -16.7788c-0.0744095,-0.210236 0.0248032,-0.437008 0.220866,-0.517323 0.209055,-0.0732284 0.434646,0.0248032 0.514961,0.220866l6.01536 15.4311 6.89292 -9.64253 4.52363 12.6945 8.33623 -11.0067 3.46063 16.2532c0.0484252,0.216142 -0.0850394,0.424016 -0.295276,0.466536 -0.0307087,0.0129921 -0.0602363,0.0129921 -0.0850394,0.0129921z"/>
  <path class="fil4" d="M999.03 1116.79l-3.54685 -12.1039 -7.24253 10.9618 -4.93465 -14.5819 -6.1252 8.23583c-0.135827,0.178347 -0.381496,0.216142 -0.552756,0.0862205 -0.172441,-0.135827 -0.207874,-0.381496 -0.0862205,-0.552756l7.03347 -9.44056 4.88622 14.4862 7.29095 -11.035 3.72048 12.6437 6.61654 -4.96536c0.172441,-0.134646 0.418111,-0.0921261 0.546851,0.080315 0.127559,0.17126 0.090945,0.416929 -0.080315,0.54567l-7.52599 5.63977z"/>
  <path class="fil4" d="M1057.68 1059.38l-9.42048 -10.239c-0.146457,-0.158268 -0.140551,-0.411024 0.0188977,-0.557481 0.17126,-0.152362 0.416929,-0.129921 0.557481,0.0177165l8.64804 9.40394 3.28347 -6.5563c0.0933072,-0.196063 0.338977,-0.282284 0.522048,-0.177165 0.198425,0.090945 0.276378,0.33189 0.178347,0.520867l-3.7878 7.58741z"/>
  <path class="fil4" d="M1046.67 1065.96l-11.1957 -13.8969c-0.134646,-0.17126 -0.109843,-0.416929 0.0625985,-0.551575 0.158268,-0.135827 0.409843,-0.111024 0.552756,0.0614174l10.0158 12.4217 3.22796 -28.7173c0.0248032,-0.216142 0.209055,-0.387402 0.437008,-0.350788 0.21378,0.0248032 0.37441,0.220866 0.349607,0.435827l-3.45 30.5977z"/>
  <path class="fil4" d="M1033.82 1073.81c-0.0496063,0 -0.0921261,-0.011811 -0.134646,-0.0236221 -0.209055,-0.0744095 -0.307087,-0.301181 -0.233858,-0.504331l6.08977 -16.4977c0.0732284,-0.210236 0.311811,-0.308268 0.501969,-0.233858 0.210236,0.0732284 0.308268,0.301181 0.233858,0.50315l-6.08741 16.4988c-0.0625985,0.159449 -0.209055,0.257481 -0.369685,0.257481z"/>
  <path class="fil4" d="M1043.86 1085.92l-9.70394 -8.67284c-0.165354,-0.147638 -0.183071,-0.394488 -0.0377953,-0.552756 0.148819,-0.172441 0.394488,-0.185433 0.552756,-0.0366142l8.76024 7.82599 4.3878 -16.3394 6.34134 9.71576 4.25197 -11.2134 9.85276 9.03426c0.164173,0.140551 0.17126,0.393307 0.022441,0.552756 -0.140551,0.165354 -0.390945,0.177165 -0.551575,0.0248032l-9.00473 -8.24883 -4.3878 11.5689 -6.23032 -9.5315 -4.25315 15.8728z"/>
  <path class="fil4" d="M1040.35 1104.75c-0.0248032,0 -0.056693,0 -0.0850394,-0.0129921 -0.210236,-0.0425197 -0.343701,-0.250394 -0.295276,-0.466536l3.46063 -16.2532 8.33505 11.0067 4.52481 -12.6945 6.89174 9.64253 6.01654 -15.4311c0.080315,-0.196063 0.305906,-0.294095 0.514961,-0.220866 0.196063,0.080315 0.294095,0.307087 0.220866,0.517323l-6.55512 16.7788 -6.85512 -9.60473 -4.513 12.6437 -8.16379 -10.7965 -3.11693 14.5843c-0.0366142,0.184252 -0.196063,0.307087 -0.380315,0.307087z"/>
  <path class="fil4" d="M1048.97 1116.79l-7.52599 -5.63977c-0.172441,-0.12874 -0.207874,-0.37441 -0.080315,-0.54567 0.129921,-0.172441 0.381496,-0.214961 0.546851,-0.080315l6.61536 4.96536 3.72048 -12.6437 7.29213 11.035 4.88504 -14.4862 7.03347 9.44056c0.122835,0.17126 0.0874016,0.416929 -0.0850394,0.552756 -0.17126,0.129921 -0.416929,0.0921261 -0.552756,-0.0862205l-6.1252 -8.23583 -4.93465 14.5819 -7.24253 -10.9618 -3.54685 12.1039z"/>
  <path class="fil3" d="M1024 968.929c10.4102,8.44489 24.9437,12.1772 40.8036,11.0976 -1.91457,37.0217 -12.5209,63.3414 -40.8036,82.5898 -28.2827,-19.2484 -38.889,-45.5681 -40.8036,-82.5898 15.8599,1.07953 30.3933,-2.65276 40.8036,-11.0976z"/>
  <path class="fil4" d="M983.613 980.443c2.11063,39.3237 14.2146,63.7961 40.3866,81.6934 26.1721,-17.8973 38.2737,-42.3697 40.3855,-81.6934 -1.63228,0.103937 -3.27047,0.158268 -4.87323,0.158268 -14.1047,0 -26.3729,-3.86575 -35.5122,-11.1709 -9.13938,7.30512 -21.4099,11.1709 -35.5122,11.1709l0 0c-1.60394,0 -3.24095,-0.0543308 -4.87441,-0.158268zm40.3866 82.6501l-0.220866 -0.152362c-26.6516,-18.137 -38.9091,-42.9331 -40.9772,-82.891l-0.022441 -0.447638 0.441733 0.0307087c1.76693,0.122835 3.53386,0.183071 5.26654,0.183071 14.0421,0 26.2441,-3.87284 35.2666,-11.1957l0.245669 -0.196063 0.245669 0.196063c9.02245,7.32284 21.2244,11.1957 35.2666,11.1957 1.73268,0 3.49961,-0.0602363 5.26654,-0.183071l0.441733 -0.0307087 -0.0248032 0.447638c-2.06811,39.9579 -14.3232,64.754 -40.9748,82.891l-0.220866 0.152362z"/>
  <path class="fil3" d="M1024 1058c22.7835,-14.9634 35.0705,-40.2272 36.7276,-74.439 -14.7295,0.294095 -27.6933,-3.04488 -36.7276,-10.5461 -9.03426,7.50119 -21.998,10.8402 -36.7299,10.5461 1.65945,34.2118 13.9465,59.4756 36.7299,74.439z"/>
  <path class="fil4" d="M987.689 983.961c1.7374,34.0217 13.9571,58.7752 36.3107,73.5733 22.3536,-14.798 34.5733,-39.5516 36.3107,-73.5733 -0.453544,0.00472441 -0.908268,0.011811 -1.36299,0.011811 -14.4839,0 -26.563,-3.61654 -34.9477,-10.4469 -8.38465,6.83032 -20.4638,10.4469 -34.95,10.4469 -0.452363,0 -0.907087,-0.00708662 -1.36063,-0.011811zm36.3107 74.5064l-0.216142 -0.135827c-22.813,-14.9882 -35.224,-40.1351 -36.9059,-74.752l-0.0177165 -0.424016 0.422835 0.011811c15.2091,0.314173 27.8788,-3.32599 36.4654,-10.4528l0.251575 -0.207874 0.251575 0.207874c8.58662,7.12678 21.2315,10.7847 36.4654,10.4528l0.422835 -0.011811 -0.0177165 0.424016c-1.68189,34.617 -14.0929,59.7638 -36.9083,74.752l-0.21378 0.135827z"/>
  <path class="fil4" d="M1036.12 979.879c7.20709,2.67638 15.5717,3.86575 24.6059,3.68268 -1.33819,27.5268 -9.54922,49.2615 -24.5752,64.4953l-0.0307087 -68.178z"/>
  <path class="fil4" d="M1036.52 980.443l0.0295276 66.6449c14.3988,-14.9894 22.3914,-36.2256 23.765,-63.1276 -8.8878,0.158268 -16.9087,-1.05118 -23.7945,-3.51733zm-0.755906 68.5701l-0.0307087 -69.6993 0.532678 0.196063c6.5563,2.44252 14.191,3.67677 22.6855,3.67677 0.590552,0 1.17992,-0.00708662 1.76929,-0.0200788l0.422835 -0.011811 -0.0177165 0.424016c-1.34528,27.7181 -9.64961,49.5012 -24.6862,64.754l-0.675591 0.680315z"/>
  <path class="fil4" d="M1011.88 979.879c-7.20709,2.67638 -15.5717,3.86575 -24.6083,3.68268 1.33819,27.5268 9.55158,49.2615 24.5776,64.4953l0.0307087 -68.178z"/>
  <path class="fil4" d="M987.689 983.961c1.37362,26.8996 9.36615,48.1382 23.765,63.1276l0.0295276 -66.6449c-6.88583,2.46614 -14.9209,3.67559 -23.7945,3.51733zm24.5504 65.0528l-0.675591 -0.680315c-15.0366,-15.2528 -23.3421,-37.0359 -24.6862,-64.754l-0.0177165 -0.424016 0.422835 0.011811c0.589371,0.0129921 1.17874,0.0200788 1.76693,0.0200788 8.49686,0 16.1315,-1.23425 22.6878,-3.67677l0.532678 -0.196063 -0.0307087 69.6993z"/>
  <path class="fil3" d="M988.254 1111.32c8.56182,1.17874 18.039,1.69488 24.7961,1.3311 4.61457,-0.250394 7.61103,7.39016 -0.441733,8.2689 -8.05276,0.870473 -19.2484,-0.570473 -25.4788,-1.42323 -6.23032,-0.861024 -17.4012,-2.49803 -24.9189,-5.51221 -7.513,-3.02008 -2.57126,-9.5693 1.80945,-8.07875 6.40867,2.17441 15.6709,4.23544 24.2339,5.41418z"/>
  <path class="fil4" d="M962.708 1106.08c-1.84134,0 -3.60945,1.38071 -3.93425,3.07441 -0.343701,1.78583 0.96378,3.41221 3.58465,4.46103 6.96615,2.79921 16.9276,4.40079 24.8268,5.48741 3.68268,0.504331 12.3,1.69488 19.7752,1.69488 2.07638,0 3.95906,-0.090945 5.60552,-0.271654 3.02481,-0.329528 4.76693,-1.72914 4.66418,-3.75473 -0.0921261,-1.76811 -1.74213,-3.73229 -3.95906,-3.73229 -0.0602363,0 -0.134646,0 -0.196063,0.00708662 -1.42441,0.0791339 -2.99646,0.116929 -4.66536,0.116929 -6.14292,0 -13.5154,-0.529134 -20.2051,-1.45039 -8.63032,-1.18937 -17.9469,-3.27638 -24.3118,-5.43662 -0.387402,-0.12874 -0.778347,-0.196063 -1.18465,-0.196063zm44.2524 15.5032c-7.52363,0 -16.1835,-1.19055 -19.8862,-1.69961 -7.94174,-1.09252 -17.9587,-2.70827 -25.011,-5.52993 -4.26615,-1.71969 -4.26615,-4.30985 -4.05709,-5.35394 0.399213,-2.07402 2.46732,-3.7063 4.70197,-3.7063 0.491339,0 0.968505,0.080315 1.43504,0.239764 6.32363,2.14843 15.5788,4.21654 24.1595,5.3941 6.66615,0.921261 13.9937,1.45039 20.1071,1.45039 1.65827,0 3.21024,-0.0377953 4.61575,-0.11811 2.77441,-0.159449 4.8626,2.23937 4.98307,4.46929 0.0555119,0.933072 -0.183071,4.02048 -5.35748,4.57796 -1.67599,0.178347 -3.59174,0.276378 -5.69056,0.276378z"/>
  <path class="fil3" d="M1059.75 1111.32c-8.56182,1.17874 -18.039,1.69488 -24.7961,1.3311 -4.61693,-0.250394 -7.61103,7.39016 0.441733,8.2689 8.05276,0.870473 19.2532,-0.570473 25.4788,-1.42323 6.22796,-0.861024 17.3988,-2.49803 24.9189,-5.51221 7.51182,-3.02008 2.57126,-9.5693 -1.81181,-8.07875 -6.4063,2.17441 -15.6685,4.23544 -24.2315,5.41418z"/>
  <path class="fil4" d="M1034.73 1113.04c-2.20984,0 -3.86103,1.96417 -3.95315,3.73229 -0.111024,2.02559 1.63347,3.4252 4.65827,3.75473 1.6441,0.180709 3.52914,0.271654 5.60315,0.271654 7.47756,0 16.0937,-1.19055 19.7776,-1.69488 7.90512,-1.08662 17.8606,-2.68819 24.8268,-5.48741 2.62087,-1.04882 3.92835,-2.6752 3.58465,-4.46103 -0.325985,-1.6937 -2.09291,-3.07441 -3.93425,-3.07441 -0.4063,0 -0.797245,0.0673229 -1.18465,0.196063 -6.36497,2.16024 -15.6827,4.24725 -24.3118,5.43662 -6.69095,0.921261 -14.0622,1.45039 -20.2063,1.45039 -1.67008,0 -3.24095,-0.0377953 -4.66418,-0.116929 -0.0614174,-0.00708662 -0.133465,-0.00708662 -0.196063,-0.00708662zm6.30827 8.5441c-2.09882,0 -4.01339,-0.090945 -5.68819,-0.276378 -5.17441,-0.557481 -5.41418,-3.64488 -5.35985,-4.57323 0.111024,-2.16614 2.05158,-4.48111 4.73977,-4.48111 0.080315,0 0.159449,0 0.245669,0.00708662 1.40551,0.080315 2.95748,0.11811 4.61457,0.11811 6.11457,0 13.4421,-0.529134 20.1071,-1.45039 8.5819,-1.17756 17.837,-3.24567 24.1583,-5.3941 0.466536,-0.159449 0.946064,-0.239764 1.4374,-0.239764 2.23465,0 4.30276,1.63228 4.70197,3.7063 0.209055,1.0441 0.209055,3.63425 -4.05709,5.35394 -7.04528,2.82166 -17.0705,4.4374 -25.011,5.52993 -3.69567,0.509056 -12.3579,1.69961 -19.8886,1.69961z"/>
  <path class="fil3" d="M961.076 1107.18c-5.98465,-1.43504 -9.64961,6.40867 -6.90591,10.6689 0.140551,-2.48032 5.39528,-2.52992 5.99764,-4.68898 0.747638,-2.66575 -1.57205,-3.48189 0.908268,-5.97993z"/>
  <path class="fil4" d="M959.652 1107.4c-2.0504,0 -3.88583,1.20354 -5.03386,3.29646 -1.08662,1.99488 -1.27205,4.35237 -0.529134,6.14292 0.565748,-0.901182 1.80473,-1.42323 3.00827,-1.92638 1.20945,-0.50315 2.45433,-1.0311 2.68819,-1.86614 0.276378,-0.969686 0.0980316,-1.67008 -0.0732284,-2.34331 -0.245669,-0.938977 -0.491339,-1.90512 0.602363,-3.26575 -0.220866,-0.0248032 -0.441733,-0.0377953 -0.662599,-0.0377953zm-5.1567 11.6752l-0.656693 -1.01339c-1.35591,-2.11654 -1.32047,-5.14961 0.0921261,-7.73977 1.54606,-2.82402 4.35827,-4.20945 7.23544,-3.52323l0.682678 0.159449 -0.49252 0.49252c-1.3252,1.33701 -1.14213,2.06103 -0.883465,3.05551 0.183071,0.742914 0.4063,1.58386 0.0732284,2.7626 -0.336614,1.19055 -1.76693,1.79055 -3.14055,2.36811 -1.4315,0.602363 -2.7815,1.16693 -2.84173,2.23347l-0.068504 1.20473z"/>
  <path class="fil3" d="M986.296 1124.61c0.582284,-4.24725 4.20473,-1.36299 4.83544,-5.92914 0.314173,-2.31969 -0.753544,-4.98307 -3.28819,-5.32678 -2.52992,-0.344882 -4.19292,1.93228 -4.51181,4.25197 -0.627166,4.56142 3.53504,2.84882 2.96457,7.00394z"/>
  <path class="fil4" d="M987.333 1113.71c-2.0126,0 -3.33898,1.98898 -3.60945,3.95197 -0.294095,2.1 0.479528,2.67638 1.36299,3.32599 0.564567,0.419292 1.16693,0.865749 1.46575,1.70197 0.53504,-0.767717 1.27087,-1.03228 1.95827,-1.27795 1.0441,-0.37441 1.94055,-0.693308 2.23465,-2.77914 0.288189,-2.13662 -0.650788,-4.57323 -2.95748,-4.88741 -0.153543,-0.0248032 -0.307087,-0.0354331 -0.454725,-0.0354331zm-0.649607 10.95l-0.773623 -0.105118c0.244488,-1.79764 -0.431103,-2.30197 -1.28976,-2.92677 -0.944883,-0.713386 -2.02559,-1.51063 -1.6748,-4.07717 0.336614,-2.46732 2.17914,-4.92166 4.95237,-4.59095 2.81221,0.394488 3.96496,3.26575 3.62008,5.77087 -0.348425,2.56536 -1.61929,3.02008 -2.74843,3.42402 -1.01929,0.368504 -1.82953,0.650788 -2.08583,2.50512l0 0z"/>
  <path class="fil3" d="M1015.54 1114.66c6.15,0.233858 7.55316,8.77678 3.76772,12.1417 0.526772,-2.42599 -4.50591,-3.89292 -4.50591,-6.13229 0,-2.76851 2.44961,-2.92677 0.73819,-6.00945z"/>
  <path class="fil4" d="M1016.21 1115.12c0.68504,1.60394 0.183071,2.46851 -0.296457,3.30945 -0.355512,0.601182 -0.711024,1.22717 -0.711024,2.24055 0,0.865749 1.05473,1.69961 2.08701,2.52284 1.02402,0.810237 2.07402,1.6441 2.37402,2.66339 1.3689,-1.74921 1.76221,-4.50591 0.891733,-6.92363 -0.762993,-2.13543 -2.33386,-3.49843 -4.34528,-3.8126zm2.46732 12.7795l0.256299 -1.17756c0.227953,-1.04882 -0.921261,-1.95709 -2.13662,-2.91614 -1.17165,-0.93189 -2.37992,-1.88977 -2.37992,-3.13583 0,-1.22244 0.429922,-1.97008 0.809056,-2.63268 0.516142,-0.896457 0.890552,-1.54134 -0.0236221,-3.18071l-0.333071 -0.612993 0.69567 0.0236221c2.6752,0.105118 4.7693,1.70669 5.73308,4.39489 1.08425,3.03307 0.361418,6.57993 -1.72441,8.43426l-0.896457 0.80315z"/>
  <path class="fil3" d="M1086.92 1107.18c5.98465,-1.43504 9.64961,6.40867 6.90591,10.6689 -0.140551,-2.48032 -5.39646,-2.52992 -5.99764,-4.68898 -0.747638,-2.66575 1.57205,-3.48189 -0.908268,-5.97993z"/>
  <path class="fil4" d="M1087.69 1107.43c1.09252,1.36063 0.846851,2.32677 0.602363,3.26575 -0.172441,0.673229 -0.350788,1.37362 -0.0732284,2.34331 0.233858,0.83504 1.47874,1.36299 2.68701,1.86614 1.20473,0.50315 2.4437,1.0252 3.00709,1.92638 0.742914,-1.79055 0.559843,-4.14803 -0.526772,-6.14292 -1.27087,-2.31378 -3.36378,-3.55394 -5.69646,-3.25866zm5.8193 11.6374l-0.068504 -1.20473c-0.0602363,-1.06654 -1.41024,-1.6311 -2.84173,-2.23347 -1.3748,-0.577559 -2.80394,-1.17756 -3.14173,-2.36811 -0.33189,-1.17874 -0.111024,-2.02559 0.0744095,-2.7626 0.256299,-0.994489 0.441733,-1.71851 -0.878741,-3.05551l-0.491339 -0.49252 0.682678 -0.159449c2.87126,-0.699213 5.68347,0.699213 7.22953,3.52323 1.41142,2.59016 1.44803,5.62323 0.0921261,7.73977l-0.656693 1.01339z"/>
  <path class="fil3" d="M1061.7 1124.61c-0.582284,-4.24725 -4.20473,-1.36299 -4.83071,-5.92914 -0.325985,-2.31969 0.748819,-4.98307 3.28347,-5.32678 2.52874,-0.344882 4.19292,1.93228 4.51181,4.25197 0.627166,4.56142 -3.53504,2.84882 -2.96457,7.00394z"/>
  <path class="fil4" d="M1060.67 1113.71c-0.147638,0 -0.301181,0.0106299 -0.454725,0.0354331 -0.870473,0.11811 -1.58386,0.53504 -2.11063,1.24016 -0.713386,0.934253 -1.03228,2.29725 -0.840946,3.64016 0.288189,2.09291 1.18465,2.41181 2.23347,2.78622 0.681497,0.245669 1.41851,0.510237 1.95354,1.27795 0.298819,-0.836221 0.901182,-1.28268 1.46575,-1.70197 0.883465,-0.649607 1.65709,-1.22599 1.36299,-3.32599 -0.270473,-1.96299 -1.59685,-3.95197 -3.60945,-3.95197zm1.05473 11.2937l0 -0.399213 -0.405118 0.0555119c-0.257481,-1.84725 -1.0689,-2.13662 -2.08583,-2.50512 -1.12913,-0.403937 -2.3941,-0.858662 -2.75079,-3.42402 -0.21378,-1.54134 0.16063,-3.11929 0.994489,-4.22481 0.649607,-0.858662 1.56024,-1.39843 2.62795,-1.54606 2.79095,-0.330709 4.61575,2.12362 4.95237,4.59095 0.350788,2.56654 -0.729922,3.36378 -1.6748,4.07717 -0.859843,0.624804 -1.53543,1.12913 -1.28976,2.92677l0 0 -0.368504 0.0496063 0 0.399213z"/>
  <path class="fil3" d="M1032.46 1114.66c-6.15,0.233858 -7.55552,8.77678 -3.76772,12.1417 -0.526772,-2.42599 4.50591,-3.89292 4.50591,-6.13229 0,-2.76851 -2.44961,-2.92677 -0.73819,-6.00945z"/>
  <path class="fil4" d="M1031.79 1115.12c-2.0126,0.314173 -3.58465,1.67717 -4.34528,3.8126 -0.870473,2.41772 -0.478347,5.17441 0.891733,6.92363 0.298819,-1.01929 1.34764,-1.85315 2.37402,-2.66339 1.03228,-0.823229 2.08701,-1.65709 2.08701,-2.52284 0,-1.01339 -0.356693,-1.63937 -0.711024,-2.24055 -0.479528,-0.840946 -0.983859,-1.70551 -0.296457,-3.30945zm-2.46732 12.7795l-0.896457 -0.80315c-2.08583,-1.85433 -2.81103,-5.40119 -1.72441,-8.43426 0.96378,-2.68819 3.05788,-4.28977 5.73308,-4.39489l0.693308 -0.0236221 -0.330709 0.612993c-0.914174,1.63937 -0.539764,2.28425 -0.0248032,3.18071 0.380315,0.662599 0.810237,1.41024 0.810237,2.63268 0,1.24606 -1.20827,2.20394 -2.38229,3.13583 -1.21536,0.959056 -2.36221,1.86732 -2.13425,2.91614l0.256299 1.17756z"/>
  <path class="fil3" d="M963.407 1109.13c1.65709,-0.431103 5.60315,1.01102 6.39686,2.23229l-6.39686 -2.23229z"/>
  <path class="fil4" d="M969.804 1111.75c-0.122835,0 -0.252756,-0.0602363 -0.325985,-0.178347 -0.668504,-1.03701 -4.42559,-2.46732 -5.97284,-2.06811 -0.220866,0.0625985 -0.42874,-0.0732284 -0.478347,-0.281103 -0.0614174,-0.216142 0.0744095,-0.432284 0.283465,-0.479528 1.76693,-0.448819 5.91615,0.999213 6.82441,2.4 0.122835,0.177165 0.068504,0.424016 -0.109843,0.546851 -0.0755906,0.0354331 -0.147638,0.0602363 -0.220866,0.0602363z"/>
  <path class="fil3" d="M973.878 1112.63c1.58386,-0.539764 5.86182,0.656693 7.07717,1.74921l-7.07717 -1.74921z"/>
  <path class="fil4" d="M980.955 1114.77c-0.090945,0 -0.188977,-0.0283465 -0.263386,-0.103937 -1.12323,-1.0063 -5.22993,-2.16024 -6.68977,-1.6689 -0.184252,0.0732284 -0.424016,-0.0377953 -0.490158,-0.245669 -0.0755906,-0.196063 0.0354331,-0.422835 0.243307,-0.49252 1.69488,-0.587008 6.15,0.651969 7.46575,1.83071 0.158268,0.140551 0.17126,0.393307 0.022441,0.551575 -0.0732284,0.0862205 -0.183071,0.12874 -0.288189,0.12874z"/>
  <path class="fil3" d="M1011.87 1117.03c-1.44331,-0.933072 -5.63504,-0.822048 -6.78189,0.0862205l6.78189 -0.0862205z"/>
  <path class="fil4" d="M1005.08 1117.51c-0.111024,0 -0.226772,-0.0496063 -0.307087,-0.147638 -0.135827,-0.172441 -0.105118,-0.416929 0.0602363,-0.552756 1.30866,-1.0311 5.70827,-1.10433 7.24489,-0.109843 0.183071,0.115748 0.231496,0.356693 0.115748,0.539764 -0.115748,0.183071 -0.369685,0.233858 -0.546851,0.122835 -1.3441,-0.871654 -5.35276,-0.712205 -6.32126,0.0602363 -0.0755906,0.0625985 -0.16063,0.0874016 -0.245669,0.0874016z"/>
  <path class="fil3" d="M1000.82 1117.02c-1.3252,-1.01339 -5.76851,-1.24016 -7.26733,-0.589371l7.26733 0.589371z"/>
  <path class="fil4" d="M1000.82 1117.41c-0.0862205,0 -0.165354,-0.0236221 -0.238583,-0.080315 -1.21536,-0.924804 -5.49331,-1.13504 -6.86812,-0.54567 -0.209055,0.0980316 -0.437008,0 -0.517323,-0.196063 -0.090945,-0.20315 0,-0.42874 0.198425,-0.516142 1.61339,-0.698032 6.23504,-0.452363 7.66418,0.63189 0.172441,0.12874 0.20315,0.37441 0.0744095,0.552756 -0.0791339,0.105118 -0.196063,0.153543 -0.312992,0.153543z"/>
  <path class="fil3" d="M1084.59 1109.13c-1.65709,-0.431103 -5.60315,1.01102 -6.39686,2.23229l6.39686 -2.23229z"/>
  <path class="fil4" d="M1078.2 1111.75c-0.0732284,0 -0.147638,-0.0248032 -0.220866,-0.0602363 -0.178347,-0.122835 -0.232677,-0.369685 -0.109843,-0.546851 0.908268,-1.40079 5.0752,-2.84882 6.82441,-2.4 0.209055,0.0472441 0.344882,0.263386 0.282284,0.479528 -0.0484252,0.207874 -0.244488,0.343701 -0.477166,0.281103 -1.54134,-0.399213 -5.29725,1.0311 -5.97284,2.06811 -0.0744095,0.11811 -0.20315,0.178347 -0.325985,0.178347z"/>
  <path class="fil3" d="M1074.12 1112.63c-1.58386,-0.539764 -5.8689,0.656693 -7.07835,1.74921l7.07835 -1.74921z"/>
  <path class="fil4" d="M1067.04 1114.77c-0.103937,0 -0.21378,-0.0425197 -0.28937,-0.12874 -0.146457,-0.158268 -0.133465,-0.411024 0.0248032,-0.551575 1.30748,-1.17874 5.77678,-2.42481 7.46339,-1.83071 0.210236,0.0696851 0.32126,0.296457 0.245669,0.49252 -0.0673229,0.207874 -0.305906,0.318898 -0.491339,0.245669 -1.44685,-0.479528 -5.57245,0.656693 -6.68859,1.6689 -0.0744095,0.0755906 -0.172441,0.103937 -0.264567,0.103937z"/>
  <path class="fil3" d="M1036.13 1117.03c1.44803,-0.933072 5.64095,-0.822048 6.78898,0.0862205l-6.78898 -0.0862205z"/>
  <path class="fil4" d="M1042.92 1117.51c-0.0850394,0 -0.172441,-0.0248032 -0.245669,-0.0874016 -0.968505,-0.760631 -4.97244,-0.938977 -6.32835,-0.0602363 -0.177165,0.111024 -0.424016,0.0602363 -0.546851,-0.122835 -0.109843,-0.183071 -0.0602363,-0.424016 0.122835,-0.539764 1.53662,-0.994489 5.92914,-0.921261 7.24489,0.109843 0.165354,0.135827 0.196063,0.380315 0.0602363,0.552756 -0.080315,0.0980316 -0.196063,0.147638 -0.307087,0.147638z"/>
  <path class="fil3" d="M1047.18 1117.02c1.3252,-1.01339 5.76851,-1.24016 7.26733,-0.589371l-7.26733 0.589371z"/>
  <path class="fil4" d="M1047.18 1117.41c-0.116929,0 -0.233858,-0.0484252 -0.312992,-0.153543 -0.129921,-0.17126 -0.0980316,-0.424016 0.0720473,-0.552756 1.4315,-1.08425 6.04725,-1.34291 7.66654,-0.63189 0.198425,0.0874016 0.28937,0.312992 0.198425,0.516142 -0.080315,0.196063 -0.308268,0.294095 -0.517323,0.196063 -1.39252,-0.602363 -5.65867,-0.379134 -6.86812,0.54567 -0.0673229,0.056693 -0.152362,0.080315 -0.238583,0.080315z"/>
  <path class="fil4" d="M1038.68 906.685c-1.98307,-5.33386 -5.69764,-8.41418 -11.1473,-9.2504 -2.45551,-0.379134 -4.84843,-1.10433 -7.75749,-1.57087 -3.04488,-0.490158 -5.89371,2.25945 -7.36536,5.00788 2.74961,1.37599 4.65237,4.62402 6.57993,5.01024 2.45433,0.490158 4.14685,-0.16063 6.77481,-2.84882 4.02638,-4.12441 10.9996,-2.31969 12.9154,3.65197z"/>
  <path class="fil3" d="M1018.8 901.456c-1.87205,0 -1.87205,2.78622 0,2.78622 1.87323,0 1.89803,-2.78622 0,-2.78622z"/>
 </g>
 <rect class="fil5" width="2048" height="2048"/>
</svg>
