<?xml version="1.0" encoding="UTF-8"?>
<!DOCTYPE svg PUBLIC "-//W3C//DTD SVG 1.1//EN" "http://www.w3.org/Graphics/SVG/1.1/DTD/svg11.dtd">
<!-- Creator: CorelDRAW -->
<svg xmlns="http://www.w3.org/2000/svg" xml:space="preserve" width="2048px" height="2048px" style="shape-rendering:geometricPrecision; text-rendering:geometricPrecision; image-rendering:optimizeQuality; fill-rule:evenodd; clip-rule:evenodd"
viewBox="0 0 2048 2048"
 xmlns:xlink="http://www.w3.org/1999/xlink">
 <defs>
  <style type="text/css">
   <![CDATA[
    .fil2 {fill:none}
    .fil1 {fill:#0D5EAF}
    .fil0 {fill:#EEEEEE}
   ]]>
  </style>
 </defs>
 <g id="Layer_x0020_1">
  <metadata id="CorelCorpID_0Corel-Layer"/>
  <rect class="fil0" x="255.999" y="562.5" width="1536" height="923"/>
  <path class="fil1" d="M255.999 562.744l208.18 0 0 206.861 -208.18 0 0 -206.861zm309.938 0l1226.06 0 0 105.093 -1023.44 0 0 101.758 1023.44 0 0 101.772 -1023.44 0 0 101.758 1023.44 0 0 105.098 -1226.06 0 0 -206.861 202.63 0 0 -101.758 -202.63 0 0 -206.861zm1226.06 617.239l0 101.758 -1536 0 0 -101.758 1536 0zm-1536 -101.759l0 -206.861 208.18 0 0 206.861 -208.18 0zm1536 305.275l0 101.758 -1536 0 0 -101.758 1536 0z"/>
 </g>
 <rect class="fil2" width="2048" height="2048"/>
</svg>
