<?xml version="1.0" encoding="UTF-8"?>
<!DOCTYPE svg PUBLIC "-//W3C//DTD SVG 1.1//EN" "http://www.w3.org/Graphics/SVG/1.1/DTD/svg11.dtd">
<!-- Creator: CorelDRAW -->
<svg xmlns="http://www.w3.org/2000/svg" xml:space="preserve" width="2048px" height="2048px" style="shape-rendering:geometricPrecision; text-rendering:geometricPrecision; image-rendering:optimizeQuality; fill-rule:evenodd; clip-rule:evenodd"
viewBox="0 0 2048 2048"
 xmlns:xlink="http://www.w3.org/1999/xlink">
 <defs>
  <style type="text/css">
   <![CDATA[
    .fil3 {fill:none}
    .fil1 {fill:#003897}
    .fil0 {fill:#EEEEEE}
    .fil2 {fill:#D72828;fill-rule:nonzero}
   ]]>
  </style>
 </defs>
 <g id="Layer_x0020_1">
  <metadata id="CorelCorpID_0Corel-Layer"/>
  <rect class="fil0" x="255.999" y="562.5" width="1536" height="923"/>
  <path class="fil1" d="M255.999 562.744l349.955 0 0 349.83 -349.955 0 0 -349.83zm572.759 0l963.242 0 0 349.83 -963.242 0 0 -349.83zm963.242 572.678l0 349.835 -963.242 0 0 -349.835 963.242 0zm-1186.05 349.835l-349.955 0 0 -349.835 349.955 0 0 349.835z"/>
  <polygon class="fil2" points="653.62,1087.71 254.871,1087.71 254.871,960.284 653.62,960.284 653.62,562.744 781.091,562.744 781.091,960.284 1793.52,960.284 1793.52,1087.71 781.091,1087.71 781.091,1485.14 653.62,1485.14 "/>
 </g>
 <rect class="fil3" width="2048" height="2048"/>
</svg>
