<?xml version="1.0" encoding="UTF-8"?>
<!DOCTYPE svg PUBLIC "-//W3C//DTD SVG 1.1//EN" "http://www.w3.org/Graphics/SVG/1.1/DTD/svg11.dtd">
<!-- Creator: CorelDRAW -->
<svg xmlns="http://www.w3.org/2000/svg" xml:space="preserve" width="2048px" height="2048px" style="shape-rendering:geometricPrecision; text-rendering:geometricPrecision; image-rendering:optimizeQuality; fill-rule:evenodd; clip-rule:evenodd"
viewBox="0 0 2048 2048"
 xmlns:xlink="http://www.w3.org/1999/xlink">
 <defs>
  <style type="text/css">
   <![CDATA[
    .fil4 {fill:none}
    .fil3 {fill:#000084}
    .fil2 {fill:#128807}
    .fil1 {fill:#EEEEEE}
    .fil0 {fill:#FF9933}
   ]]>
  </style>
 </defs>
 <g id="Layer_x0020_1">
  <metadata id="CorelCorpID_0Corel-Layer"/>
  <rect class="fil0" x="255.999" y="562.744" width="1536" height="307.586"/>
  <rect class="fil1" x="255.999" y="870.329" width="1536" height="307.586"/>
  <rect class="fil2" x="255.999" y="1177.92" width="1536" height="307.586"/>
  <path class="fil3" d="M1024 913.684c-60.9213,0 -110.391,49.3205 -110.391,110.242 0,60.9213 49.4693,110.391 110.391,110.391 60.9213,0 110.391,-49.4693 110.391,-110.391 -0.0744095,-60.9213 -49.4693,-110.242 -110.391,-110.242zm17.5441 12.176c2.79095,0.585827 5.43308,1.03347 8.14961,1.91693l-17.0339 52.8367 -4.73977 27.3012c-1.09724,-0.265748 -2.24764,-0.403937 -3.41929,-0.425197l2.43898 -27.6118 -2.79095 -55.4882c2.94095,0 5.72008,0.15 8.51103,0.447638 0,0.148819 -0.148819,0.148819 -0.148819,0.298819 0,2.64095 2.0563,4.83544 4.55906,4.83544 2.34449,0 4.25079,-1.9063 4.47402,-4.11142zm-17.6185 -1.47047l-2.78032 55.4882 2.6315 27.6118c-1.23662,0.0212599 -2.44016,0.191339 -3.60118,0.467717l-4.68662 -27.3437 -17.0339 -52.8367c2.65276,-0.883465 5.29489,-1.3311 8.0752,-1.91693 0.297638,2.20512 2.20512,3.9626 4.47402,3.9626 2.57717,0 4.63347,-2.04567 4.63347,-4.68662l0 -0.447638c2.70591,-0.298819 5.50748,-0.298819 8.2878,-0.298819zm26.0551 3.3874c2.65276,0.874016 5.29489,1.60866 7.93701,2.64213 -0.15,0.437008 -0.373229,1.02284 -0.373229,1.60866 0,2.49213 2.0563,4.54843 4.62284,4.54843 1.75748,0 3.52559,-1.17165 4.18701,-2.79095 2.49213,1.18228 4.90985,2.50276 7.41379,3.97323l-30.1677 46.3807 -11.6433 25.3311c-1.0441,-0.575197 -2.1626,-1.0441 -3.33425,-1.37362l9.61891 -26.1626 11.739 -54.1571zm-17.3634 82.0772l16.0429 -22.637 25.3205 -49.3205c2.27953,1.32165 4.63347,2.79095 6.97796,4.26142 -0.661418,0.874016 -1.03347,1.75748 -1.03347,2.92914 0,2.50394 2.05512,4.55906 4.63347,4.55906 1.45984,0 2.78032,-0.585827 3.58937,-1.91693 2.20512,1.91693 4.26142,3.82441 6.16772,5.73071l-41.0965 37.1339 -17.7685 21.4335c-0.862205,-0.820867 -1.81063,-1.55551 -2.83347,-2.17323zm3.36614 2.69528l21.3366 -17.6941 37.2201 -41.2465c1.9063,2.0563 3.81378,3.9626 5.57126,6.15709 -1.09724,0.884646 -1.60866,2.20512 -1.60866,3.52677 0,2.50276 2.04567,4.55906 4.47402,4.55906 1.09724,0 1.9063,-0.298819 2.71654,-0.884646 1.6937,2.34331 3.15236,4.69843 4.47402,7.04174l-49.3205 25.2461 -22.6689 16.1492c-0.628347,-1.02284 -1.36299,-1.99252 -2.19449,-2.85473zm2.57835 3.51496l25.1504 -11.5264 46.604 -30.3803c1.54488,2.64213 2.79095,5.43308 4.03701,7.77638 -1.54488,0.734646 -2.79095,2.50276 -2.79095,4.41024 0,2.49213 2.0563,4.54843 4.48465,4.54843 0.725197,0 1.24606,-0.148819 1.75748,-0.437008 0.884646,2.64213 1.68307,5.13426 2.34449,7.77638l-54.2315 11.4508 -25.9925 9.62009c-0.329528,-1.13976 -0.798426,-2.21575 -1.36299,-3.23859zm1.55551 3.9626l27.3343 -4.62284 52.8461 -16.8732c0.660237,2.34331 1.32047,5.28307 1.83189,7.9252 -2.2689,0.287008 -3.9626,2.05512 -3.9626,4.54843 0,2.49213 2.13071,4.54843 4.62284,4.54843l0.447638 0c0.288189,2.64213 0.288189,5.58189 0.288189,8.22402l-55.3394 -2.64213 -27.6107 2.42835c-0.0318898,-1.21417 -0.18189,-2.39646 -0.458268,-3.53622zm0.458268 4.29331l27.6107 2.68347 55.3394 -2.93977c0,2.93977 0,5.73071 -0.288189,8.37284l-0.447638 0c-2.49213,0 -4.62284,2.19449 -4.62284,4.54843 0,2.34331 1.6937,4.1126 3.88819,4.54843 -0.511418,2.79095 -1.09724,5.43308 -1.75748,8.0752l-18.8658 -6.0189 -33.9803 -11.015 -27.3555 -4.62284c0.287008,-1.17165 0.447638,-2.38583 0.479528,-3.63189zm-0.672048 4.34528l26.0138 9.64135 54.2315 11.5996c-0.661418,2.64213 -1.45984,5.43308 -2.49331,7.77638 -0.148819,0 -0.437008,-0.148819 -0.585827,-0.148819l-1.02284 0c-2.57717,0 -4.63347,1.91693 -4.63347,4.55906 0,0.724016 0.148819,1.17165 0.447638,1.75748 0.212599,0.734646 0.660237,1.32047 1.24606,1.75748 0.148819,0 0.223229,0.15 0.362599,0.15 0.148819,0.148819 0.297638,0.297638 0.446457,0.297638 0.0755906,0 0.21378,0.138189 0.288189,0.288189 -1.17165,2.49213 -2.49213,4.99489 -3.88819,7.33938l-46.5296 -30.0933 -0.0744095 0 -25.2355 -11.5583c0.585827,-1.05473 1.07599,-2.18386 1.42677,-3.36614zm-1.74685 3.90945l11.974 8.37284 10.7161 7.63819 49.3205 25.2461c-1.47047,2.49213 -2.92914,4.98544 -4.54843,7.19056 -0.735827,-0.437008 -1.68307,-0.735827 -2.64213,-0.735827 -2.56772,0 -4.54843,1.90748 -4.54843,4.41024 0,1.45984 0.585827,2.79095 1.68307,3.51614 -1.83189,2.05512 -3.66496,4.11142 -5.57126,6.02835l-37.2201 -41.1071 -21.3154 -17.726c0.820867,-0.862205 1.53425,-1.81063 2.15197,-2.83347zm-2.67402 3.34488l17.7366 21.476 41.0965 37.1339c-1.9063,2.0563 -3.8126,3.66378 -5.94331,5.43308 -0.884646,-0.735827 -1.83189,-1.03347 -2.86536,-1.03347 -2.49331,0 -4.54843,2.20512 -4.54843,4.55906 0,0.872835 0.148819,1.45866 0.361418,2.04567 -2.41772,1.46929 -4.90985,3.08859 -7.33938,4.69725l-25.3205 -49.3205 -16.0536 -22.7752c1.03347,-0.628347 2.00315,-1.37362 2.87599,-2.21575zm-3.52559 2.59961l11.5689 25.1823 30.1677 46.6784c-2.42953,1.32165 -4.84725,2.64213 -7.33938,3.81378 -0.661418,-1.75748 -2.27953,-2.78032 -4.1126,-2.78032 -2.56654,0 -4.62284,2.19449 -4.62284,4.54843 0,0.585827 0.148819,1.17165 0.298819,1.75748 -2.64213,0.884646 -5.22048,1.75748 -7.93701,2.35394l-11.739 -54.3154 -9.65079 -25.8544c1.18228,-0.340158 2.31142,-0.798426 3.36614,-1.38425zm-4.03701 1.55551l4.73977 27.3012 17.0339 52.8473c-2.71654,0.724016 -5.43308,1.45866 -8.14961,1.75748 -0.361418,-2.0563 -2.27953,-3.81378 -4.47402,-3.81378 -2.64095,0 -4.55906,2.0563 -4.55906,4.39961l0 0.585827c-2.78032,0.297638 -5.57126,0.437008 -8.36221,0.437008l2.79095 -55.3394 -2.57717 -27.75c1.2248,-0.0212599 2.40709,-0.159449 3.55748,-0.425197zm-4.27205 0.425197l-2.50276 27.75 2.78032 55.3394c-2.92914,0 -5.64567,-0.13937 -8.51103,-0.437008l0 -0.585827c0,-2.34331 -2.0563,-4.39961 -4.62402,-4.39961 -2.20512,0 -4.11142,1.75748 -4.47402,3.81378 -2.71536,-0.447638 -5.35748,-1.03347 -7.9252,-1.75748l17.0232 -52.8473 4.6441 -27.365c1.15039,0.297638 2.35394,0.457087 3.58937,0.488977zm-7.60512 -2.09764c1.0441,0.585827 2.15197,1.06536 3.32362,1.41614l-9.67324 25.9394 -11.5996 54.3154c-2.64213,-0.596457 -5.28426,-1.46929 -8.00079,-2.35394 0.21378,-0.585827 0.373229,-1.17165 0.373229,-1.75748 0,-2.35394 -2.0563,-4.54843 -4.48465,-4.54843 -1.9063,0 -3.52559,1.17165 -4.3252,2.78032 -2.42835,-1.17165 -4.92048,-2.49213 -7.33938,-3.81378l30.1571 -46.6784 11.5689 -25.2992zm-3.36614 -2.49331c0.830316,0.799607 1.74685,1.51299 2.72717,2.12008l-16.0642 22.7327 -25.2461 49.4693c-2.41772,-1.60866 -4.84725,-3.07914 -7.11615,-4.69725 0.511418,-0.587008 0.874016,-1.45984 0.874016,-2.49331 0,-2.64213 -2.0563,-4.69725 -4.47402,-4.69725 -1.54488,0 -2.79095,0.734646 -3.52559,1.76811 -2.20512,-1.91811 -4.26142,-3.52559 -6.16772,-5.58189l41.2559 -37.1339 17.7366 -21.4866zm-2.8441 -53.9752l9.64016 26.2051c-1.18228,0.350788 -2.33268,0.830316 -3.3874,1.41614l-11.6114 -25.4162 -30.1571 -46.3914c2.4189,-1.45984 4.83662,-2.78032 7.26497,-3.9626 0.735827,1.76811 2.34331,2.93977 4.25079,2.93977 2.57717,0 4.54843,-2.05512 4.54843,-4.39961 0,-0.734646 -0.138189,-1.46929 -0.288189,-1.9063 2.56772,-1.03347 5.35867,-1.76811 8.00079,-2.64213l11.739 54.1571zm-1.5874 46.7315c0.351969,1.15039 0.809056,2.24764 1.38425,3.2811l-25.4055 11.6433 -46.5402 30.0933c-1.39606,-2.34449 -2.49213,-4.69843 -3.73937,-7.33938 1.75748,-0.585827 2.94095,-2.20512 2.94095,-4.1126 0,-2.64095 -1.99252,-4.69725 -4.63465,-4.69725 -0.660237,0 -1.30984,0.148819 -1.9063,0.447638 -0.874016,-2.50394 -1.75748,-5.28426 -2.56772,-8.0752l54.3166 -11.5996 26.152 -9.64135zm-20.9421 19.7717l22.6677 -15.8941c0.617717,1.02284 1.35236,1.98189 2.18386,2.8441l-21.4004 17.7473 -37.2201 41.1071c-2.05512,-1.91693 -3.88819,-4.11142 -5.72008,-6.02835 1.03347,-0.874016 1.76811,-2.19449 1.76811,-3.66496 0,-2.50276 -2.05512,-4.39961 -4.55906,-4.39961 -1.02284,0 -1.98071,0.288189 -2.71654,0.724016 -1.60866,-2.19331 -3.07796,-4.54843 -4.47402,-7.04056l49.4705 -25.3949zm12.0366 -61.2201l16.1173 22.7008c-1.01221,0.617717 -1.92874,1.34173 -2.78032,2.15197l-17.7366 -21.476 -41.2559 -37.1339c2.05512,-1.9063 4.03701,-3.81378 6.16772,-5.58189 0.734646,1.03347 2.05512,1.76811 3.52559,1.76811 2.56654,0 4.62284,-2.05512 4.62284,-4.69725 0,-1.03347 -0.437008,-1.9063 -0.959056,-2.79095 2.35512,-1.32047 4.63465,-2.93977 7.05237,-4.26142l25.2461 49.3205zm-8.65985 7.63819l21.4642 17.7366c-0.831497,0.862205 -1.55551,1.82126 -2.18386,2.8441l-22.6571 -16.1811 -49.4705 -25.2461c1.39606,-2.34331 2.93977,-4.69843 4.54843,-7.19056 0.661418,0.734646 1.76811,1.03347 2.71654,1.03347 2.42953,0 4.54843,-2.0563 4.54843,-4.55906 0,-1.32165 -0.724016,-2.64213 -1.68307,-3.66496 1.68307,-2.0563 3.51614,-3.9626 5.50748,-6.0189l37.2095 41.2465zm-6.45591 9.68268l25.3418 11.5583c-0.553937,1.01221 -1.01221,2.08819 -1.34173,3.21733l-26.1307 -9.63072 -54.3166 -11.5996c0.810237,-2.79095 1.6937,-5.43308 2.56772,-7.9252 0.447638,0.148819 1.18228,0.297638 1.6937,0.297638 2.56654,0 4.54843,-2.0563 4.54843,-4.55906 0,-1.9063 -1.17165,-3.51496 -2.71654,-4.10079 1.17165,-2.64213 2.41772,-5.14607 3.81378,-7.63819l46.5402 30.3803zm-3.67559 10.8662l27.4949 4.62284c-0.277559,1.15039 -0.437008,2.34331 -0.468898,3.55748l-27.7607 -2.44961 -55.4138 2.64213c0,-2.64213 0.22441,-5.58189 0.373229,-8.22402l0.798426 0c2.50394,0 4.55906,-1.9063 4.55906,-4.54843 0,-2.49331 -1.84252,-4.26142 -4.26024,-4.54843 0.585827,-2.64213 1.09724,-5.58189 1.83189,-7.9252l52.8461 16.8732zm-0.734646 11.5996l27.7607 -2.70473c0.0318898,1.25669 0.191339,2.4815 0.479528,3.65315l-27.5055 4.62284 -52.8461 17.0339c-0.734646,-2.64213 -1.24606,-5.28426 -1.83189,-8.22402 2.27953,-0.287008 3.9626,-2.0563 3.9626,-4.39961 0,-2.49213 -2.0563,-4.54843 -4.54843,-4.54843l-0.511418 0c-0.148819,-2.64213 -0.373229,-5.43308 -0.373229,-8.37284l55.4138 2.93977z"/>
 </g>
 <rect class="fil4" width="2048" height="2048"/>
</svg>
