<?xml version="1.0" encoding="UTF-8"?>
<!DOCTYPE svg PUBLIC "-//W3C//DTD SVG 1.1//EN" "http://www.w3.org/Graphics/SVG/1.1/DTD/svg11.dtd">
<!-- Creator: CorelDRAW -->
<svg xmlns="http://www.w3.org/2000/svg" xml:space="preserve" width="2048px" height="2048px" style="shape-rendering:geometricPrecision; text-rendering:geometricPrecision; image-rendering:optimizeQuality; fill-rule:evenodd; clip-rule:evenodd"
viewBox="0 0 2048 2048"
 xmlns:xlink="http://www.w3.org/1999/xlink">
 <defs>
  <style type="text/css">
   <![CDATA[
    .fil4 {fill:none}
    .fil0 {fill:#239F40}
    .fil2 {fill:#DA0000}
    .fil1 {fill:#EEEEEE}
    .fil3 {fill:#FAFAFA}
   ]]>
  </style>
 </defs>
 <g id="Layer_x0020_1">
  <metadata id="CorelCorpID_0Corel-Layer"/>
  <rect class="fil0" x="255.999" y="562.744" width="1536" height="307.586"/>
  <rect class="fil1" x="255.999" y="870.329" width="1536" height="307.586"/>
  <rect class="fil2" x="255.999" y="1177.92" width="1536" height="307.586"/>
  <path class="fil2" d="M1007.7 929.005l2.48622 178.714c-57.9012,-43.8969 -70.2107,-126.193 -27.1807,-184.996 -42.391,33.9343 -57.6508,91.5851 -37.4386,142.224 11.0681,27.5681 31.0217,48.9874 55.2496,62.23 -18.6768,6.3626 -38.674,8.55709 -58.5733,6.19725 22.526,9.10985 46.1622,11.0114 68.3941,6.8256l0.0200788 1.42323 13.2921 15.4417 13.3701 -15.4417 0.0200788 -1.4126c22.2284,4.17048 45.8611,2.26536 68.3941,-6.83623 -19.8969,2.35984 -39.9496,0.165354 -58.6536,-6.19489 24.2232,-13.2425 44.178,-34.6618 55.252,-62.2323 20.1992,-50.6386 5.0315,-108.289 -37.4386,-142.224 43.0961,58.7717 30.8126,141.011 -27.0851,184.925l2.57362 -178.643 -16.4327 -13.2803 -16.2496 13.2803z"/>
  <path class="fil2" d="M991.268 893.091c-2.69764,10.4244 3.58347,21.1878 13.9051,23.7036 6.73701,1.79882 13.9288,-0.183071 18.8693,-5.19922 7.43977,7.53071 19.65,7.71379 27.378,0.350788 5.03032,-4.84725 7.08898,-12.2102 5.30433,-18.8551 -6.55512,10.5945 -20.3811,14.0079 -30.9898,7.363 -0.532678,-0.35315 -1.25079,-0.718111 -1.69252,-1.08307 -9.96969,7.37599 -24.0697,5.39528 -31.6146,-4.48229 -0.274016,-0.53504 -0.807875,-1.26378 -1.15984,-1.79764z"/>
  <path class="fil2" d="M1080.15 918.776c59.3434,43.2768 72.6355,126.233 29.3587,185.682 -2.14843,2.86654 -4.49528,5.92914 -6.73583,8.44371 51.1867,-27.4831 70.1327,-91.415 42.4677,-142.588 -13.6429,-25.5024 -37.2555,-44.1756 -65.0906,-51.5386z"/>
  <path class="fil2" d="M967.746 918.776c-27.8469,7.363 -51.2776,26.0362 -65.0126,51.5386 -27.8351,51.1725 -8.70473,115.104 42.5599,142.588 -2.42481,-2.51457 -4.7563,-5.57717 -6.82796,-8.44371 -43.2768,-59.4497 -30.0768,-142.406 29.2807,-185.682z"/>
  <g id="_362614000">
   <g>
    <polygon id="_362346944" class="fil3" points="1518.5,850.629 1518.5,865.002 1581.53,865.002 1581.53,850.629 "/>
    <polygon id="_362346536" class="fil3" points="1588.53,850.629 1588.53,865.002 1651.65,865.002 1651.65,850.629 "/>
    <polygon id="_362347016" class="fil3" points="1658.66,850.629 1658.66,865.002 1721.77,865.002 1721.77,850.629 "/>
    <polygon id="_362347208" class="fil3" points="1728.79,850.629 1728.79,865.002 1792,865.002 1792,850.629 "/>
    <polygon id="_362346848" class="fil3" points="1770.8,836.268 1763.98,836.268 1763.98,807.534 1756.79,807.534 1756.79,821.896 1728.79,821.896 1728.79,843.279 1749.79,843.279 1749.79,836.268 1735.78,836.268 1735.78,829.088 1756.79,829.088 1756.79,843.279 1792,843.279 1792,807.534 1784.99,807.534 1784.99,836.268 1777.99,836.268 1777.99,807.534 1770.8,807.534 "/>
    <polygon id="_362346512" class="fil3" points="1749.79,807.534 1658.66,807.534 1658.66,814.716 1749.79,814.716 "/>
    <polygon id="_362346776" class="fil3" points="1714.78,829.088 1714.78,836.268 1693.77,836.268 1693.77,821.896 1658.66,821.896 1658.66,843.279 1665.85,843.279 1665.85,829.088 1686.85,829.088 1686.85,843.279 1721.77,843.279 1721.77,821.896 1700.77,821.896 1700.77,829.088 "/>
    <polygon id="_362594680" class="fil3" points="1672.84,836.268 1672.84,843.279 1679.67,843.279 1679.67,836.268 "/>
    <polygon id="_362611480" class="fil3" points="1644.66,807.534 1644.66,836.268 1637.65,836.268 1637.65,807.534 1630.65,807.534 1630.65,836.268 1623.64,836.268 1623.64,807.534 1616.64,807.534 1616.64,821.896 1588.53,821.896 1588.53,843.279 1609.64,843.279 1609.64,836.268 1595.62,836.268 1595.62,829.088 1616.64,829.088 1616.64,843.279 1651.65,843.279 1651.65,807.534 "/>
    <polygon id="_362606872" class="fil3" points="1609.64,807.534 1518.5,807.534 1518.5,814.716 1609.64,814.716 "/>
    <polygon id="_362599936" class="fil3" points="1560.51,821.896 1560.51,829.088 1574.52,829.088 1574.52,836.268 1553.51,836.268 1553.51,821.896 1518.5,821.896 1518.5,843.279 1525.5,843.279 1525.5,829.088 1546.5,829.088 1546.5,843.279 1581.53,843.279 1581.53,821.896 "/>
    <polygon id="_362593552" class="fil3" points="1532.51,836.268 1532.51,843.279 1539.51,843.279 1539.51,836.268 "/>
    <polygon id="_362593672" class="fil3" points="1504.31,807.534 1504.31,836.268 1497.31,836.268 1497.31,807.534 1490.48,807.534 1490.48,836.268 1483.3,836.268 1483.3,807.534 1476.47,807.534 1476.47,821.896 1448.29,821.896 1448.29,843.279 1469.29,843.279 1469.29,836.268 1455.29,836.268 1455.29,829.088 1476.47,829.088 1476.47,843.279 1511.49,843.279 1511.49,807.534 "/>
    <polygon id="_362593360" class="fil3" points="1448.29,850.629 1448.29,865.002 1511.49,865.002 1511.49,850.629 "/>
    <polygon id="_362593648" class="fil3" points="1469.29,807.534 1378.15,807.534 1378.15,814.716 1469.29,814.716 "/>
    <polygon id="_362593864" class="fil3" points="1406.17,829.088 1406.17,843.279 1441.28,843.279 1441.28,821.896 1420.36,821.896 1420.36,829.088 1434.37,829.088 1434.37,836.268 1413.17,836.268 1413.17,821.896 1378.15,821.896 1378.15,843.279 1385.16,843.279 1385.16,829.088 "/>
    <polygon id="_362593840" class="fil3" points="1392.16,836.268 1392.16,843.279 1399.17,843.279 1399.17,836.268 "/>
    <polygon id="_362593744" class="fil3" points="1378.15,850.629 1378.15,865.002 1441.28,865.002 1441.28,850.629 "/>
    <polygon id="_362593528" class="fil3" points="1308.03,821.896 1308.03,843.279 1329.22,843.279 1329.22,836.268 1315.04,836.268 1315.04,829.088 1336.05,829.088 1336.05,843.279 1371.15,843.279 1371.15,807.534 1364.14,807.534 1364.14,836.268 1357.06,836.268 1357.06,807.534 1350.15,807.534 1350.15,836.268 1343.14,836.268 1343.14,807.534 1336.05,807.534 1336.05,821.896 "/>
    <polygon id="_362592568" class="fil3" points="1308.03,850.629 1308.03,865.002 1371.15,865.002 1371.15,850.629 "/>
    <polygon id="_362593144" class="fil3" points="1237.91,850.629 1237.91,865.002 1300.94,865.002 1300.94,850.629 "/>
    <polygon id="_362592592" class="fil3" points="1265.84,829.088 1265.84,843.279 1300.94,843.279 1300.94,821.896 1280.03,821.896 1280.03,829.088 1294.02,829.088 1294.02,836.268 1272.93,836.268 1272.93,821.896 1237.91,821.896 1237.91,843.279 1244.82,843.279 1244.82,829.088 "/>
    <polygon id="_362592952" class="fil3" points="1251.92,836.268 1251.92,843.279 1258.92,843.279 1258.92,836.268 "/>
    <polygon id="_362592808" class="fil3" points="1329.22,807.534 1237.91,807.534 1237.91,814.716 1329.22,814.716 "/>
    <polygon id="_362592736" class="fil3" points="1223.9,807.534 1223.9,836.268 1216.81,836.268 1216.81,807.534 1209.8,807.534 1209.8,836.268 1202.8,836.268 1202.8,807.534 1195.79,807.534 1195.79,821.896 1167.79,821.896 1167.79,843.279 1188.8,843.279 1188.8,836.268 1174.88,836.268 1174.88,829.088 1195.79,829.088 1195.79,843.279 1230.82,843.279 1230.82,807.534 "/>
    <polygon id="_362593120" class="fil3" points="1167.79,850.629 1167.79,865.002 1230.82,865.002 1230.82,850.629 "/>
    <polygon id="_362592856" class="fil3" points="1097.58,850.629 1097.58,865.002 1160.69,865.002 1160.69,850.629 "/>
    <polygon id="_362592184" class="fil3" points="1125.67,829.088 1125.67,843.279 1160.69,843.279 1160.69,821.896 1139.68,821.896 1139.68,829.088 1153.78,829.088 1153.78,836.268 1132.59,836.268 1132.59,821.896 1097.58,821.896 1097.58,843.279 1104.57,843.279 1104.57,829.088 "/>
    <polygon id="_362591968" class="fil3" points="1188.8,807.534 1097.58,807.534 1097.58,814.716 1188.8,814.716 "/>
    <polygon id="_362592016" class="fil3" points="1111.57,836.268 1111.57,843.279 1118.67,843.279 1118.67,836.268 "/>
    <polygon id="_362591944" class="fil3" points="1090.57,850.629 1027.53,850.629 1027.53,865.002 1090.57,865.002 "/>
    <polygon id="_362592376" class="fil3" points="1055.55,829.088 1055.55,843.279 1090.57,843.279 1090.57,807.534 1083.57,807.534 1083.57,836.268 1076.56,836.268 1076.56,807.534 1069.56,807.534 1069.56,836.268 1062.55,836.268 1062.55,807.534 1055.55,807.534 1055.55,821.896 1027.53,821.896 1027.53,843.279 1048.55,843.279 1048.55,836.268 1034.45,836.268 1034.45,829.088 "/>
    <polygon id="_362592328" class="fil3" points="957.321,807.534 957.321,814.716 1048.55,814.716 1048.55,807.534 "/>
    <polygon id="_362591872" class="fil3" points="999.426,821.896 999.426,829.088 1013.36,829.088 1013.36,836.268 992.428,836.268 992.428,821.896 957.321,821.896 957.321,843.279 964.333,843.279 964.333,829.088 985.339,829.088 985.339,843.279 1020.44,843.279 1020.44,821.896 "/>
    <polygon id="_362592040" class="fil3" points="971.422,836.268 971.422,843.279 978.341,843.279 978.341,836.268 "/>
    <polygon id="_362591656" class="fil3" points="957.321,850.629 957.321,865.002 1020.44,865.002 1020.44,850.629 "/>
    <polygon id="_362591464" class="fil3" points="950.323,850.629 887.2,850.629 887.2,865.002 950.323,865.002 "/>
    <polygon id="_362591320" class="fil3" points="929.305,807.534 929.305,836.268 922.307,836.268 922.307,807.534 915.309,807.534 915.309,821.896 887.2,821.896 887.2,843.279 908.298,843.279 908.298,836.268 894.198,836.268 894.198,829.088 915.309,829.088 915.309,843.279 950.323,843.279 950.323,807.534 943.313,807.534 943.313,836.268 936.315,836.268 936.315,807.534 "/>
    <polygon id="_362591680" class="fil3" points="908.298,807.534 817.079,807.534 817.079,814.716 908.298,814.716 "/>
    <polygon id="_362591440" class="fil3" points="859.092,821.896 859.092,829.088 873.192,829.088 873.192,836.268 852.186,836.268 852.186,821.896 817.079,821.896 817.079,843.279 824.077,843.279 824.077,829.088 845.083,829.088 845.083,843.279 880.202,843.279 880.202,821.896 "/>
    <polygon id="_362591416" class="fil3" points="831.178,836.268 831.178,843.279 838.085,843.279 838.085,836.268 "/>
    <polygon id="_362590576" class="fil3" points="880.202,850.629 817.079,850.629 817.079,865.002 880.202,865.002 "/>
    <polygon id="_362590384" class="fil3" points="746.866,850.629 746.866,865.002 810.069,865.002 810.069,850.629 "/>
    <polygon id="_362590192" class="fil3" points="775.053,829.088 775.053,843.279 810.069,843.279 810.069,807.534 803.071,807.534 803.071,836.268 796.059,836.268 796.059,807.534 788.97,807.534 788.97,836.268 782.051,836.268 782.051,807.534 775.053,807.534 775.053,821.896 746.866,821.896 746.866,843.279 767.964,843.279 767.964,836.268 753.956,836.268 753.956,829.088 "/>
    <polygon id="_362590456" class="fil3" points="767.964,807.534 676.823,807.534 676.823,814.716 767.964,814.716 "/>
    <polygon id="_362590168" class="fil3" points="711.839,821.896 676.823,821.896 676.823,843.279 683.834,843.279 683.834,829.088 704.841,829.088 704.841,843.279 739.947,843.279 739.947,821.896 718.849,821.896 718.849,829.088 732.858,829.088 732.858,836.268 711.839,836.268 "/>
    <polygon id="_362590768" class="fil3" points="690.832,836.268 690.832,843.279 697.83,843.279 697.83,836.268 "/>
    <polygon id="_362590288" class="fil3" points="676.823,850.629 676.823,865.002 739.947,865.002 739.947,850.629 "/>
    <polygon id="_362590432" class="fil3" points="634.706,821.896 606.702,821.896 606.702,843.279 627.8,843.279 627.8,836.268 613.7,836.268 613.7,829.088 634.706,829.088 634.706,843.279 669.826,843.279 669.826,807.534 662.815,807.534 662.815,836.268 655.908,836.268 655.908,807.534 648.806,807.534 648.806,836.268 641.717,836.268 641.717,807.534 634.706,807.534 "/>
    <polygon id="_362622544" class="fil3" points="669.826,850.629 606.702,850.629 606.702,865.002 669.826,865.002 "/>
    <polygon id="_362622736" class="fil3" points="536.581,850.629 536.581,865.002 599.691,865.002 599.691,850.629 "/>
    <polygon id="_362622880" class="fil3" points="564.598,829.088 564.598,843.279 599.691,843.279 599.691,821.896 578.685,821.896 578.685,829.088 592.693,829.088 592.693,836.268 571.596,836.268 571.596,821.896 536.581,821.896 536.581,843.279 543.578,843.279 543.578,829.088 "/>
    <polygon id="_362622424" class="fil3" points="627.8,807.534 536.581,807.534 536.581,814.716 627.8,814.716 "/>
    <polygon id="_362622664" class="fil3" points="550.59,836.268 550.59,843.279 557.587,843.279 557.587,836.268 "/>
    <polygon id="_362621848" class="fil3" points="508.564,836.268 501.475,836.268 501.475,807.534 494.372,807.534 494.372,821.896 466.356,821.896 466.356,843.279 487.466,843.279 487.466,836.268 473.457,836.268 473.457,829.088 494.372,829.088 494.372,843.279 529.57,843.279 529.57,807.534 522.572,807.534 522.572,836.268 515.483,836.268 515.483,807.534 508.564,807.534 "/>
    <polygon id="_362622328" class="fil3" points="529.57,850.629 466.356,850.629 466.356,865.002 529.57,865.002 "/>
    <polygon id="_362621800" class="fil3" points="487.466,807.534 396.326,807.534 396.326,814.716 487.466,814.716 "/>
    <polygon id="_362621992" class="fil3" points="424.342,829.088 424.342,843.279 459.358,843.279 459.358,821.896 438.352,821.896 438.352,829.088 452.36,829.088 452.36,836.268 431.34,836.268 431.34,821.896 396.326,821.896 396.326,843.279 403.427,843.279 403.427,829.088 "/>
    <polygon id="_362621776" class="fil3" points="410.334,836.268 410.334,843.279 417.332,843.279 417.332,836.268 "/>
    <polygon id="_362622160" class="fil3" points="396.326,850.629 396.326,865.002 459.358,865.002 459.358,850.629 "/>
    <polygon id="_362622016" class="fil3" points="326.204,850.629 326.204,865.002 389.237,865.002 389.237,850.629 "/>
    <polygon id="_362622400" class="fil3" points="354.221,829.088 354.221,843.279 389.237,843.279 389.237,807.534 382.316,807.534 382.316,836.268 375.227,836.268 375.227,807.534 368.23,807.534 368.23,836.268 361.219,836.268 361.219,807.534 354.221,807.534 354.221,821.896 326.204,821.896 326.204,843.279 347.211,843.279 347.211,836.268 333.201,836.268 333.201,829.088 "/>
    <polygon id="_362621200" class="fil3" points="347.211,807.534 255.999,807.534 255.999,814.716 347.211,814.716 "/>
    <polygon id="_362621128" class="fil3" points="298.096,821.896 298.096,829.088 312.104,829.088 312.104,836.268 291.098,836.268 291.098,821.896 255.999,821.896 255.999,843.279 262.989,843.279 262.989,829.088 284.087,829.088 284.087,843.279 319.115,843.279 319.115,821.896 "/>
    <polygon id="_362621104" class="fil3" points="319.115,850.629 255.999,850.629 255.999,865.002 319.115,865.002 "/>
    <polygon id="_362621416" class="fil3" points="270.091,836.268 270.091,843.279 277.089,843.279 277.089,836.268 "/>
   </g>
   <g>
    <g>
     <polygon id="_362621320" class="fil3" points="1518.5,1183.17 1518.5,1197.54 1581.53,1197.54 1581.53,1183.17 "/>
     <polygon id="_362621512" class="fil3" points="1588.53,1183.17 1588.53,1197.54 1651.65,1197.54 1651.65,1183.17 "/>
     <polygon id="_362621224" class="fil3" points="1658.66,1183.17 1658.66,1197.54 1721.77,1197.54 1721.77,1183.17 "/>
     <polygon id="_362621488" class="fil3" points="1728.79,1183.17 1728.79,1197.54 1792,1197.54 1792,1183.17 "/>
     <polygon id="_362620264" class="fil3" points="1448.29,1183.17 1448.29,1197.54 1511.49,1197.54 1511.49,1183.17 "/>
     <polygon id="_362620840" class="fil3" points="1378.15,1183.17 1378.15,1197.54 1441.28,1197.54 1441.28,1183.17 "/>
     <polygon id="_362620576" class="fil3" points="1308.03,1183.17 1308.03,1197.54 1371.15,1197.54 1371.15,1183.17 "/>
     <polygon id="_362620792" class="fil3" points="1237.91,1183.17 1237.91,1197.54 1300.94,1197.54 1300.94,1183.17 "/>
     <polygon id="_362620456" class="fil3" points="1167.79,1183.17 1167.79,1197.54 1230.82,1197.54 1230.82,1183.17 "/>
     <polygon id="_362620696" class="fil3" points="1097.58,1183.17 1097.58,1197.54 1160.69,1197.54 1160.69,1183.17 "/>
     <polygon id="_362620144" class="fil3" points="1090.57,1183.17 1027.53,1183.17 1027.53,1197.54 1090.57,1197.54 "/>
     <polygon id="_362620216" class="fil3" points="957.321,1183.17 957.321,1197.54 1020.44,1197.54 1020.44,1183.17 "/>
     <polygon id="_362619664" class="fil3" points="950.323,1183.17 887.2,1183.17 887.2,1197.54 950.323,1197.54 "/>
     <polygon id="_362619568" class="fil3" points="880.202,1183.17 817.079,1183.17 817.079,1197.54 880.202,1197.54 "/>
     <polygon id="_362619928" class="fil3" points="746.866,1183.17 746.866,1197.54 810.069,1197.54 810.069,1183.17 "/>
     <polygon id="_362619496" class="fil3" points="676.823,1183.17 676.823,1197.54 739.947,1197.54 739.947,1183.17 "/>
     <polygon id="_362619832" class="fil3" points="669.826,1183.17 606.702,1183.17 606.702,1197.54 669.826,1197.54 "/>
     <polygon id="_362620024" class="fil3" points="536.581,1183.17 536.581,1197.54 599.691,1197.54 599.691,1183.17 "/>
     <polygon id="_362619904" class="fil3" points="529.57,1183.17 466.356,1183.17 466.356,1197.54 529.57,1197.54 "/>
     <polygon id="_362620048" class="fil3" points="396.326,1183.17 396.326,1197.54 459.358,1197.54 459.358,1183.17 "/>
     <polygon id="_362618704" class="fil3" points="326.204,1183.17 326.204,1197.54 389.237,1197.54 389.237,1183.17 "/>
     <polygon id="_362618656" class="fil3" points="319.115,1183.17 255.999,1183.17 255.999,1197.54 319.115,1197.54 "/>
    </g>
    <g>
     <polygon id="_362618968" class="fil3" points="1770.8,1233.45 1763.98,1233.45 1763.98,1204.72 1756.79,1204.72 1756.79,1219.08 1728.79,1219.08 1728.79,1240.47 1749.79,1240.47 1749.79,1233.45 1735.78,1233.45 1735.78,1226.27 1756.79,1226.27 1756.79,1240.47 1792,1240.47 1792,1204.72 1784.99,1204.72 1784.99,1233.45 1777.99,1233.45 1777.99,1204.72 1770.8,1204.72 "/>
     <polygon id="_362618896" class="fil3" points="1749.79,1204.72 1658.66,1204.72 1658.66,1211.9 1749.79,1211.9 "/>
     <polygon id="_362619184" class="fil3" points="1714.78,1226.27 1714.78,1233.45 1693.77,1233.45 1693.77,1219.08 1658.66,1219.08 1658.66,1240.47 1665.85,1240.47 1665.85,1226.27 1686.85,1226.27 1686.85,1240.47 1721.77,1240.47 1721.77,1219.08 1700.77,1219.08 1700.77,1226.27 "/>
     <polygon id="_362619064" class="fil3" points="1672.84,1233.45 1672.84,1240.47 1679.67,1240.47 1679.67,1233.45 "/>
     <polygon id="_362618992" class="fil3" points="1644.66,1204.72 1644.66,1233.45 1637.65,1233.45 1637.65,1204.72 1630.65,1204.72 1630.65,1233.45 1623.64,1233.45 1623.64,1204.72 1616.64,1204.72 1616.64,1219.08 1588.53,1219.08 1588.53,1240.47 1609.64,1240.47 1609.64,1233.45 1595.62,1233.45 1595.62,1226.27 1616.64,1226.27 1616.64,1240.47 1651.65,1240.47 1651.65,1204.72 "/>
     <polygon id="_362618560" class="fil3" points="1609.64,1204.72 1518.5,1204.72 1518.5,1211.9 1609.64,1211.9 "/>
     <polygon id="_362617864" class="fil3" points="1560.51,1219.08 1560.51,1226.27 1574.52,1226.27 1574.52,1233.45 1553.51,1233.45 1553.51,1219.08 1518.5,1219.08 1518.5,1240.47 1525.5,1240.47 1525.5,1226.27 1546.5,1226.27 1546.5,1240.47 1581.53,1240.47 1581.53,1219.08 "/>
     <polygon id="_362618488" class="fil3" points="1532.51,1233.45 1532.51,1240.47 1539.51,1240.47 1539.51,1233.45 "/>
     <polygon id="_362618080" class="fil3" points="1504.31,1204.72 1504.31,1233.45 1497.31,1233.45 1497.31,1204.72 1490.48,1204.72 1490.48,1233.45 1483.3,1233.45 1483.3,1204.72 1476.47,1204.72 1476.47,1219.08 1448.29,1219.08 1448.29,1240.47 1469.29,1240.47 1469.29,1233.45 1455.29,1233.45 1455.29,1226.27 1476.47,1226.27 1476.47,1240.47 1511.49,1240.47 1511.49,1204.72 "/>
     <polygon id="_362617984" class="fil3" points="1469.29,1204.72 1378.15,1204.72 1378.15,1211.9 1469.29,1211.9 "/>
     <polygon id="_362617936" class="fil3" points="1406.17,1226.27 1406.17,1240.47 1441.28,1240.47 1441.28,1219.08 1420.36,1219.08 1420.36,1226.27 1434.37,1226.27 1434.37,1233.45 1413.17,1233.45 1413.17,1219.08 1378.15,1219.08 1378.15,1240.47 1385.16,1240.47 1385.16,1226.27 "/>
     <polygon id="_362617912" class="fil3" points="1392.16,1233.45 1392.16,1240.47 1399.17,1240.47 1399.17,1233.45 "/>
     <polygon id="_362618128" class="fil3" points="1308.03,1219.08 1308.03,1240.47 1329.22,1240.47 1329.22,1233.45 1315.04,1233.45 1315.04,1226.27 1336.05,1226.27 1336.05,1240.47 1371.15,1240.47 1371.15,1204.72 1364.14,1204.72 1364.14,1233.45 1357.06,1233.45 1357.06,1204.72 1350.15,1204.72 1350.15,1233.45 1343.14,1233.45 1343.14,1204.72 1336.05,1204.72 1336.05,1219.08 "/>
     <polygon id="_362617072" class="fil3" points="1265.84,1226.27 1265.84,1240.47 1300.94,1240.47 1300.94,1219.08 1280.03,1219.08 1280.03,1226.27 1294.02,1226.27 1294.02,1233.45 1272.93,1233.45 1272.93,1219.08 1237.91,1219.08 1237.91,1240.47 1244.82,1240.47 1244.82,1226.27 "/>
     <polygon id="_362617648" class="fil3" points="1251.92,1233.45 1251.92,1240.47 1258.92,1240.47 1258.92,1233.45 "/>
     <polygon id="_362617696" class="fil3" points="1329.22,1204.72 1237.91,1204.72 1237.91,1211.9 1329.22,1211.9 "/>
     <polygon id="_362617216" class="fil3" points="1223.9,1204.72 1223.9,1233.45 1216.81,1233.45 1216.81,1204.72 1209.8,1204.72 1209.8,1233.45 1202.8,1233.45 1202.8,1204.72 1195.79,1204.72 1195.79,1219.08 1167.79,1219.08 1167.79,1240.47 1188.8,1240.47 1188.8,1233.45 1174.88,1233.45 1174.88,1226.27 1195.79,1226.27 1195.79,1240.47 1230.82,1240.47 1230.82,1204.72 "/>
     <polygon id="_362617384" class="fil3" points="1125.67,1226.27 1125.67,1240.47 1160.69,1240.47 1160.69,1219.08 1139.68,1219.08 1139.68,1226.27 1153.78,1226.27 1153.78,1233.45 1132.59,1233.45 1132.59,1219.08 1097.58,1219.08 1097.58,1240.47 1104.57,1240.47 1104.57,1226.27 "/>
     <polygon id="_362617312" class="fil3" points="1188.8,1204.72 1097.58,1204.72 1097.58,1211.9 1188.8,1211.9 "/>
     <polygon id="_362617144" class="fil3" points="1111.57,1233.45 1111.57,1240.47 1118.67,1240.47 1118.67,1233.45 "/>
     <polygon id="_362617432" class="fil3" points="1055.55,1226.27 1055.55,1240.47 1090.57,1240.47 1090.57,1204.72 1083.57,1204.72 1083.57,1233.45 1076.56,1233.45 1076.56,1204.72 1069.56,1204.72 1069.56,1233.45 1062.55,1233.45 1062.55,1204.72 1055.55,1204.72 1055.55,1219.08 1027.53,1219.08 1027.53,1240.47 1048.55,1240.47 1048.55,1233.45 1034.45,1233.45 1034.45,1226.27 "/>
     <polygon id="_362616616" class="fil3" points="957.321,1204.72 957.321,1211.9 1048.55,1211.9 1048.55,1204.72 "/>
     <polygon id="_362616832" class="fil3" points="999.426,1219.08 999.426,1226.27 1013.36,1226.27 1013.36,1233.45 992.428,1233.45 992.428,1219.08 957.321,1219.08 957.321,1240.47 964.333,1240.47 964.333,1226.27 985.339,1226.27 985.339,1240.47 1020.44,1240.47 1020.44,1219.08 "/>
     <polygon id="_362616760" class="fil3" points="971.422,1233.45 971.422,1240.47 978.341,1240.47 978.341,1233.45 "/>
     <polygon id="_362616352" class="fil3" points="929.305,1204.72 929.305,1233.45 922.307,1233.45 922.307,1204.72 915.309,1204.72 915.309,1219.08 887.2,1219.08 887.2,1240.47 908.298,1240.47 908.298,1233.45 894.198,1233.45 894.198,1226.27 915.309,1226.27 915.309,1240.47 950.323,1240.47 950.323,1204.72 943.313,1204.72 943.313,1233.45 936.315,1233.45 936.315,1204.72 "/>
     <polygon id="_362616880" class="fil3" points="908.298,1204.72 817.079,1204.72 817.079,1211.9 908.298,1211.9 "/>
     <polygon id="_362616280" class="fil3" points="859.092,1219.08 859.092,1226.27 873.192,1226.27 873.192,1233.45 852.186,1233.45 852.186,1219.08 817.079,1219.08 817.079,1240.47 824.077,1240.47 824.077,1226.27 845.083,1226.27 845.083,1240.47 880.202,1240.47 880.202,1219.08 "/>
     <polygon id="_362616544" class="fil3" points="831.178,1233.45 831.178,1240.47 838.085,1240.47 838.085,1233.45 "/>
     <polygon id="_362617000" class="fil3" points="775.053,1226.27 775.053,1240.47 810.069,1240.47 810.069,1204.72 803.071,1204.72 803.071,1233.45 796.059,1233.45 796.059,1204.72 788.97,1204.72 788.97,1233.45 782.051,1233.45 782.051,1204.72 775.053,1204.72 775.053,1219.08 746.866,1219.08 746.866,1240.47 767.964,1240.47 767.964,1233.45 753.956,1233.45 753.956,1226.27 "/>
     <polygon id="_362615824" class="fil3" points="767.964,1204.72 676.823,1204.72 676.823,1211.9 767.964,1211.9 "/>
     <polygon id="_362615632" class="fil3" points="711.839,1219.08 676.823,1219.08 676.823,1240.47 683.834,1240.47 683.834,1226.27 704.841,1226.27 704.841,1240.47 739.947,1240.47 739.947,1219.08 718.849,1219.08 718.849,1226.27 732.858,1226.27 732.858,1233.45 711.839,1233.45 "/>
     <polygon id="_362615800" class="fil3" points="690.832,1233.45 690.832,1240.47 697.83,1240.47 697.83,1233.45 "/>
     <polygon id="_362615560" class="fil3" points="634.706,1219.08 606.702,1219.08 606.702,1240.47 627.8,1240.47 627.8,1233.45 613.7,1233.45 613.7,1226.27 634.706,1226.27 634.706,1240.47 669.826,1240.47 669.826,1204.72 662.815,1204.72 662.815,1233.45 655.908,1233.45 655.908,1204.72 648.806,1204.72 648.806,1233.45 641.717,1233.45 641.717,1204.72 634.706,1204.72 "/>
     <polygon id="_362615848" class="fil3" points="564.598,1226.27 564.598,1240.47 599.691,1240.47 599.691,1219.08 578.685,1219.08 578.685,1226.27 592.693,1226.27 592.693,1233.45 571.596,1233.45 571.596,1219.08 536.581,1219.08 536.581,1240.47 543.578,1240.47 543.578,1226.27 "/>
     <polygon id="_362616160" class="fil3" points="627.8,1204.72 536.581,1204.72 536.581,1211.9 627.8,1211.9 "/>
     <polygon id="_362615536" class="fil3" points="550.59,1233.45 550.59,1240.47 557.587,1240.47 557.587,1233.45 "/>
     <polygon id="_362615872" class="fil3" points="508.564,1233.45 501.475,1233.45 501.475,1204.72 494.372,1204.72 494.372,1219.08 466.356,1219.08 466.356,1240.47 487.466,1240.47 487.466,1233.45 473.457,1233.45 473.457,1226.27 494.372,1226.27 494.372,1240.47 529.57,1240.47 529.57,1204.72 522.572,1204.72 522.572,1233.45 515.483,1233.45 515.483,1204.72 508.564,1204.72 "/>
     <polygon id="_362615464" class="fil3" points="487.466,1204.72 396.326,1204.72 396.326,1211.9 487.466,1211.9 "/>
     <polygon id="_362614960" class="fil3" points="424.342,1226.27 424.342,1240.47 459.358,1240.47 459.358,1219.08 438.352,1219.08 438.352,1226.27 452.36,1226.27 452.36,1233.45 431.34,1233.45 431.34,1219.08 396.326,1219.08 396.326,1240.47 403.427,1240.47 403.427,1226.27 "/>
     <polygon id="_362614936" class="fil3" points="410.334,1233.45 410.334,1240.47 417.332,1240.47 417.332,1233.45 "/>
     <polygon id="_362615080" class="fil3" points="354.221,1226.27 354.221,1240.47 389.237,1240.47 389.237,1204.72 382.316,1204.72 382.316,1233.45 375.227,1233.45 375.227,1204.72 368.23,1204.72 368.23,1233.45 361.219,1233.45 361.219,1204.72 354.221,1204.72 354.221,1219.08 326.204,1219.08 326.204,1240.47 347.211,1240.47 347.211,1233.45 333.201,1233.45 333.201,1226.27 "/>
     <polygon id="_362614888" class="fil3" points="347.211,1204.72 255.999,1204.72 255.999,1211.9 347.211,1211.9 "/>
     <polygon id="_362615248" class="fil3" points="298.096,1219.08 298.096,1226.27 312.104,1226.27 312.104,1233.45 291.098,1233.45 291.098,1219.08 255.999,1219.08 255.999,1240.47 262.989,1240.47 262.989,1226.27 284.087,1226.27 284.087,1240.47 319.115,1240.47 319.115,1219.08 "/>
     <polygon id="_362615104" class="fil3" points="270.091,1233.45 270.091,1240.47 277.089,1240.47 277.089,1233.45 "/>
    </g>
   </g>
  </g>
 </g>
 <rect class="fil4" width="2048" height="2048"/>
</svg>
