<?xml version="1.0" encoding="UTF-8"?>
<!DOCTYPE svg PUBLIC "-//W3C//DTD SVG 1.1//EN" "http://www.w3.org/Graphics/SVG/1.1/DTD/svg11.dtd">
<!-- Creator: CorelDRAW -->
<svg xmlns="http://www.w3.org/2000/svg" xml:space="preserve" width="2048px" height="2048px" style="shape-rendering:geometricPrecision; text-rendering:geometricPrecision; image-rendering:optimizeQuality; fill-rule:evenodd; clip-rule:evenodd"
viewBox="0 0 2048 2048"
 xmlns:xlink="http://www.w3.org/1999/xlink">
 <defs>
  <style type="text/css">
   <![CDATA[
    .fil2 {fill:none}
    .fil0 {fill:#0036B6}
    .fil1 {fill:#EEEEEE}
   ]]>
  </style>
 </defs>
 <g id="Layer_x0020_1">
  <metadata id="CorelCorpID_0Corel-Layer"/>
  <rect class="fil0" x="255.999" y="562.5" width="1536" height="923"/>
  <polygon class="fil1" points="1792,1367.59 1792,1485.26 255.999,1485.26 255.999,1367.59 "/>
  <polygon class="fil1" points="1792,838.426 1792,1209.57 255.999,1209.57 255.999,838.426 "/>
  <polygon class="fil1" points="255.999,562.744 1792,562.744 1792,680.412 255.999,680.412 "/>
  <path class="fil0" d="M1072.45 937.681l-48.5209 -83.7615 -48.5174 83.7615 -100.008 0c0,0 49.6111,86.3209 49.9996,86.3209 -0.388583,0 -49.9996,86.3186 -49.9996,86.3186l100.008 0 48.5174 83.7591 48.5209 -83.7591 100.004 0c0,0 -49.6099,-86.3186 -49.9985,-86.3186 0.387402,0 49.9985,-86.3209 49.9985,-86.3209l-100.004 0zm-48.5209 -29.7154l17.2134 29.7154 -34.4244 0 17.211 -29.7154zm-64.2249 56.7745l-18.6685 32.2843 -18.6697 -32.2843 37.3382 0zm31.1693 0l66.1123 0 34.1268 59.2619 -34.1268 59.2583 -66.1123 0 -34.1256 -59.2583 34.1256 -59.2619zm-49.8378 86.2347l18.6685 32.2855 -37.3382 0 18.6697 -32.2855zm65.6823 59.3457l34.4244 0 -17.2134 29.713 -17.211 -29.713zm81.4371 -27.0603l18.6697 -32.2855 18.6697 32.2855 -37.3394 0zm0 -118.52l37.3394 0 -18.6697 32.2843 -18.6697 -32.2843z"/>
 </g>
 <rect class="fil2" width="2048" height="2048"/>
</svg>
