<?xml version="1.0" encoding="UTF-8"?>
<!DOCTYPE svg PUBLIC "-//W3C//DTD SVG 1.1//EN" "http://www.w3.org/Graphics/SVG/1.1/DTD/svg11.dtd">
<!-- Creator: CorelDRAW -->
<svg xmlns="http://www.w3.org/2000/svg" xml:space="preserve" width="2048px" height="2048px" style="shape-rendering:geometricPrecision; text-rendering:geometricPrecision; image-rendering:optimizeQuality; fill-rule:evenodd; clip-rule:evenodd"
viewBox="0 0 2048 2048"
 xmlns:xlink="http://www.w3.org/1999/xlink">
 <defs>
  <style type="text/css">
   <![CDATA[
    .fil3 {fill:none}
    .fil2 {fill:#00A651}
    .fil0 {fill:#ED1C24}
    .fil1 {fill:#EEEEEE}
   ]]>
  </style>
 </defs>
 <g id="Layer_x0020_1">
  <metadata id="CorelCorpID_0Corel-Layer"/>
  <rect class="fil0" x="255.999" y="562.744" width="1536" height="228.229"/>
  <rect class="fil0" x="255.999" y="1257.03" width="1536" height="228.229"/>
  <rect class="fil1" x="255.999" y="790.973" width="1536" height="466.055"/>
  <path class="fil2" d="M934.989 994.802c-1.59213,4.60394 -5.44252,7.84253 -8.53347,11.4378 -5.00906,5.07756 -11.563,8.37402 -18.4713,9.94489 -6.67914,2.24173 -12.6827,6.33189 -17.0622,11.8559 -5.08583,5.12008 -10.1504,10.3205 -15.9957,14.5878 -1.84488,4.71142 3.36496,8.72363 7.7067,8.59843 9.15591,-0.575197 15.4973,-8.06575 23.289,-11.915 6.46654,-2.90788 14.0835,4.063 12.4996,10.8012 -0.499607,6.55512 -6.64134,9.88347 -12.0957,11.8996 -16.0417,8.06812 -29.9717,19.7599 -42.3414,32.6681 -2.55709,5.21575 -9.59056,3.67914 -13.376,7.31575 -2.46614,4.6004 3.7252,7.02993 7.41497,6.55867 15.8764,-1.91221 30.6862,-8.62087 44.7154,-16.0004 5.21693,-2.49567 10.1161,-5.77441 15.541,-7.76575 5.09646,-1.2626 12.2008,0.954331 13.1126,6.75355 -0.00826772,6.1252 -6.07087,9.51261 -10.8744,11.9043 -14.8122,7.78347 -31.0666,12.0839 -46.8981,17.2288 -5.92796,-1.65827 -10.3913,8.8878 -3.89174,10.7835 6.87756,2.35866 14.1851,0.47126 21.2185,0.158268 21.7465,-3.33307 40.7622,-15.0957 61.0878,-22.7032 8.44961,-2.75433 18.4252,1.08662 22.5957,9.00827 4.18701,7.05827 3.80433,16.337 -0.612993,23.1957 -6.98268,14.941 -17.6043,28.6784 -31.8579,37.2709 -8.9504,4.42914 -19.3961,6.1252 -27.0626,12.9083 -7.09134,2.3374 3.55394,11.9209 5.09528,4.31693 4.25906,-5.81693 11.7803,-7.55434 18.5965,-7.79174 10.2496,-1.11732 21.1288,-3.00827 29.0918,-10.1008 7.14213,-5.54528 14.1744,-13.1917 23.8666,-13.3122 5.35394,0.637796 10.6547,4.94174 16.0961,2.31614 4.76221,-2.17914 12.2291,-0.903544 13.4705,4.95 2.2748,6.84686 9.32953,9.96261 14.9256,13.6252 2.02441,2.84646 8.75788,10.1799 10.3122,3.71339 -1.25433,-4.61339 0.537402,-11.6752 6.58701,-10.1291 5.28426,0.232677 10.3217,2.18268 15.5965,2.50394 7.02875,1.45394 12.8917,6.26575 16.8791,12.0744 2.74134,3.7878 8.75434,10.3004 13.2201,5.27481 2.77205,-5.19922 -2.52047,-9.53268 -6.82441,-11.3917 -6.28347,-3.89174 -11.6504,-9.07087 -17.1414,-13.9831 -8.09174,-7.55788 -15.0874,-17.1709 -16.3713,-28.4622 -1.74095,-11.263 -0.82441,-22.7504 0.646063,-33.9792 1.84606,-7.22481 11.0917,-11.1756 17.5536,-7.33347 9.1004,4.1504 18.1335,10.0913 28.5591,9.44646 15.0709,0.320079 30.554,-2.56299 45.2835,1.80354 14.3291,4.51654 24.574,16.6087 38.5335,21.8421 3.1252,1.89921 7.12087,0.090945 8.26654,-3.24567 1.38307,-3.00118 0.407481,-6.83859 -2.48386,-8.54646 -16.1752,-16.3288 -38.2878,-24.2622 -57.0036,-37.0252 -5.89607,-1.49528 -6.96733,-10.9748 -1.52126,-13.7126 7.16221,-5.20867 17.2961,-2.78268 23.6504,2.58425 5.36693,3.14055 11.4165,5.49922 17.7083,5.50394 6.45,-2.01732 3.32481,-11.3504 -2.45079,-12.0543 -10.4622,-5.90552 -17.954,-15.6 -27.0201,-23.2819 -5.21693,-4.41733 -10.9335,-8.89135 -17.9457,-9.75237 -3.83386,-0.69567 -7.75512,-0.850394 -11.6386,-0.588189 -3.64488,-3.95906 1.21299,-10.0217 5.92087,-9.52442 4.83426,0.324803 9.64253,0.682678 14.4673,0.011811 5.39646,-0.394488 10.787,-0.951969 16.2,-0.993308 4.37126,2.97874 13.1043,-2.1626 9.15827,-7.29213 -4.30866,-3.77599 -10.5378,-3.44882 -15.6874,-5.38465 -9.04607,-2.96929 -18.2504,-5.36575 -27.567,-7.24725 -6.52087,-0.388583 -5.71654,-8.97048 0.0129921,-9.91654 3.75,-1.39961 7.01221,1.48347 10.6122,1.92874 6.14646,1.32284 12.4961,1.3063 18.6378,2.64449 5.21221,-2.57126 1.18347,-10.187 -3.52914,-10.6276 -11.1213,-3.97796 -20.7343,-11.1555 -30.1299,-18.1382 -10.3748,-7.80237 -19.7835,-16.8248 -30.287,-24.4465 -3.80788,-2.35984 -10.0547,-3.04134 -11.0587,-8.27481 -0.349607,-4.81181 5.3126,-7.00394 9.32953,-5.87953 5.7,1.68307 11.0126,4.61221 16.8201,6.05315 4.55906,0.772442 9.25513,2.12362 13.6465,1.54843 5.57953,-3.50433 -2.38819,-5.74134 -5.27481,-6.9567 -7.43386,-4.00985 -14.0374,-9.35198 -20.7248,-14.4473 -5.65394,-4.82481 4.79174,-6.95552 8.38701,-5.09764 6.00827,2.51457 6.69213,-6.24449 2.2004,-8.44725 -5.29134,-2.25118 -9.84213,-5.98583 -14.6457,-9.2445 -8.67166,-6.17363 -18.4925,-11.0575 -29.1508,-12.4146 -11.9492,-1.20354 -23.1036,-8.0752 -29.4496,-18.2941 -3.92481,-5.8252 -6.8126,-12.2669 -9.60001,-18.6921 -7.59213,15.9768 -21.8788,27.1465 -35.5382,37.7138 -2.24528,1.96299 -7.83308,5.76142 -3.77835,8.65749 3.47126,-3.88229 12.9992,1.25669 7.46221,5.42835 -4.96181,4.6441 -11.7921,6.34489 -17.2996,10.1776 -4.87914,2.64685 -9.8256,5.41654 -13.6961,9.47481 -0.262205,6.3378 7.8626,2.82874 11.1626,5.46969 4.29567,4.59095 -1.82126,12.3307 -7.45867,10.5626 -7.20827,0.218504 -12.1831,6.55867 -14.9079,12.6095 -5.64213,8.71772 -16.3217,11.2996 -24.8292,16.2626 -4.8626,2.83583 -9.5882,5.9752 -14.1165,9.28465 -5.84174,3.99567 -0.759449,11.902 5.45315,9.95906 6.71339,-0.667323 12.7465,-5.93859 19.6925,-4.41851 6.3,2.21339 8.06575,10.4433 5.92087,16.1906zm54.7784 77.9162c6.05434,-1.39252 11.6091,6.45827 8.24646,11.6953 -6.0378,0.537402 -9.17127,-6.62835 -8.24646,-11.6953zm21.8126 -3.90827c6.0378,-2.61496 13.8543,4.61221 10.5626,10.7244 -2.34567,4.98307 -11.5039,3.31299 -11.2004,-2.45788 -0.011811,-2.75906 -0.232677,-5.5878 0.637796,-8.26654zm-44.837 -3.35906c5.84174,-0.577559 11.191,5.21693 10.4244,10.9748 4.22953,4.16339 -3.25748,11.9126 -7.47048,7.60512 -3.71221,-4.5 -3.69213,-10.6004 -5.12953,-15.9815 -0.0661418,-1.19646 0.820867,-2.74725 2.17559,-2.59843zm20.8453 -49.3193c-4.38662,3.0874 -10.0748,-4.3878 -6.41221,-8.02678 4.39607,-3.11221 10.0713,4.48701 6.41221,8.02678zm45.8504 7.59922c-2.44134,5.44607 -11.8795,4.13268 -12.9461,-1.66772 -1.86614,-4.58622 -0.145276,-10.4847 4.18819,-13.0358 5.09528,3.09567 8.12481,8.87481 8.75788,14.7036zm83.9292 34.976c2.1,-0.895276 4.09134,-2.04095 6.24567,-2.82284 6.30473,-1.08425 11.2713,7.91221 6.77127,12.5681 -4.2626,6.42875 -14.4295,8.11182 -20.2417,2.84528 -2.26654,-5.32796 2.32914,-10.8803 7.22481,-12.5906zm-24.9543 -9.58229c5.55,-2.72126 11.5205,6.08859 6.8752,10.2071 -5.81693,6.68859 -17.0043,7.92993 -23.954,2.31024 -0.837402,-5.91969 5.07874,-10.2213 10.3287,-11.0717 2.21339,-0.622441 4.40906,-1.55551 6.75001,-1.44567zm-147.9 -21.5197c4.35,-1.27559 10.6913,0.0625985 11.8961,5.05748 0.504331,4.6937 -4.65473,7.13504 -8.4378,8.29725 -6.0626,1.87087 -11.9917,4.94174 -18.5079,4.52835 -4.88386,-2.79095 -6.6378,-8.50631 -8.37993,-13.4906 4.71733,-4.42087 11.6587,-3.12284 17.5051,-4.22953 1.97008,-0.101575 3.94961,-0.151181 5.92441,-0.162992zm94.0713 -2.24646c-1.82126,-2.16496 -0.84567,-5.72717 1.27913,-7.31812 6.56693,-1.65236 4.20827,12.0839 -1.27913,7.31812zm-31.3914 -12.4984c-5.3504,-0.990946 -4.12559,-10.2473 1.34528,-9.72048 5.39174,0.687402 3.64607,10.0358 -1.34528,9.72048zm76.5615 -17.1768c1.30866,-2.42717 3.92599,-4.04055 6.65552,-4.26851 6.43229,-1.69725 11.1036,8.58308 5.57835,12.3024 -5.04922,4.58741 -14.8713,-1.48937 -12.2339,-8.03386zm-125.595 -15.528c0.537402,6.24804 -8.67993,9.67678 -12.7051,5.12953 -4.52008,-2.83819 -8.47914,-8.67166 -6.10749,-14.0858 1.46221,-2.14843 4.37008,-3.03662 6.83741,-2.36575 5.92441,0.811418 9.78308,6.19607 11.9752,11.3221zm18.4583 -5.89725c-2.94567,4.32638 -10.5,6.09449 -13.8343,1.2815 -2.76969,-4.69843 1.70906,-12.5953 7.50473,-10.7528 5.2252,-2.84292 10.7752,5.70237 6.32953,9.47127zm84.1241 3.87874c-5.73308,-0.282284 -9.58229,-8.89607 -4.47874,-12.5398 2.11299,-1.59567 4.7752,-2.25118 7.37127,-2.46614 6.31654,-1.95945 13.9252,4.55079 11.8748,11.1532 -2.81221,5.1189 -9.77954,5.76497 -14.7673,3.85276zm-43.7197 -9.5882c-6.02126,-0.707481 -5.90906,-11.2937 0.728741,-10.3394 1.24961,-0.0590552 2.54528,-0.0933072 3.71693,-0.596457 5.7626,2.7 1.36181,12.3236 -4.44567,10.9358zm20.2748 1.29213c-5.55827,-1.40906 -4.83426,-10.9394 0.766536,-11.6988 1.05827,-0.405118 2.02914,-1.00276 2.96221,-1.63228 6.16654,2.91142 3.0378,14.0209 -3.72874,13.3311zm-45.4418 -36.1855c4.30394,4.09725 1.75748,12.0047 -3.5504,13.8969 -3.82441,2.12717 -9.04135,7.16457 -13.2118,3.02008 -2.26299,-5.05985 3.41575,-8.87127 6.75355,-11.6823 2.98347,-2.31732 6.27048,-4.41969 10.0087,-5.23465zm63.6792 0.614174c-5.84174,0.783071 -8.55827,-8.95985 -3.11693,-11.2736 1.76693,-0.622441 3.61299,-1.14921 5.50394,-1.06772 5.85473,2.1378 3.7878,12.4736 -2.38701,12.3413zm-37.917 -0.514961c-4.48701,1.00039 -9.32127,4.063 -13.8626,1.76811 -3.6874,-3.90473 1.64646,-9.67796 5.76733,-10.9453 3.15827,-0.640158 6.06615,-2.07166 9.23268,-2.6941 6.0756,1.1941 4.99134,11.7791 -1.1374,11.8713zm19.4291 -2.91969c-6.23741,1.11732 -8.55001,-11.0693 -1.27441,-10.3784 5.99528,-1.07126 7.26142,9.86576 1.27441,10.3784zm-59.3752 -16.3559c6.15827,0.18189 5.21221,11.2843 -0.849213,10.5413 -5.89252,-0.377953 -5.52993,-11.7354 0.849213,-10.5413z"/>
 </g>
 <rect class="fil3" width="2048" height="2048"/>
</svg>
