<?xml version="1.0" encoding="UTF-8"?>
<!DOCTYPE svg PUBLIC "-//W3C//DTD SVG 1.1//EN" "http://www.w3.org/Graphics/SVG/1.1/DTD/svg11.dtd">
<!-- Creator: CorelDRAW -->
<svg xmlns="http://www.w3.org/2000/svg" xml:space="preserve" width="2048px" height="2048px" style="shape-rendering:geometricPrecision; text-rendering:geometricPrecision; image-rendering:optimizeQuality; fill-rule:evenodd; clip-rule:evenodd"
viewBox="0 0 2048 2048"
 xmlns:xlink="http://www.w3.org/1999/xlink">
 <defs>
  <style type="text/css">
   <![CDATA[
    .fil4 {fill:none}
    .fil2 {fill:#010066}
    .fil1 {fill:#CC0001}
    .fil0 {fill:#EEEEEE}
    .fil3 {fill:#FFCC00}
   ]]>
  </style>
 </defs>
 <g id="Layer_x0020_1">
  <metadata id="CorelCorpID_0Corel-Layer"/>
  <rect class="fil0" x="255.999" y="562.5" width="1536" height="923"/>
  <polygon class="fil1" points="1792,1373.87 1792,1431.69 255.999,1431.69 255.999,1373.87 "/>
  <polygon class="fil1" points="1792,1257.95 1792,1315.91 255.999,1315.91 255.999,1257.95 "/>
  <polygon class="fil1" points="1792,1142.03 1792,1199.99 255.999,1199.99 255.999,1142.03 "/>
  <polygon class="fil1" points="1092.32,1026.11 1792,1026.11 1792,1084.07 255.999,1084.07 255.999,1026.44 1092.32,1026.44 "/>
  <polygon class="fil1" points="982.684,910.188 1792,910.188 1792,968.148 1046.07,968.148 982.684,968.148 "/>
  <polygon class="fil1" points="982.684,794.267 1792,794.267 1792,852.227 982.684,852.227 "/>
  <polygon class="fil1" points="982.684,678.348 1792,678.348 1792,736.307 982.684,736.307 "/>
  <polygon class="fil1" points="982.684,562.744 1792,562.744 1792,620.387 982.684,620.387 "/>
  <rect class="fil2" x="255.999" y="562.744" width="744.863" height="463.702"/>
  <polygon class="fil3" points="589.093,765.151 658.439,794.501 589.001,823.642 664.536,820.742 614.939,876.38 681.704,841.803 661.771,912.92 706.541,853.514 720.221,926.023 734.13,853.556 778.711,913.094 759.005,841.92 825.657,876.698 776.238,820.909 851.766,824.038 782.419,794.688 851.859,765.546 776.32,768.447 825.917,712.809 759.153,747.384 779.089,676.269 734.317,735.673 720.636,663.165 706.728,735.631 662.145,676.094 681.853,747.269 615.198,712.49 664.619,768.278 "/>
  <path class="fil3" d="M563.24 636.879c-87.3449,0 -158.238,70.6595 -158.238,157.715 0,87.0544 70.8934,157.715 158.238,157.715 31.5579,0 60.9591,-9.23505 85.6536,-25.1209 -14.3799,4.96063 -29.8134,7.67599 -45.88,7.67599 -77.452,0 -140.31,-62.6504 -140.31,-139.845 0,-77.1945 62.8583,-139.846 140.31,-139.846 17.1177,0 33.5126,3.05788 48.6827,8.65749 -25.2555,-17.0091 -55.7008,-26.9516 -88.4564,-26.9516z"/>
 </g>
 <rect class="fil4" width="2048" height="2048"/>
</svg>
