<?xml version="1.0" encoding="UTF-8"?>
<!DOCTYPE svg PUBLIC "-//W3C//DTD SVG 1.1//EN" "http://www.w3.org/Graphics/SVG/1.1/DTD/svg11.dtd">
<!-- Creator: CorelDRAW -->
<svg xmlns="http://www.w3.org/2000/svg" xml:space="preserve" width="2048px" height="2048px" style="shape-rendering:geometricPrecision; text-rendering:geometricPrecision; image-rendering:optimizeQuality; fill-rule:evenodd; clip-rule:evenodd"
viewBox="0 0 2048 2048"
 xmlns:xlink="http://www.w3.org/1999/xlink">
 <defs>
  <style type="text/css">
   <![CDATA[
    .fil3 {fill:none}
    .fil0 {fill:#003263}
    .fil1 {fill:#E03A3E}
    .fil2 {fill:#EEEEEE}
   ]]>
  </style>
 </defs>
 <g id="Layer_x0020_1">
  <metadata id="CorelCorpID_0Corel-Layer"/>
  <polygon class="fil0" points="1666.4,1008.95 898.842,1008.95 1666.4,1792 381.599,1792 381.599,255.999 "/>
  <polygon class="fil1" points="1444.33,948.757 755.112,948.757 1522.98,1731.81 442.023,1731.81 442.023,361.281 "/>
  <polygon class="fil2" points="712.923,1571.46 750.806,1485.04 828.181,1540.37 819.569,1447.15 912.792,1455.76 858.162,1379.1 943.887,1340.51 858.162,1301.91 912.792,1225.25 819.569,1233.86 828.181,1140.64 750.806,1195.97 712.923,1109.54 675.041,1195.97 597.665,1140.64 606.278,1233.86 513.058,1225.25 567.684,1301.91 481.96,1340.51 567.684,1379.1 513.058,1455.76 606.278,1447.15 597.665,1540.37 675.041,1485.04 "/>
  <path class="fil2" d="M614.397 816.462l8.66339 -18.078 -53.2914 -22.8484 57.2339 -13.4055 -38.491 -41.9103 57.3497 10.1339 -17.5063 -54.0024 47.9563 32.1733 6.83859 -56.3776 29.7733 48.3709 29.7733 -48.3709 6.83859 56.3776 47.9741 -32.1733 -17.511 54.0024 57.3367 -10.1339 -38.4792 41.9103 57.2221 13.4055 -53.2914 22.8484 8.60906 17.9752c57.4642,-27.1559 101.895,-77.3717 121.474,-138.631 0.604725,6.62953 0.895276,13.2508 0.895276,20.0386 0,121.96 -98.869,220.842 -220.842,220.842 -121.961,0 -220.842,-98.882 -220.842,-220.842 0,-6.42166 0.46063,-12.7394 1.00158,-19.0158 19.7327,60.8374 64.0701,110.734 121.313,137.711z"/>
 </g>
 <rect class="fil3" width="2048" height="2048"/>
</svg>
