<?xml version="1.0" encoding="UTF-8"?>
<!DOCTYPE svg PUBLIC "-//W3C//DTD SVG 1.1//EN" "http://www.w3.org/Graphics/SVG/1.1/DTD/svg11.dtd">
<!-- Creator: CorelDRAW -->
<svg xmlns="http://www.w3.org/2000/svg" xml:space="preserve" width="2048px" height="2048px" style="shape-rendering:geometricPrecision; text-rendering:geometricPrecision; image-rendering:optimizeQuality; fill-rule:evenodd; clip-rule:evenodd"
viewBox="0 0 2048 2048"
 xmlns:xlink="http://www.w3.org/1999/xlink">
 <defs>
  <style type="text/css">
   <![CDATA[
    .fil3 {fill:none}
    .fil0 {fill:#00247D}
    .fil2 {fill:#CC142B}
    .fil1 {fill:#EEEEEE}
   ]]>
  </style>
 </defs>
 <g id="Layer_x0020_1">
  <metadata id="CorelCorpID_0Corel-Layer"/>
  <rect class="fil0" x="255.999" y="562.5" width="1536" height="923"/>
  <path class="fil1" d="M1282 979.045l17.8311 54.5162 -46.3382 -33.8044 -46.3394 33.8032 17.8311 -54.515 -46.4658 -33.626 57.3544 0.112205 17.6197 -54.5811 17.6185 54.5811 57.3544 -0.112205 -46.4658 33.626zm172.859 -173.328l17.8299 54.5126 -46.3382 -33.8008 -46.3382 33.8008 17.8299 -54.5138 -46.4634 -33.6236 57.3532 0.109843 17.6185 -54.58 17.6185 54.58 57.3556 -0.109843 -46.4658 33.6248zm118.913 149.766l-46.337 33.8008 17.8288 -54.5126 -46.4634 -33.6248 57.352 0.109843 17.6197 -54.5811 17.6197 54.5811 57.3544 -0.109843 -46.4658 33.6248 17.8299 54.5126 -46.3382 -33.8008zm-124.095 296.738l17.8288 54.515 -46.337 -33.8032 -46.3394 33.8032 17.8311 -54.515 -46.4646 -33.6248 57.3544 0.109843 17.6185 -54.58 17.6185 54.58 57.3532 -0.109843 -46.4634 33.6248z"/>
  <g id="_357343264">
   <polygon id="_357343432" class="fil2" points="1273.76,976.368 1306.8,952.461 1266.02,952.54 1253.49,913.733 1240.96,952.54 1200.19,952.461 1233.22,976.368 1220.55,1015.13 1253.49,991.093 1286.44,1015.13 "/>
   <polygon id="_357343744" class="fil2" points="1446.62,803.039 1479.66,779.132 1438.88,779.21 1426.35,740.405 1413.82,779.21 1373.05,779.132 1406.08,803.039 1393.4,841.797 1426.35,817.765 1459.3,841.797 "/>
   <polygon id="_357343288" class="fil2" points="1606.72,970.852 1594.04,932.094 1627.08,908.187 1586.3,908.265 1573.77,869.459 1561.24,908.265 1520.47,908.187 1553.5,932.094 1540.83,970.852 1573.77,946.82 "/>
   <polygon id="_357343576" class="fil2" points="1441.44,1249.54 1474.47,1225.64 1433.7,1225.71 1421.17,1186.91 1408.64,1225.71 1367.86,1225.64 1400.9,1249.54 1388.22,1288.3 1421.17,1264.27 1454.11,1288.3 "/>
  </g>
  <path class="fil1" d="M1038.85 953.905l-260.876 -130.394 58.3536 0 202.523 101.225 0 -14.5158 -173.378 -86.7095 173.558 0c0,-43.4989 0,-86.9977 0,-130.497l-173.636 0 173.456 -86.7485 0 -43.7587 -260.876 130.507 -58.3678 0 260.888 -130.51 -29.1201 0 -238.777 119.405 0 -119.405c-43.4386,0 -86.8761,0 -130.315,0l0 119.378 -238.697 -119.378 -87.2741 0 260.693 130.51 -58.5319 0 -202.442 -101.413 0 14.6646 173.476 86.7485 -173.476 0c0,43.4989 0,86.9977 0,130.497l173.398 0 -173.398 86.7095 0 43.7705 0.532678 0 260.442 -130.48 58.3489 0 -260.437 130.48 28.65 0 238.716 -119.387 0 119.387c43.0725,0 87.254,0 130.315,0l0 -119.414 238.795 119.414 87.4572 0 0 -0.0862205z"/>
  <path class="fil2" d="M255.999 562.5l0.262205 0 260.712 130.519 -58.5319 0 -202.442 -101.413 0 -29.1059zm783.06 156.585l0 78.554 -0.0590552 0 -54.3166 0 -31.8355 0 0 -0.227953 -139.604 0 -126.739 0 0 24.1382 0 132.447 -78.2705 0 0 -132.382 0 -24.2032 -126.633 0 -225.601 0 0 -78.326 225.601 0 126.633 0 0 -24.2032 0 -132.382 78.2705 0 0 132.447 0 24.1382 126.739 0 139.604 0 40.1091 0 45.8622 0 0.180709 0 0.0590552 0zm0 205.767l0 29.1437 -0.239764 0 0 -0.0862205 -260.876 -130.394 58.3536 0 202.523 101.225 0.239764 0.111024zm-0.239764 -362.335l0 -0.00472441 -260.876 130.507 -58.3678 0 260.907 -130.519 58.3701 0 -0.0330709 0.0165354zm-723.934 391.479l-58.3536 0 260.442 -130.48 58.3489 0 -260.437 130.48z"/>
 </g>
 <rect class="fil3" width="2048" height="2048"/>
</svg>
