<?xml version="1.0" encoding="UTF-8"?>
<!DOCTYPE svg PUBLIC "-//W3C//DTD SVG 1.1//EN" "http://www.w3.org/Graphics/SVG/1.1/DTD/svg11.dtd">
<!-- Creator: CorelDRAW -->
<svg xmlns="http://www.w3.org/2000/svg" xml:space="preserve" width="2048px" height="2048px" style="shape-rendering:geometricPrecision; text-rendering:geometricPrecision; image-rendering:optimizeQuality; fill-rule:evenodd; clip-rule:evenodd"
viewBox="0 0 2048 2048"
 xmlns:xlink="http://www.w3.org/1999/xlink">
 <defs>
  <style type="text/css">
   <![CDATA[
    .fil3 {fill:none}
    .fil0 {fill:#01411C}
    .fil2 {fill:#EEEEEE}
    .fil1 {fill:#FAFAFA}
   ]]>
  </style>
 </defs>
 <g id="Layer_x0020_1">
  <metadata id="CorelCorpID_0Corel-Layer"/>
  <rect class="fil0" x="666.669" y="562.5" width="1125.33" height="923"/>
  <path class="fil1" d="M1415.21 897.47l-0.246851 0.412205 -0.0673229 -0.770079 0.314173 0.357874 36.4276 -61.0725 -64.9335 27.8091 -0.745276 -0.207874 -0.0389764 -0.00708662 -46.4741 -53.1201 6.3567 70.0701c-0.222047,0.354331 -0.447638,0.698032 -0.655512,1.05945l-64.6512 27.6874 69.3449 15.776 -0.00708662 -0.0744095 0.0779528 0.0897638 -0.0708662 -0.0153543 6.42402 70.8225 36.4299 -61.0725 -0.833859 -0.190158c0.433465,-0.179528 0.858662,-0.375591 1.28858,-0.571654l-0.454725 0.761812 69.3402 15.776 -46.8248 -53.5205z"/>
  <path class="fil1" d="M1501.78 1143.81c-47.0363,100.003 -148.68,169.241 -266.509,169.241 -162.579,0 -294.376,-131.797 -294.376,-294.376 0,-135.314 91.304,-249.288 215.66,-283.716 -71.5441,48.3662 -118.579,130.238 -118.579,223.097 0,148.619 120.481,269.099 269.1,269.099 76.5863,0 145.697,-31.9949 194.704,-83.3457z"/>
  <polygon class="fil2" points="255.999,562.744 666.669,562.744 666.669,1485.26 255.999,1485.26 "/>
  <path class="fil2" d="M1156.55 734.955c-124.356,34.428 -215.66,148.402 -215.66,283.716 0,162.579 131.797,294.376 294.376,294.376 117.829,0 219.473,-69.2386 266.509,-169.241 -49.0063,51.3508 -118.117,83.3457 -194.704,83.3457 -148.619,0 -269.1,-120.48 -269.1,-269.099 0,-92.8595 47.0351,-174.731 118.579,-223.097z"/>
  <path class="fil2" d="M1349.84 925.464l-0.00708662 -0.0744095 0.0779528 0.0897638 -0.0708662 -0.0153543zm42.854 9.75001l-0.833859 -0.190158 1.28858 -0.571654 -0.454725 0.761812zm22.5154 -37.7445l-0.246851 0.412205 -0.0673229 -0.770079 0.314173 0.357874zm-70.063 -15.4689l-64.6512 27.6874 69.3449 15.776 6.42402 70.8225 36.4299 -61.0725 69.3402 15.776 -46.8248 -53.5205 36.4276 -61.0725 -64.9335 27.8091 -0.745276 -0.207874 -0.0389764 -0.00708662 -46.4741 -53.1201 6.3567 70.0701c-0.222047,0.354331 -0.447638,0.698032 -0.655512,1.05945z"/>
 </g>
 <rect class="fil3" width="2048" height="2048"/>
</svg>
