<?xml version="1.0" encoding="UTF-8"?>
<!DOCTYPE svg PUBLIC "-//W3C//DTD SVG 1.1//EN" "http://www.w3.org/Graphics/SVG/1.1/DTD/svg11.dtd">
<!-- Creator: CorelDRAW -->
<svg xmlns="http://www.w3.org/2000/svg" xml:space="preserve" width="2048px" height="2048px" style="shape-rendering:geometricPrecision; text-rendering:geometricPrecision; image-rendering:optimizeQuality; fill-rule:evenodd; clip-rule:evenodd"
viewBox="0 0 2048 2048"
 xmlns:xlink="http://www.w3.org/1999/xlink">
 <defs>
  <style type="text/css">
   <![CDATA[
    .fil4 {fill:none}
    .fil1 {fill:#0038A8}
    .fil0 {fill:#CE1126}
    .fil2 {fill:#EEEEEE}
    .fil3 {fill:#FCD116}
   ]]>
  </style>
 </defs>
 <g id="Layer_x0020_1">
  <metadata id="CorelCorpID_0Corel-Layer"/>
  <rect class="fil0" x="255.999" y="562.5" width="1536" height="923"/>
  <rect class="fil1" x="255.999" y="562.5" width="1536" height="461.5"/>
  <polygon class="fil2" points="255.999,562.5 1084.59,1023.98 255.999,1485.5 "/>
  <g id="_357349480">
   <path id="_357350512" class="fil3" d="M645.492 999.38c-2.12126,-7.66654 -5.16969,-15.0874 -9.13229,-22.239l44.465 -26.1992 0 -14.687 -49.2225 33.7477c-0.797245,-1.85315 -1.99252,-3.43347 -3.57638,-4.77048l52.7989 -41.674 0 -26.2051 -25.0051 0 -42.0839 53.1886c-1.59449,-1.31339 -3.17953,-2.50748 -4.76103,-3.56221l34.1374 -49.6264 -15.874 0 -26.2122 44.8524c-6.88111,-3.9626 -14.0197,-7.00985 -21.4288,-9.12993l13.4917 -50.4107 -11.9102 -10.3276 -10.3169 58.7563c-1.85079,-0.257481 -3.84331,-0.396851 -5.95512,-0.396851l7.9382 -67.4918 -17.8689 -17.8642 -18.2528 16.6795 7.54016 68.6764c-1.85433,0.26811 -3.7063,0.396851 -5.55709,0.396851l-10.3276 -58.7563 -12.6992 10.715 14.2937 50.0233c-7.67835,2.39173 -14.9587,5.42835 -21.8421,9.12993l-26.5996 -44.8524 -15.8728 0 35.3362 49.6264c-1.85433,1.05473 -3.44882,2.24882 -4.77284,3.56221l-42.0744 -53.1886 -25.8047 0 0 26.2051 52.8024 42.0733 -3.17717 4.77166 -49.6252 -34.1481 0 15.0862 44.8524 26.2004c-3.70276,6.89056 -6.48308,14.0327 -8.33268,21.4417l-51.6071 -13.1055 -12.3095 11.511 61.5355 9.92835c-0.269292,1.85433 -0.536221,3.84685 -0.794883,5.95748l-68.6764 -7.14922 -18.2634 18.261 19.4469 17.4697 67.493 -8.33741c0.258662,2.12126 0.525591,4.10315 0.794883,5.95512l-59.1544 11.1142 11.9126 12.3095 49.6229 -14.289c1.84961,7.67599 4.88859,15.0862 9.13347,22.2272l-45.6532 26.2004 0 15.8847 50.8099 -34.1481c0.797245,1.33347 1.72087,2.6563 2.77795,3.97205l-53.5878 42.874 0 25.0134 26.2028 0 42.4737 -53.5961c1.31339,1.32638 2.77795,2.52047 4.37008,3.5752l-34.5461 50.0209 15.0874 0 27.7949 -44.863c6.87048,3.70512 14.0221,6.62363 21.4288,8.73544l-13.4929 51.2174 10.7173 9.91772 9.53032 -59.941c1.85315,0.537402 3.83386,0.925985 5.95394,1.18465l-7.13977 68.2878 18.2528 17.4697 17.8689 -17.4697 -7.5378 -68.2878c2.36811,-0.258662 4.61693,-0.647245 6.74056,-1.18465l9.5315 59.941 11.9102 -12.3083 -13.4953 -49.6264c7.66772,-1.84961 14.9492,-4.75985 21.8292,-8.73072l26.2028 44.4638 15.8847 0 -34.5378 -49.2237c2.10945,-1.58268 3.96496,-3.03898 5.55709,-4.363l41.289 53.5867 25.8036 0 0 -25.0051 -53.9965 -41.6882c1.58386,-1.85197 2.77914,-3.56457 3.57638,-5.1567l50.4201 34.1362 0 -15.8728 -45.6626 -25.0158c3.70394,-6.61182 6.74292,-13.8827 9.13229,-21.8292l47.2453 12.2965 14.2902 -10.715 -59.543 -10.7138c0.518504,-2.11063 0.785434,-4.23426 0.785434,-6.35552l68.6871 7.93938 17.0693 -17.8665 -17.8665 -17.4662 -67.8898 7.14922c0,-1.58268 -0.266929,-3.43701 -0.785434,-5.55709l59.543 -10.3287 -12.3095 -11.511 -49.226 13.5024z"/>
   <polygon id="_357349960" class="fil3" points="370.876,758.007 412.859,758.007 378.912,733.294 391.714,693.69 358.074,718.108 324.127,693.402 337.229,733.294 303.288,758.007 344.972,758.007 358.074,797.607 "/>
   <polygon id="_357349576" class="fil3" points="916.019,1036.35 955.776,1022.86 915.983,1010.45 915.263,968.75 891.256,1002.74 851.174,990.245 876.224,1023.95 852.211,1057.94 891.597,1044.65 916.647,1078.34 "/>
   <polygon id="_357349408" class="fil3" points="378.454,1314.71 412.393,1289.99 370.708,1289.99 357.604,1250.39 344.805,1289.99 302.821,1289.99 336.768,1314.71 323.966,1354.31 357.604,1329.89 391.551,1354.6 "/>
  </g>
 </g>
 <rect class="fil4" width="2048" height="2048"/>
</svg>
