<?xml version="1.0" encoding="UTF-8"?>
<!DOCTYPE svg PUBLIC "-//W3C//DTD SVG 1.1//EN" "http://www.w3.org/Graphics/SVG/1.1/DTD/svg11.dtd">
<!-- Creator: CorelDRAW -->
<svg xmlns="http://www.w3.org/2000/svg" xml:space="preserve" width="2048px" height="2048px" style="shape-rendering:geometricPrecision; text-rendering:geometricPrecision; image-rendering:optimizeQuality; fill-rule:evenodd; clip-rule:evenodd"
viewBox="0 0 2048 2048"
 xmlns:xlink="http://www.w3.org/1999/xlink">
 <defs>
  <style type="text/css">
   <![CDATA[
    .fil7 {fill:none}
    .fil0 {fill:#006600}
    .fil6 {fill:#007AC1}
    .fil3 {fill:#231F20}
    .fil5 {fill:#EC1C2E}
    .fil2 {fill:#FCE12E}
    .fil1 {fill:red}
    .fil4 {fill:white}
   ]]>
  </style>
 </defs>
 <g id="Layer_x0020_1">
  <metadata id="CorelCorpID_0Corel-Layer"/>
  <g id="_357351400">
   <rect id="_362303728" class="fil0" x="255.999" y="562.5" width="621.133" height="923"/>
   <rect id="_362304448" class="fil1" x="877.132" y="562.5" width="914.868" height="923"/>
   <g>
    <path id="_362304136" class="fil2" d="M1094.3 1124.09c-1.35473,0.0129921 -2.97756,-0.144095 -4.92874,-0.37441 -28.8874,-3.46063 -114.763,-43.4752 -211.953,-99.8328 -97.1623,-56.3363 -174.593,-111.013 -192.036,-134.41 -1.1126,-1.46693 -2.03622,-2.75433 -2.70236,-3.8941l-20.5382 35.8264c-1.10551,1.93583 -2.30433,2.21103 0.714567,6.37323 16.8839,23.1567 94.6371,78.1253 192.337,134.771 97.7257,56.6776 184.051,96.8091 212.417,99.8977 5.07993,0.54567 4.16929,-1.03347 5.80512,-2.57244l20.8843 -35.7851z"/>
    <path id="_362303776" class="fil3" d="M682.711 887.201l-19.8449 34.6158c-0.168898,0.307087 -0.35315,0.569292 -0.509056,0.818505 -0.746457,1.1185 -1.04646,1.58386 1.17756,4.64646 17.2382,23.6457 96.228,78.9697 192.075,134.547 95.869,55.5922 183.085,96.6284 212.091,99.782 0.661418,0.0791339 1.21772,0.106299 1.68898,0.106299l0 0c1.70197,0 1.93701,-0.366142 2.40827,-1.11378 0.222047,-0.366142 0.50315,-0.805512 0.955513,-1.24961l20.113 -34.4729c-1.09488,-0.0507874 -2.25945,-0.174803 -3.5941,-0.33189 -29.6339,-3.55512 -116.921,-44.6492 -212.273,-99.945 -95.3257,-55.2638 -174.398,-110.627 -192.292,-134.627 -0.687402,-0.90945 -1.38071,-1.85788 -1.99606,-2.77559zm386.678 276.189l0 0c-0.52441,0 -1.13976,-0.0248032 -1.87205,-0.103937 -29.2158,-3.18662 -116.7,-44.3079 -212.745,-100.016 -96.0237,-55.6713 -175.227,-111.184 -192.599,-135.001 -2.6315,-3.63189 -2.39528,-4.78347 -1.21772,-6.56339 0.144095,-0.209055 0.302362,-0.452363 0.459449,-0.719292l21.2563 -37.0831 0.733465 1.24961c0.693308,1.19764 1.67599,2.54055 2.64449,3.81733 17.7756,23.8418 96.6391,79.0205 191.788,134.185 95.1745,55.193 182.205,96.2032 211.632,99.73 1.88504,0.217323 3.39685,0.367323 4.67126,0.367323l1.45394 0 -0.576378 1.26142 -21.0331 35.9717c-0.34252,0.325985 -0.551575,0.65315 -0.773623,1.0063 -0.699213,1.11378 -1.38662,1.89803 -3.82205,1.89803z"/>
    <path id="_362304400" class="fil2" d="M680.76 882.426c-1.94291,2.38229 0.034252,5.25355 3.27284,9.59292 17.4614,23.3599 94.8993,78.0201 192.064,134.352 97.1883,56.3622 183.07,96.3839 211.918,99.88 5.35394,0.640158 8.63268,0.97441 9.88347,-1.95118 1.2815,-3.02362 -4.01811,-10.1504 -4.01811,-10.1504 1.20236,3.43465 3.01654,6.92481 -2.0504,6.36851 -28.3831,-3.08386 -114.67,-43.2555 -212.408,-99.9261 -97.6891,-56.6445 -175.46,-111.594 -192.352,-134.75 -3.02244,-4.13622 0.0129921,-4.34764 3.90237,-4.92284 -6.16654,-0.131102 -8.11654,-1.0063 -10.2118,1.50709z"/>
    <path id="_362304184" class="fil3" d="M684.962 881.508c-1.79291,0 -2.6315,0.341339 -3.55985,1.45276 -1.45394,1.77992 -0.0401575,4.08426 3.29764,8.55473 17.8087,23.8169 96.6875,78.9757 191.815,134.134 95.1532,55.1717 182.167,96.202 211.605,99.769 5.69292,0.679134 8.08938,0.693308 9.00473,-1.45394 0.433465,-0.993308 -0.168898,-2.84528 -1.11142,-4.75158 -0.0531496,0.393307 -0.177165,0.760631 -0.4063,1.08662 -0.640158,0.929528 -1.7941,1.28268 -3.86811,1.04764 -29.1307,-3.16181 -116.608,-44.2949 -212.738,-100.031 -96.0639,-55.702 -175.267,-111.207 -192.605,-134.978 -0.791339,-1.09488 -1.78701,-2.69764 -1.2248,-4.03111 0.131102,-0.315355 0.328347,-0.570473 0.564567,-0.786615 -0.270473,-0.0129921 -0.52441,-0.0129921 -0.773623,-0.0129921zm408.185 246.019c-1.42677,0 -3.06969,-0.184252 -5.22993,-0.446457 -29.6398,-3.58701 -116.915,-44.7012 -212.241,-99.9851 -95.3032,-55.2579 -174.391,-110.599 -192.318,-134.578 -3.05551,-4.09843 -5.69292,-7.63229 -3.24567,-10.6217 1.44685,-1.72914 2.87362,-2.06339 4.84961,-2.06339 0.714567,0 1.52599,0.0401575 2.48622,0.0992127 0.99567,0.0590552 2.16024,0.125197 3.53622,0.15l0.103937 1.67008 -0.563386 0.0826772c-1.66299,0.237402 -3.55276,0.511418 -3.80906,1.12677 -0.0779528,0.183071 -0.131102,0.786615 1.03465,2.38229 17.2193,23.6138 96.2079,78.9308 192.088,134.522 95.9481,55.63 183.163,96.6804 212.085,99.8198 1.23662,0.13937 2.06693,0 2.31024,-0.340158 0.431103,-0.615355 -0.236221,-2.43307 -0.773623,-3.8941l-0.372048 -1.02756 1.45866 -0.77126c0.576378,0.765355 5.55119,7.60394 4.12323,10.9748 -1.09843,2.57244 -3.52796,2.90079 -5.52284,2.90079z"/>
    <path id="_362336248" class="fil2" d="M656.675 923.441c-1.6748,2.32323 0.28937,5.67993 3.53622,10.0193 17.4732,23.3398 94.904,78.0083 192.069,134.345 97.1906,56.3504 183.064,96.378 211.914,99.8871 5.34567,0.647245 8.23347,0.772442 9.87402,-1.9441 0.412205,-2.36929 0.420473,-1.47992 -1.12441,-5.22993 0,0 0.124016,1.98898 -4.93583,1.44567 -28.3642,-3.12638 -114.664,-43.2721 -212.398,-99.9509 -97.6997,-56.6516 -175.452,-111.601 -192.363,-134.731 -3.00945,-4.14922 -1.85788,-3.42874 -1.64882,-5.27363 -1.87205,0.259843 -2.59134,-0.393307 -4.92284,1.43268z"/>
    <path id="_362336176" class="fil3" d="M657.29 924.022c-1.19646,1.83307 0.485433,4.78583 3.59528,8.94213 17.8323,23.8229 96.7111,78.9686 191.814,134.113 95.1544,55.1741 182.16,96.2032 211.598,99.782 1.89095,0.230315 3.40276,0.380315 4.64646,0.380315l0 0c2.26536,0 3.4937,-0.504331 4.33229,-1.79882l0.0472441 -0.295276c0.209055,-1.15039 0.209055,-1.15039 -0.37441,-2.47323 -0.0590552,-0.144095 -0.131102,-0.302362 -0.20315,-0.47126 -0.967324,0.627166 -2.39528,0.857481 -4.82363,0.6 -29.2276,-3.22559 -116.699,-44.3717 -212.73,-100.068 -96.019,-55.6701 -175.23,-111.169 -192.626,-134.959 -2.16614,-2.98465 -2.41418,-3.73701 -2.06811,-4.85079 -0.0649607,0 -0.142913,0 -0.209055,0 -0.955513,0.0141732 -1.58504,0.0141732 -2.99882,1.09843zm411.653 244.892l0 0c-1.32165,0 -2.89252,-0.155906 -4.8567,-0.390945 -29.6268,-3.6 -116.902,-44.7213 -212.225,-99.9922 -95.2867,-55.2496 -174.367,-110.58 -192.32,-134.574 -3.08032,-4.11614 -5.67402,-8.06221 -3.53859,-11.0067l0.162992 -0.17126c1.91693,-1.50473 2.98465,-1.51772 4.10906,-1.53071 0.35315,0 0.746457,0 1.20473,-0.0673229l1.07362 -0.155906 -0.11811 1.07362c-0.0649607,0.536221 -0.196063,0.910631 -0.288189,1.17756 -0.170079,0.47126 -0.255118,0.713386 1.7811,3.50788 17.2654,23.6209 96.2599,78.9296 192.102,134.509 95.8548,55.578 183.057,96.6391 212.069,99.8398 3.09095,0.32126 3.96614,-0.399213 4.01221,-0.634252l1.61102 -0.302362c0.312992,0.779528 0.568111,1.35473 0.765355,1.80118 0.746457,1.70788 0.765355,1.86378 0.484252,3.44764l-0.190158 0.733465c-1.45276,2.40945 -3.7689,2.73544 -5.83819,2.73544z"/>
    <path id="_362335960" class="fil2" d="M681.29 1151.19c22.4492,10.9051 101.647,18.9673 195.931,18.9673 93.9898,0 173.01,-8.01142 195.735,-18.8681l11.9835 -20.3563c-22.9595,11.6244 -107.255,20.2571 -207.731,20.2571 -100.585,0 -184.949,-8.65867 -207.783,-20.2949l11.8654 20.2949z"/>
    <path id="_362336104" class="fil3" d="M681.886 1150.55c23.1933,11.0599 103.38,18.7713 195.334,18.7713 91.5745,0 171.696,-7.67127 195.138,-18.6791l10.4988 -17.8158c-26.7036,11.3634 -109.945,19.2036 -205.65,19.2036 -95.8347,0 -179.104,-7.85434 -205.702,-19.2425l10.3807 17.7626zm195.334 20.4461c-92.4851,0 -173.201,-7.83426 -196.298,-19.0524l-0.227953 -0.112205 -13.4291 -22.9772 2.53819 1.29567c23.3457,11.8925 108.631,20.204 207.404,20.204 98.6375,0 183.901,-8.29253 207.352,-20.1662l2.55236 -1.2874 -13.5614 23.0362 -0.236221 0.106299c-23.3516,11.165 -103.989,18.9532 -196.094,18.9532z"/>
    <path id="_362336224" class="fil2" d="M1076.21 1145.92c-2.40827,1.88386 -3.40985,2.53937 -5.91024,3.50079 -26.5311,10.1516 -102.949,17.4945 -193.077,17.4945 -90.1867,0 -166.624,-7.34292 -193.115,-17.5134 -2.3374,-0.890552 -3.82323,-1.80709 -5.92441,-3.37796 -0.516142,1.15276 -0.628347,2.27835 -0.628347,2.27835 0,13.7823 89.3753,24.9614 199.668,24.9614 110.28,0 199.681,-11.1791 199.681,-24.9614 0,0 -0.168898,-1.22953 -0.693308,-2.38229z"/>
    <path id="_362335240" class="fil3" d="M678.595 1147.36c-0.158268,0.588189 -0.204331,1.02165 -0.204331,1.02165 0,11.5713 79.8993,24.0449 198.83,24.0449 118.919,0 198.816,-12.4677 198.843,-24.1169l0 0c-0.00590552,0 -0.0779528,-0.452363 -0.249213,-1.02756 -1.89803,1.43976 -2.97166,2.05512 -5.21693,2.91733 -27.4418,10.4988 -105.154,17.5536 -193.377,17.5536 -88.3146,0 -166.041,-7.06064 -193.417,-17.5665 -2.11299,-0.811418 -3.57402,-1.65473 -5.20867,-2.82638zm198.626 26.7425c-98.556,0 -200.505,-9.64725 -200.505,-25.8 0.0129921,-0.131102 0.131102,-1.36063 0.7063,-2.61851l0.433465 -0.955513 0.830316 0.628347c1.96417,1.46693 3.38268,2.3752 5.71418,3.26103 27.2055,10.4445 104.688,17.4602 192.821,17.4602 88.0418,0 165.519,-7.00985 192.783,-17.4366 2.38229,-0.921261 3.29764,-1.51772 5.68819,-3.38268l0.837402 -0.65315 0.437008 0.966142c0.569292,1.25197 0.759449,2.56063 0.767717,2.6126 0.00472441,16.2709 -101.949,25.9181 -200.514,25.9181z"/>
    <path id="_362335936" class="fil2" d="M668.763 1124.02c-0.837402,2.40827 1.14567,4.47048 3.37796,5.37993 26.8925,10.9099 108.532,18.8551 205.08,18.8551 94.0028,0 182.652,-9.73111 205.12,-18.8681 2.27008,-0.929528 4.13032,-2.2311 3.6,-4.84843 2.31024,0.948426 2.38819,3.69685 2.38819,3.69685 0,14.5099 -94.5119,26.3044 -211.108,26.3044 -116.602,0 -211.095,-11.7945 -211.095,-26.3044 0,0 -0.190158,-2.64449 2.6374,-4.21536z"/>
    <path id="_362335744" class="fil3" d="M667.796 1125.89c-0.883465,1.10787 -0.84567,2.23819 -0.831497,2.29725 0,12.3496 84.4808,25.5189 210.256,25.5189 125.778,0 210.271,-13.1693 210.271,-25.4658 0,-0.046063 -0.0519685,-1.1185 -0.701575,-2.00197 -0.48189,2.44134 -3.0437,3.4878 -4.12796,3.93189 -22.487,9.1382 -110.398,18.9272 -205.441,18.9272 -94.9583,0 -177.5,-7.60394 -205.394,-18.9142 -1.91103,-0.784253 -3.67205,-2.34213 -4.03111,-4.29331zm209.425 29.4921c-104.179,0 -211.932,-10.1504 -211.932,-27.1418 -0.0129921,-0.0720473 -0.18189,-3.13465 3.06969,-4.94882l1.91693 -1.06536 -0.719292 2.07402c-0.654331,1.89095 1.04055,3.56575 2.90551,4.32638 27.2729,11.0669 111.477,18.7949 204.76,18.7949 94.8485,0 182.467,-9.72402 204.807,-18.8091 2.57717,-1.05354 3.44764,-2.14606 3.09449,-3.9l-0.314173 -1.5437 1.45158 0.601182c2.77559,1.13858 2.9067,4.31339 2.9067,4.45158 0,17.0102 -107.766,27.1607 -211.945,27.1607z"/>
    <path id="_362335720" class="fil2" d="M1111.98 1014.41c-1.15394,1.06181 -2.62559,2.07402 -4.41378,3.25985 -26.4,17.4354 -119.565,30.2764 -230.433,30.2764 -110.829,0 -203.961,-12.841 -230.397,-30.2634 -1.66772,-1.08662 -3.08859,-2.06103 -4.22599,-3.04843l0.0507874 15.176c0,3.37087 -0.883465,4.64764 3.73701,7.78701 25.8461,17.5217 119.391,30.4925 230.835,30.4925 111.497,0 205.08,-12.9921 230.88,-30.5173 4.60158,-3.13583 3.05551,-4.51536 3.69213,-7.76221l0.275197 -15.4004z"/>
    <path id="_362335576" class="fil3" d="M643.35 1016.37l0.0448819 13.4291c0,0.52441 -0.0188977,0.981497 -0.0377953,1.41496 -0.0980316,2.31614 -0.138189,3.27166 3.40985,5.68583 26.3551,17.8677 121.083,30.3484 230.362,30.3484 109.337,0 204.084,-12.4866 230.407,-30.3744 3.0567,-2.0811 3.08268,-3.13465 3.12284,-4.87559 0.0188977,-0.679134 0.0377953,-1.43976 0.222047,-2.35512l0.222047 -13.4232c-0.921261,0.699213 -1.95591,1.40551 -3.07559,2.14606 -27.1217,17.9067 -122.073,30.4134 -230.899,30.4134 -108.768,0 -203.699,-12.5008 -230.86,-30.3945 -1.09961,-0.732284 -2.06929,-1.38071 -2.91969,-2.01496zm233.779 52.5544c-109.579,0 -204.695,-12.5988 -231.306,-30.6378 -4.12205,-2.80512 -4.25315,-4.37599 -4.13622,-7.13859 0.0141732,-0.412205 0.0330709,-0.851575 0.0330709,-1.34173l-0.0590552 -17.0102 1.38898 1.20473c1.07835,0.929528 2.43307,1.85788 4.14095,2.98465 26.9138,17.7354 121.465,30.1181 229.938,30.1181 108.532,0 203.097,-12.3957 229.97,-30.1311 1.68898,-1.11969 3.16654,-2.13425 4.3063,-3.18071l1.43858 -1.32165 -0.305906 17.3551c-0.165354,0.916536 -0.184252,1.57205 -0.20315,2.21221 -0.046063,1.96417 -0.090945,3.65906 -3.85512,6.2256 -26.5784,18.0567 -121.714,30.6614 -231.351,30.6614z"/>
    <path id="_362335552" class="fil2" d="M1108.27 1005.75c2.72362,3.55985 4.4374,7.57796 -0.168898,10.7008 -25.7929,17.5465 -119.378,30.5173 -230.868,30.5173 -111.444,0 -204.995,-12.952 -230.832,-30.4925 -4.62166,-3.12638 -2.86654,-7.37481 -0.144095,-10.9347 0,0 -7.01575,4.39725 -6.9378,7.85906 -0.498426,4.60158 2.61142,6.85276 7.513,10.0854 26.4343,17.3776 119.56,30.1855 230.401,30.1855 110.856,0 204.02,-12.8162 230.429,-30.1984 4.88977,-3.2315 7.86733,-5.28662 7.48701,-10.0724 -0.386221,-4.92756 -6.87875,-7.65001 -6.87875,-7.65001z"/>
    <path id="_362335648" class="fil3" d="M643.35 1008.76c-1.74095,1.54488 -3.22559,3.29882 -3.1937,4.62048 -0.452363,4.1941 2.27717,6.20434 7.14095,9.40394 26.9044,17.6917 121.463,30.0473 229.936,30.0473 108.513,0 203.084,-12.3555 229.97,-30.0591 5.04095,-3.33189 7.44213,-5.11181 7.10788,-9.30709 -0.170079,-2.26417 -1.86614,-4.03819 -3.45591,-5.22993 0.818505,1.64882 1.09961,3.12402 0.87756,4.50237 -0.275197,1.68898 -1.34173,3.1689 -3.16181,4.40552 -26.5382,18.0579 -121.674,30.6626 -231.338,30.6626 -109.611,0 -204.727,-12.5976 -231.304,-30.6355 -1.80709,-1.22599 -2.86654,-2.73071 -3.15591,-4.45748 -0.194882,-1.21772 -0.00472441,-2.52638 0.576378,-3.95315zm233.883 45.7477c-108.773,0 -203.699,-12.4677 -230.86,-30.3213 -4.54134,-2.99292 -8.46851,-5.57599 -7.89331,-10.878 -0.0850394,-3.72402 6.57166,-8.00316 7.33111,-8.47442l1.11142 1.21536c-1.93701,2.52047 -2.77559,4.67363 -2.49213,6.40158 0.200788,1.26969 1.00158,2.3563 2.44134,3.33071 26.3221,17.8665 121.051,30.3484 230.361,30.3484 109.364,0 204.105,-12.4866 230.397,-30.3733 1.44567,-0.976772 2.24528,-2.05512 2.44606,-3.29173 0.270473,-1.65118 -0.543308,-3.67796 -2.46732,-6.2126l-1.91103 -2.49213 2.8937 1.21536c0.288189,0.11811 6.97678,2.98465 7.39489,8.35867 0.420473,5.35985 -3.04843,7.65827 -7.86615,10.839 -27.1347,17.8606 -122.079,30.3343 -230.887,30.3343z"/>
    <path id="_362335360" class="fil2" d="M1111.83 1028.58c-0.52441,-0.209055 0.875198,4.91693 -3.73111,8.0504 -25.7929,17.4685 -119.378,30.4347 -230.868,30.4347 -111.444,0 -204.995,-12.9473 -230.832,-30.4075 -4.62166,-3.14173 -4.02048,-4.52953 -3.91536,-8.18268 0,0 -2.51339,1.7752 -3.16654,5.09882 -0.28937,4.51654 2.61142,6.85276 7.513,10.0724 26.4343,17.3114 119.56,30.1193 230.401,30.1193 110.856,0 204.02,-12.8138 230.429,-30.1323 4.88977,-3.21969 7.42205,-5.24882 7.48701,-10.0595 -0.287008,-2.80158 -2.06103,-4.05 -3.31654,-4.9937z"/>
    <path id="_362335408" class="fil3" d="M641.571 1030.6c-0.576378,0.758268 -1.17284,1.81772 -1.43268,3.14055 -0.22441,3.71811 1.92284,5.77323 7.15985,9.20788 26.9492,17.6528 121.504,29.9835 229.936,29.9835 108.474,-0.00236221 203.038,-12.3307 229.97,-29.9953 5.00079,-3.3 7.04882,-5.07166 7.10788,-9.36497 -0.170079,-1.6252 -0.967324,-2.63858 -1.83189,-3.40512 -0.11811,1.84725 -0.655512,4.94882 -3.90827,7.16103 -26.5843,18.0047 -121.714,30.5776 -231.338,30.5776 -109.572,0 -204.68,-12.5669 -231.304,-30.5516 -3.82205,-2.59843 -4.37363,-4.21536 -4.35945,-6.75355zm235.663 44.0055c-108.728,0 -203.659,-12.4417 -230.86,-30.2551 -4.81772,-3.16063 -8.20631,-5.79213 -7.89331,-10.8248 0.726379,-3.7252 3.40985,-5.64922 3.52087,-5.72717l1.36772 -0.969686 -0.0838583 2.74961c-0.131102,2.78858 -0.177165,3.83504 3.58701,6.38859 26.3681,17.8134 121.096,30.2622 230.361,30.2622 109.324,0 204.066,-12.4547 230.397,-30.2894 3.08268,-2.09528 3.16063,-5.15197 3.2067,-6.62363 0.0188977,-0.629528 0.0448819,-1.56969 0.961418,-1.56969l0.446457 0.105118 0.194882 0.141732c1.28268,0.955513 3.22559,2.40945 3.54685,5.49804 -0.0720473,5.44725 -3.03544,7.66536 -7.86615,10.8461 -27.1748,17.8205 -122.125,30.2681 -230.887,30.2681z"/>
    <path id="_362335288" class="fil2" d="M1086.13 917.091c-5.59725,13.8177 -96.9946,24.8126 -208.923,24.8126 -110.391,0 -200.792,-10.6949 -208.608,-24.2421l11.2039 -20.6162c6.86575,12.8799 92.6162,23.0634 197.404,23.0634 104.808,0 190.558,-10.1835 197.417,-23.0634l11.5063 20.0457z"/>
    <path id="_362334544" class="fil3" d="M669.576 917.63c9.22205,13.174 99.828,23.4366 207.632,23.4366 108.376,0 201.056,-10.7091 207.98,-23.9292l-10.6417 -18.5339c-11.2701,12.8138 -94.5733,22.3429 -197.339,22.3429 -102.686,0 -185.936,-9.51615 -197.299,-22.324l-10.3335 19.0075zm207.632 25.1126c-111.222,0 -201.219,-10.6028 -209.328,-24.6626l-0.236221 -0.405118 12.1736 -22.3961 0.733465 1.37362c6.75355,12.685 93.1383,22.6181 196.657,22.6181 103.539,0 189.924,-9.93308 196.677,-22.6181l0.712205 -1.33583 12.4618 21.7169 -0.157087 0.373229c-5.8441,14.4437 -95.9918,25.3358 -209.694,25.3358z"/>
    <path id="_362334448" class="fil2" d="M1076.2 895.448c-2.40827,1.88504 -3.40985,2.54646 -5.91733,3.50197 -26.5323,10.1658 -102.949,17.5004 -193.077,17.5004 -90.1867,0 -166.617,-7.34882 -193.11,-17.5122 -2.34213,-0.896457 -3.82796,-1.81417 -5.91615,-3.38386 -0.523229,1.15158 -0.641339,2.28425 -0.641339,2.28425 0,13.7882 89.3883,24.9543 199.668,24.9543 110.293,0 199.688,-11.165 199.688,-24.9543 0,0 -0.170079,-1.23071 -0.693308,-2.39055z"/>
    <path id="_362335024" class="fil3" d="M678.589 896.896c-0.165354,0.581103 -0.211417,1.02047 -0.211417,1.02756 0,11.5642 79.8993,24.0319 198.83,24.0319 118.925,0 198.816,-12.4606 198.851,-24.111l0 0c-0.00708662,0 -0.080315,-0.445276 -0.249213,-1.03347 -1.90512,1.45276 -2.98465,2.06811 -5.22993,2.91733 -27.4146,10.5059 -105.128,17.5595 -193.371,17.5595 -88.3016,0 -166.028,-7.06182 -193.41,-17.5701 -2.13307,-0.81378 -3.59292,-1.66417 -5.20867,-2.82166zm198.619 26.7355c-98.5572,0 -200.505,-9.64725 -200.505,-25.7929 0.0129921,-0.13937 0.144095,-1.36772 0.713386,-2.62559l0.426378 -0.955513 0.837402 0.628347c1.93819,1.45984 3.3567,2.36929 5.72008,3.27402 27.2138,10.4386 104.688,17.4543 192.808,17.4543 88.0548,-0.00236221 165.532,-7.00985 192.775,-17.4437 2.39055,-0.915355 3.30591,-1.50473 5.70119,-3.37559l0.837402 -0.655512 0.445276 0.969686c0.564567,1.24961 0.746457,2.55827 0.759449,2.61732 0.00826772,16.2579 -101.947,25.9051 -200.518,25.9051z"/>
    <path id="_362334640" class="fil2" d="M668.763 914.166c-0.837402,2.40945 1.14567,4.47756 3.37796,5.3941 26.8925,10.963 108.532,18.9473 205.08,18.9473 94.0028,0 182.652,-9.77717 205.12,-18.9614 2.27008,-0.928347 4.13032,-2.23701 3.6,-4.86851 2.31024,0.955513 2.38819,3.72402 2.38819,3.72402 0,14.5689 -94.5119,26.3835 -211.121,26.3835 -116.589,-0.00236221 -211.082,-11.8146 -211.082,-26.3835 0,0 -0.190158,-2.66339 2.6374,-4.23544z"/>
    <path id="_362334664" class="fil3" d="M667.796 916.038c-0.903544,1.12559 -0.837402,2.29016 -0.837402,2.30433 0.00590552,12.3957 84.4867,25.604 210.249,25.604 125.791,0 210.284,-13.2083 210.284,-25.5449 0,-0.046063 -0.0519685,-1.13268 -0.701575,-2.02205 -0.48189,2.44725 -3.0437,3.4937 -4.12796,3.94016 -22.4811,9.18898 -110.398,19.0264 -205.441,19.0264 -94.9583,0 -177.5,-7.63938 -205.401,-19.0134 -1.90394,-0.778347 -3.66496,-2.34331 -4.02402,-4.29449zm209.412 29.5819c-104.166,0 -211.919,-10.1823 -211.919,-27.2185 -0.0129921,-0.0732284 -0.18189,-3.15355 3.0626,-4.96654l1.92402 -1.0748 -0.719292 2.08229c-0.661418,1.89685 1.04055,3.58583 2.90551,4.34646 27.2788,11.1106 111.484,18.8811 204.76,18.8811 94.8485,0 182.467,-9.77245 204.799,-18.8953 2.58544,-1.06181 3.45591,-2.15906 3.10276,-3.92599l-0.314173 -1.53898 1.45158 0.596457c2.77559,1.15158 2.9067,4.33111 2.9067,4.47638 0,17.0551 -107.766,27.2374 -211.958,27.2374z"/>
    <path id="_362335120" class="fil2" d="M1108.44 1024c0,127.702 -103.513,231.213 -231.215,231.213 -127.695,0 -231.213,-103.511 -231.213,-231.213 0,-127.702 103.518,-231.213 231.213,-231.213 127.702,0 231.213,103.511 231.213,231.213zm-231.213 -204.405c-112.89,0 -204.405,91.5083 -204.405,204.405 0,112.897 91.5154,204.405 204.405,204.405 112.897,0 204.405,-91.5083 204.405,-204.405 0,-112.897 -91.5083,-204.405 -204.405,-204.405z"/>
    <path id="_362334568" class="fil3" d="M877.221 820.433c-112.241,0 -203.568,91.3182 -203.568,203.568 0,112.25 91.3264,203.568 203.568,203.568 112.25,0 203.568,-91.3182 203.568,-203.568 0,-112.25 -91.3182,-203.568 -203.568,-203.568zm0 408.812c-113.171,0 -205.244,-92.0729 -205.244,-205.244 0,-113.173 92.0729,-205.244 205.244,-205.244 113.173,0 205.244,92.0705 205.244,205.244 0,113.171 -92.0705,205.244 -205.244,205.244zm0 -435.62c-127.028,0 -230.375,103.343 -230.375,230.377 0,127.034 103.348,230.375 230.375,230.375 127.034,0 230.375,-103.342 230.375,-230.375 0,-127.035 -103.342,-230.375 -230.375,-230.377zm0 462.427c-127.951,0 -232.05,-104.099 -232.05,-232.05 0,-127.951 104.099,-232.05 232.05,-232.05 127.951,0 232.05,104.099 232.05,232.05 0,127.951 -104.099,232.05 -232.05,232.05z"/>
    <path id="_362334856" class="fil3" d="M877.221 800.326c-123.328,0 -223.673,100.347 -223.673,223.675 0,123.328 100.344,223.673 223.673,223.673 123.337,0 223.675,-100.344 223.675,-223.673 0,-123.328 -100.338,-223.675 -223.675,-223.675zm0 449.024c-124.258,0 -225.349,-101.091 -225.349,-225.349 0,-124.26 101.091,-225.35 225.349,-225.35 124.259,0 225.35,101.089 225.35,225.35 0,124.258 -101.091,225.349 -225.35,225.349z"/>
    <path id="_362334784" class="fil3" d="M877.221 813.731c-115.941,0 -210.271,94.3241 -210.271,210.271 0,115.947 94.33,210.271 210.271,210.271 115.949,0 210.271,-94.3241 210.271,-210.271 0,-115.947 -94.3241,-210.271 -210.271,-210.271zm0 422.216c-116.864,0 -211.945,-95.0812 -211.945,-211.945 0,-116.864 95.0812,-211.945 211.945,-211.945 116.87,0 211.945,95.0812 211.945,211.945 0,116.864 -95.0753,211.945 -211.945,211.945z"/>
    <path id="_362334520" class="fil2" d="M642.486 1034.09c1.15276,-1.05473 2.61732,-2.06811 4.41142,-3.25394 26.4024,-17.4543 119.56,-30.2953 230.427,-30.2953 110.837,0 203.961,12.841 230.397,30.2835 1.67008,1.09252 3.08859,2.06103 4.22835,3.04961l-0.0531496 -15.1843c0,-3.38386 0.883465,-4.65827 -3.7441,-7.80119 -25.8378,-17.5134 -119.381,-30.4925 -230.828,-30.4925 -111.495,0 -205.071,12.9921 -230.873,30.5197 -4.6063,3.14055 -3.0567,4.51536 -3.69095,7.77402l-0.275197 15.4004z"/>
    <path id="_362334616" class="fil3" d="M877.325 981.231c-109.329,0 -204.078,12.4937 -230.401,30.3744 -3.0567,2.07992 -3.0815,3.14055 -3.12874,4.88268 -0.011811,0.679134 -0.0318898,1.44567 -0.209055,2.35512l-0.23504 13.4374c0.869292,-0.661418 1.87795,-1.34882 3.08268,-2.14134 27.1075,-17.9256 122.053,-30.4394 230.892,-30.4394 108.776,0 203.713,12.5079 230.862,30.4205 1.13268,0.73819 2.08819,1.38662 2.91733,2.00906l-0.0448819 -13.4433c0,-0.510237 0.0188977,-0.980316 0.0401575,-1.41378 0.0968505,-2.31614 0.135827,-3.27874 -3.41811,-5.6941 -26.3551,-17.8665 -121.086,-30.3473 -230.356,-30.3473zm-235.715 54.7855l0.314173 -17.3421c0.17126,-0.923623 0.184252,-1.58504 0.194882,-2.22638 0.0543308,-1.96299 0.0933072,-3.66496 3.86221,-6.22914 26.5795,-18.052 121.707,-30.6638 231.344,-30.6638 109.573,0 204.695,12.5988 231.3,30.6366 4.12914,2.81339 4.26024,4.38426 4.14213,7.14686 -0.0129921,0.418111 -0.0318898,0.864568 -0.0318898,1.34764l0.0578741 17.0291 -1.3937 -1.21654c-1.06654,-0.915355 -2.3752,-1.82008 -4.13622,-2.97874 -26.9055,-17.7496 -121.452,-30.1453 -229.938,-30.1453 -108.537,0 -203.11,12.4039 -229.968,30.1583 -1.87323,1.2378 -3.24095,2.19331 -4.3063,3.17481l-1.44095 1.30866z"/>
    <path id="_362334304" class="fil2" d="M646.19 1042.75c-2.72244,-3.56103 -4.43504,-7.57914 0.17126,-10.7008 25.7929,-17.5665 119.378,-30.5327 230.873,-30.5327 111.431,0 204.982,12.9473 230.822,30.5067 4.6252,3.12874 2.86654,7.37599 0.144095,10.9358 0,0 7.01575,-4.39725 6.93662,-7.86024 0.497244,-4.59922 -2.61024,-6.85867 -7.51418,-10.0866 -26.4331,-17.3953 -119.56,-30.1961 -230.388,-30.1961 -110.868,0 -204.025,12.8138 -230.429,30.2103 -4.89449,3.22677 -7.87205,5.28898 -7.50001,10.0724 0.393307,4.92756 6.88465,7.65119 6.88465,7.65119z"/>
    <path id="_362334328" class="fil3" d="M877.234 995.65c-108.526,0 -203.097,12.3626 -229.97,30.0662 -5.03741,3.33071 -7.44686,5.11654 -7.11969,9.313 0.184252,2.25709 1.87087,4.03111 3.46299,5.22284 -0.818505,-1.65 -1.09488,-3.11575 -0.871654,-4.49764 0.275197,-1.68662 1.33465,-3.16654 3.15473,-4.40315 26.5181,-18.065 121.654,-30.6768 231.344,-30.6768 109.624,0 204.735,12.6071 231.293,30.6496 1.80591,1.22362 2.86654,2.71772 3.15355,4.44449 0.197244,1.23071 0.00708662,2.53937 -0.576378,3.96614 1.74095,-1.54488 3.22087,-3.29764 3.1937,-4.62048 0.445276,-4.20237 -2.27717,-6.20434 -7.13268,-9.41103 -26.9067,-17.6977 -121.458,-30.0532 -229.931,-30.0532zm-228.471 49.0843l-2.89843 -1.21772c-0.281103,-0.116929 -6.96497,-2.98347 -7.38898,-8.35631 -0.425197,-5.36693 3.05551,-7.66418 7.86733,-10.8461 27.1264,-17.8665 122.066,-30.3402 230.892,-30.3402 108.768,0 203.699,12.4736 230.847,30.3272 4.18701,2.76378 7.84725,5.17087 7.94646,9.68859l0 0.349607c-0.00590552,0.275197 -0.022441,0.555119 -0.0531496,0.84567 0.0850394,3.71811 -6.5693,8.00552 -7.32875,8.47678l-1.11378 -1.21772c1.96417,-2.56536 2.77559,-4.66063 2.49449,-6.4004 -0.209055,-1.27087 -1.00158,-2.36339 -2.44134,-3.33189 -26.3114,-17.8736 -121.034,-30.3614 -230.351,-30.3614 -109.388,0 -204.13,12.4937 -230.401,30.3874 -1.44567,0.97441 -2.24528,2.0504 -2.44843,3.29292 -0.261024,1.64882 0.537402,3.67796 2.47559,6.20434l1.90276 2.49921z"/>
    <path id="_362333848" class="fil2" d="M642.63 1019.92c0.52441,0.209055 -0.875198,-4.93347 3.73111,-8.06221 25.7929,-17.4756 119.378,-30.4347 230.873,-30.4347 111.431,0 204.982,12.939 230.822,30.4075 4.6252,3.12874 4.0252,4.52953 3.913,8.19331 0,0 2.51339,-1.77992 3.16772,-5.11772 0.294095,-4.51536 -2.61024,-6.85276 -7.51418,-10.0642 -26.4331,-17.3185 -119.56,-30.1205 -230.388,-30.1205 -110.868,0 -204.025,12.815 -230.429,30.1335 -4.89449,3.2126 -7.43268,5.24882 -7.50001,10.0512 0.28937,2.81575 2.06929,4.07126 3.32481,5.01378z"/>
    <path id="_362334376" class="fil3" d="M877.234 975.556c-108.473,0 -203.045,12.3319 -229.97,29.9894 -5.01378,3.29764 -7.05355,5.06457 -7.11969,9.37087 0.170079,1.62284 0.968505,2.64449 1.83898,3.41575 0.112205,-1.85197 0.647245,-4.95945 3.90709,-7.17048 26.5855,-18.0118 121.713,-30.5788 231.344,-30.5788 109.565,0 204.682,12.5587 231.293,30.5516 3.82205,2.59134 4.38426,4.20827 4.35827,6.76064 0.575197,-0.765355 1.16457,-1.82717 1.42677,-3.14882 0.23504,-3.71575 -1.91221,-5.77205 -7.14686,-9.21379 -26.9575,-17.6445 -121.511,-29.9764 -229.931,-29.9764zm233.847 46.1138l0.090945 -2.73544c0.137008,-2.81339 0.18189,-3.85985 -3.58701,-6.41339 -26.3622,-17.8217 -121.086,-30.2622 -230.351,-30.2622 -109.329,0 -204.078,12.4488 -230.401,30.2894 -3.08268,2.08701 -3.16654,5.15788 -3.2067,6.63544 -0.0129921,0.628347 -0.0401575,1.58386 -0.96378,1.58386 0,0 0,0 -0.00472441,0l-0.52441 -0.175984c-1.38662,-1.04173 -3.3378,-2.5004 -3.65788,-5.59489 0.0708662,-5.45197 3.03662,-7.67127 7.86733,-10.8532 27.1795,-17.8134 122.119,-30.2634 230.892,-30.2634 108.716,0 203.648,12.4358 230.847,30.2516 4.83071,3.16772 8.22166,5.79804 7.89331,10.8307 -0.726379,3.73111 -3.40276,5.66103 -3.52087,5.74134l-1.37244 0.966142z"/>
    <polygon id="_362334280" class="fil2" points="887.274,1258.56 867.167,1258.56 867.167,789.429 887.274,789.429 "/>
    <path id="_362334088" class="fil3" d="M868.005 1257.73l18.4323 0 0 -467.459 -18.4323 0 0 467.459zm20.1071 1.67599l-21.7819 0 0 -470.811 21.7819 0 0 470.811z"/>
    <path id="_362333920" class="fil2" d="M870.518 1258.56c0,1.84725 -1.50354,3.35197 -3.35079,3.35197 -1.83898,0 -3.34961,-1.50473 -3.34961,-3.35197l0 -469.127c0,-1.84725 1.51063,-3.35197 3.34961,-3.35197 1.84725,0 3.35079,1.50473 3.35079,3.35197l0 469.127z"/>
    <path id="_362333896" class="fil3" d="M867.167 786.924c-1.37953,0 -2.51339,1.12441 -2.51339,2.51339l0 469.127c0,1.38662 1.13386,2.51339 2.51339,2.51339 1.38898,0 2.51339,-1.12677 2.51339,-2.51339l0 -469.127c0,-1.38898 -1.12441,-2.51339 -2.51339,-2.51339zm0 475.83c-2.30197,0 -4.18701,-1.87914 -4.18701,-4.18937l0 -469.127c0,-2.31024 1.88504,-4.18937 4.18701,-4.18937 2.31732,0 4.18937,1.87914 4.18937,4.18937l0 469.127c0,2.31024 -1.87205,4.18937 -4.18937,4.18937z"/>
    <path id="_362334064" class="fil2" d="M890.625 1258.56c0,1.84725 -1.50591,3.35197 -3.35079,3.35197 -1.83898,0 -3.35079,-1.50473 -3.35079,-3.35197l0 -469.127c0,-1.84725 1.51181,-3.35197 3.35079,-3.35197 1.84488,0 3.35079,1.50473 3.35079,3.35197l0 469.127z"/>
    <path id="_362333872" class="fil3" d="M887.274 786.924c-1.38071,0 -2.51339,1.12441 -2.51339,2.51339l0 469.127c0,1.38662 1.13268,2.51339 2.51339,2.51339 1.38662,0 2.51339,-1.12677 2.51339,-2.51339l0 -469.127c0,-1.38898 -1.12677,-2.51339 -2.51339,-2.51339zm0 475.83c-2.30433,0 -4.18937,-1.87914 -4.18937,-4.18937l0 -469.127c0,-2.31024 1.88504,-4.18937 4.18937,-4.18937 2.31614,0 4.18819,1.87914 4.18819,4.18937l0 469.127c0,2.31024 -1.87205,4.18937 -4.18819,4.18937z"/>
    <path id="_362333416" class="fil2" d="M668.313 1128.9c5.60197,-13.8095 96.9922,-24.8055 208.921,-24.8055 110.392,0 200.795,10.6937 208.608,24.2433l-11.2039 20.615c-6.85867,-12.8799 -92.6079,-23.0646 -197.404,-23.0646 -104.808,0 -190.557,10.1717 -197.417,23.0646l-11.5039 -20.0528z"/>
    <path id="_362333200" class="fil3" d="M669.254 1128.86l10.6429 18.541c11.2689,-12.8209 94.565,-22.35 197.336,-22.35 102.689,0 185.951,9.51615 197.304,22.3311l10.3347 -19.0122c-9.22678,-13.174 -99.8268,-23.4366 -207.639,-23.4366 -108.369,0 -201.054,10.7008 -207.979,23.9268zm405.377 21.8599l-0.733465 -1.3748c-6.75473,-12.6827 -93.1383,-22.6181 -196.664,-22.6181 -103.537,0 -189.93,9.93544 -196.67,22.6181l-0.713386 1.33583 -12.4665 -21.7169 0.155906 -0.377953c5.85119,-14.4378 95.9989,-25.3288 209.694,-25.3288 111.229,0 201.226,10.6028 209.334,24.6603l0.229134 0.4063 -12.1654 22.3961z"/>
    <path id="_362333248" class="fil2" d="M686.298 1155.53c-6.28229,-5.13071 -4.64764,-7.52717 -2.14134,-8.48268 26.5394,-10.1575 102.951,-17.5016 193.077,-17.5016 90.1867,0 166.624,7.35709 193.116,17.5158 2.33858,0.902363 3.60709,3.54685 -1.83189,8.25827 8.68583,-3.45591 8.38347,-7.16103 8.38347,-7.16103 0,-13.7823 -89.3753,-24.9473 -199.668,-24.9473 -110.293,0 -199.681,11.165 -199.681,24.9473 0,0 -0.784253,3.49607 8.74489,7.37127z"/>
    <path id="_362333560" class="fil3" d="M877.234 1128.7c88.2768,0 166.009,7.063 193.417,17.5665 1.39488,0.537402 2.27008,1.51772 2.49449,2.74843 0.183071,1.08662 -0.157087,2.29725 -1.02165,3.61299 3.92717,-2.39528 3.94016,-4.41024 3.94016,-4.4374 0,-11.6811 -79.8993,-24.1488 -198.83,-24.1488 -118.944,-0.00236221 -198.843,12.4677 -198.843,24.1087 -0.0129921,0.13937 -0.18189,1.99134 3.84922,4.45158 -0.915355,-1.29567 -1.28268,-2.45433 -1.1126,-3.50906 0.144095,-0.875198 0.732284,-2.07402 2.73544,-2.83937 27.4358,-10.4988 105.148,-17.5536 193.371,-17.5536zm-191.25 27.5929c-9.90828,-4.01811 -9.34607,-7.89331 -9.25513,-8.32442 -0.0129921,-15.9555 101.936,-25.6028 200.505,-25.6028 98.5583,0 200.505,9.64725 200.505,25.7847 0.0330709,0.37441 0.0921261,4.36063 -8.91261,7.93938l-0.857481 -1.40551c3.37087,-2.92559 3.6567,-4.62756 3.52087,-5.37993 -0.137008,-0.811418 -0.857481,-1.24488 -1.44095,-1.46693 -27.2327,-10.4445 -104.723,-17.4626 -192.815,-17.4626 -88.0394,0 -165.516,7.00985 -192.775,17.4496 -0.693308,0.262205 -1.54488,0.746457 -1.67008,1.53071 -0.11811,0.733465 0.249213,2.42244 4.03819,5.51693l-0.843308 1.42087z"/>
    <path id="_362333536" class="fil2" d="M1083.28 1133.53c2.83229,-3.24685 1.26142,-6.19134 -0.968505,-7.09371 -26.8925,-10.9713 -108.54,-18.9425 -205.088,-18.9425 -94.0028,0 -182.652,9.76418 -205.113,18.9543 -2.27126,0.930709 -4.4504,3.31299 -1.93701,6.97678 -5.02678,-3.35079 -4.05827,-5.82402 -4.05827,-5.82402 0,-14.5831 94.5272,-26.3894 211.121,-26.3894 116.596,0 211.095,11.8063 211.095,26.3894 0,0 -0.236221,4.14922 -5.05158,5.92914z"/>
    <path id="_362333608" class="fil3" d="M877.221 1106.66c94.9926,0 177.534,7.63819 205.401,19.0063 1.46693,0.589371 2.54528,1.82008 2.8937,3.29764 0.15,0.61063 0.209055,1.40315 -0.0401575,2.32441 1.84606,-1.64173 2.01024,-3.62481 2.01614,-3.73701 0,-12.2917 -84.4855,-25.4988 -210.258,-25.4988 -125.789,0 -210.284,13.2071 -210.284,25.552l-0.0507874 0.307087c0,0 -0.294095,1.09843 1.32756,2.84055 -0.0531496,-0.570473 0.00590552,-1.13268 0.164173,-1.67008 0.438189,-1.45866 1.6748,-2.69528 3.40394,-3.40276 22.4469,-9.18898 110.358,-19.0181 205.426,-19.0193zm206.343 27.6579l-0.915355 -1.33347c1.07835,-1.24488 1.51181,-2.5004 1.24252,-3.63189 -0.227953,-0.950788 -0.94252,-1.74803 -1.89803,-2.14134 -27.2516,-11.113 -111.457,-18.8764 -204.773,-18.8764 -94.8733,0 -182.495,9.76536 -204.799,18.8894 -0.589371,0.249213 -2.01614,0.955513 -2.42008,2.3374 -0.302362,0.987402 -0.00826772,2.12717 0.862205,3.39567l-1.15748 1.16457c-4.87678,-3.24567 -4.62166,-5.90906 -4.42441,-6.64843 0.549213,-16.9654 108.034,-27.0957 211.951,-27.0957 104.179,0 211.932,10.1847 211.932,27.2268 -0.0129921,0.23504 -0.325985,4.76457 -5.60197,6.71339z"/>
    <path id="_362333056" class="fil2" d="M1073.16 894.741c-22.448,-10.9099 -101.647,-18.9673 -195.925,-18.9673 -93.9946,0 -173.016,8.01142 -195.754,18.8681l-11.9764 20.4284c22.9583,-11.6752 107.255,-20.3351 207.73,-20.3351 100.6,0 184.955,8.68347 207.791,20.3752l-11.8665 -20.3693z"/>
    <path id="_362332888" class="fil3" d="M877.234 893.898c95.8548,0 179.13,7.88623 205.715,19.3146l-10.3866 -17.8288c-23.1744,-11.061 -103.368,-18.7713 -195.328,-18.7713 -91.5804,0 -171.702,7.67127 -195.157,18.6803l-10.4929 17.8854c26.6788,-11.4083 109.926,-19.2803 205.65,-19.2803zm209.956 23.2606l-2.55236 -1.30394c-23.3256,-11.9374 -108.61,-20.2807 -207.404,-20.2807 -98.6493,0 -183.914,8.32442 -207.35,20.2406l-2.54764 1.29803 13.5543 -23.1154 0.236221 -0.10748c23.3587,-11.1638 103.996,-18.9532 196.107,-18.9532 92.491,0 173.215,7.83426 196.292,19.0524l0.227953 0.112205 13.4362 23.0575z"/>
    <path id="_362333632" class="fil2" d="M678.236 900.017c2.40591,-1.88504 3.40748,-2.54055 5.90788,-3.49607 26.5394,-10.1634 102.956,-17.5004 193.09,-17.5004 90.1867,0 166.616,7.3441 193.11,17.5134 2.33622,0.891733 3.82205,1.80709 5.91733,3.37796 0.522048,-1.15039 0.634252,-2.27717 0.634252,-2.27717 0,-13.7906 -89.3824,-24.9626 -199.662,-24.9626 -110.293,0 -199.694,11.1721 -199.694,24.9626 0,0 0.17126,1.23071 0.69567,2.38229z"/>
    <path id="_362333128" class="fil3" d="M678.377 897.621c0.0129921,0 0.080315,0.452363 0.249213,1.03583 1.89803,-1.44213 2.98465,-2.06339 5.21693,-2.91969 27.4217,-10.4976 105.141,-17.5536 193.39,-17.5536 88.3016,0 166.028,7.05591 193.413,17.5665 2.1248,0.811418 3.58465,1.66299 5.20867,2.82166 0.155906,-0.583465 0.209055,-1.01457 0.209055,-1.02756 -0.00590552,-11.5583 -79.8993,-24.0343 -198.83,-24.0343 -118.931,0 -198.822,12.4677 -198.856,24.111l0 0zm-0.47126 3.71221l-0.431103 -0.968505c-0.575197,-1.25197 -0.752363,-2.56654 -0.759449,-2.62559 -0.0129921,-16.2555 101.941,-25.9051 200.518,-25.9051 98.5524,0 200.501,9.64961 200.501,25.8012 -0.00826772,0.131102 -0.13937,1.36181 -0.714567,2.61732l-0.431103 0.955513 -0.82441 -0.628347c-1.95945,-1.45866 -3.37796,-2.36929 -5.72008,-3.26575 -27.2008,-10.4386 -104.691,-17.4543 -192.81,-17.4543 -88.0654,0 -165.542,7.00985 -192.788,17.4414 -2.38229,0.90945 -3.30591,1.50591 -5.6941,3.37677l-0.84567 0.655512z"/>
    <path id="_362333392" class="fil2" d="M1085.68 922.008c0.837402,-2.40827 -1.14567,-4.49055 -3.37559,-5.39292 -26.8925,-10.9689 -108.54,-18.9402 -205.088,-18.9402 -93.9946,0 -182.652,9.76418 -205.12,18.9532 -2.27008,0.934253 -4.12796,2.23819 -3.59882,4.86142 -2.30906,-0.948426 -2.38937,-3.70985 -2.38937,-3.70985 0,-14.5701 94.519,-26.3953 211.121,-26.3953 116.596,0 211.095,11.8252 211.095,26.3953 0,0 0.184252,2.65748 -2.64449,4.22835z"/>
    <path id="_362332408" class="fil3" d="M877.221 896.837c94.9926,0 177.534,7.63111 205.401,19.0051 1.91103,0.773623 3.67796,2.3315 4.03111,4.29331 0.891733,-1.1126 0.838583,-2.24292 0.838583,-2.31024 0,-12.3874 -84.4855,-25.6028 -210.258,-25.6028 -125.789,0 -210.284,13.2154 -210.284,25.5579 0.00826772,0.0389764 0.0531496,1.12559 0.707481,2.01496 0.484252,-2.44134 3.0378,-3.49488 4.12441,-3.94016 22.4681,-9.18898 110.381,-19.0181 205.439,-19.0181zm206.953 26.9705l0.718111 -2.07402c0.66378,-1.90512 -1.03937,-3.58701 -2.89843,-4.33937 -27.2516,-11.1189 -111.457,-18.8811 -204.773,-18.8811 -94.8591,0 -182.48,9.76418 -204.799,18.8941 -2.58544,1.06063 -3.45591,2.16024 -3.10276,3.92008l0.315355 1.53071 -1.45276 -0.589371c-2.7815,-1.15039 -2.89961,-4.33111 -2.9067,-4.46929 0,-17.0693 107.766,-27.2516 211.958,-27.2516 104.179,0 211.932,10.1823 211.932,27.2327 0.00826772,0.0661418 0.184252,3.15473 -3.07559,4.95945l-1.91693 1.06772z"/>
    <path id="_362332384" class="fil2" d="M660.139 923.906c1.35354,-0.0129921 2.97638,0.155906 4.92756,0.38504 28.8815,3.44882 114.769,43.4646 211.958,99.828 97.1646,56.3363 174.595,111.012 192.037,134.41 1.10551,1.47284 2.02914,2.75433 2.69528,3.9l20.5524 -35.8512c1.11142,-1.93819 2.30906,-2.21929 -0.707481,-6.3815 -16.8992,-23.1425 -94.6371,-78.1253 -192.338,-134.771 -97.7398,-56.6705 -184.053,-96.8091 -212.431,-99.8977 -5.06457,-0.544489 -4.16221,1.03347 -5.79213,2.57835l-20.902 35.8004z"/>
    <path id="_362332288" class="fil3" d="M661.57 923.114c1.03583,0.0590552 2.17323,0.177165 3.6,0.346063 29.6233,3.54095 116.91,44.6363 212.273,99.9331 95.3304,55.2768 174.405,110.639 192.286,134.63 0.694489,0.917717 1.3878,1.86732 1.99606,2.77559l19.8567 -34.6335c0.178347,-0.314173 0.35315,-0.576378 0.516142,-0.82441 0.748819,-1.11378 1.04882,-1.58504 -1.17638,-4.65473 -17.2725,-23.6516 -96.2611,-78.9757 -192.076,-134.539 -95.895,-55.5922 -183.11,-96.6284 -212.104,-99.782 -0.666142,-0.0791339 -1.21772,-0.103937 -1.68898,-0.103937 -1.69488,-0.00236221 -1.92402,0.366142 -2.39528,1.1185 -0.222047,0.359055 -0.50315,0.804331 -0.948426,1.25079l-20.139 34.4835zm410.195 240.991l-0.726379 -1.25079c-0.694489,-1.18347 -1.68307,-2.53937 -2.64567,-3.82205 -17.7685,-23.8358 -96.632,-79.0158 -191.788,-134.193 -95.1863,-55.193 -182.219,-96.195 -211.63,-99.717 -2.0504,-0.23504 -3.4689,-0.377953 -4.68662,-0.377953l-1.45984 0 0.581103 -1.25787 21.0555 -35.9823c0.347244,-0.327166 0.550394,-0.661418 0.765355,-1.00866 0.7063,-1.12441 1.38898,-1.90984 3.82205,-1.90984 0.52441,0 1.13268,0.0248032 1.86614,0.105118 29.2028,3.17953 116.7,44.3067 212.764,100.015 95.9977,55.6583 175.198,111.171 192.599,134.994 2.6315,3.63898 2.39528,4.79646 1.21063,6.57048 -0.142913,0.222047 -0.308268,0.458268 -0.458268,0.72756l-21.2693 37.1079z"/>
    <path id="_362332552" class="fil2" d="M1073.68 1165.58c1.93701,-2.36811 -0.0401575,-5.24882 -3.27402,-9.57993 -17.4662,-23.3729 -94.9099,-78.0272 -192.06,-134.365 -97.1906,-56.3516 -183.07,-96.3792 -211.932,-99.88 -5.34213,-0.648426 -8.62678,-0.97441 -9.87639,1.95709 -1.29095,3.02362 4.0252,10.1445 4.0252,10.1445 -1.20473,-3.42992 -3.01654,-6.92481 2.04803,-6.36024 28.3725,3.07559 114.67,43.239 212.411,99.9107 97.6867,56.6516 175.452,111.601 192.344,134.757 3.01772,4.14922 -0.0129921,4.34646 -3.8941,4.92284 6.16418,0.137008 8.11536,1.01457 10.2095,-1.50709z"/>
    <path id="_362332144" class="fil3" d="M1068.7 1166.49c0.275197,0.00590552 0.53504,0.0200788 0.778347,0.0200788 0.00590552,-0.0011811 0.00590552,0 0.00590552,0 1.79291,-0.0011811 2.6315,-0.341339 3.56221,-1.46575 1.44567,-1.76693 0.0318898,-4.07126 -3.3,-8.54883 -17.8028,-23.8099 -96.6792,-78.9686 -191.815,-134.14 -95.1662,-55.1717 -182.178,-96.2032 -211.611,-99.769 -2.02323,-0.243307 -3.67205,-0.432284 -5.01851,-0.432284 -2.29134,0 -3.40985,0.529134 -3.98622,1.88622 -0.425197,1.0063 0.162992,2.85355 1.11142,4.76221 0.0531496,-0.403937 0.177165,-0.77126 0.412205,-1.09252 0.64252,-0.934253 1.79291,-1.2874 3.86811,-1.05236 29.1307,3.15945 116.609,44.2949 212.738,100.029 96.0509,55.6961 175.256,111.209 192.599,134.98 0.799607,1.09961 1.78701,2.69764 1.21772,4.03111 -0.131102,0.315355 -0.314173,0.575197 -0.562205,0.79252zm0.784253 1.69488c0,0 0,0 -0.00590552,0 -0.714567,0 -1.5248,-0.0519685 -2.49449,-0.105118 -0.993308,-0.0590552 -2.16024,-0.131102 -3.52796,-0.155906l-0.103937 -1.66181 0.583465 -0.0933072c1.65591,-0.23504 3.53268,-0.511418 3.7878,-1.1185 0.0791339,-0.190158 0.138189,-0.79252 -1.02638,-2.38819 -17.2264,-23.6138 -96.215,-78.9308 -192.089,-134.536 -95.9469,-55.6241 -183.162,-96.6662 -212.082,-99.8009 -1.23189,-0.15 -2.0752,-0.00472441 -2.31024,0.348425 -0.433465,0.615355 0.23504,2.43307 0.77126,3.89292l0.366142 1.01339 -1.45866 0.773623c-0.570473,-0.765355 -5.55709,-7.60512 -4.12323,-10.9689 1.09252,-2.57835 3.53386,-2.9067 5.53111,-2.9067 1.43976,0 3.13937,0.197244 5.22166,0.446457 29.6292,3.58465 116.902,44.7012 212.247,99.9828 95.3186,55.2709 174.399,110.614 192.312,134.595 3.0567,4.08426 5.69292,7.62284 3.25158,10.6075 -1.43976,1.73504 -2.87244,2.0752 -4.84961,2.0752z"/>
    <path id="_362332864" class="fil2" d="M1097.77 1124.54c1.68425,-2.3315 -0.285827,-5.68819 -3.52677,-10.0205 -17.4803,-23.3386 -94.9111,-78.0154 -192.075,-134.352 -97.1835,-56.3504 -183.07,-96.3721 -211.914,-99.88 -5.34567,-0.646063 -8.22638,-0.77126 -9.87757,1.93701 -0.412205,2.37638 -0.416929,1.47992 1.12677,5.22993 0,0 -0.131102,-1.98307 4.93583,-1.43386 28.3654,3.11575 114.664,43.2744 212.404,99.945 97.6997,56.6457 175.452,111.601 192.356,134.731 3.02362,4.15158 1.86024,3.42402 1.65591,5.27599 1.87323,-0.26811 2.58544,0.393307 4.91457,-1.43268z"/>
    <path id="_362332696" class="fil3" d="M684.818 885.094c0.497244,0 1.06772,0.0271654 1.71496,0.0992127 29.1839,3.19961 116.661,44.3469 212.731,100.05 96.0178,55.6689 175.224,111.168 192.612,134.966 2.18032,2.98465 2.42244,3.73701 2.08229,4.85079 0.0720473,0 0.144095,-0.00826772 0.209055,-0.00826772 0.955513,-0.00590552 1.58386,-0.0129921 2.99173,-1.09252 1.19646,-1.83898 -0.484252,-4.79055 -3.58111,-8.93387 -17.8536,-23.8358 -96.7442,-78.9945 -191.828,-134.127 -95.1331,-55.1611 -182.139,-96.1973 -211.592,-99.782 -5.50394,-0.660237 -7.6819,-0.575197 -8.97757,1.42677l-0.0531496 0.295276c-0.209055,1.15039 -0.209055,1.15039 0.366142,2.46024 0.0661418,0.144095 0.131102,0.3 0.209055,0.475985 0.708662,-0.457087 1.75512,-0.680315 3.11575,-0.680315zm407.092 241.863l0.11811 -1.0748c0.0578741,-0.540945 0.188977,-0.908268 0.281103,-1.17638 0.162992,-0.465355 0.248032,-0.713386 -1.7811,-3.51378 -17.2713,-23.6268 -96.267,-78.9308 -192.103,-134.496 -95.8926,-55.6052 -183.096,-96.6532 -212.077,-99.841 -3.10158,-0.334252 -3.97205,0.393307 -4.00985,0.62126l-1.61102 0.302362c-0.32126,-0.786615 -0.570473,-1.36181 -0.765355,-1.80591 -0.747638,-1.69488 -0.77126,-1.85906 -0.485433,-3.42992l0.190158 -0.746457c1.45984,-2.40827 3.7689,-2.73544 5.83819,-2.73544 1.32756,0 2.83465,0.158268 4.84961,0.390945 29.654,3.61418 116.929,44.7272 212.232,99.9934 95.2666,55.2367 174.354,110.574 192.326,134.573 3.08268,4.12323 5.66811,8.06221 3.54095,11.015l-0.162992 0.168898c-1.9252,1.50709 -2.98465,1.51181 -4.10433,1.52599 -0.360236,0.00708662 -0.746457,0.0129921 -1.21181,0.0779528l-1.06536 0.151181z"/>
    <path id="_362332768" class="fil4" d="M737.189 1049.6c0,77.2418 63.2233,139.86 140.465,139.86 77.2406,0 139.67,-62.6186 139.67,-139.86l0 -180.878 -280.135 0 0 180.878z"/>
    <path id="_362332648" class="fil3" d="M738.028 869.559l0 180.039c0,76.6583 62.6315,139.023 139.626,139.023 76.5532,0 138.833,-62.3646 138.833,-139.023l0 -180.039 -278.459 0zm139.626 320.737c-77.9162,0 -141.302,-63.1158 -141.302,-140.698l0 -181.715 281.81 0 0 181.715c0,77.5819 -63.0331,140.698 -140.508,140.698z"/>
    <path id="_362332840" class="fil5" d="M740.541 1049.1c0,75.3945 61.7032,136.524 137.105,136.524 75.3969,0 136.328,-61.1292 136.328,-136.524l0.0011811 -176.547 -273.434 0 0 176.547z"/>
    <polygon id="_362331952" class="fil2" points="960.57,1090.33 962.257,1092.02 960.196,1094.09 961.831,1095.73 963.908,1093.66 965.498,1095.26 963.428,1097.33 965.072,1098.97 967.146,1096.9 968.782,1098.55 966.721,1100.61 965.948,1099.84 964.882,1100.91 958.305,1094.33 959.371,1093.26 958.494,1092.39 "/>
    <polygon id="_362331808" class="fil2" points="973.129,1094.21 970.924,1096.41 971.748,1097.23 970.674,1098.3 977.31,1104.93 978.378,1103.86 979.202,1104.68 981.4,1102.48 979.711,1100.78 977.5,1102.99 975.851,1101.34 978.062,1099.14 976.472,1097.54 974.267,1099.75 972.572,1098.05 974.77,1095.85 "/>
    <polygon id="_362331640" class="fil2" points="977.062,1106.82 974.987,1108.89 975.811,1109.71 974.752,1110.78 981.336,1117.36 982.389,1116.3 983.207,1117.11 985.289,1115.04 983.638,1113.4 981.571,1115.47 979.875,1113.78 981.952,1111.71 980.354,1110.11 978.284,1112.18 976.635,1110.54 978.705,1108.46 "/>
    <polygon id="_362331832" class="fil2" points="950.766,1101.88 949.756,1102.88 972.773,1125.9 973.782,1124.9 "/>
    <polygon id="_362331496" class="fil2" points="948.624,1104 947.564,1105.08 970.583,1128.1 971.649,1127.03 "/>
    <path id="_362331352" class="fil2" d="M960.53 1139.4c1.51772,-2.02914 2.70355,-4.16929 3.52796,-6.3815l2.49921 -2.53229 0.825591 0.82441 2.13307 -2.14016 -23.0244 -23.0256 -2.14134 2.14134 0.825591 0.82441 -2.53229 2.53229c-2.16732,0.82441 -4.34646,2.01024 -6.37441,3.51496l3.99095 3.99803c5.64213,-4.10906 12.6449,-4.46221 16.624,-0.475985 3.98032,3.97796 3.6378,10.9689 -0.47126,16.5957l4.11733 4.12441z"/>
    <path id="_362331592" class="fil2" d="M960.837 1141.84c-0.746457,1.32756 -1.58977,2.61732 -2.54528,3.87284l-28.4374 -28.4362c1.24252,-0.916536 2.57835,-1.78583 3.90827,-2.5063l6.98859 6.98386c4.71142,-4.71378 11.4791,-5.58898 15.111,-1.95709 3.63425,3.63189 2.7567,10.3996 -1.96299,15.1181l6.9378 6.92481zm-9.43702 -9.36024c2.97047,-2.97166 3.5067,-7.21654 1.23071,-9.50198 -2.27835,-2.28425 -6.53268,-1.74095 -9.50434,1.23071l8.27363 8.27127z"/>
    <path id="_362331424" class="fil2" d="M950.785 1129.57c1.70197,-1.70197 2.00906,-4.14095 0.7063,-5.4437 -1.30866,-1.31457 -3.75,-0.99567 -5.44489,0.7063l4.73859 4.73741z"/>
    <path id="_362331664" class="fil2" d="M962.866 1101.17l-5.26182 5.27599 -4.88268 -4.88268 5.263 -5.2689 4.8815 4.87559zm-4.37244 -1.60276l-2.36929 2.36929 1.13976 1.1374 2.36929 -2.36929 -1.13976 -1.1374z"/>
    <path id="_362331376" class="fil2" d="M979.371 1117.67l-5.27481 5.27481 -4.93347 -4.94055 5.27481 -5.27008 4.93347 4.93583zm-4.4374 -1.66299l-2.36929 2.36929 1.13976 1.13976 2.36929 -2.37047 -1.13976 -1.13858z"/>
    <path id="_362331520" class="fil2" d="M975.367 1105.12l-9.54213 9.5504 -4.94174 -4.93583 9.54213 -9.54213 4.94174 4.92756zm-6.02245 -0.0377953l-3.78189 3.79016 1.13976 1.1374 3.78189 -3.79016 -1.13976 -1.1374z"/>
    <polygon id="_362330632" class="fil2" points="769.645,1115.04 771.34,1113.34 773.408,1115.41 775.044,1113.77 772.982,1111.7 774.581,1110.1 776.655,1112.18 778.29,1110.53 776.221,1108.46 777.872,1106.82 779.933,1108.89 779.168,1109.66 780.227,1110.72 773.644,1117.3 772.589,1116.24 771.719,1117.11 "/>
    <polygon id="_362331016" class="fil2" points="773.526,1102.48 775.725,1104.68 776.551,1103.86 777.623,1104.93 784.245,1098.3 783.186,1097.23 783.997,1096.41 781.804,1094.2 780.096,1095.9 782.308,1098.1 780.66,1099.75 778.462,1097.54 776.864,1099.13 779.069,1101.34 777.375,1103.04 775.169,1100.84 "/>
    <polygon id="_362330992" class="fil2" points="786.144,1098.55 788.213,1100.61 789.024,1099.79 790.097,1100.86 796.675,1094.28 795.608,1093.21 796.427,1092.39 794.364,1090.33 792.721,1091.97 794.797,1094.04 793.094,1095.72 791.026,1093.66 789.431,1095.25 791.497,1097.32 789.849,1098.97 787.779,1096.9 "/>
    <polygon id="_362330824" class="fil2" points="781.197,1124.84 782.197,1125.85 805.215,1102.83 804.214,1101.82 "/>
    <polygon id="_362331112" class="fil2" points="783.323,1126.98 784.398,1128.05 807.415,1105.02 806.355,1103.95 "/>
    <path id="_362331088" class="fil2" d="M818.724 1115.08c-2.02914,-1.51772 -4.1752,-2.71063 -6.38741,-3.54095l-2.53347 -2.4874 0.82441 -0.818505 -2.13898 -2.13898 -23.0197 23.0244 2.12835 2.13898 0.837402 -0.82441 2.52638 2.53229c0.82441,2.16614 2.01614,4.34174 3.51496,6.3756l3.99922 -3.99922c-4.11142,-5.63386 -4.46457,-12.6307 -0.479528,-16.6169 3.98032,-3.97914 10.9689,-3.63898 16.6063,0.464174l4.12205 -4.10906z"/>
    <path id="_362331064" class="fil2" d="M821.16 1114.77c1.33347,0.739371 2.61614,1.58504 3.87402,2.54646l-28.4315 28.4362c-0.916536,-1.2437 -1.79173,-2.58544 -2.51339,-3.90709l6.99095 -6.98977c-4.71969,-4.7126 -5.59725,-11.4803 -1.96417,-15.1122 3.63189,-3.63189 10.4008,-2.75433 15.1193,1.95709l6.92481 -6.93071zm-9.36024 9.4382c-2.97047,-2.97166 -7.213,-3.51496 -9.50198,-1.23071 -2.28543,2.28543 -1.73504,6.53032 1.22835,9.50198l8.27363 -8.27127z"/>
    <path id="_362331280" class="fil2" d="M808.887 1124.82c-1.70788,-1.69961 -4.13504,-2.0126 -5.43898,-0.703938 -1.32165,1.30866 -1.00866,3.74174 0.701575,5.44489l4.73741 -4.74095z"/>
    <path id="_362330944" class="fil2" d="M780.49 1112.73l5.27599 5.27008 -4.88386 4.8815 -5.27363 -5.26772 4.8815 -4.88386zm-1.59685 4.37363l2.36811 2.36811 1.13268 -1.1374 -2.36103 -2.36929 -1.13976 1.13858z"/>
    <path id="_362330872" class="fil2" d="M796.99 1096.24l5.27481 5.27481 -4.94055 4.93583 -5.263 -5.27599 4.92874 -4.93465zm-1.66299 4.4374l2.36221 2.36929 1.14567 -1.13858 -2.36221 -2.36339 -1.14567 1.13268z"/>
    <path id="_362329840" class="fil2" d="M784.444 1100.24l9.53977 9.54213 -4.93347 4.93347 -9.54213 -9.54213 4.93583 -4.93347zm-0.046063 6.01418l3.7878 3.79016 1.13976 -1.13976 -3.79016 -3.79016 -1.1374 1.13976z"/>
    <polygon id="_362330248" class="fil2" points="752.878,988.947 755.273,988.947 755.273,991.873 757.589,991.873 757.589,988.947 759.847,988.947 759.847,991.873 762.177,991.873 762.177,988.947 764.5,988.947 764.5,991.873 763.413,991.873 763.413,993.385 754.101,993.385 754.101,991.873 752.878,991.873 "/>
    <polygon id="_362330176" class="fil2" points="764.5,982.808 764.5,985.922 765.664,985.922 765.664,987.435 775.044,987.435 775.044,985.922 776.196,985.922 776.196,982.808 773.801,982.808 773.801,985.922 771.478,985.922 771.478,982.808 769.219,982.808 769.219,985.922 766.823,985.922 766.823,982.808 "/>
    <polygon id="_362330152" class="fil2" points="776.196,988.947 776.196,991.873 777.367,991.873 777.367,993.385 786.668,993.385 786.668,991.873 787.832,991.873 787.832,988.947 785.503,988.947 785.503,991.873 783.108,991.873 783.108,988.947 780.857,988.947 780.857,991.873 778.525,991.873 778.525,988.947 "/>
    <polygon id="_362330128" class="fil2" points="754.101,1005.46 786.661,1005.46 786.661,1004.04 754.101,1004.04 "/>
    <polygon id="_362330392" class="fil2" points="754.101,1008.58 786.661,1008.58 786.661,1007.06 754.101,1007.06 "/>
    <path id="_362330032" class="fil2" d="M787.557 1023.67c-0.372048,-2.50748 -1.04646,-4.87087 -2.02914,-7.01575l-0.0248032 -3.54803 1.16457 0 0 -3.02244 -32.5666 0 0 3.02244 1.17165 0 0 3.58583c-0.949607,2.10709 -1.64291,4.49174 -2.02323,6.98977l5.65512 0c1.07362,-6.89764 5.77205,-12.0803 11.4142,-12.0803 5.62914,0 10.3264,5.17678 11.413,12.0685l5.8252 0z"/>
    <path id="_362329888" class="fil2" d="M789.494 1025.19c0.412205,1.45866 0.72756,2.97638 0.929528,4.52717l-40.2095 0c0.23504,-1.5189 0.562205,-3.0815 0.987402,-4.52717l9.87639 0c0,-6.67087 4.17402,-12.0768 9.313,-12.0768 5.13662,0 9.29883,5.40591 9.29883,12.0768l9.80434 0zm-13.298 0.056693c0,-4.2 -2.61732,-7.60512 -5.84528,-7.60512 -3.23268,0 -5.85119,3.40512 -5.85119,7.60512l11.6965 0z"/>
    <path id="_362329936" class="fil2" d="M773.702 1023.62c0,-2.41418 -1.49882,-4.35827 -3.35079,-4.35827 -1.85197,0 -3.35079,1.9441 -3.35079,4.35827l6.70158 0z"/>
    <path id="_362330080" class="fil2" d="M762.177 1002.44l-6.90355 0 0 -7.46221 6.90355 0 0 7.46221zm-4.22717 -2.14606l1.60394 0 0 -3.35079 -1.60394 0 0 3.35079z"/>
    <path id="_362329912" class="fil2" d="M785.503 1002.44l-6.98386 0 0 -7.46221 6.98386 0 0 7.46221zm-4.3063 -2.14606l1.60866 0 0 -3.35079 -1.60866 0 0 3.35079z"/>
    <path id="_362329600" class="fil2" d="M773.801 1002.44l-6.98386 0 0 -13.4953 6.98386 0 0 13.4953zm-4.28032 -3.913l1.60984 0 0 -5.36811 -1.60984 0 0 5.36811z"/>
    <polygon id="_362329192" class="fil2" points="966.335,988.947 968.729,988.947 968.729,991.873 971.046,991.873 971.046,988.947 973.311,988.947 973.311,991.873 975.635,991.873 975.635,988.947 977.958,988.947 977.958,991.873 976.872,991.873 976.872,993.385 967.565,993.385 967.565,991.873 966.335,991.873 "/>
    <polygon id="_362329504" class="fil2" points="977.958,982.808 977.958,985.922 979.123,985.922 979.123,987.435 988.502,987.435 988.502,985.922 989.661,985.922 989.661,982.808 987.264,982.808 987.264,985.922 984.936,985.922 984.936,982.808 982.685,982.808 982.685,985.922 980.276,985.922 980.276,982.808 "/>
    <polygon id="_362329528" class="fil2" points="989.661,988.947 989.661,991.873 990.825,991.873 990.825,993.385 1000.12,993.385 1000.12,991.873 1001.29,991.873 1001.29,988.947 998.967,988.947 998.967,991.873 996.571,991.873 996.571,988.947 994.313,988.947 994.313,991.873 991.99,991.873 991.99,988.947 "/>
    <polygon id="_362329792" class="fil2" points="967.565,1005.46 1000.12,1005.46 1000.12,1004.04 967.565,1004.04 "/>
    <polygon id="_362329672" class="fil2" points="967.565,1008.58 1000.12,1008.58 1000.12,1007.06 967.565,1007.06 "/>
    <path id="_362329720" class="fil2" d="M1001.01 1023.67c-0.367323,-2.50748 -1.04173,-4.87087 -2.01614,-7.01575l-0.0271654 -3.54803 1.15158 0 0 -3.02244 -32.5536 0 0 3.02244 1.16457 0 0 3.58583c-0.948426,2.10709 -1.64882,4.49174 -2.02087,6.98977l5.64685 0c1.08662,-6.89764 5.78504,-12.0803 11.4142,-12.0803 5.62914,0 10.3287,5.17678 11.4213,12.0685l5.8193 0z"/>
    <path id="_362329288" class="fil2" d="M1002.95 1025.19c0.413386,1.45866 0.732284,2.97638 0.936615,4.52717l-40.2107 0c0.227953,-1.5189 0.562205,-3.0815 0.988583,-4.52717l9.88229 0c0,-6.67087 4.16811,-12.0768 9.30709,-12.0768 5.13071,0 9.29292,5.40591 9.29292,12.0768l9.80316 0zm-13.285 0.056693c0,-4.2 -2.61851,-7.60512 -5.85119,-7.60512 -3.23386,0 -5.85119,3.40512 -5.85119,7.60512l11.7024 0z"/>
    <path id="_362329048" class="fil2" d="M987.16 1023.61c0,-2.40118 -1.49882,-4.34528 -3.35079,-4.34528 -1.85788,0 -3.35197,1.9441 -3.35197,4.34528l6.70276 0z"/>
    <path id="_362329648" class="fil2" d="M975.635 1002.44l-6.90591 0 0 -7.46221 6.90591 0 0 7.46221zm-4.22953 -2.14606l1.60512 0 0 -3.35079 -1.60512 0 0 3.35079z"/>
    <path id="_362328472" class="fil2" d="M998.967 1002.44l-6.98859 0 0 -7.46221 6.98859 0 0 7.46221zm-4.31221 -2.14606l1.60984 0 0 -3.35079 -1.60984 0 0 3.35079z"/>
    <path id="_362328280" class="fil2" d="M987.264 1002.44l-6.98859 0 0 -13.4953 6.98859 0 0 13.4953zm-4.29331 -3.913l1.61102 0 0 -5.36811 -1.61102 0 0 5.36811z"/>
    <polygon id="_362328928" class="fil2" points="966.335,888.197 968.729,888.197 968.729,891.116 971.046,891.116 971.046,888.197 973.311,888.197 973.311,891.116 975.635,891.116 975.635,888.197 977.958,888.197 977.958,891.116 976.872,891.116 976.872,892.634 967.565,892.634 967.565,891.116 966.335,891.116 "/>
    <polygon id="_362328688" class="fil2" points="977.958,882.059 977.958,885.174 979.123,885.174 979.123,886.692 988.502,886.692 988.502,885.174 989.661,885.174 989.661,882.059 987.264,882.059 987.264,885.174 984.936,885.174 984.936,882.059 982.685,882.059 982.685,885.174 980.276,885.174 980.276,882.059 "/>
    <polygon id="_362328424" class="fil2" points="989.661,888.197 989.661,891.116 990.825,891.116 990.825,892.634 1000.12,892.634 1000.12,891.116 1001.29,891.116 1001.29,888.197 998.967,888.197 998.967,891.116 996.571,891.116 996.571,888.197 994.313,888.197 994.313,891.116 991.99,891.116 991.99,888.197 "/>
    <polygon id="_362328304" class="fil2" points="967.565,904.717 1000.12,904.717 1000.12,903.29 967.565,903.29 "/>
    <polygon id="_362328640" class="fil2" points="967.565,907.83 1000.12,907.83 1000.12,906.313 967.565,906.313 "/>
    <path id="_362328520" class="fil2" d="M1001.01 922.924c-0.367323,-2.50748 -1.04173,-4.86851 -2.01614,-7.00985l-0.0271654 -3.55394 1.15158 0 0 -3.02244 -32.5536 0 0 3.02244 1.16457 0 0 3.58583c-0.948426,2.10945 -1.64882,4.49174 -2.02087,6.99213l5.64685 0c1.08662,-6.90001 5.78504,-12.0827 11.4142,-12.0827 5.62914,0 10.3287,5.18386 11.4213,12.0685l5.8193 0z"/>
    <path id="_362328328" class="fil2" d="M1002.95 924.441c0.413386,1.45394 0.732284,2.96575 0.936615,4.52953l-40.2107 0c0.227953,-1.52599 0.562205,-3.08859 0.988583,-4.52953l9.88229 0c0,-6.6756 4.16811,-12.0815 9.30709,-12.0815 5.13071,0 9.29292,5.40591 9.29292,12.0815l9.80316 0zm-13.285 0.0401575c0,-4.18819 -2.61851,-7.59095 -5.85119,-7.59095 -3.23386,0 -5.85119,3.40276 -5.85119,7.59095l11.7024 0z"/>
    <path id="_362329000" class="fil2" d="M987.16 922.864c0,-2.40827 -1.49882,-4.35237 -3.35079,-4.35237 -1.85788,0 -3.35197,1.9441 -3.35197,4.35237l6.70276 0z"/>
    <path id="_362328568" class="fil2" d="M975.635 901.692l-6.90591 0 0 -7.46221 6.90591 0 0 7.46221zm-4.22953 -2.14606l1.60512 0 0 -3.35079 -1.60512 0 0 3.35079z"/>
    <path id="_362328160" class="fil2" d="M998.967 901.692l-6.98859 0 0 -7.46221 6.98859 0 0 7.46221zm-4.31221 -2.14606l1.60984 0 0 -3.35079 -1.60984 0 0 3.35079z"/>
    <path id="_362328040" class="fil2" d="M987.264 901.692l-6.98859 0 0 -13.4953 6.98859 0 0 13.4953zm-4.29331 -3.913l1.61102 0 0 -5.36103 -1.61102 0 0 5.36103z"/>
    <polygon id="_362327920" class="fil2" points="752.869,888.197 755.266,888.197 755.266,891.116 757.583,891.116 757.583,888.197 759.84,888.197 759.84,891.116 762.165,891.116 762.165,888.197 764.494,888.197 764.494,891.116 763.407,891.116 763.407,892.634 754.101,892.634 754.101,891.116 752.869,891.116 "/>
    <polygon id="_362328256" class="fil2" points="764.494,882.059 764.494,885.174 765.658,885.174 765.658,886.692 775.032,886.692 775.032,885.174 776.196,885.174 776.196,882.059 773.794,882.059 773.794,885.174 771.471,885.174 771.471,882.059 769.219,882.059 769.219,885.174 766.817,885.174 766.817,882.059 "/>
    <polygon id="_362327584" class="fil2" points="776.196,888.197 776.196,891.116 777.361,891.116 777.361,892.634 786.661,892.634 786.661,891.116 787.82,891.116 787.82,888.197 785.496,888.197 785.496,891.116 783.108,891.116 783.108,888.197 780.844,888.197 780.844,891.116 778.519,891.116 778.519,888.197 "/>
    <polygon id="_362327776" class="fil2" points="754.101,904.717 786.655,904.717 786.655,903.29 754.101,903.29 "/>
    <polygon id="_362328112" class="fil2" points="754.101,907.83 786.655,907.83 786.655,906.313 754.101,906.313 "/>
    <path id="_362327944" class="fil2" d="M787.545 922.924c-0.366142,-2.50748 -1.03465,-4.86851 -2.02323,-7.00985l-0.0259843 -3.55394 1.16457 0 0 -3.02244 -32.5595 0 0 3.02244 1.16457 0 0 3.58583c-0.94252,2.10945 -1.64173,4.49174 -2.01614,6.99213l5.64213 0c1.08662,-6.90001 5.78504,-12.0827 11.4142,-12.0827 5.63386,0 10.3264,5.18386 11.413,12.0685l5.82638 0z"/>
    <path id="_362327824" class="fil2" d="M789.481 924.441c0.420473,1.45394 0.733465,2.96575 0.94252,4.52953l-40.2095 0c0.222047,-1.52599 0.549213,-3.08859 0.980316,-4.52953l9.88347 0c0,-6.6756 4.16221,-12.0815 9.30591,-12.0815 5.13307,0 9.30001,5.40591 9.30001,12.0815l9.79725 0zm-13.285 0.0401575c0,-4.18819 -2.61732,-7.59095 -5.85119,-7.59095 -3.23268,0 -5.85119,3.40276 -5.85119,7.59095l11.7024 0z"/>
    <path id="_362327680" class="fil2" d="M773.697 922.864c0,-2.40827 -1.50709,-4.35237 -3.35197,-4.35237 -1.85197,0 -3.35079,1.9441 -3.35079,4.35237l6.70276 0z"/>
    <path id="_357348808" class="fil2" d="M762.165 901.692l-6.89882 0 0 -7.46221 6.89882 0 0 7.46221zm-4.22835 -2.14606l1.60866 0 0 -3.35079 -1.60866 0 0 3.35079z"/>
    <path id="_357354592" class="fil2" d="M785.496 901.692l-6.98386 0 0 -7.46221 6.98386 0 0 7.46221zm-4.31221 -2.14606l1.60866 0 0 -3.35079 -1.60866 0 0 3.35079z"/>
    <path id="_357347584" class="fil2" d="M773.794 901.692l-6.98386 0 0 -13.4953 6.98386 0 0 13.4953zm-4.28032 -3.913l1.60276 0 0 -5.36103 -1.60276 0 0 5.36103z"/>
    <polygon id="_357341488" class="fil2" points="859.761,888.093 862.156,888.093 862.156,891.018 864.479,891.018 864.479,888.093 866.736,888.093 866.736,891.018 869.053,891.018 869.053,888.093 871.383,888.093 871.383,891.018 870.296,891.018 870.296,892.522 860.989,892.522 860.989,891.018 859.761,891.018 "/>
    <polygon id="_357333832" class="fil2" points="871.383,881.955 871.383,885.068 872.549,885.068 872.549,886.58 881.92,886.58 881.92,885.068 883.085,885.068 883.085,881.955 880.69,881.955 880.69,885.068 878.361,885.068 878.361,881.955 876.109,881.955 876.109,885.068 873.706,885.068 873.706,881.955 "/>
    <polygon id="_357359104" class="fil2" points="883.085,888.093 883.085,891.018 884.249,891.018 884.249,892.522 893.551,892.522 893.551,891.018 894.708,891.018 894.708,888.093 892.392,888.093 892.392,891.018 889.991,891.018 889.991,888.093 887.731,888.093 887.731,891.018 885.408,891.018 885.408,888.093 "/>
    <polygon id="_357354568" class="fil2" points="860.989,904.611 893.551,904.611 893.551,903.197 860.989,903.197 "/>
    <polygon id="_357354472" class="fil2" points="860.989,907.726 893.551,907.726 893.551,906.209 860.989,906.209 "/>
    <path id="_357354040" class="fil2" d="M894.434 922.817c-0.361418,-2.51103 -1.03583,-4.86733 -2.01614,-7.01339l-0.0259843 -3.54922 1.15866 0 0 -3.02244 -32.5618 0 0 3.02244 1.16693 0 0 3.58701c-0.949607,2.10827 -1.65118,4.49055 -2.01732,6.99095l5.64213 0c1.08662,-6.90001 5.77914,-12.0827 11.413,-12.0827 5.62914,0 10.3299,5.17678 11.4165,12.0697l5.82402 -0.00236221z"/>
    <path id="_357353992" class="fil2" d="M896.372 924.33c0.418111,1.45984 0.731103,2.97874 0.941339,4.53544l-40.2107 0c0.222047,-1.5248 0.562205,-3.08859 0.981497,-4.53544l9.88229 0c0,-6.66851 4.16221,-12.0756 9.30709,-12.0756 5.13071,0 9.29883,5.40709 9.29883,12.0756l9.79961 0zm-13.2874 0.0578741c0,-4.20709 -2.62559,-7.60276 -5.85119,-7.60276 -3.23268,-0.0011811 -5.85119,3.39567 -5.85119,7.60276l11.7024 0z"/>
    <path id="_357354400" class="fil2" d="M880.586 922.766c0,-2.41536 -1.50473,-4.35827 -3.35197,-4.35827 -1.85197,-0.00236221 -3.35079,1.94291 -3.35079,4.35827l6.70276 0z"/>
    <path id="_357354136" class="fil2" d="M869.053 901.588l-6.89764 0 0 -7.46221 6.89764 0 0 7.46221zm-4.22835 -2.14725l1.61102 0 0 -3.35079 -1.61102 0 0 3.35079z"/>
    <path id="_357354160" class="fil2" d="M892.392 901.588l-6.98386 0 0 -7.46221 6.98386 0 0 7.46221zm-4.32048 -2.14725l1.61102 0 0 -3.35079 -1.61102 0 0 3.35079z"/>
    <path id="_357354616" class="fil2" d="M880.69 901.588l-6.98386 0 0 -13.4953 6.98386 0 0 13.4953zm-4.29331 -3.913l1.61102 0 0 -5.36693 -1.61102 0 0 5.36693z"/>
    <path id="_357354064" class="fil4" d="M796.84 1045.18c0,46.7162 36.2965,84.5776 80.6434,84.5776 44.3552,0 80.1993,-37.8614 80.1993,-84.5776l0 -109.37 -160.843 0 0 109.37z"/>
    <path id="_357354304" class="fil3" d="M797.677 936.648l0 108.532c0,46.1729 35.7981,83.7402 79.806,83.7402 43.7587,0 79.3619,-37.5674 79.3619,-83.7402l0 -108.532 -159.168 0zm79.806 193.948c-44.9303,0 -81.482,-38.3197 -81.482,-85.4162l0 -110.208 162.519 0 0 110.208c0,47.0965 -36.3496,85.4162 -81.0367,85.4162z"/>
    <path id="_357354664" class="fil6" d="M858.615 975.243c0,10.9559 8.40237,19.8307 18.6591,19.8307 10.2626,0 18.5599,-8.87481 18.5599,-19.8307l0 -25.6429 -37.2189 0 0 25.6429z"/>
    <path id="_357353752" class="fil3" d="M858.831 949.809l0 25.4339c0,10.8248 8.27127,19.6205 18.4429,19.6205 10.1185,0 18.352,-8.79568 18.352,-19.6205l0 -25.4339 -36.7949 0zm18.4429 45.4796c-10.4067,0 -18.8752,-8.99174 -18.8752,-20.0457l0 -25.8591 37.6441 0 0 25.8591c0,11.0539 -8.41536,20.0457 -18.7689,20.0457z"/>
    <path id="_357353560" class="fil4" d="M877.221 972.565c1.92402,0 3.47599,-1.55669 3.47599,-3.47599 0,-1.90866 -1.55197,-3.46654 -3.47599,-3.46654 -1.91103,0 -3.4689,1.55788 -3.4689,3.46654 0,1.91929 1.55788,3.47599 3.4689,3.47599z"/>
    <path id="_357353488" class="fil4" d="M868.393 961.04c1.90276,0 3.46063,-1.54961 3.46063,-3.4689 0,-1.91693 -1.55788,-3.4689 -3.46063,-3.4689 -1.9252,0 -3.47717,1.55197 -3.47717,3.4689 0,1.91693 1.55197,3.4689 3.47717,3.4689z"/>
    <path id="_357353824" class="fil4" d="M886.057 961.04c-1.91693,0 -3.4689,-1.54961 -3.4689,-3.4689 0,-1.91693 1.55197,-3.4689 3.4689,-3.4689 1.92402,0 3.4689,1.55197 3.4689,3.4689 0,1.91693 -1.54488,3.4689 -3.4689,3.4689z"/>
    <path id="_357353296" class="fil4" d="M868.393 977.141c1.90276,0 3.46063,1.5437 3.46063,3.4689 0,1.91103 -1.55788,3.4689 -3.46063,3.4689 -1.9252,0 -3.47717,-1.55788 -3.47717,-3.4689 0,-1.9252 1.55197,-3.4689 3.47717,-3.4689z"/>
    <path id="_357353848" class="fil4" d="M886.057 977.141c-1.91693,0 -3.4689,1.5437 -3.4689,3.4689 0,1.91103 1.55197,3.4689 3.4689,3.4689 1.92402,0 3.4689,-1.55788 3.4689,-3.4689 0,-1.9252 -1.54488,-3.4689 -3.4689,-3.4689z"/>
    <path id="_357353776" class="fil6" d="M858.615 1034.75c0,10.9559 8.40237,19.8366 18.6591,19.8366 10.2626,0 18.5599,-8.88072 18.5599,-19.8366l0 -25.6299 -37.2189 0 0 25.6299z"/>
    <path id="_357353536" class="fil3" d="M858.831 1009.33l0 25.415c0,10.8248 8.27127,19.6205 18.4429,19.6205 10.1185,0 18.352,-8.79568 18.352,-19.6205l0 -25.415 -36.7949 0zm18.4429 45.4666c-10.4067,0 -18.8752,-8.99883 -18.8752,-20.0516l0 -25.8402 37.6441 0 0 25.8402c0,11.0528 -8.41536,20.054 -18.7689,20.0516z"/>
    <path id="_357353416" class="fil4" d="M877.221 1032.06c1.92402,0 3.47599,-1.53662 3.47599,-3.45591 0,-1.92402 -1.55197,-3.47362 -3.47599,-3.47362 -1.91103,0 -3.4689,1.54961 -3.4689,3.47362 0,1.91929 1.55788,3.45591 3.4689,3.45591z"/>
    <path id="_357353800" class="fil4" d="M868.393 1020.56c1.90276,0 3.46063,-1.55197 3.46063,-3.45473 0,-1.9252 -1.55788,-3.48307 -3.46063,-3.48307 -1.9252,0 -3.47717,1.55788 -3.47717,3.48307 0,1.90276 1.55197,3.45473 3.47717,3.45473z"/>
    <path id="_357352840" class="fil4" d="M886.057 1020.56c-1.91693,0 -3.4689,-1.55197 -3.4689,-3.45473 0,-1.9252 1.55197,-3.48307 3.4689,-3.48307 1.92402,0 3.4689,1.55788 3.4689,3.48307 0,1.90276 -1.54488,3.45473 -3.4689,3.45473z"/>
    <path id="_357352696" class="fil4" d="M868.393 1036.65c1.90276,0 3.46063,1.55197 3.46063,3.46299 0,1.91693 -1.55788,3.4689 -3.46063,3.4689 -1.9252,0 -3.47717,-1.55197 -3.47717,-3.4689 0,-1.91103 1.55197,-3.46299 3.47717,-3.46299z"/>
    <path id="_357352648" class="fil4" d="M886.057 1036.65c-1.91693,0 -3.4689,1.55197 -3.4689,3.46299 0,1.91693 1.55197,3.4689 3.4689,3.4689 1.92402,0 3.4689,-1.55197 3.4689,-3.4689 0,-1.91103 -1.54488,-3.46299 -3.4689,-3.46299z"/>
    <path id="_357352600" class="fil6" d="M858.615 1094.27c0,10.9559 8.40237,19.8236 18.6591,19.8236 10.2626,0 18.5599,-8.86772 18.5599,-19.8236l0 -25.6429 -37.2189 0 0 25.6429z"/>
    <path id="_357352744" class="fil3" d="M858.831 1068.85l0 25.4256c0,10.8189 8.27127,19.6146 18.4429,19.6146 10.1185,0 18.352,-8.79568 18.352,-19.6146l0 -25.4256 -36.7949 0zm18.4429 45.4583c-10.4067,0 -18.8752,-8.98583 -18.8752,-20.0327l0 -25.8591 37.6441 0 0 25.8591c0,11.0469 -8.41536,20.0327 -18.7689,20.0327z"/>
    <path id="_357353056" class="fil4" d="M877.221 1091.59c1.92402,0 3.47599,-1.55906 3.47599,-3.4689 0,-1.91339 -1.55197,-3.4689 -3.47599,-3.4689 -1.91103,0 -3.4689,1.55551 -3.4689,3.4689 0,1.90984 1.55788,3.4689 3.4689,3.4689z"/>
    <path id="_357353032" class="fil4" d="M868.393 1080.07c1.90276,0 3.46063,-1.55669 3.46063,-3.4689 0,-1.91103 -1.55788,-3.47362 -3.46063,-3.47362 -1.9252,0 -3.47717,1.5626 -3.47717,3.47362 0,1.91221 1.55197,3.4689 3.47717,3.4689z"/>
    <path id="_357353104" class="fil4" d="M886.057 1080.07c-1.91693,0 -3.4689,-1.55669 -3.4689,-3.4689 0,-1.91103 1.55197,-3.47362 3.4689,-3.47362 1.92402,0 3.4689,1.5626 3.4689,3.47362 0,1.91221 -1.54488,3.4689 -3.4689,3.4689z"/>
    <path id="_357352552" class="fil4" d="M868.393 1096.17c1.90276,0 3.46063,1.54961 3.46063,3.4689 0,1.92402 -1.55788,3.4689 -3.46063,3.4689 -1.9252,0 -3.47717,-1.54488 -3.47717,-3.4689 0,-1.91929 1.55197,-3.4689 3.47717,-3.4689z"/>
    <path id="_357353008" class="fil4" d="M886.057 1096.17c-1.91693,0 -3.4689,1.54961 -3.4689,3.4689 0,1.92402 1.55197,3.4689 3.4689,3.4689 1.92402,0 3.4689,-1.54488 3.4689,-3.4689 0,-1.91929 -1.54488,-3.4689 -3.4689,-3.4689z"/>
    <path id="_357352912" class="fil6" d="M810.491 1034.75c0,10.9559 8.39056,19.8366 18.6662,19.8366 10.2555,0 18.5528,-8.88072 18.5528,-19.8366l0 -25.6299 -37.2189 0 0 25.6299z"/>
    <path id="_357351664" class="fil3" d="M810.707 1009.33l0 25.415c0,10.8248 8.27127,19.6205 18.45,19.6205 10.1114,0 18.339,-8.79568 18.339,-19.6205l0 -25.415 -36.789 0zm18.45 45.4666c-10.4067,0 -18.8752,-8.99883 -18.8752,-20.0516l0 -25.8402 37.6453 0 0 25.8402c0,11.0528 -8.42363,20.054 -18.7701,20.0516z"/>
    <path id="_357351616" class="fil4" d="M829.099 1032.06c1.91575,0 3.47362,-1.53662 3.47362,-3.45591 0,-1.92402 -1.55788,-3.47362 -3.47362,-3.47362 -1.91929,0 -3.47717,1.54961 -3.47717,3.47362 0,1.91929 1.55788,3.45591 3.47717,3.45591z"/>
    <path id="_357352240" class="fil4" d="M820.269 1020.56c1.91103,0 3.46063,-1.55197 3.46063,-3.45473 0,-1.9252 -1.54961,-3.48307 -3.46063,-3.48307 -1.9252,0 -3.48307,1.55788 -3.48307,3.48307 0,1.90276 1.55788,3.45473 3.48307,3.45473z"/>
    <path id="_357351952" class="fil4" d="M837.94 1020.56c-1.91811,0 -3.4689,-1.55197 -3.4689,-3.45473 0,-1.9252 1.55079,-3.48307 3.4689,-3.48307 1.91103,0 3.46181,1.55788 3.46181,3.48307 0,1.90276 -1.55079,3.45473 -3.46181,3.45473z"/>
    <path id="_357352192" class="fil4" d="M820.269 1036.65c1.91103,0 3.46063,1.55197 3.46063,3.46299 0,1.91693 -1.54961,3.4689 -3.46063,3.4689 -1.9252,0 -3.48307,-1.55197 -3.48307,-3.4689 0,-1.91103 1.55788,-3.46299 3.48307,-3.46299z"/>
    <path id="_357351928" class="fil4" d="M837.94 1036.65c-1.91811,0 -3.4689,1.55197 -3.4689,3.46299 0,1.91693 1.55079,3.4689 3.4689,3.4689 1.91103,0 3.46181,-1.55197 3.46181,-3.4689 0,-1.91103 -1.55079,-3.46299 -3.46181,-3.46299z"/>
    <path id="_357352000" class="fil6" d="M943.953 1034.75c0,10.9559 -8.39174,19.8366 -18.6543,19.8366 -10.2614,0 -18.5622,-8.88072 -18.5622,-19.8366l0.00236221 -25.6299 37.2142 0 0 25.6299z"/>
    <path id="_357352264" class="fil3" d="M906.948 1009.33l0 25.415c0,10.8248 8.23347,19.6205 18.3508,19.6205 10.1693,0 18.4429,-8.79568 18.4429,-19.6205l0 -25.415 -36.7937 0zm18.3508 45.4666c-10.3536,0 -18.7713,-8.99883 -18.7713,-20.0516l0.00236221 -25.8402 37.637 0 0 25.8402c0,11.0528 -8.46142,20.054 -18.8681,20.0516z"/>
    <path id="_357351808" class="fil4" d="M925.352 1032.06c-1.91811,0 -3.4689,-1.53662 -3.4689,-3.45591 0,-1.92402 1.55079,-3.47362 3.4689,-3.47362 1.90984,0 3.46181,1.54961 3.46181,3.47362 0,1.91929 -1.55197,3.45591 -3.46181,3.45591z"/>
    <path id="_357352120" class="fil4" d="M934.187 1020.56c-1.9252,0 -3.47481,-1.55197 -3.47481,-3.45473 0,-1.9252 1.54961,-3.48307 3.47481,-3.48307 1.91103,0 3.4689,1.55788 3.4689,3.48307 0,1.90276 -1.55788,3.45473 -3.4689,3.45473z"/>
    <path id="_357350968" class="fil4" d="M916.509 1020.56c1.91929,0 3.47481,-1.55197 3.47481,-3.45473 0,-1.9252 -1.55551,-3.48307 -3.47481,-3.48307 -1.90394,0 -3.46063,1.55788 -3.46063,3.48307 0,1.90276 1.55669,3.45473 3.46063,3.45473z"/>
    <path id="_357351496" class="fil4" d="M934.187 1036.65c-1.9252,0 -3.47481,1.55197 -3.47481,3.46299 0,1.91693 1.54961,3.4689 3.47481,3.4689 1.91103,0 3.4689,-1.55197 3.4689,-3.4689 0,-1.91103 -1.55788,-3.46299 -3.4689,-3.46299z"/>
    <path id="_357351352" class="fil4" d="M916.509 1036.65c1.91929,0 3.47481,1.55197 3.47481,3.46299 0,1.91693 -1.55551,3.4689 -3.47481,3.4689 -1.90394,0 -3.46063,-1.55197 -3.46063,-3.4689 0,-1.91103 1.55669,-3.46299 3.46063,-3.46299z"/>
   </g>
  </g>
 </g>
 <rect class="fil7" width="2048" height="2048"/>
</svg>
