<?xml version="1.0" encoding="UTF-8"?>
<!DOCTYPE svg PUBLIC "-//W3C//DTD SVG 1.1//EN" "http://www.w3.org/Graphics/SVG/1.1/DTD/svg11.dtd">
<!-- Creator: CorelDRAW -->
<svg xmlns="http://www.w3.org/2000/svg" xml:space="preserve" width="2048px" height="2048px" style="shape-rendering:geometricPrecision; text-rendering:geometricPrecision; image-rendering:optimizeQuality; fill-rule:evenodd; clip-rule:evenodd"
viewBox="0 0 2048 2048"
 xmlns:xlink="http://www.w3.org/1999/xlink">
 <defs>
  <style type="text/css">
   <![CDATA[
    .fil2 {fill:none}
    .fil0 {fill:#8D1B3D}
    .fil1 {fill:#EEEEEE}
   ]]>
  </style>
 </defs>
 <g id="Layer_x0020_1">
  <metadata id="CorelCorpID_0Corel-Layer"/>
  <rect class="fil0" x="638.267" y="562.5" width="1153.73" height="923"/>
  <polygon class="fil1" points="639.171,562.758 818.599,613.778 639.171,664.798 639.171,665.314 818.599,716.334 639.171,767.353 639.171,767.869 818.599,818.89 639.171,869.91 639.171,870.425 818.599,921.445 639.171,972.465 639.171,972.981 818.599,1024 639.171,1075.02 639.171,1075.54 818.599,1126.56 639.171,1177.58 639.171,1178.09 818.599,1229.11 639.171,1280.13 639.171,1280.65 818.599,1331.67 639.171,1382.69 639.171,1383.2 818.599,1434.22 639.171,1485.24 639.171,1485.5 638.267,1485.5 255.999,1485.5 255.999,562.5 638.267,562.5 639.171,562.5 "/>
 </g>
 <rect class="fil2" width="2048" height="2048"/>
</svg>
