<?xml version="1.0" encoding="UTF-8"?>
<!DOCTYPE svg PUBLIC "-//W3C//DTD SVG 1.1//EN" "http://www.w3.org/Graphics/SVG/1.1/DTD/svg11.dtd">
<!-- Creator: CorelDRAW -->
<svg xmlns="http://www.w3.org/2000/svg" xml:space="preserve" width="2048px" height="2048px" style="shape-rendering:geometricPrecision; text-rendering:geometricPrecision; image-rendering:optimizeQuality; fill-rule:evenodd; clip-rule:evenodd"
viewBox="0 0 2048 2048"
 xmlns:xlink="http://www.w3.org/1999/xlink">
 <defs>
  <style type="text/css">
   <![CDATA[
    .fil2 {fill:none}
    .fil0 {fill:#006C35}
    .fil1 {fill:#EEEEEE}
   ]]>
  </style>
 </defs>
 <g id="Layer_x0020_1">
  <metadata id="CorelCorpID_0Corel-Layer"/>
  <rect class="fil0" x="255.999" y="562.5" width="1536" height="923"/>
  <path class="fil1" d="M1208.22 1226.85c-150.21,1.90984 -316.643,0.056693 -459.039,-1.6252 15.8599,25.7811 66.2516,23.8028 114.901,24.5658 43.2189,0.680315 170.302,0.277559 344.54,-4.20709l0.147638 6.90827c-5.99646,7.48347 -5.20985,8.25473 -0.739371,14.7295 4.49292,6.50434 5.91851,3.02362 7.95237,-0.170079 0.823229,-1.29567 1.51063,-2.36575 2.04449,-3.31063l23.3067 -0.497244c0.0555119,2.7378 3.89174,4.49528 5.58426,4.46103 1.69252,-0.0366142 5.44725,-1.95709 5.39174,-4.69252l25.3512 -0.540945c2.5063,3.97323 6.41575,6.0378 10.0961,5.79922 9.19371,-0.596457 13.1882,-11.4047 11.8807,-24.6685 -1.53189,-15.5799 -9.19371,-18.2185 -27.1973,-17.8323 -19.1008,0.407481 -38.5902,0.73819 -58.3678,1.00394l-0.135827 -6.3626c5.99646,-7.48111 5.23937,-8.27009 0.73819,-14.7213 -2.16969,-3.11103 -3.7441,-6.5256 -7.95355,0.167717 -4.18819,6.6567 -4.94528,7.45985 1.36417,14.6811l0.134646 6.31182zm6.39804 25.5201l-0.147638 -6.93898c20.0599,-0.52441 40.7221,-1.10079 61.9524,-1.73622 -1.54961,5.00552 -1.73268,9.36379 -1.01929,12.9662l-23.2205 0.496063c-0.0555119,-2.7378 -3.8941,-4.42205 -5.58426,-4.38307 -1.6937,0.034252 -5.45197,1.8815 -5.39292,4.62048l-22.5118 0.479528c-0.673229,-1.4315 -1.98898,-3.11811 -4.07599,-5.50394z"/>
  <path class="fil1" d="M1391.74 931.789c-2.53583,-63.6201 -10.8024,-91.7434 -8.96103,-115.96 5.4189,5.19213 8.3256,3.3626 4.61457,-4.81418 -3.71103,-8.17678 -7.43741,-16.9394 -11.152,-25.1126 -3.70866,-8.1756 -4.85079,-6.38268 -9.4382,-0.388583 -4.58741,5.99292 -5.09174,10.1327 -3.24922,13.6288 9.33662,78.2186 13.5165,118.825 14.8323,142.367 1.9063,34.1575 -6.25394,53.6162 -39.6579,75.7253 -11.0433,7.30985 -23.2429,15.8244 2.55827,9.37678 25.8059,-6.44882 53.2949,-23.4921 50.4532,-94.8225z"/>
  <path class="fil1" d="M1359.6 935.819c-8.55709,-12.8209 -16.7634,-24.7217 -24.5776,-35.8441 -2.5937,-29.6114 -5.84292,-61.1445 -6.04607,-77.6882 4.20945,3.74292 7.07835,0.144095 5.17087,-6.30237 -1.90276,-6.44292 -5.81221,-23.7508 -8.61379,-30.7689 -2.80276,-7.01457 -5.71772,-5.47678 -9.41694,0.791339 -3.69685,6.26693 -5.9941,9.26694 -3.82323,14.2311 1.11496,28.2815 5.34331,55.8957 9.5941,81.2056 -7.84725,-10.9665 -15.1973,-21.1146 -22.0169,-30.6071 -0.669686,-10.8721 -1.32756,-21.8114 -1.93347,-32.602 4.49646,3.44055 6.24922,2.81103 4.04292,-3.9189 -2.20394,-6.73701 -7.51654,-20.7732 -10.0122,-27.2032 -2.49331,-6.43347 -4.16811,-6.59292 -7.49882,-1.4126 -5.31024,8.26182 -6.77835,13.8992 -2.29134,21.6662l1.77756 20.974c-4.13386,-5.98701 -7.99253,-11.7165 -11.5228,-17.2264 4.37363,2.26063 7.82481,-1.73977 3.01654,-5.96339 -4.80591,-4.22008 -14.0102,-11.8831 -18.0579,-17.3008 -4.04055,-5.41772 -8.36457,-5.32678 -8.25355,-0.217323 0.100394,4.7126 0.590552,9.42284 -0.111024,13.3654 -0.700394,3.94607 -0.64252,7.963 5.03504,14.8299 11.4165,13.8118 22.3169,28.0146 32.374,41.5677 4.1315,48.7205 6.5504,80.2111 5.62914,100.106 -0.539764,11.6079 -4.71969,18.3791 -10.9606,20.4791 -6.24567,2.09528 -12.6248,-2.09055 -18.7075,-11.002 -10.6146,-15.5386 -14.5618,-12.6638 -22.7811,0.878741 -7.97245,13.1398 -13.6382,23.8748 -17.7685,33.0059 -4.12796,9.12757 -11.0398,16.7445 -17.1874,5.08111 -6.1441,-11.6599 -6.82441,-25.0087 -6.63071,-34.4469 0.194882,-9.43702 -1.17874,-16.8839 -4.7563,-1.8626 -8.65631,36.3461 -3.60236,43.9453 6.22205,52.1422 12.4075,10.3488 16.2969,11.3976 22.8449,2.26654 12.5988,-17.5642 16.1917,-33.3662 23.4732,-42.1666 5.6752,-6.86457 6.1063,-1.50709 8.68465,1.7811 7.27323,9.27402 14.0291,12.6697 24.2847,14.4165 10.2555,1.74567 28.9394,-6.90591 27.4205,-41.0717 -0.916536,-20.7213 -2.71418,-48.7347 -4.62048,-78.8658 9.96615,13.826 18.6992,26.2181 25.7492,35.7839 3.15355,19.8118 5.28662,37.3559 4.40788,51.5776 -1.02638,16.5307 2.31614,16.461 5.68701,-0.511418 1.32874,-6.66851 0.915355,-20.824 -0.246851,-37.9866 13.1492,17.504 20.961,29.0351 26.3811,37.8189 6.11103,9.89174 9.18426,18.7453 7.62756,-1.92992 -0.549213,-7.26024 -2.67992,-13.735 -11.5878,-27.0697z"/>
  <path class="fil1" d="M1248.06 918.552c4.63701,-3.6378 18.8327,-12.235 24.2776,-14.9067 5.44725,-2.67166 4.52244,-4.77992 3.81378,-10.2661 -0.705119,-5.48622 -4.15512,-1.48583 -8.7815,2.93858 -4.62166,4.42205 -18.2421,14.4461 -22.9311,18.1878 -6.14292,4.90276 -7.61812,6.17126 -7.45158,9.15827 0.211417,3.83268 6.43465,-1.47402 11.0728,-5.11181z"/>
  <path class="fil1" d="M1254.79 878.112c0.100394,-4.52126 -1.35591,-18.4984 0.50315,-23.4496 2.5689,-6.84331 7.37481,3.22796 9.37087,-1.70315 1.42087,-3.50433 -1.45276,-3.91772 -2.92087,-8.20867 -1.46457,-4.29331 -3.22087,-3.66969 -6.5126,-1.2378 -3.28701,2.42835 -4.59685,5.40119 -4.93937,7.96654 -0.538583,4.06654 0.550394,9.85158 0.686221,16.3347 0.122835,5.72599 -0.836221,6.69922 -2.49803,2.60788 -1.66181,-4.09252 -6.74174,-14.6362 -9.37087,-18.1134 -2.62914,-3.48189 -7.29686,-1.22362 -7.21536,2.70827 0.0850394,3.92835 0.459449,3.23977 -0.0248032,8.16497 -0.486615,4.92402 5.73308,4.96654 6.81497,0.425197 4.42205,4.62284 8.21575,13.0996 10.4799,17.9658 3.60118,7.72678 5.52874,1.06063 5.62678,-3.46063z"/>
  <path class="fil1" d="M1214.81 929.081c-2.24646,-22.3583 -10.0146,-82.33 -11.7083,-106.467l1.59567 0.950788c6.763,3.78189 13.8756,5.59725 8.59016,-2.54292 -5.28071,-8.14371 -9.49607,-21.4158 -12.8504,-31.1705 -3.34961,-9.75591 -4.04882,-9.21261 -9.45355,-0.979135 -8.37402,12.7571 -1.14213,24.8788 0.851575,39.8091 7.01812,52.5225 13.7504,106.041 15.6165,120.113 2.10945,15.8705 4.54607,26.1225 0.452363,43.5201 -1.22244,5.19685 0.82441,6.89056 4.13622,0.501969 13.591,-26.2347 4.25906,-48.8847 2.76969,-63.7359z"/>
  <path class="fil1" d="M1179.22 946.94c-1.35709,-63.6497 -9.81261,-91.3749 -8.38583,-125.798 3.61299,3.45709 8.33623,3.74882 5.8193,-3.6626 -2.51339,-7.41497 -4.28268,-16.4185 -6.81497,-24.6189 -2.5311,-8.2004 -4.14449,-10.1315 -7.20591,-6.13465 -3.05788,3.99685 -5.77441,5.62678 -8.07284,8.42717 -2.29843,2.79803 -2.78032,8.14725 0.0732284,12.802 10.5319,74.3552 11.2299,107.134 12.7016,134.521 1.46575,27.3839 5.21339,40.2485 -11.7071,58.7056 -18.7417,20.4461 -30.241,25.1303 -38.3339,27.2599 -10.4634,2.7567 -14.1284,7.22835 1.27795,6.38977 23.4284,-1.27913 26.4083,-2.13071 45.5044,-23.8914 10.5756,-12.0591 15.9236,-27.4607 15.1441,-63.9993z"/>
  <path class="fil1" d="M1159.38 965.637c-4.15276,-22.0276 -24.2351,-57.391 -54.1796,-103.591 -0.973229,-12.0343 -1.61102,-23.6032 -1.61693,-33.7701 4.22717,4.62402 7.41024,1.90276 5.80276,-4.25197 -3.01181,-11.5583 -7.52363,-20.9504 -12.5079,-33.6343 -2.18268,-5.55591 -7.43386,-6.78189 -10.2969,1.10315 -3.33544,9.21024 -3.59055,11.2819 0.668504,17.3799 -0.231496,7.29449 1.9441,18.9543 2.78977,29.6067 -5.11181,-7.67953 -12.1429,-17.6894 -17.6469,-25.8496 8.32678,3.35788 13.3831,0.892914 6.13583,-7.20709 -7.24843,-8.10001 -17.6492,-16.5236 -24.0603,-22.2851 -6.40749,-5.76024 -9.47717,-2.15551 -8.57481,3.32835 0.902363,5.48268 0.987402,9.41339 0.68504,13.7433 -0.298819,4.32638 0.840946,7.15276 7.37953,9.66851 12.6071,16.8827 25.6465,34.265 37.3583,51.6012 1.62284,14.9315 4.43386,31.1032 5.96339,44.2949 3.61418,31.1729 9.613,72.0792 4.68426,89.8713 -3.64488,13.1764 0.288189,18.9697 6.34489,-1.20591 6.05552,-20.1732 5.33741,-39.0815 1.74921,-69.0721 -1.43268,-11.9823 -2.13071,-26.6044 -3.60473,-40.3559 20.5606,32.152 39.0992,62.4107 47.4756,83.3753 4.50709,11.2736 8.55591,13.6961 5.45079,-2.74961z"/>
  <path class="fil1" d="M1134.91 818.174c4.49882,-10.1197 0.905906,-22.4953 -3.59764,-30.287 -3.97559,-6.89646 -6.30119,-5.27244 -8.57481,-1.29095 -2.09055,3.6626 -3.44055,6.83623 0.602363,9.81379 3.89528,2.86181 9.75828,10.5 7.3004,19.6914 -1.84252,6.88701 -0.161811,12.0354 4.26969,2.07284z"/>
  <path class="fil1" d="M1146.7 850.544c0.741733,-2.17677 1.47402,-4.55079 0.537402,-11.8028 -0.943702,-7.25197 -3.21851,-3.4689 -4.46103,2.84764 -1.24016,6.31654 -5.14961,7.37953 -6.27874,0.525591 -1.12795,-6.85394 -3.04961,-4.84843 -4.09725,1.46457 -1.18701,7.17166 -4.08898,4.10079 -5.73071,-1.64882 -1.06299,-3.70866 -3.17835,-1.50473 -2.46378,4.37835 0.822048,6.77008 2.97166,10.35 8.17205,5.32678 2.46851,-2.38465 3.6815,-2.4378 6.89174,0.641339 3.21142,3.07559 6.69213,0.445276 7.43032,-1.73268z"/>
  <path class="fil1" d="M1354.62 836.186c1.60748,-7.69961 1.00039,-22.1315 -3.34843,-32.6516 -4.35118,-10.5213 -6.0378,-6.65315 -8.31969,-3.06614 -2.85355,4.48111 -2.53465,5.65394 0.826772,11.185 3.36142,5.52874 6.54095,16.3689 6.42756,24.9213 -0.112205,8.54764 2.80984,7.30749 4.41378,-0.388583z"/>
  <path class="fil1" d="M1310.25 1022.56c5.22874,-3.65079 16.4256,-16.1681 8.8878,-25.5414 -3.02717,-3.76654 -10.1787,-3.17717 -13.2402,1.16693 -4.0063,5.68701 6.10394,9.59646 8.05749,4.5437 3.04016,4.35827 -0.327166,12.3898 -5.24528,16.6205 -7.75985,6.67087 -3.68504,6.85985 1.54016,3.21024z"/>
  <path class="fil1" d="M1034.3 913.704c-1.04055,-3.92363 -0.940158,-6.88347 -1.23071,-9.83268 -0.501969,-5.09764 2.25118,-5.15788 9.42166,-0.591733 7.17284,4.56142 12.9969,5.47678 2.5252,7.80709 -3.5941,0.797245 -7.16339,1.67835 -10.7161,2.61732zm52.6063 44.8323c3.32835,-9.89646 5.25237,-11.9032 -6.52205,-10.865 -11.7697,1.03819 -70.5792,2.39173 -84.756,1.12323 11.4673,-6.04252 28.467,-12.5622 41.0209,-16.8083 4.57678,2.84882 6.33071,1.86142 5.22874,-1.83307 4.97481,-1.82008 9.5067,-3.73819 13.2449,-5.92087 13.9736,-8.15788 19.9181,-24.4028 5.15552,-34.6985 -14.7638,-10.2969 -27.4158,-13.9606 -35.426,-2.38937 -6.32126,9.13347 -11.7165,18.0945 -3.4252,30.261 -13.1752,4.07953 -26.0173,8.89371 -38.4768,13.8721 -9.35434,3.73583 -13.5591,5.19449 -16.8543,16.6642 -3.2941,11.4697 -5.10945,12.7772 7.95119,13.3465 16.8827,0.732284 32.3705,-0.569292 42.3496,8.5819 -16.5496,6.15237 -28.6016,18.5728 -22.9512,35.4236 -7.72323,-2.11063 -15.2067,-5.19804 -20.9351,-10.5106 -12.8303,-11.9126 -11.7177,-33.554 -16.9677,-58.5981 -5.25473,-25.0429 -15.9201,-46.0453 -19.2484,-54.6178 -3.32717,-8.57481 -5.20985,-4.60748 -7.82599,1.73977 -2.61496,6.34252 -5.68819,9.55276 -2.5689,17.7414 5.99646,15.7169 15.8291,46.2969 20.198,63.5304 -9.84568,20.6906 -33.0697,47.7485 -53.3315,50.7721 -15.9508,2.37638 -19.2059,-5.85709 -18.1547,-14.3162 10.4161,-6.18189 19.7138,-13.3795 28.7717,-22.4658 19.0358,-19.0984 22.0477,-35.0599 9.58111,-66.6308 7.88386,1.00984 6.57993,-4.86024 -4.70788,-17.9823 -8.00434,-9.30827 -9.58465,-7.26142 -13.3406,1.07126 -3.75355,8.33623 -6.40158,13.1055 2.31614,16.461 1.66536,4.28622 4.94174,10.5047 9.44883,19.0571 10.4965,19.9217 -4.80827,27.4843 -18.5291,39.9697 -2.43307,2.21811 -7.18229,5.57245 -11.0728,8.5193 -0.263386,-6.47953 0.832678,-15.2185 0.754725,-18.7866 -0.090945,-4.32284 -1.31102,-6.26103 -3.95433,-1.09488 -4.62992,9.05906 -8.8819,20.9669 -10.7634,30.2292 -20.0752,13.7646 -44.8252,27.1914 -60.5611,34.9689 -7.09134,3.50197 -2.62677,5.9504 2.84173,4.26378 23.2524,-7.18465 41.517,-13.461 57.0697,-21.0425 1.04173,13.0465 6.61654,23.0788 17.9138,25.9276 22.5815,5.69646 46.2461,-13.2378 71.1756,-48.1394 6.18898,17.1142 20.6941,39.0237 60.2434,45.3343 16.0996,2.56772 15.9378,0.840946 18.1299,-6.87048 2.19685,-7.71142 3.93307,-9.12638 -9.5067,-12.7689 -17.0374,-6.3189 -22.8059,-18.3095 -6.05434,-25.3488 16.7528,-7.03701 39.424,-13.7776 55.0843,-16.4681 10.2567,-1.76339 14.1272,-0.804331 17.4543,-10.702z"/>
  <path class="fil1" d="M1066.86 1027.46c4.42678,-1.14095 12.235,-6.74764 17.739,-11.2866 6.75119,-5.56418 1.87441,-5.26654 -2.42953,-3.48544 -5.26063,2.17677 -8.75316,4.31221 -14.6008,6.50197 -6.42284,2.40355 -7.68426,-0.720473 -4.64174,-10.2189 2.77323,-8.66339 -0.194882,-9.13465 -3.9874,-7.28386 -3.7937,1.84961 -6.22441,4.03111 -11.3469,7.0193 -2.62205,1.53189 -3.14764,4.48937 3.86693,1.68898 6.00237,-2.4 4.42796,0.198425 2.52874,7.90631 -1.89921,7.70434 2.90315,11.7272 12.8717,9.15827z"/>
  <path class="fil1" d="M994.775 905.631c3.40158,3.70866 14.7236,0.666142 9.09095,-16.4646 -2.3126,-7.02756 -3.49134,-5.59016 -3.41339,2.55236 0.115748,12.1642 -3.79488,12.0732 -8.12008,0.441733 -1.66417,-4.48347 -3.66378,-4.54725 -3.90355,1.26496 -0.467717,11.3539 -5.16142,12.7795 -7.85316,1.70079 -1.25906,-5.18859 -2.21575,-8.77087 -3.3437,-1.46457 -1.03465,6.70512 0.63189,11.191 3.06024,14.4827 2.42835,3.28701 7.42205,2.87008 8.80276,-0.810237 1.70433,-4.54134 2.55591,-5.11063 5.67993,-1.70315z"/>
  <path class="fil1" d="M993.933 856.556c22.4209,29.6256 41.9303,15.6673 44.1437,-12.541 0.69567,-8.85709 -3.44764,-28.1244 -5.92205,-33.6744 -2.47677,-5.55 -0.71693,-5.87953 2.5937,-2.70591 3.31181,3.17126 9.5504,5.39764 6.39686,-4.26615 -3.15355,-9.65788 -7.39489,-14.8784 -12.4984,-19.1894 -5.10237,-4.31339 -6.23032,-1.92992 -8.22638,1.35354 -1.9937,3.28583 -1.51417,4.29685 -4.40552,7.01221 -2.88898,2.71418 -2.27599,4.17874 -0.0874016,9.72875 8.41654,21.3402 16.6748,52.8225 2.98229,55.7977 -12.0331,2.61496 -19.9205,-23.7366 -20.4047,-35.8075 -0.623623,-15.6142 -2.38229,-28.8414 -5.51339,-37.3217 -3.12756,-8.48268 -4.44685,-9.87757 -6.88819,-5.16142 -1.70079,3.27992 -2.23937,5.6504 -4.22717,9.22914 -1.98543,3.57992 -0.17126,4.56496 1.25551,11.1354 7.52245,34.624 6.77835,50.0221 -8.94331,59.2028 -15.7228,9.18072 -24.0449,0.256299 -24.2788,-10.6488 -0.231496,-10.9004 -0.411024,-23.8914 0.851575,-33.6473 1.26496,-9.75709 3.35788,-11.5559 0.00944883,-16.4965 -3.34488,-4.93937 -6.07441,-3.35197 -10.7764,3.13819 -9.83268,13.5756 -19.5638,36.5823 -22.865,47.6587 -3.29882,11.0752 -10.6075,7.16103 -15.2067,-2.21339 -5.34331,-10.891 -4.76575,-31.1658 -2.96929,-39.0638 1.79882,-7.90158 0.819686,-11.4059 -2.42835,-2.3941 -7.86969,21.8421 -7.48701,43.115 8.5193,61.0512 9.39804,10.526 16.4091,5.52166 20.5949,-5.47796 4.18819,-10.9937 6.90001,-21.9603 9.99095,-29.1024 3.09213,-7.14095 5.47441,-5.66575 4.73859,1.07835 -1.47638,13.5921 -2.06457,35.7508 11.6693,44.0067 13.7374,8.25473 34.8343,-6.08623 41.8949,-20.6811z"/>
  <path class="fil1" d="M971.365 821.368c2.16969,-8.89135 1.61102,-21.2587 -0.905906,-28.5768 -2.51103,-7.31339 -5.20394,-9.02717 -7.50355,-6.32599 -3.10984,3.65315 -3.4441,4.09252 -0.270473,8.14371 2.73071,3.47953 7.20591,14.6221 5.96339,25.5555 -0.6,5.30315 0.546851,10.0949 2.71654,1.20354z"/>
  <path class="fil1" d="M777.762 920.892c-2.07284,0.714567 -3.9874,1.34764 -5.67756,1.91221 -8.37638,2.79567 -10.2378,-0.863386 -9.763,-6.17835 0.479528,-5.31969 1.39134,-7.09725 6.97796,-4.57205 2.35984,1.0689 5.60315,4.42205 8.4626,8.8382zm75.6745 1.06772c4.47284,6.17599 19.4362,8.52166 23.1721,-0.598819 3.73583,-9.12402 3.1063,-17.9008 2.17087,-24.9567 -0.938977,-7.05473 -2.44961,-6.48189 -7.0878,-2.84528 -4.63819,3.63425 -0.94252,4.50945 -0.366142,9.44646 2.13071,18.313 -14.0563,17.0386 -15.9721,-2.19803 -1.16102,-11.674 -3.04843,-7.23071 -4.68426,-1.84725 -6.95906,22.8555 -26.8347,27.2599 -24.8351,0.686221 0.559843,-7.44568 -4.23307,-5.22166 -7.12441,-2.2063 -2.06457,2.15788 -4.28268,4.1374 -6.58701,5.97166 -1.43386,-21.4831 -3.24922,-46.2756 -5.41182,-75.58 5.7567,7.24134 11.4732,-1.13268 7.46693,-9.30237 -3.08504,-6.28937 -7.52008,-20.7697 -10.3394,-28.6666 -2.82402,-7.90158 -4.24607,-5.51339 -10.2933,1.10079 -6.05079,6.61654 -4.83544,8.35867 -2.33386,15.0851 -0.598819,8.65985 0.751182,16.8874 2.6941,34.1398 1.37835,12.2705 5.263,37.741 7.35473,69.8445 -3.05551,1.67953 -7.32756,4.46103 -10.3181,5.77087 -2.23701,-5.34331 -5.76378,-9.70158 -11.4697,-15.1701 -8.82875,-8.45906 -15.7736,-8.89253 -23.1532,1.6748 -7.24725,10.3748 -6.80552,12.724 -6.21024,22.1433 0.592914,9.4193 -1.30394,12.6047 5.82638,15.2055 7.1315,2.59961 10.1847,1.53898 14.5465,0.0826772 3.30827,-1.10315 8.04568,-2.71063 13.2402,-4.58622 0.957875,5.14607 0.434646,10.2095 -2.72008,14.0917 -17.811,21.8965 -46.1398,37.5485 -58.467,23.0599 -6.65079,-7.81772 -9.56812,-20.1343 -7.52363,-34.9181 1.65945,-12.0413 -2.20984,-6.73583 -3.58819,-2.28307 -4.41142,14.2441 -5.74252,34.9087 0.175984,45.1973 8.31615,14.4567 21.6685,20.7638 42.6922,11.2736 21.0248,-9.48662 41.5016,-26.041 40.6134,-49.2118 -0.158268,-4.24252 -0.364961,-7.92166 -0.664961,-11.1886 2.34803,-0.933072 5.67993,-3.56811 7.87205,-4.53071 0.431103,7.87087 -0.218504,17.6197 0.0838583,25.7835 0.924804,24.7689 -8.59489,32.2855 -17.5465,39.3851 -12.3496,9.79371 -28.963,16.1847 -43.4433,18.3154 -33.4453,4.91575 -41.5075,-16.598 -40.9406,-45.3059 0.0933072,-4.77756 1.80827,-7.32284 1.66181,-14.1851 -0.261024,-12.1795 -1.78701,-10.0843 -5.45552,2.17914 -3.56221,11.9055 -8.06812,39.4441 3.41929,61.9961 11.4862,22.5532 51.3095,16.1374 82.0477,1.3311 30.7359,-14.8087 34.0701,-42.7866 32.6894,-70.6642 -0.364961,-7.37717 -0.809056,-15.2032 -1.32165,-23.5736 0.97441,-0.690945 1.77402,-1.35945 2.34567,-1.99488 4.23426,14.0575 24.7299,10.3984 31.1823,2.26181 3.26457,-4.11614 3.3437,-4.71142 6.60237,-0.212599z"/>
  <path class="fil1" d="M873.938 803.669c-3.16181,-2.12244 -2.61496,-4.58268 -1.28268,-7.60867 1.97126,-4.46693 4.74685,-1.77992 3.85866,1.09252 -0.676772,2.1815 -1.54252,4.35591 -2.57599,6.51615zm6.98977 6.19371c1.82362,-3.92008 3.0189,-7.58505 3.88111,-10.8224 5.17087,-19.4433 -14.6043,-21.2067 -20.1815,-6.34961 -2.63858,7.02638 -2.37638,15.1004 3.7937,20.2725 -8.50749,12.0461 -21.6685,23.289 -35.9847,32.3008 -7.27442,4.57441 -5.72363,8.07993 3.91181,3.74528 21.5043,-9.66497 33.3886,-20.9658 40.2213,-31.3406 5.59607,1.14685 6.90237,-3.71929 4.35827,-7.80591z"/>
  <path class="fil1" d="M858.95 872.112c4.50355,3.73701 13.8354,-0.884646 17.2181,-8.32796 3.37677,-7.44213 2.00079,-8.77205 -3.87756,-1.97953 -8.05276,9.30946 -16.4894,0.941339 -7.9193,-11.9173 5.94331,-8.91851 2.72126,-10.6713 -3.2941,-2.58662 -5.63268,7.57442 -10.3193,18.0106 -2.12717,24.8114z"/>
  <path class="fil1" d="M853.473 951.53c-0.861024,-5.23583 -0.72756,-6.47008 -5.29489,-8.53347 -4.56024,-2.06811 -6.06969,1.11142 -7.75158,5.07756 -1.99606,4.70552 0.811418,10.3984 7.42323,7.11378 1.06063,3.70985 0.635434,11.3847 -0.859843,14.9539 -1.86142,4.44095 -0.0188977,6.41339 2.96221,0.722835 3.02244,-5.7626 4.64764,-12.4807 3.52087,-19.3347z"/>
  <path class="fil1" d="M732.687 880.927c3.56221,-3.22205 7.3193,-7.85197 8.8878,-11.0256 3.67441,-7.44922 4.55552,-6.65906 6.17599,-0.722835 3.19961,11.7224 14.8606,19.4351 30.5374,8.19213 14.478,-10.3784 8.4567,-32.0185 1.76693,-55.4563 5.62441,1.05591 7.29686,-3.40158 4.22481,-9.2315 -1.78583,-3.39095 -4.45276,-6.66142 -6.87048,-9.55749 -2.4189,-2.89488 -5.16142,-5.33859 -7.45276,-2.34331 -2.2937,2.99882 -4.53071,5.44252 -5.96339,7.24253 -1.43504,1.80118 -1.35236,3.8504 0.637796,8.7319 5.60197,13.735 9.72993,28.5662 10.7917,36.7996 1.06299,8.22757 -1.85433,9.76536 -7.15867,9.87875 -5.30315,0.112205 -12.8669,-1.30158 -15.7713,-13.0311 -2.90551,-11.7295 -4.04646,-17.4555 -3.62126,-25.128 0.426378,-7.67481 1.20118,-13.0417 -4.27205,-20.8843 -5.47441,-7.84371 -6.08977,-6.80197 -7.42323,-2.49567 -1.37717,4.4504 -3.03898,10.5331 -1.29449,17.8417 2.58898,10.8496 4.16929,20.4709 5.53701,26.6197 0.976772,4.40197 -3.22087,13.7398 -10.0122,18.6024 -1.21536,-14.4945 -3.75355,-34.2449 -4.96536,-50.1886 8.78741,-2.54882 3.93307,-13.911 -2.51811,-26.1532 -4.98071,-9.45001 -7.19882,-5.74252 -10.6099,0.226772 -3.40985,5.9693 -0.930709,8.63505 1.82008,13.2945 -1.97244,4.16693 1.09843,9.99804 2.50276,20.5807 0.943702,7.08544 2.27953,26.8028 3.55158,43.8697 -6.81615,-0.0011811 -10.6559,-4.43268 -13.2036,-10.3654 -5.27481,-12.2681 -3.92008,-23.8229 -1.42205,-30.9484 2.50276,-7.12914 4.77166,-18.7016 0.583465,-21.561 -4.18701,-2.85827 -9.36733,0.562205 -12.7925,5.94449 -5.70237,8.96339 -11.4721,21.411 -11.9823,34.9725 -0.190158,5.01615 -1.92638,15.6626 -4.20237,19.5461 -2.2748,3.87638 -5.46024,4.39843 -9.08859,-1.42205 -5.79922,-9.31182 -7.42914,-33.0544 -7.09725,-45.1477 0.167717,-6.00945 -1.57087,-7.29449 -3.47953,-0.177165 -6.34489,23.6173 1.04173,48.9118 6.28465,59.7107 5.24292,10.7929 12.5291,8.26182 17.3835,-0.373229 7.3878,-13.128 4.38307,-25.0902 11.048,-44.3953 4.25552,-12.3366 5.30079,-3.06851 4.01575,4.27441 -3.41339,19.5319 -2.24292,51.2386 25.513,50.8111 1.56142,17.6705 6.28819,50.8075 6.5315,62.1874 0.243307,11.3917 1.88858,8.22757 4.89922,1.87559 3.00709,-6.3567 2.22166,-13.3795 1.63228,-22.604 -0.624804,-9.77009 -1.26969,-26.1981 -3.12402,-47.9906z"/>
  <path class="fil1" d="M768.252 796.951c1.31811,-2.83229 2.72599,-5.2063 1.27677,-8.5193 -1.44685,-3.30945 -1.74921,-2.18504 -2.55591,1.70315 -1.27677,6.17599 -7.07953,4.48819 -7.24016,-2.97992 -0.159449,-7.46457 -1.52717,-3.73465 -3.83268,1.49055 -3.19488,7.24016 -7.8815,5.53701 -7.8815,-0.851575 0.00236221,-5.12835 -1.87559,-9.85985 -4.2378,-3.33662 -1.44095,3.98386 -0.529134,8.97402 1.89685,12.0685 2.42599,3.09213 7.24016,3.30355 9.79607,0.638977 2.69292,-2.81103 2.72244,-3.38268 4.89922,0.425197 1.70315,2.9811 6.46772,2.39528 7.87914,-0.638977z"/>
  <path class="fil1" d="M688.674 787.224c-1.11496,-10.8827 -7.71851,-8.89253 -12.6012,-2.89252 -3.69331,4.54016 -0.772442,8.48032 4.08189,4.59567 5.68111,-4.54134 5.39646,7.66772 0.316536,21.8421 3.13465,-5.07638 9.04843,-15.3142 8.20276,-23.5453z"/>
  <path class="fil1" d="M709.404 911.88c5.1189,-1.42913 5.32205,-1.61102 5.20158,-7.20709 -0.119291,-5.60079 -3.02835,-3.2126 -9.17717,-1.30984 -9.01536,2.78386 -27.4795,11.752 -41.5347,28.6288 -5.74725,6.90237 -0.962599,3.90118 2.91851,0.897638 7.82953,-6.06142 31.1634,-17.8181 42.5918,-21.0095z"/>
  <path class="fil1" d="M671.506 984.895c1.2248,-4.41378 3.07559,-8.01497 3.00591,-11.2677 -0.0496063,-2.35866 0.305906,-5.62796 -0.514961,-10.3099 -0.673229,-3.81496 -2.92087,1.24134 -4.26378,7.46221 -2.09646,9.71812 -8.37402,14.0599 -5.88189,41.987 1.54725,17.3587 21.5658,16.0465 22.2898,-5.19331 0.20315,-5.91851 -1.91575,-7.03465 -6.76064,0.737008 -4.84843,7.76457 -13.6205,-2.65866 -7.87442,-23.4154z"/>
 </g>
 <rect class="fil2" width="2048" height="2048"/>
</svg>
