<?xml version="1.0" encoding="UTF-8"?>
<!DOCTYPE svg PUBLIC "-//W3C//DTD SVG 1.1//EN" "http://www.w3.org/Graphics/SVG/1.1/DTD/svg11.dtd">
<!-- Creator: CorelDRAW -->
<svg xmlns="http://www.w3.org/2000/svg" xml:space="preserve" width="2048px" height="2048px" style="shape-rendering:geometricPrecision; text-rendering:geometricPrecision; image-rendering:optimizeQuality; fill-rule:evenodd; clip-rule:evenodd"
viewBox="0 0 2048 2048"
 xmlns:xlink="http://www.w3.org/1999/xlink">
 <defs>
  <style type="text/css">
   <![CDATA[
    .fil4 {fill:none}
    .fil1 {fill:#0C2A8C}
    .fil2 {fill:#DC1A1C}
    .fil3 {fill:#EC1C2E}
    .fil0 {fill:#EEEEEE}
   ]]>
  </style>
 </defs>
 <g id="Layer_x0020_1">
  <metadata id="CorelCorpID_0Corel-Layer"/>
  <rect class="fil0" x="255.999" y="562.5" width="1536" height="307.667"/>
  <rect class="fil1" x="255.999" y="870.167" width="1536" height="307.667"/>
  <rect class="fil2" x="255.999" y="1177.83" width="1536" height="307.667"/>
  <path class="fil0" d="M724.032 1244.35c-41.5193,-18.4831 -78.1749,-44.4532 -107.174,-78.6119 -8.80276,-10.3654 -16.8921,-21.4736 -24.1878,-33.3402l-3.30236 -5.33032 0.0437008 -0.109843c-0.630709,-1.08071 -1.25433,-2.16851 -1.87205,-3.26221 -17.348,-30.7051 -31.4351,-71.0445 -33.1595,-106.648 -0.862205,-17.8087 -0.651969,-35.902 -0.297638,-53.726 0.434646,-21.9272 1.25906,-43.8591 2.20512,-65.7697 1.26142,-29.152 2.79095,-58.2898 4.22244,-87.4335l0.661418 -13.4599 359.208 0 0.660237 13.4599c1.42913,29.1449 2.95866,58.2815 4.22008,87.4335 0.946064,21.9106 1.77047,43.8426 2.2063,65.7697 0.35315,17.8252 0.563386,35.9185 -0.298819,53.7284 -1.72559,35.6032 -15.8126,75.9402 -33.163,106.647 -0.616536,1.09252 -1.24016,2.17914 -1.87087,3.25866l0.046063 0.111024 -3.76181 6.07323c-0.699213,1.12913 -1.40669,2.25118 -2.1189,3.36614 -4.11969,6.43701 -8.47678,12.6461 -13.0571,18.6284 -32.6894,42.6945 -76.6512,73.6548 -127.165,94.069l-5.30433 2.1437 -5.30433 -2.1437c-3.85158,-1.55669 -7.663,-3.17481 -11.4354,-4.85315z"/>
  <path class="fil3" d="M906.901 810.808c3.06142,62.393 8.41654,158.088 6.12756,205.551 -1.6748,34.4103 -24.5067,160.004 -172.257,219.716 -147.751,-59.713 -170.584,-185.306 -172.254,-219.716 -2.29016,-47.4626 3.06496,-143.158 6.12874,-205.551l332.255 0z"/>
  <path class="fil0" d="M740.773 828.799c5.73662,0 19.1327,0.19252 24.1099,-1.14803 -4.59095,14.928 -8.41536,43.2532 -8.41536,64.3075 17.2217,4.59331 58.9477,-3.82677 71.5749,-9.5693 -1.52599,14.5441 -2.6752,41.3374 2.29606,53.2063 -16.4563,-6.12638 -39.802,-9.95316 -73.8709,-9.95316 0,7.65591 0,37.5107 0,43.637 28.3217,3.4441 77.7048,-4.97717 91.4812,-9.57048 -3.4441,15.313 -3.4441,40.1929 -1.14921,52.0583 -20.6681,-8.80394 -61.6241,-11.8654 -90.332,-11.8654 0,9.18662 0,69.665 0,69.665 -4.01929,-1.72205 -9.95788,-3.63662 -15.6957,-3.63662 -5.74134,0 -11.6752,1.91457 -15.6945,3.63662 0,0 0,-60.4784 0,-69.665 -28.7079,0 -69.6662,3.06142 -90.3331,11.8654 2.29252,-11.8654 2.29252,-36.7453 -1.15158,-52.0583 13.7788,4.59331 63.163,13.0146 91.4847,9.57048 0,-6.12638 0,-35.9811 0,-43.637 -34.0701,0 -57.4217,3.82677 -73.8756,9.95316 4.97481,-11.8689 3.83032,-38.6622 2.29725,-53.2063 12.6307,5.74252 54.3496,14.1638 71.5784,9.5693 0,-21.0543 -3.83032,-49.3796 -8.42127,-64.3075 4.97717,1.34055 18.3744,1.14803 24.1169,1.14803z"/>
  <path class="fil1" d="M740.773 1236.08c68.8064,-27.8079 110.509,-69.8776 135.611,-110.395 -7.36654,-18.4288 -22.5024,-33.339 -42.9792,-33.339 -20.4791,0 -32.3445,15.1228 -39.424,24.1169 -9.76772,-29.2831 -30.6236,-50.3351 -53.2087,-50.3351 -22.5851,0 -43.4469,21.052 -53.2087,50.3351 -7.07835,-8.9941 -18.9437,-24.1169 -39.4217,-24.1169 -20.4803,0 -35.6185,14.9102 -42.9792,33.339 25.102,40.5177 66.802,82.5875 135.611,110.395z"/>
 </g>
 <rect class="fil4" width="2048" height="2048"/>
</svg>
