<?xml version="1.0" encoding="UTF-8"?>
<!DOCTYPE svg PUBLIC "-//W3C//DTD SVG 1.1//EN" "http://www.w3.org/Graphics/SVG/1.1/DTD/svg11.dtd">
<!-- Creator: CorelDRAW -->
<svg xmlns="http://www.w3.org/2000/svg" xml:space="preserve" width="2048px" height="2048px" style="shape-rendering:geometricPrecision; text-rendering:geometricPrecision; image-rendering:optimizeQuality; fill-rule:evenodd; clip-rule:evenodd"
viewBox="0 0 2048 2048"
 xmlns:xlink="http://www.w3.org/1999/xlink">
 <defs>
  <style type="text/css">
   <![CDATA[
    .fil4 {fill:none}
    .fil1 {fill:black}
    .fil2 {fill:#003478}
    .fil3 {fill:#C60C30}
    .fil0 {fill:#EEEEEE}
   ]]>
  </style>
 </defs>
 <g id="Layer_x0020_1">
  <metadata id="CorelCorpID_0Corel-Layer"/>
  <rect class="fil0" x="255.999" y="562.5" width="1536" height="923"/>
  <polygon class="fil1" points="605.868,874.664 725.331,695.464 695.464,675.553 575.999,854.75 "/>
  <polygon class="fil1" points="650.666,904.533 770.131,725.331 740.265,705.42 620.801,884.62 "/>
  <polygon class="fil1" points="695.464,934.4 814.929,755.196 785.063,735.285 665.6,914.489 "/>
  <polygon class="fil1" points="1317.69,817.419 1262.94,735.285 1233.07,755.196 1287.83,837.33 "/>
  <polygon class="fil1" points="1382.4,914.489 1327.65,832.352 1297.78,852.263 1352.54,934.4 "/>
  <path class="fil1" d="M1332.62 807.464l0 0zm94.5768 77.1568l-49.7764 -74.6693 -19.911 -29.8654 -49.7764 -74.6658 -29.8666 19.911 54.7559 82.1316 9.95316 14.9351 54.7559 82.1351 29.8654 -19.9122z"/>
  <polygon class="fil1" points="1472,854.75 1417.25,772.619 1387.38,792.531 1442.13,874.665 "/>
  <polygon class="fil1" points="1407.29,757.685 1352.54,675.553 1322.67,695.465 1377.42,777.597 "/>
  <polygon class="fil1" points="814.929,1292.8 695.464,1113.6 665.6,1133.51 785.063,1312.71 "/>
  <polygon class="fil1" points="705.421,1225.6 650.666,1143.47 620.801,1163.38 675.556,1245.51 "/>
  <polygon class="fil1" points="770.131,1322.67 715.377,1240.54 685.51,1260.45 740.265,1342.58 "/>
  <polygon class="fil1" points="670.576,1270.4 660.622,1255.47 605.867,1173.34 575.999,1193.25 695.464,1372.45 725.331,1352.54 "/>
  <polygon class="fil1" points="1262.94,1312.71 1317.69,1230.58 1287.83,1210.67 1233.07,1292.8 "/>
  <polygon class="fil1" points="1307.74,1342.58 1362.49,1260.45 1332.62,1240.54 1277.87,1322.67 "/>
  <polygon class="fil1" points="1352.54,1372.45 1407.29,1290.32 1377.42,1270.4 1322.67,1352.54 "/>
  <polygon class="fil1" points="1417.25,1275.38 1472,1193.25 1442.13,1173.34 1387.38,1255.47 "/>
  <polygon class="fil1" points="1372.45,1245.51 1427.2,1163.38 1397.33,1143.47 1342.58,1225.6 "/>
  <polygon class="fil1" points="1327.65,1215.65 1382.4,1133.51 1352.54,1113.6 1297.78,1195.74 "/>
  <path class="fil2" d="M1224.57 974.86c-11.302,-46.2969 -5.58189,-22.8461 0,0zm0.0437008 0.175984c3.82205,15.6969 5.85591,32.0929 5.85591,48.9638 0,114.046 -92.4532,206.499 -206.499,206.499 -114.046,0 -206.499,-92.4532 -206.499,-206.499 0,-0.833859 0.0212599,-1.66299 0.0318898,-2.49331 28.617,33.7748 56.7343,68.1449 113.956,68.1449 112.5,0 112.5,-132.858 225.001,-132.858 29.3906,0 51.0898,9.07796 69.1359,22.4764 -0.312992,-1.41732 -0.640158,-2.82756 -0.982678,-4.23426zm-407.111 46.402c0.0543308,-4.41733 0.0956694,-7.75749 0,0z"/>
  <path class="fil3" d="M1023.97 817.499c98.6859,0 181.188,69.2315 201.626,161.771 -18.0461,-13.3984 -39.7453,-22.4764 -69.1359,-22.4764 -112.501,0 -112.501,132.858 -225.001,132.858 -57.2221,0 -85.3394,-34.3713 -113.958,-68.1461 1.33819,-112.895 93.2564,-204.006 206.469,-204.006z"/>
 </g>
 <rect class="fil4" width="2048" height="2048"/>
</svg>
