<?xml version="1.0" encoding="UTF-8"?>
<!DOCTYPE svg PUBLIC "-//W3C//DTD SVG 1.1//EN" "http://www.w3.org/Graphics/SVG/1.1/DTD/svg11.dtd">
<!-- Creator: CorelDRAW -->
<svg xmlns="http://www.w3.org/2000/svg" xml:space="preserve" width="2048px" height="2048px" style="shape-rendering:geometricPrecision; text-rendering:geometricPrecision; image-rendering:optimizeQuality; fill-rule:evenodd; clip-rule:evenodd"
viewBox="0 0 2048 2048"
 xmlns:xlink="http://www.w3.org/1999/xlink">
 <defs>
  <style type="text/css">
   <![CDATA[
    .fil4 {fill:none}
    .fil1 {fill:#005641}
    .fil2 {fill:#8D2029}
    .fil3 {fill:#FF5B00}
    .fil0 {fill:#FFB700}
   ]]>
  </style>
 </defs>
 <g id="Layer_x0020_1">
  <metadata id="CorelCorpID_0Corel-Layer"/>
  <rect class="fil0" x="255.999" y="562.5" width="1536" height="923"/>
  <rect class="fil1" x="325.999" y="632.499" width="181.632" height="783.002"/>
  <rect class="fil2" x="759.262" y="632.499" width="962.739" height="783.002"/>
  <rect class="fil3" x="507.631" y="632.499" width="181.632" height="783.002"/>
  <g id="_233031424">
   <path id="_233032840" class="fil0" d="M1250.69 995.025l0 0zm-53.6008 -62.204l0 0zm-2.21929 -22.8284l0 0zm1.29213 -9.58702l0 0zm-22.5154 9.12638l0 0zm37.415 -36.7087l0 0zm345.796 228.019c9.07796,-19.6583 17.6327,-35.7792 26.2004,-69.0473 8.5689,-33.2575 -18.1264,-52.4162 -30.2185,-58.4646 30.724,-36.2894 21.6508,-64.0075 9.55867,-79.63 -35.2736,-37.291 -103.798,-29.2323 -119.932,-25.2012 -25.1977,10.0819 -37.2898,8.06457 -50.902,6.04843 -19.6571,-4.03111 -33.2587,-26.2099 -33.2587,-26.2099 0,0 -4.52599,7.05945 -3.52323,24.1949 -25.1882,-15.1252 -9.07796,-34.7705 -5.54056,-39.8138 -25.7044,-10.0819 -38.8099,7.55434 -39.8114,19.148 -3.52323,-16.6311 5.03268,-36.287 17.6303,-39.8103 12.6,-3.53032 29.2394,5.54056 41.3327,17.1354 -2.53465,-6.05434 1.50709,-31.2484 1.50709,-31.2484 0.00236221,0 17.126,24.6933 22.6748,30.7347 -1.51772,-6.04134 2.01732,-19.6536 5.04685,-24.6874 10.5732,14.1047 5.03268,23.1839 -0.507874,31.7528 17.6327,0.498426 26.7059,-8.5689 28.7209,-23.687 4.53898,20.152 44.3492,32.7555 51.4099,31.7457 -7.56379,-6.04016 -8.56654,-19.1492 -8.56654,-19.1492 0,0 31.2319,20.6622 56.9469,27.7158 25.6949,7.05709 36.7725,-12.0957 33.2492,-22.6736 -3.52441,-10.5886 -14.1095,-16.6335 -24.1973,-10.0819 -10.0642,6.54686 -7.55552,16.6311 -4.52599,22.6772 -7.55552,-0.505512 -37.291,-19.6536 -86.6729,-46.865 -49.3937,-27.2244 -96.254,-21.1725 -114.392,-15.124 -58.9737,24.6957 -49.3914,67.5319 -45.3615,82.1493 -20.6622,15.6225 -9.57048,45.8658 -4.02992,47.8796 1.01457,-16.1268 12.5976,-24.189 24.6898,-32.7555 9.58465,14.6114 53.9209,28.7244 90.7158,29.7296 36.7831,1.01221 64.4918,-13.6039 82.1446,-17.6351 59.4615,0.506693 56.9363,41.8311 55.9347,61.9926 -5.04331,2.51339 -25.2071,-1.51417 -51.4087,-10.0831 -26.1969,-8.56654 -102.3,8.5689 -138.574,15.6284 -31.989,6.21142 -70.2237,10.8685 -78.8386,11.8854 -2.54292,19.8969 -7.42914,26.4768 -13.4646,25.9547l-0.204331 -0.022441c-6.59646,-0.762993 -13.1835,-10.8047 -19.4776,-20.4012l-0.334252 -0.509056 -0.115748 -0.173622 -0.147638 -0.230315c0.552756,2.2689 1.16221,4.76457 1.74685,7.28977 3.62481,15.5752 -0.080315,18.7347 -6.97087,16.0016 -4.44567,-1.7504 -10.5827,-7.74449 -16.1433,-13.3087 -2.59016,-2.5878 -4.69489,-5.57835 -6.39567,-8.4756 2.52166,7.20119 15.176,22.1929 15.0992,23.7638 -0.212599,3.62953 -14.3894,1.54252 -21.8551,-4.32402 -7.94764,-6.25276 -23.2146,-33.5173 -23.2606,-33.5941 -0.786615,-1.38898 -0.292914,-3.15355 1.09252,-3.92953 1.38543,-0.777166 3.15236,-0.28937 3.94134,1.10197 0.0318898,0.0696851 14.739,26.3103 21.7949,31.8673 2.44488,1.91457 5.13426,3.20788 7.56615,4.0689 -5.08583,-6.55749 -11.7095,-17.0079 -11.7095,-27.013 0,-6.06378 0.914174,-8.49922 3.47953,-8.49922 2.27599,0 3.22087,2.11063 4.67126,5.33622 1.81417,4.04174 4.86615,10.7882 9.67442,15.6036 5.16733,5.16733 10.8295,10.715 14.1732,12.0378 0.891733,0.351969 0.944883,-1.84961 -0.797245,-9.34371 -0.922442,-4.00276 -1.67835,-7.03229 -2.28543,-9.57166 -1.63347,-6.65788 -2.54646,-10.4138 -1.88268,-12.0225 7.44331,-18.0673 27.0449,60.4229 35.0977,14.289 0.69567,-4.04646 1.16693,-11.5701 0.89882,-15.4595 -0.23504,-3.33898 -0.823229,-6.98386 -1.81181,-9.88583 -4.86378,3.52796 -9.10867,2.68819 -12.9709,-0.881103 -5.03268,-4.64882 -8.79213,-14.5146 -12.587,-24.476 -0.957875,-2.50512 -1.91457,-5.02205 -2.71654,-7.02402 -2.82402,-7.07599 -1.90276,-12.3768 -2.91378,-11.6232 -0.347244,0.258662 -0.337796,5.85591 -0.0897638,16.9276 0.214961,9.92245 -1.88268,13.7788 -5.42835,13.8614 -4.61457,0.0992127 -10.0536,-9.06851 -15.3673,-17.9941 -4.39134,-7.38898 -3.89764,-8.89135 -3.3567,-0.275197 0.654331,10.3736 -0.369685,14.2063 -3.91772,14.6339l-0.301181 0.0283465c-2.12953,0.138189 -4.14567,-1.32402 -6.94016,-3.34725 -1.21181,-0.881103 -2.61024,-1.88622 -4.03937,-2.81457 -1.73386,-1.1315 -3.06378,-2.0941 -4.18819,-2.89843 -1.47402,-1.07835 -2.47559,-1.80945 -2.54646,-1.81654 -0.90945,-0.056693 0.890552,2.04567 0.475985,7.85788 -0.552756,7.70788 -0.980316,12.2811 -1.73622,14.8347 -1.5189,5.19922 -3.73701,5.48977 -7.52008,2.98347l-0.0661418 -0.0602363c-3.58111,-2.38701 -16.6748,-18.2138 -16.7209,-18.2622 -1.01457,-1.22244 -0.84567,-3.04134 0.370866,-4.06654 1.2378,-1.01339 3.05197,-0.852757 4.07599,0.377953 0.034252,0.034252 10.5732,12.7819 14.5677,16.3973 0.462992,-2.29134 0.801969,-6.33189 1.25197,-12.6095 0.720473,-10.1303 1.54252,-13.5201 5.70591,-13.2225 1.72441,0.124016 3.27756,1.24843 5.54056,2.89843 1.1374,0.817323 2.47795,1.79646 3.94134,2.73425 11.5736,7.49056 7.2626,12.6791 6.27166,-3.30945 -0.191339,-3.12166 -0.462992,-6.10158 -0.66378,-8.50512l-0.0212599 -0.256299c-0.451181,-5.19213 -0.676772,-8.1189 1.31339,-9.33072 -0.0212599,-0.0330709 0.362599,-0.201969 0.4063,-0.217323 2.80512,-1.29921 5.05512,2.14134 9.68268,9.65079 0.979135,1.59567 2.1874,3.6189 3.38977,5.64567 4.45866,7.4941 9.02835,15.1925 10.2791,15.1701 0.046063,-0.00708662 -0.109843,-2.20984 -0.23504,-7.97599 -0.303544,-13.0701 0.245669,-20.0917 2.45433,-21.6992 3.55866,-2.63622 7.01457,2.43543 11.6965,14.1284 1.04764,2.62087 1.90158,4.87441 2.76142,7.12441 3.54567,9.32127 7.0689,18.5575 11.087,22.2768 1.65709,1.50945 3.57048,1.80354 5.92323,0.168898l-0.125197 -0.0708662c1.01575,-2.52402 -0.493701,-8.57245 -0.493701,-11.0941 0,-2.52047 -4.04055,-13.1008 -4.04055,-13.1008 0,0 4.53426,0 7.56379,-2.51693 5.09056,-4.25197 1.25079,-28.7162 -8.98347,-37.4622 -4.90985,-4.19764 -10.4587,-9.53387 -16.3606,-15.9425 -9.00709,-9.80788 -2.98347,-7.95119 -4.10788,10.0181 -0.485433,7.80001 -0.034252,20.7036 -6.19489,13.4162 -0.765355,-0.89882 -2.11536,-2.50394 -4.41378,-4.37481l-0.650788 -0.532678 0.00944883 0.973229c0,7.75512 -0.819686,11.1248 -5.01969,11.1248 -2.57953,0 -5.69764,-2.32205 -11.0906,-6.32481l-4.063 -3.00355c-4.9441,-3.61536 -4.8189,-7.35237 -5.67756,-6.17835 -0.312992,0.440552 0.429922,0.350788 0.585827,1.53425 0.250394,1.86142 0.584646,4.30985 0.584646,7.13977 0.00354331,7.4693 -1.37126,10.8106 -6.02245,10.5366 -2.7567,-0.16063 -6.52914,-2.55709 -12.3602,-6.87166 0.525591,1.21181 1.05591,2.53347 1.57323,3.94961 1.59921,4.48465 2.07402,7.6193 1.76811,9.7004 -0.269292,1.72323 -1.01221,2.94567 -2.15197,3.73701l-0.28937 0.197244c-1.21536,0.73819 -2.63622,0.874016 -4.16811,0.542126 -2.19331,-0.465355 -4.80709,-1.99961 -7.23898,-3.9874 -2.97047,-2.43662 -22.4705,-18.2079 -22.5166,-18.2433 -1.24134,-1.0063 -1.42913,-2.8252 -0.416929,-4.05945 1.00158,-1.24606 2.82756,-1.43032 4.06536,-0.425197 0.0448819,0.0377953 13.7232,11.0268 22.539,18.2398 6.07914,4.98189 4.92993,1.71732 2.96103,-3.75237 -1.66536,-4.65709 -3.64843,-8.27953 -4.86378,-10.5343 -2.5878,-4.73859 -0.618898,-9.61536 8.91733,-2.43662l1.47402 1.10079c5.99174,4.48347 9.51497,6.9756 11.0469,7.063 0.0897638,0.0129921 -0.125197,-1.4941 -0.125197,-4.7563 0,-2.5878 -0.281103,-4.74213 -0.507874,-6.39922 -0.334252,-2.53937 -0.572835,-4.26024 0.485433,-5.69292 2.16142,-2.96575 5.31496,-1.23898 13.7681,4.93111l4.07953 3.02835c4.40079,3.27166 6.95788,5.17441 7.6441,5.17441 0.641339,0 -0.788977,-1.61929 -0.788977,-5.33386 0,-3.80433 -0.303544,-6.05434 -0.461811,-7.19764 -0.26811,-2.01614 -0.383859,-3.01181 1.52244,-3.97205l0.257481 -0.115748c1.95945,-0.892914 2.61142,-0.0578741 3.87284,1.4941 0.698032,0.858662 2.14016,2.61614 4.90748,4.86378l0.969686 0.825591c0.0236221,-1.59803 0.0767717,-3.49725 0.214961,-5.72126 0.281103,-4.32166 0.199606,-8.01851 0.145276,-10.9252 -0.101575,-4.69489 -0.158268,-7.75512 1.5874,-9.3567 2.62323,-2.41418 5.91024,-0.380315 12.4087,6.68504 5.75197,6.24331 11.1343,11.4201 15.8516,15.4689 3.80433,3.24095 6.89174,6.7252 12.2847,5.05985 5.05512,-13.1079 -0.498426,-28.7303 -12.0827,-42.339 16.1232,-4.02756 27.202,-31.7457 20.6622,-34.2709 -7.05945,16.1303 -30.7382,10.5898 -40.826,13.1079 0.506693,-12.6 -28.226,-37.2957 -28.226,-37.2957l0 14.113c0,14.1118 -7.05001,21.6638 -12.0933,18.6473 -5.03386,-14.6138 -20.1555,-20.1603 -31.7398,-20.1603 6.04843,16.6299 -6.04607,30.2362 -16.1339,30.2362 -12.587,-30.2362 -38.7981,-15.1193 -46.3536,-7.05945 6.04489,-0.498426 24.6803,4.54134 26.7059,14.1201 -9.57993,-1.0063 -72.0567,15.6225 -72.0567,15.6225 0,0 6.04607,-8.05867 3.52205,-13.102 -2.5311,-5.03977 -25.1965,-9.07442 -28.226,3.02481 -3.01536,12.0898 5.03268,22.1717 15.6284,32.7555 10.5744,10.5827 14.6162,7.05945 14.6162,7.05945l10.0748 -7.56733c14.1095,32.7673 33.7536,25.7091 33.7536,25.7091 0,0 0.507874,-6.55276 0,-19.6536 1.52244,6.54686 11.1036,13.6051 20.1673,23.6835 9.07442,10.0831 19.1398,14.1095 21.6603,23.1792 2.53465,9.07796 0.507874,18.6555 -3.00591,17.6433 -16.6406,-14.6114 -49.9004,-3.01536 -49.9004,-3.01536 0,0 -2.0126,-7.05945 -1.50945,-15.6319 -7.56379,4.53426 -18.137,5.55 -31.2402,4.03583 -13.1055,-1.51181 -20.165,-5.54528 -26.7083,-7.56615 5.54056,6.05434 6.54331,34.2768 6.54331,34.2768 0,0 -25.7044,16.1339 -8.06103,18.1441 17.628,2.01732 31.2402,-18.6484 31.2402,-18.6484 0,0 0,15.6272 -2.00315,30.2433 15.6059,-7.56379 15.1122,-33.2658 15.1122,-33.2658 0,0 0,-0.506693 7.55316,0 -4.53898,8.57009 0,26.7107 11.0917,32.2536 -2.52166,-23.6835 12.0898,-30.7441 12.0898,-30.7441 0.00236221,0 0,6.04843 -4.04174,22.1788 14.6268,2.51693 16.6417,-17.1354 22.6855,-14.6173 6.04843,2.52047 6.55512,12.6 3.02953,28.7303 -59.4685,20.6587 -79.6347,52.9122 -86.6824,78.6201 -12.0933,56.4485 55.9347,100.808 71.0575,106.857 -4.52717,-17.1484 -2.52166,-76.1127 -2.52166,-76.1127 0,0 3.53268,13.1043 3.02717,27.2244 -0.505512,14.1059 4.53662,41.8276 8.07166,52.9158 3.51496,11.0894 7.04764,26.7071 7.04764,56.4426 -0.505512,29.7355 -31.2425,23.6906 -47.8737,25.7044 -16.6276,2.02559 -20.152,24.6933 -17.1354,36.3 20.1543,1.49764 32.2477,-18.1618 32.2477,-18.1618 0,0 -8.05276,13.1067 -8.56064,17.654 25.6973,0.507874 31.741,-14.6268 37.2815,-21.1654 -1.50945,7.04646 -10.5732,22.6748 -10.5732,22.6748 0.00236221,0 41.8276,-1.00158 71.5642,-1.00158 12.587,-4.04292 13.5992,-22.6878 9.06261,-27.7217 -4.52481,-5.04213 -14.1095,-21.6827 1.01221,-24.2043 15.1217,-2.51221 27.7217,-18.1406 28.7233,-30.7382 -26.7189,-1.01457 -49.3819,15.1217 -49.3819,15.1217 0,-0.00236221 13.1043,-24.7016 16.1114,-45.8717 43.8544,-43.8426 48.8882,-73.5863 61.4835,-103.313 0,26.1992 -27.717,74.0859 -39.8103,87.6969 -12.0921,13.6122 -14.1071,20.6622 -15.6165,26.2122 57.4548,-2.53347 134.556,-54.4382 169.324,-76.6194 34.7681,-22.1788 73.0737,-7.05709 75.1005,2.01614 2.00079,9.0756 7.54134,12.6012 31.2331,32.2583 25.6914,18.6449 26.7036,36.3012 26.7036,36.3012 0,-0.00472441 -0.505512,36.7807 0,51.9024 0.506693,15.1193 -9.07324,22.1799 -16.1209,17.1366 -7.05945,-5.04685 -17.139,-8.06339 -26.7189,-7.55552 -30.2303,2.50866 -30.2303,45.3532 -30.2303,45.3532 0,0 16.1232,0.50315 18.6437,-5.54056 2.53465,-6.04607 10.5839,-10.089 10.5839,-10.089 0.00236221,0 -6.55276,8.5689 -7.06064,16.6406 24.1996,2.01614 25.7173,-4.54843 34.7823,-17.6421 1.00158,6.0567 -7.05945,18.6567 -7.05945,18.6567 0,0 5.55,0 32.7638,1.00158 4.03111,-4.02992 2.00433,-14.6138 2.00433,-14.6138 0,0 2.52166,5.03032 28.7303,8.55709 26.2028,3.53268 24.6933,-15.111 19.1433,-30.2303 -5.54056,-15.1217 -0.498426,-23.7 7.56379,-29.2406 -12.5965,-4.52599 -19.6571,-16.6181 -13.6004,-17.6327 31.2461,0.506693 39.3048,-17.6433 41.3221,-25.1988 -8.07166,5.04685 -25.1965,2.00551 -37.291,-6.0567 -21.6732,-18.1382 -6.0567,-58.963 3.01654,-78.6213zm-387.019 -119.513c0.720473,5.7189 1.27441,10.2165 -0.022441,12.4854 -2.65512,4.64646 -6.39213,2.75551 -10.9311,-3.24922 -2.93977,-3.89528 -6.62245,-10.0441 -10.7303,-17.1343 -0.360236,-0.63189 1.59921,12.0284 1.60866,12.0662 0.239764,1.57441 -0.832678,3.05197 -2.40827,3.29528 -1.58622,0.237402 -3.05197,-0.837402 -3.29764,-2.41418 -0.022441,-0.120473 -6.62363,-43.0949 9.1193,-15.8291 3.94134,6.85512 7.50945,12.7819 10.337,16.5319 1.2248,1.63701 0.766536,4.75158 1.26969,3.86221 0.337796,-0.597638 -0.112205,-4.25788 -0.69567,-8.90788 -1.08189,-8.75079 -2.54646,-20.5347 1.10197,-28.9063 0.643701,-1.46457 2.34213,-2.13425 3.8067,-1.49764 1.46457,0.638977 2.12953,2.34449 1.48347,3.80551 -2.9941,6.8941 -1.64291,17.8016 -0.641339,25.8921zm-43.7303 -142.569l0 0zm47.2666 32.4201c-0.943702,0.51378 -2.19567,0.746457 -3.67914,0.672048 -3.5941,-0.180709 -9.763,-2.34213 -17.4201,-7.44804 -14.4898,-9.66142 -29.6008,-20.9977 -29.6469,-21.0295 -1.28268,-0.96378 -1.52717,-2.77677 -0.561024,-4.05237 0.967324,-1.27441 2.78032,-1.52953 4.04055,-0.562205 0.0484252,0.034252 14.9067,11.1673 29.3882,20.8217 5.41536,3.61654 9.75001,5.53465 12.6662,6.21142 -3.07205,-3.58583 -6.72048,-10.3961 -7.9819,-15.0425 -0.429922,-1.59921 -0.62126,-3.06733 -0.461811,-4.26378 0.279921,-2.22756 1.44213,-3.64134 3.70512,-3.88111 1.41614,-0.157087 3.24213,0.415748 5.50512,1.97126 1.41732,0.968505 2.74843,1.90984 4.06181,2.83819 8.09764,5.69646 15.3815,10.8224 26.2004,11.6882 3.73701,0.302362 5.19331,0.99567 5.14489,0.774804 -0.357874,-1.41614 -3.12756,-4.12323 -6.25867,-7.02048 -2.47559,-2.28543 -4.13268,-4.52835 -4.73859,-6.47008 -0.507874,-1.63937 -0.362599,-3.15709 0.493701,-4.47166 0.775985,-1.19646 2.06103,-2.0315 3.87402,-2.42835 2.63386,-0.571654 6.95788,-0.21378 13.252,1.46811 7.79056,2.07047 15.2776,2.83937 20.9646,2.37992 4.66063,-0.38504 7.80119,-1.41969 8.25001,-3.02481 0.4063,-1.54488 2.00551,-2.44488 3.5374,-2.02559 1.54134,0.416929 2.44488,2.00079 2.02677,3.53859 -1.14921,4.25079 -6.21497,6.69686 -13.363,7.28977 -6.28583,0.510237 -14.4579,-0.318898 -22.8815,-2.56654 -5.24646,-1.39843 -8.61024,-1.77756 -10.448,-1.42323 0.440552,0.905906 1.46457,2.09646 2.95158,3.46654 3.81733,3.54213 7.22835,7.00512 7.96064,9.88702 1.11378,4.51181 -1.55551,7.17048 -11.2252,6.40158 -12.3862,-0.990946 -20.2878,-6.55158 -29.0717,-12.7358 -1.25197,-0.884646 -2.53465,-1.78819 -3.81733,-2.66693 1.23898,4.30394 4.67244,10.5626 7.26024,13.1504 1.65709,1.6441 2.45788,3.27166 2.51339,4.70433 0.0661418,1.71732 -0.709843,3.03189 -2.24173,3.84922zm-40.0028 1.99016c-1.27323,1.72677 -3.00591,2.97638 -4.92993,3.59174 -5.47441,1.74213 -15.5717,-5.82166 -15.0106,-18.1158 0.18189,-3.80315 0.992127,-6.6189 2.25355,-8.47323 1.11378,-1.66299 2.5878,-2.64331 4.29922,-2.96811 1.61221,-0.301181 3.31181,0.0129921 5.02323,0.920079 2.49803,1.32284 5.20276,4.05118 7.71024,8.03859 2.46732,3.9 3.25512,7.68544 2.93977,10.9122 -0.236221,2.37047 -1.0689,4.45748 -2.28543,6.09449z"/>
   <path id="_233032360" class="fil0" d="M1137.58 929.99c0,-11.0906 -14.1071,-23.1862 -19.6477,-26.2075 -5.53583,-3.02362 -8.56536,-0.505512 -10.0878,1.00394 -13.5992,5.04331 -79.6217,-6.04843 -79.6217,-6.04371 10.0748,28.2225 45.3508,19.65 57.9485,16.1256 9.58347,-3.02835 8.5689,8.06221 8.5689,15.1217 5.54056,-4.02992 38.8099,-1.51181 42.8398,0z"/>
   <path id="_233031616" class="fil0" d="M963.668 1031.16c-9.38977,-170.628 28.9347,-277.043 28.9347,-277.043 -78.3757,25.9689 -67.8012,276.298 -67.8012,276.298 0,0 14.5913,8.57481 38.8666,0.745276z"/>
   <path id="_233031640" class="fil0" d="M981.411 1104.83l0 0zm82.9347 37.187c-7.44331,-4.0878 -18.6,-18.9614 -29.015,-45.3603 -10.4138,-30.4925 -24.9154,-42.0272 -34.9595,-43.5118 -10.0311,-1.48347 -19.3311,7.06064 -14.1284,11.8961 5.20158,4.84016 1.85669,5.58189 1.11378,6.69922 -5.21221,0.370866 -6.31654,5.94213 -2.22874,9.29883 4.08544,3.34252 3.34488,4.4563 1.11496,4.82953 -2.23229,0.370866 -8.17323,1.85788 -2.23229,7.0689 5.94685,5.20276 -2.59725,11.8925 -2.59961,11.8925 -3.34134,5.20158 2.22992,2.24055 9.66024,14.5122 7.44331,12.261 3.3567,21.5717 -4.07599,30.1181 -7.44213,8.5441 -0.752363,8.17323 11.1484,12.6319 11.9008,4.47166 11.1449,-1.85788 11.5181,-8.91733 0.382677,-7.05827 2.98347,-5.57245 6.69804,-1.11378 3.72638,4.45866 13.7693,23.4284 34.9713,35.3315 21.189,11.8878 31.6051,-3.34607 31.6028,-14.1307 0,-10.787 -11.1543,-27.1453 -18.5882,-31.2449z"/>
   <path id="_233032048" class="fil0" d="M941.183 1050.2c13.9961,0.121654 65.2678,-4.00276 55.6418,-28.7622 -2.49921,-6.41221 -9.26457,-10.3382 -18.1819,-7.12678 -6.35197,2.2748 -5.10119,8.53701 -3.93307,11.824 0.881103,2.43543 1.52244,1.73032 -0.605906,3.58111 -12.4311,10.8378 -48.9544,10.6642 -60.6296,-0.506693 -1.29567,-1.23307 -1.00276,-0.714567 -0.383859,-2.24764 1.21654,-2.93622 3.32362,-10.161 -3.60236,-12.6508 -8.90434,-3.20433 -15.678,0.714567 -18.176,7.12678 -8.9941,23.1319 35.8855,28.6288 49.8709,28.7622z"/>
   <path id="_233031472" class="fil0" d="M977.788 1064.99c3.78071,-1.29213 5.79567,-5.40237 4.50237,-9.18544 -1.29567,-3.78071 -5.42953,-5.79567 -9.21024,-4.49646 -9.00709,3.09921 -18.2977,4.74922 -27.8788,4.7941 -9.67087,0.0437008 -19.7811,-1.52953 -30.3414,-4.86024 -3.81733,-1.18819 -7.87678,0.944883 -9.06497,4.76103 -1.18701,3.81378 0.944883,7.87323 4.76221,9.05788 11.9232,3.74764 23.4874,5.52756 34.7008,5.48268 11.3055,-0.056693 22.1339,-1.95945 32.5299,-5.55355z"/>
   <path id="_233031568" class="fil0" d="M976.118 1083.48c3.763,-1.36299 5.69764,-5.49331 4.33701,-9.25513 -1.36181,-3.75 -5.50512,-5.68465 -9.25513,-4.32166 -8.40946,3.06024 -17.0811,4.69489 -26.0646,4.73977 -9.06497,0.0437008 -18.5114,-1.50945 -28.3642,-4.80945 -3.7689,-1.26142 -7.86733,0.778347 -9.13111,4.56024 -1.27323,3.78189 0.766536,7.88268 4.55197,9.1441 11.3717,3.79134 22.3689,5.58189 33,5.53701 10.7303,-0.0543308 21.0201,-1.98189 30.926,-5.59489z"/>
   <path id="_233031664" class="fil0" d="M974.488 1101.97c3.72638,-1.44095 5.57126,-5.61969 4.13268,-9.34371 -1.44331,-3.72756 -5.61969,-5.57599 -9.33544,-4.14567 -7.813,3.04134 -15.874,4.64882 -24.2079,4.69489 -8.40946,0.0437008 -17.1921,-1.49764 -26.4,-4.76221 -3.77362,-1.34055 -7.89331,0.641339 -9.22442,4.40433 -1.32756,3.77008 0.654331,7.90276 4.41378,9.22914 10.7433,3.80788 21.1583,5.60906 31.2685,5.57599 10.1764,-0.0696851 19.963,-2.00433 29.3528,-5.65276z"/>
   <path id="_233031808" class="fil0" d="M920.592 1107l0 0zm52.2733 13.4327c3.69331,-1.53071 5.43898,-5.74961 3.90709,-9.44646 -1.53189,-3.69331 -5.76378,-5.43544 -9.44646,-3.89292 -7.21654,2.98347 -14.6469,4.56969 -22.3252,4.61457 -7.75867,0.0578741 -15.887,-1.48465 -24.4087,-4.70788 -3.72874,-1.40788 -7.90512,0.485433 -9.313,4.213 -1.40669,3.73819 0.485433,7.90158 4.22244,9.30946 10.1551,3.86221 20.0067,5.6752 29.5524,5.62087 9.6756,-0.0578741 18.9272,-2.01732 27.8114,-5.71063z"/>
   <path id="_233031688" class="fil0" d="M982.866 1144.77c5.12244,-6.41812 4.01811,-17.113 -3.67087,-19.9595 -7.67835,-2.86299 -13.8957,3.2067 -14.6256,6.05434 -0.732284,2.85 -4.76339,9.61654 -7.3193,2.85 -2.56654,-6.77953 -13.1847,-6.4063 -13.1847,-6.4063 0,0 -10.6051,-0.373229 -13.1752,6.4063 -2.54292,6.76654 -6.58347,0 -7.30394,-2.85 -0.734646,-2.84764 -6.94961,-8.91733 -14.6362,-6.05434 -7.68308,2.84646 -8.78387,13.5413 -3.6626,19.9595 5.12363,6.41812 21.5847,7.84843 28.3642,4.62756 0.178347,0 -10.0654,12.8374 -2.01614,28.3418 -0.362599,-0.183071 1.8248,9.0945 -10.976,11.9457 -0.360236,0.356693 -4.02284,0.356693 -1.47874,-6.05788 2.57008,-6.41812 1.47874,-14.6138 -5.10945,-15.6862 -6.58701,-1.07953 -12.8067,3.19843 -17.9291,11.0457 -5.12363,7.84725 -1.46339,21.3933 17.1992,21.7406 18.6543,0.360236 24.137,0 24.137,0l-0.361418 7.67008c-0.360236,-0.530315 -8.04804,-1.59921 -12.4264,5.16615 -4.39134,6.76654 0,10.337 6.19961,10.337 6.22678,0 7.33111,0.357874 7.33111,0.357874 0,0 -2.56536,14.2665 5.8441,14.9752 8.42245,-0.708662 5.86654,-14.9752 5.86654,-14.9752 0,0 1.09134,-0.357874 7.31812,-0.357874 6.21378,0 10.6169,-3.57048 6.21378,-10.337 -4.39134,-6.76536 -12.0697,-5.69646 -12.4406,-5.16615l-0.369685 -7.67008c0,0 5.50394,0.360236 24.1595,0 18.6567,-0.347244 22.3146,-13.8933 17.1933,-21.7406 -5.12244,-7.84725 -11.3492,-12.1252 -17.9374,-11.0457 -6.58347,1.0689 -7.67835,9.26812 -5.12126,15.6862 2.5689,6.41457 -1.08071,6.41457 -1.46221,6.05788 -12.7913,-2.85118 -10.6099,-12.1287 -10.9665,-11.9457 8.0504,-15.5043 -2.20866,-28.3418 -2.01614,-28.3418 6.77835,3.22087 23.237,1.79055 28.363,-4.62756z"/>
   <path id="_233031160" class="fil0" d="M1427.78 1195.18c9.60355,-18.7689 15.7193,-53.6811 14.4142,-62.8359 -10.0441,-35.7827 -46.702,-23.5642 -61.5331,-20.5016 -28.3607,10.0181 -43.1989,23.1142 -44.5075,40.1374 -1.31693,17.0138 26.6173,36.6473 34.904,50.1804 8.2878,13.5225 -5.24764,58.8969 -5.24764,58.8969 -1.73386,2.18622 -5.23347,2.18268 -23.9906,-3.91654 -18.7689,-6.11457 -31.4233,12.215 -35.7839,32.2796 15.2681,0 35.3433,-19.6382 37.9666,-23.9941 2.61142,-4.3689 2.18622,3.4878 2.18622,3.4878l-15.2681 20.0776 18.7571 0.42874c0,0 1.74449,-3.49134 8.28544,-11.778 6.54213,-8.28662 9.60591,-9.16536 6.98268,-4.36772 -2.61378,4.80709 -7.40788,16.1457 -7.41142,16.1457 0,0 38.3953,0 55.4174,-0.868111 14.3917,-17.0102 20.0669,-70.2461 20.0669,-70.2461 0,0 17.4602,-9.60355 24.4406,-17.4614 6.98386,-7.84725 7.42087,-13.95 1.74449,-13.95 -5.67284,0 -14.3988,2.17087 -19.6335,5.66221 -5.23819,3.49134 -10.4799,7.41969 -11.7898,2.62323z"/>
   <path id="_233031112" class="fil0" d="M1119.22 858.899l0 0zm10.6854 7.60749c0.214961,-2.04921 -0.360236,-4.54961 -2.07166,-7.26733 -1.95591,-3.10158 -3.87166,-5.12717 -5.52756,-5.99528 -0.530315,-0.288189 -0.967324,-0.408662 -1.24843,-0.355512 -0.168898,0.0354331 -0.360236,0.204331 -0.587008,0.529134 -0.673229,1.01339 -1.12677,2.81575 -1.24725,5.4815 -0.4063,8.93268 4.29922,11.7638 5.15433,12.2043l0.0437008 0.0153543 0.0354331 0.0236221c0.775985,0.314173 1.55433,0.33189 2.24055,0.109843 0.766536,-0.23504 1.47402,-0.768898 2.03622,-1.52244 0.622441,-0.83504 1.05,-1.93583 1.17165,-3.22323z"/>
  </g>
  <g id="_233030632">
   <g>
    <path id="_233030872" class="fil0" d="M1674.43 715.078c6.94134,-5.56182 11.9776,-15.9638 8.82402,-24.7843 -2.82284,-7.93111 -10.5945,-12.274 -10.4528,-12.3378 0.151181,-0.0519685 15.0709,-13.761 15.9839,-16.5012 0.910631,-2.73898 -1.2189,-4.25906 -5.17914,-0.301181 -3.96142,3.95906 -11.5665,12.4843 -15.939,11.7614 -11.6705,-10.0287 -36.2374,-1.72559 -39.3685,17.6268 -3.13229,19.3559 -0.523229,46.9666 -0.523229,46.9666 0,0 2.08465,-8.87481 16.6996,-13.0429 10.8331,-3.09921 21.6697,-2.74725 29.9551,-9.38741z"/>
    <path id="_233030776" class="fil0" d="M1683.25 1357.71c3.15355,-8.82402 -1.88268,-19.2319 -8.82402,-24.7925 -8.28544,-6.64252 -19.1221,-6.29056 -29.9551,-9.38505 -14.615,-4.16811 -16.6996,-13.0453 -16.6996,-13.0453 0,0 -2.60906,27.6177 0.523229,46.9701 3.1311,19.3453 27.6981,27.6603 39.3685,17.6268 4.37244,-0.726379 11.9776,7.80709 15.939,11.7602 3.96024,3.96024 6.08977,2.43543 5.17914,-0.298819 -0.912993,-2.74252 -15.8327,-16.4445 -15.9839,-16.5059 -0.141732,-0.0602363 7.62993,-4.40788 10.4528,-12.3295z"/>
   </g>
   <g>
    <path id="_233031208" class="fil0" d="M853.495 753.508c0,0 2.60551,-27.6107 -0.525591,-46.9666 -3.12992,-19.3524 -27.7004,-27.6555 -39.3662,-17.6268 -4.37244,0.722835 -11.9847,-7.80237 -15.9449,-11.7614 -3.95433,-3.95788 -6.08504,-2.4378 -5.17441,0.301181 0.912993,2.74016 15.8351,16.4492 15.9803,16.5012 0.146457,0.0637796 -7.6252,4.4067 -10.4563,12.3378 -3.15236,8.82048 1.89095,19.2225 8.83583,24.7843 8.27599,6.64016 19.1114,6.28819 29.9481,9.38741 14.615,4.16811 16.7032,13.0429 16.7032,13.0429z"/>
    <path id="_233031328" class="fil0" d="M852.969 1357.46c3.1311,-19.3524 0.525591,-46.9701 0.525591,-46.9701 0,0 -2.08819,8.87717 -16.7032,13.0453 -10.8366,3.09449 -21.6721,2.74252 -29.9481,9.38505 -6.94489,5.56063 -11.9882,15.9685 -8.83583,24.7925 2.8311,7.92166 10.6028,12.2693 10.4563,12.3295 -0.145276,0.0614174 -15.0673,13.7634 -15.9803,16.5059 -0.910631,2.73425 1.22008,4.25906 5.17441,0.298819 3.96024,-3.95315 11.5724,-12.4866 15.9449,-11.7602 11.6658,10.0335 36.2362,1.71851 39.3662,-17.6268z"/>
   </g>
  </g>
 </g>
 <rect class="fil4" width="2048" height="2048"/>
</svg>
