<?xml version="1.0" encoding="UTF-8"?>
<!DOCTYPE svg PUBLIC "-//W3C//DTD SVG 1.1//EN" "http://www.w3.org/Graphics/SVG/1.1/DTD/svg11.dtd">
<!-- Creator: CorelDRAW -->
<svg xmlns="http://www.w3.org/2000/svg" xml:space="preserve" width="2048px" height="2048px" style="shape-rendering:geometricPrecision; text-rendering:geometricPrecision; image-rendering:optimizeQuality; fill-rule:evenodd; clip-rule:evenodd"
viewBox="0 0 2048 2048"
 xmlns:xlink="http://www.w3.org/1999/xlink">
 <defs>
  <style type="text/css">
   <![CDATA[
    .fil2 {fill:none}
    .fil0 {fill:#DE1018}
    .fil1 {fill:#FAFAFA}
   ]]>
  </style>
 </defs>
 <g id="Layer_x0020_1">
  <metadata id="CorelCorpID_0Corel-Layer"/>
  <rect class="fil0" x="255.999" y="562.5" width="1536" height="923"/>
  <polygon class="fil1" points="1368.75,1122.12 1368.75,925.875 1368.75,909.875 1352.75,909.875 1138.13,909.875 1138.13,695.249 1138.13,679.249 1122.12,679.249 925.875,679.249 909.875,679.249 909.875,695.249 909.875,909.875 695.249,909.875 679.249,909.875 679.249,925.875 679.249,1122.12 679.249,1138.13 695.249,1138.13 909.875,1138.13 909.875,1352.75 909.875,1368.75 925.875,1368.75 1122.12,1368.75 1138.13,1368.75 1138.13,1352.75 1138.13,1138.13 1352.75,1138.13 1368.75,1138.13 "/>
 </g>
 <rect class="fil2" width="2048" height="2048"/>
</svg>
