<?xml version="1.0" encoding="UTF-8"?>
<!DOCTYPE svg PUBLIC "-//W3C//DTD SVG 1.1//EN" "http://www.w3.org/Graphics/SVG/1.1/DTD/svg11.dtd">
<!-- Creator: CorelDRAW -->
<svg xmlns="http://www.w3.org/2000/svg" xml:space="preserve" width="2048px" height="2048px" style="shape-rendering:geometricPrecision; text-rendering:geometricPrecision; image-rendering:optimizeQuality; fill-rule:evenodd; clip-rule:evenodd"
viewBox="0 0 2048 2048"
 xmlns:xlink="http://www.w3.org/1999/xlink">
 <defs>
  <style type="text/css">
   <![CDATA[
    .fil4 {fill:none}
    .fil2 {fill:#212F64}
    .fil1 {fill:#BE2033}
    .fil0 {fill:#EEEEEE}
    .fil3 {fill:white}
   ]]>
  </style>
 </defs>
 <g id="Layer_x0020_1">
  <metadata id="CorelCorpID_0Corel-Layer"/>
  <g id="_233009080">
   <rect id="_233013736" class="fil0" x="255.999" y="562.499" width="1536" height="923"/>
   <polygon id="_233013136" class="fil1" points="1792,633.493 871.112,633.493 871.112,562.499 1792,562.499 "/>
   <polygon id="_233013616" class="fil1" points="1792,773.049 871.112,773.049 871.112,702.054 1792,702.054 "/>
   <polygon id="_233013544" class="fil1" points="1792,913.009 871.112,913.009 871.112,842.012 1792,842.012 "/>
   <polygon id="_233013640" class="fil1" points="1792,1050.53 871.112,1050.53 871.112,979.535 1792,979.535 "/>
   <polygon id="_233012896" class="fil1" points="1792,1188.05 255.999,1188.05 255.999,1117.05 1792,1117.05 "/>
   <polygon id="_233012272" class="fil1" points="1792,1335.31 255.999,1335.31 255.999,1264.32 1792,1264.32 "/>
   <polygon id="_233012728" class="fil1" points="1792,1485.5 255.999,1485.5 255.999,1414.51 1792,1414.51 "/>
   <polygon id="_233012464" class="fil2" points="961.805,1050.54 255.999,1050.54 255.999,562.499 961.805,562.499 "/>
   <polygon id="_233012416" class="fil3" points="287.954,603.814 308.507,603.814 316.038,582.241 324.381,603.814 344.736,603.814 329.266,617.958 334.966,639.429 316.344,627.421 298.944,639.429 304.029,617.958 "/>
   <polygon id="_233012584" class="fil3" points="403.552,603.814 424.108,603.814 431.637,582.241 439.982,603.814 460.334,603.814 444.867,617.958 450.566,639.429 431.942,627.421 414.541,639.429 419.628,617.958 "/>
   <polygon id="_233012512" class="fil3" points="523.22,603.814 543.778,603.814 551.307,582.241 559.65,603.814 580.003,603.814 564.535,617.958 570.233,639.429 551.612,627.421 534.211,639.429 539.3,617.958 "/>
   <polygon id="_233012680" class="fil3" points="638.821,603.814 659.377,603.814 666.905,582.241 675.251,603.814 695.599,603.814 680.136,617.958 685.83,639.429 667.21,627.421 649.81,639.429 654.899,617.958 "/>
   <polygon id="_233012824" class="fil3" points="755.234,603.814 775.79,603.814 783.322,582.241 791.664,603.814 812.02,603.814 796.549,617.958 802.248,639.429 783.627,627.421 766.225,639.429 771.31,617.958 "/>
   <polygon id="_233012488" class="fil3" points="874.09,603.814 894.642,603.814 902.173,582.241 910.518,603.814 930.872,603.814 915.401,617.958 921.103,639.429 902.479,627.421 885.081,639.429 890.166,617.958 "/>
   <polygon id="_233011528" class="fil3" points="345.751,655.304 366.305,655.304 373.837,633.73 382.179,655.304 402.534,655.304 387.065,669.448 392.765,690.921 374.142,678.914 356.74,690.921 361.827,669.448 "/>
   <polygon id="_233011840" class="fil3" points="461.353,655.304 481.905,655.304 489.437,633.73 497.78,655.304 518.133,655.304 502.665,669.448 508.365,690.921 489.743,678.914 472.342,690.921 477.428,669.448 "/>
   <polygon id="_233012056" class="fil3" points="581.021,655.304 601.576,655.304 609.108,633.73 617.45,655.304 637.804,655.304 622.334,669.448 628.034,690.921 609.411,678.914 592.011,690.921 597.096,669.448 "/>
   <polygon id="_233011792" class="fil3" points="696.619,655.304 717.175,655.304 724.707,633.73 733.048,655.304 753.401,655.304 737.934,669.448 743.632,690.921 725.012,678.914 707.61,690.921 712.7,669.448 "/>
   <polygon id="_233011624" class="fil3" points="813.036,655.304 833.587,655.304 841.119,633.73 849.461,655.304 869.814,655.304 854.348,669.448 860.046,690.921 841.425,678.914 824.023,690.921 829.112,669.448 "/>
   <polygon id="_233011888" class="fil3" points="287.954,700.69 308.507,700.69 316.038,679.114 324.381,700.69 344.736,700.69 329.266,714.833 334.966,736.303 316.344,724.296 298.944,736.303 304.029,714.833 "/>
   <polygon id="_233011720" class="fil3" points="403.552,700.69 424.108,700.69 431.637,679.114 439.982,700.69 460.334,700.69 444.867,714.833 450.566,736.303 431.942,724.296 414.541,736.303 419.628,714.833 "/>
   <polygon id="_233011648" class="fil3" points="523.22,700.69 543.778,700.69 551.307,679.114 559.65,700.69 580.003,700.69 564.535,714.833 570.233,736.303 551.612,724.296 534.211,736.303 539.3,714.833 "/>
   <polygon id="_233011480" class="fil3" points="638.821,700.69 659.377,700.69 666.905,679.114 675.251,700.69 695.599,700.69 680.136,714.833 685.83,736.303 667.21,724.296 649.81,736.303 654.899,714.833 "/>
   <polygon id="_233012128" class="fil3" points="755.234,700.69 775.79,700.69 783.322,679.114 791.664,700.69 812.02,700.69 796.549,714.833 802.248,736.303 783.627,724.296 766.225,736.303 771.31,714.833 "/>
   <polygon id="_233012104" class="fil3" points="874.09,700.69 894.642,700.69 902.173,679.114 910.518,700.69 930.872,700.69 915.401,714.833 921.103,736.303 902.479,724.296 885.081,736.303 890.166,714.833 "/>
   <polygon id="_233011096" class="fil3" points="345.751,752.18 366.305,752.18 373.837,730.606 382.179,752.18 402.534,752.18 387.065,766.323 392.765,787.794 374.142,775.788 356.74,787.794 361.827,766.323 "/>
   <polygon id="_233010712" class="fil3" points="461.353,752.18 481.905,752.18 489.437,730.606 497.78,752.18 518.133,752.18 502.665,766.323 508.365,787.794 489.743,775.788 472.342,787.794 477.428,766.323 "/>
   <polygon id="_233010904" class="fil3" points="581.021,752.18 601.576,752.18 609.108,730.606 617.45,752.18 637.804,752.18 622.334,766.323 628.034,787.794 609.411,775.788 592.011,787.794 597.096,766.323 "/>
   <polygon id="_233010736" class="fil3" points="696.619,752.18 717.175,752.18 724.707,730.606 733.048,752.18 753.401,752.18 737.934,766.323 743.632,787.794 725.012,775.788 707.61,787.794 712.7,766.323 "/>
   <polygon id="_233011264" class="fil3" points="813.036,752.18 833.587,752.18 841.119,730.606 849.461,752.18 869.814,752.18 854.348,766.323 860.046,787.794 841.425,775.788 824.023,787.794 829.112,766.323 "/>
   <polygon id="_233011456" class="fil3" points="287.954,799.194 308.507,799.194 316.038,777.619 324.381,799.194 344.736,799.194 329.266,813.337 334.966,834.807 316.344,822.8 298.944,834.807 304.029,813.337 "/>
   <polygon id="_233011312" class="fil3" points="403.552,799.194 424.108,799.194 431.637,777.619 439.982,799.194 460.334,799.194 444.867,813.337 450.566,834.807 431.942,822.8 414.541,834.807 419.628,813.337 "/>
   <polygon id="_233011408" class="fil3" points="523.22,799.194 543.778,799.194 551.307,777.619 559.65,799.194 580.003,799.194 564.535,813.337 570.233,834.807 551.612,822.8 534.211,834.807 539.3,813.337 "/>
   <polygon id="_233011144" class="fil3" points="638.821,799.194 659.377,799.194 666.905,777.619 675.251,799.194 695.599,799.194 680.136,813.337 685.83,834.807 667.21,822.8 649.81,834.807 654.899,813.337 "/>
   <polygon id="_233011048" class="fil3" points="755.234,799.194 775.79,799.194 783.322,777.619 791.664,799.194 812.02,799.194 796.549,813.337 802.248,834.807 783.627,822.8 766.225,834.807 771.31,813.337 "/>
   <polygon id="_233010136" class="fil3" points="874.09,799.194 894.642,799.194 902.173,777.619 910.518,799.194 930.872,799.194 915.401,813.337 921.103,834.807 902.479,822.8 885.081,834.807 890.166,813.337 "/>
   <polygon id="_233009968" class="fil3" points="345.751,850.685 366.305,850.685 373.837,829.111 382.179,850.685 402.534,850.685 387.065,864.829 392.765,886.299 374.142,874.292 356.74,886.299 361.827,864.829 "/>
   <polygon id="_233010496" class="fil3" points="461.353,850.685 481.905,850.685 489.437,829.111 497.78,850.685 518.133,850.685 502.665,864.829 508.365,886.299 489.743,874.292 472.342,886.299 477.428,864.829 "/>
   <polygon id="_233010088" class="fil3" points="581.021,850.685 601.576,850.685 609.108,829.111 617.45,850.685 637.804,850.685 622.334,864.829 628.034,886.299 609.411,874.292 592.011,886.299 597.096,864.829 "/>
   <polygon id="_233010280" class="fil3" points="696.619,850.685 717.175,850.685 724.707,829.111 733.048,850.685 753.401,850.685 737.934,864.829 743.632,886.299 725.012,874.292 707.61,886.299 712.7,864.829 "/>
   <polygon id="_233010184" class="fil3" points="813.036,850.685 833.587,850.685 841.119,829.111 849.461,850.685 869.814,850.685 854.348,864.829 860.046,886.299 841.425,874.292 824.023,886.299 829.112,864.829 "/>
   <polygon id="_233010112" class="fil3" points="287.954,896.272 308.507,896.272 316.038,874.698 324.381,896.272 344.736,896.272 329.266,910.416 334.966,931.885 316.344,919.879 298.944,931.885 304.029,910.416 "/>
   <polygon id="_233010400" class="fil3" points="403.552,896.272 424.108,896.272 431.637,874.698 439.982,896.272 460.334,896.272 444.867,910.416 450.566,931.885 431.942,919.879 414.541,931.885 419.628,910.416 "/>
   <polygon id="_233010616" class="fil3" points="523.22,896.272 543.778,896.272 551.307,874.698 559.65,896.272 580.003,896.272 564.535,910.416 570.233,931.885 551.612,919.879 534.211,931.885 539.3,910.416 "/>
   <polygon id="_233010568" class="fil3" points="638.821,896.272 659.377,896.272 666.905,874.698 675.251,896.272 695.599,896.272 680.136,910.416 685.83,931.885 667.21,919.879 649.81,931.885 654.899,910.416 "/>
   <polygon id="_233010688" class="fil3" points="755.234,896.272 775.79,896.272 783.322,874.698 791.664,896.272 812.02,896.272 796.549,910.416 802.248,931.885 783.627,919.879 766.225,931.885 771.31,910.416 "/>
   <polygon id="_233009224" class="fil3" points="874.09,896.272 894.642,896.272 902.173,874.698 910.518,896.272 930.872,896.272 915.401,910.416 921.103,931.885 902.479,919.879 885.081,931.885 890.166,910.416 "/>
   <polygon id="_233009200" class="fil3" points="287.954,992.33 308.507,992.33 316.038,970.763 324.381,992.33 344.736,992.33 329.266,1006.48 334.966,1027.95 316.344,1015.94 298.944,1027.95 304.029,1006.48 "/>
   <polygon id="_233009800" class="fil3" points="403.552,992.33 424.108,992.33 431.637,970.763 439.982,992.33 460.334,992.33 444.867,1006.48 450.566,1027.95 431.942,1015.94 414.541,1027.95 419.628,1006.48 "/>
   <polygon id="_233009728" class="fil3" points="523.22,992.33 543.778,992.33 551.307,970.763 559.65,992.33 580.003,992.33 564.535,1006.48 570.233,1027.95 551.612,1015.94 534.211,1027.95 539.3,1006.48 "/>
   <polygon id="_233009584" class="fil3" points="638.821,992.33 659.377,992.33 666.905,970.763 675.251,992.33 695.599,992.33 680.136,1006.48 685.83,1027.95 667.21,1015.94 649.81,1027.95 654.899,1006.48 "/>
   <polygon id="_233009488" class="fil3" points="755.234,992.33 775.79,992.33 783.322,970.763 791.664,992.33 812.02,992.33 796.549,1006.48 802.248,1027.95 783.627,1015.94 766.225,1027.95 771.31,1006.48 "/>
   <polygon id="_233009680" class="fil3" points="874.09,992.33 894.642,992.33 902.173,970.763 910.518,992.33 930.872,992.33 915.401,1006.48 921.103,1027.95 902.479,1015.94 885.081,1027.95 890.166,1006.48 "/>
   <polygon id="_233009752" class="fil3" points="345.751,947.766 366.305,947.766 373.837,926.19 382.179,947.766 402.534,947.766 387.065,961.908 392.765,983.379 374.142,971.372 356.74,983.379 361.827,961.908 "/>
   <polygon id="_233009848" class="fil3" points="461.353,947.766 481.905,947.766 489.437,926.19 497.78,947.766 518.133,947.766 502.665,961.908 508.365,983.379 489.743,971.372 472.342,983.379 477.428,961.908 "/>
   <polygon id="_233009536" class="fil3" points="581.021,947.766 601.576,947.766 609.108,926.19 617.45,947.766 637.804,947.766 622.334,961.908 628.034,983.379 609.411,971.372 592.011,983.379 597.096,961.908 "/>
   <polygon id="_233008720" class="fil3" points="696.619,947.766 717.175,947.766 724.707,926.19 733.048,947.766 753.401,947.766 737.934,961.908 743.632,983.379 725.012,971.372 707.61,983.379 712.7,961.908 "/>
   <polygon id="_233009104" class="fil3" points="813.036,947.766 833.587,947.766 841.119,926.19 849.461,947.766 869.814,947.766 854.348,961.908 860.046,983.379 841.425,971.372 824.023,983.379 829.112,961.908 "/>
  </g>
 </g>
 <rect class="fil4" width="2048" height="2048"/>
</svg>
