<?xml version="1.0" encoding="UTF-8"?>
<!DOCTYPE svg PUBLIC "-//W3C//DTD SVG 1.1//EN" "http://www.w3.org/Graphics/SVG/1.1/DTD/svg11.dtd">
<!-- Creator: CorelDRAW -->
<svg xmlns="http://www.w3.org/2000/svg" xml:space="preserve" width="2048px" height="2048px" style="shape-rendering:geometricPrecision; text-rendering:geometricPrecision; image-rendering:optimizeQuality; fill-rule:evenodd; clip-rule:evenodd"
viewBox="0 0 2048 2048"
 xmlns:xlink="http://www.w3.org/1999/xlink">
 <defs>
  <style type="text/css">
   <![CDATA[
    .fil6 {fill:none}
    .fil3 {fill:black}
    .fil0 {fill:#4A9318}
    .fil2 {fill:#CB0423}
    .fil4 {fill:#EEEEEE}
    .fil1 {fill:#F6D128}
    .fil5 {fill:#FCFF2C}
   ]]>
  </style>
 </defs>
 <g id="Layer_x0020_1">
  <metadata id="CorelCorpID_0Corel-Layer"/>
  <g id="_233015080">
   <polygon id="_359359488" class="fil0" points="255.831,1485.5 1792.17,1485.5 1792.17,562.5 255.831,562.5 "/>
   <polygon id="_359358888" class="fil1" points="255.831,1353.65 1792.17,1353.65 1792.17,694.351 255.831,694.351 "/>
   <polygon id="_359359272" class="fil2" points="255.831,1221.81 1792.17,1221.81 1792.17,826.199 255.831,826.199 "/>
   <polygon id="_359358576" class="fil3" points="255.831,1089.95 1792.17,1089.95 1792.17,958.104 255.831,958.104 "/>
   <polygon id="_359358408" class="fil3" points="255.831,562.5 255.831,1485.5 289.377,1485.5 904.41,1023.97 289.377,562.5 "/>
   <polygon id="_359358288" class="fil4" points="255.831,562.5 255.831,1485.5 870.864,1023.97 "/>
   <polygon id="_359358600" class="fil2" points="504.776,789.597 401.093,999.799 558.651,1077.63 "/>
   <polygon id="_359358336" class="fil2" points="504.776,789.597 608.461,999.799 450.872,1077.63 "/>
   <polygon id="_359358120" class="fil2" points="504.776,789.597 426.272,1010.44 591.83,1069.34 "/>
   <polygon id="_359358144" class="fil2" points="504.776,789.597 583.278,1010.44 417.723,1069.34 "/>
   <polygon id="_359358720" class="fil2" points="727.596,951.55 495.729,917.88 470.468,1091.84 "/>
   <polygon id="_359358072" class="fil2" points="281.957,951.55 513.798,917.88 539.086,1091.84 "/>
   <polygon id="_359358096" class="fil2" points="727.596,951.55 493.389,945.092 488.541,1120.84 "/>
   <polygon id="_359357592" class="fil2" points="281.957,951.55 516.159,945.092 520.988,1120.84 "/>
   <polygon id="_359357712" class="fil2" points="623.122,1186.97 582.019,989.782 483.48,1010.34 "/>
   <polygon id="_359357352" class="fil2" points="623.122,1186.97 448.359,1086.91 498.351,999.537 "/>
   <polygon id="_359357808" class="fil2" points="386.427,1186.97 561.195,1086.91 511.179,999.537 "/>
   <polygon id="_359357424" class="fil2" points="386.427,1186.97 427.504,989.782 526.078,1010.34 "/>
   <path id="_359357304" class="fil3" d="M585.191 1170.42c0.0602363,-29.6398 5.12126,-57.8032 15.8221,-87.9603 4.84961,-13.6854 17.6268,-41.5382 21.0095,-45.7866 0.341339,-0.420473 5.77087,0.680315 12.091,2.41536 12.9295,3.61299 16.4728,2.93268 16.4728,-3.09803 0,-3.40748 -13.2165,-15.1606 -77.8501,-69.3308 -43.513,-36.4524 -79.2662,-65.1875 -81.0485,-65.1875 -1.7563,0 -3.51378,-1.00158 -3.88347,-2.20866 -0.392126,-1.15512 -2.49095,-15.2658 -4.64174,-31.3618 -2.17677,-16.1055 -5.11418,-31.9359 -6.50552,-35.2477 -4.14213,-9.64725 -12.6118,-14.7354 -26.1969,-15.6768 -10.2862,-0.735827 -12.4358,-0.364961 -19.4162,3.72402 -4.69489,2.72481 -10.3311,4.55906 -14.1662,4.55906 -7.7067,0 -13.9512,5.98229 -13.9512,13.376l0 4.87796 11.3091 -0.315355c6.19134,-0.21378 9.36497,0.0496063 6.99686,0.522048 -8.02205,1.52126 -4.79646,12.9059 4.64764,16.2591 10.1728,3.61772 9.75355,1.47047 9.75355,49.2496 0,39.1264 -0.340158,44.6835 -3.12166,53.7591 -4.09134,13.2142 -4.09134,32.8796 0,45.8882 1.65236,5.2441 3.0437,10.1185 3.06969,10.8012 0.0236221,0.737008 -4.79882,7.1315 -10.7291,14.2701 -10.6937,12.8433 -17.2583,26.5878 -17.2583,36.2422 0,2.19449 -1.41378,6.03189 -3.11693,8.4378 -3.96378,5.61733 -4.06536,15.1547 -0.237402,18.8256 3.98622,3.78307 20.4295,71.6481 20.4851,84.4406 0,4.6689 0.762993,4.6689 25.7091,-0.733465 20.1366,-4.30158 67.7977,-5.30079 91.9028,-1.77992 11.1236,1.57087 24.1051,3.98386 28.8024,5.23937 14.8453,4.08898 14.0008,4.93701 14.0516,-14.2004z"/>
   <path id="_359357496" class="fil5" d="M564.895 1180.16c-21.9508,-5.29134 -46.7681,-7.28268 -74.7296,-6.0815 -14.1602,0.635434 -28.9583,1.77992 -32.9433,2.50984l-7.18819 1.42205 -1.80827 -12.0662c-0.993308,-6.60355 -1.57441,-12.2681 -1.28976,-12.5847 0.26811,-0.309449 7.11378,-1.52008 15.2457,-2.66811 27.8292,-4.04528 87.293,-2.46496 114.807,3.03898l5.06103 1.05118 0 14.5264c0,10.5933 -0.525591,14.4213 -1.93819,14.3138 -1.08425,-0.151181 -7.92166,-1.68071 -15.2162,-3.46181z"/>
   <path id="_359357640" class="fil5" d="M427.846 1181.26c0,-3.51851 -8.65749,-45.0992 -12.4358,-59.7898 -2.59606,-10.0181 -4.69607,-18.828 -4.69607,-19.663 0,-0.737008 2.36339,0.209055 5.24646,2.2004 2.89134,1.99134 6.55867,3.62008 8.18505,3.62008 8.02678,0.10748 12.4075,12.1665 19.2,52.8166 0.97441,5.7189 2.07638,12.1134 2.46496,14.1567 0.630709,3.30236 -0.233858,3.99095 -7.13623,5.61024 -8.72953,2.09528 -10.8284,2.2441 -10.8284,1.04882z"/>
   <path id="_359357616" class="fil5" d="M579.845 1149.43c-0.49252,-0.895276 0.158268,-2.52047 1.44449,-3.7252 1.88504,-1.7315 2.33386,-1.62402 2.33386,0.576378 0,3.19843 -2.54528,5.35158 -3.77835,3.14882z"/>
   <path id="_359358000" class="fil5" d="M454.679 1142.81c4.14449,-4.61457 4.24725,-4.663 7.4752,-1.35827 3.09567,3.04016 3.12284,3.3567 0.467717,4.50709 -1.57205,0.680315 -4.92756,1.31102 -7.49528,1.36299l-4.61811 0.109843 4.17048 -4.62166z"/>
   <path id="_359357928" class="fil5" d="M557.471 1145.44c0.34252,-1.10079 1.96772,-2.98819 3.64488,-4.24961 2.62323,-1.8874 3.38386,-1.62047 5.8252,2.03977l2.80512 4.20709 -6.45119 0c-4.19646,0 -6.21497,-0.682678 -5.82402,-1.99725z"/>
   <path id="_359356920" class="fil5" d="M571.321 1142.98c-1.8378,-2.62323 -3.11929,-4.97953 -2.8311,-5.29489 0.287008,-0.322441 3.54095,0 7.15749,0.729922l6.66615 1.26142 -3.85512 3.98268 -3.80315 4.04055 -3.33425 -4.71969z"/>
   <path id="_359356872" class="fil5" d="M444.03 1143.23c-1.15866,-3.34725 1.54725,-6.12874 6.00355,-6.12874 3.57166,-0.0519685 3.46654,0.318898 -1.12559,5.09174 -3.51024,3.72402 -3.93544,3.77126 -4.87796,1.03701z"/>
   <path id="_359356560" class="fil5" d="M480.41 1140.09l4.09134 -4.77048 3.9874 3.8752c2.20394,2.1437 4.22008,4.03111 4.48465,4.13504 0.285827,0.167717 -3.35788,0.591733 -8.10709,0.897638l-8.60198 0.633071 4.14567 -4.77048z"/>
   <path id="_359356776" class="fil5" d="M535.569 1144.18l-5.2193 -1.10906 3.75237 -3.87638 3.74646 -3.8752 4.48819 5.18386c4.90158,5.6752 4.38307,5.98111 -6.76772,3.67677z"/>
   <path id="_359357064" class="fil5" d="M466.774 1139.67l-3.64843 -4.35 5.58189 0c3.09685,0 6.82441,-0.473622 8.32087,-1.1563 2.17205,-0.951969 1.98898,-0.111024 -0.947245,4.35591 -2.01614,2.99292 -4.09489,5.44961 -4.6441,5.44961 -0.549213,0 -2.62087,-1.93465 -4.663,-4.29922z"/>
   <path id="_359356680" class="fil5" d="M506.507 1138.78l4.48229 -5.18977 4.38898 4.66536c2.41063,2.56654 4.37835,4.87441 4.37835,5.18741 0,0.322441 -3.99331,0.527953 -8.8689,0.527953l-8.86418 0 4.48347 -5.19095z"/>
   <path id="_359356632" class="fil5" d="M547.766 1139.67l-3.64607 -4.35 7.27205 0c7.88859,0 8.88544,1.31221 4.45276,5.75906 -3.67559,3.67441 -3.7252,3.67441 -8.07875,-1.40906z"/>
   <path id="_359356944" class="fil5" d="M493.259 1137.89l-3.66851 -4.30158 8.34331 0 8.33741 0 -3.67205 4.30158c-4.51181,5.33622 -4.82599,5.33622 -9.34016,0z"/>
   <path id="_359357280" class="fil5" d="M521.302 1137.89l-3.67441 -4.30158 8.34449 0 8.33977 0 -3.67087 4.30158c-4.51181,5.33622 -4.82953,5.33622 -9.33898,0z"/>
   <path id="_359357112" class="fil5" d="M571.139 1133.54c-3.85748,-0.737008 -19.3311,-2.30788 -34.415,-3.51496 -26.1756,-2.10591 -58.5733,-0.99567 -87.4725,3.0437 -5.95748,0.784253 -7.37717,0.47126 -7.37717,-1.6311 0,-4.50473 31.2142,-7.3878 79.428,-7.3878 23.5524,0 47.5512,0.680315 53.3528,1.46693 9.72993,1.31221 10.4847,1.72914 10.4847,5.60079 0,4.6252 -1.30866,4.83426 -14.0008,2.42244z"/>
   <path id="_359356008" class="fil5" d="M450.033 1118.75c3.17362,-3.25512 6.4063,-5.98701 7.1067,-5.98701 0.711024,0 2.91496,1.94764 4.85552,4.19764l3.54095 4.24843 -7.55316 1.09724c-4.14449,0.584646 -8.97166,1.3689 -10.6748,1.78583 -2.30906,0.525591 -1.62756,-0.837402 2.72481,-5.34213z"/>
   <path id="_359356488" class="fil5" d="M438.99 1119.59c-1.15158,-3.46181 -0.832678,-4.40433 1.8378,-5.56063 1.75866,-0.733465 4.53544,-1.15748 6.13819,-0.844489 2.54764,0.424016 2.33858,1.10669 -1.80591,5.51339l-4.74922 5.02914 -1.42087 -4.1374z"/>
   <path id="_359356272" class="fil5" d="M583.623 1121.63c0,-0.839764 0.999213,-1.94055 2.22756,-2.46614 1.52362,-0.63189 1.99488,-0.159449 1.41969,1.52126 -0.973229,2.72481 -3.64725,3.45827 -3.64725,0.944883z"/>
   <path id="_359355840" class="fil5" d="M478.941 1115.44c2.30669,-2.87953 4.19292,-5.35158 4.19292,-5.50394 0,-0.211417 2.22992,1.8874 4.93465,4.61575l4.95827 4.8815 -9.15473 0.575197 -9.15119 0.575197 4.22008 -5.1437z"/>
   <path id="_359356080" class="fil5" d="M562.169 1120.16l-6.63898 -0.625985 4.77284 -4.46103 4.7504 -4.45748 3.83268 3.98032c4.16929,4.35591 4.92756,7.03347 1.85788,6.55985 -1.07835,-0.154725 -4.90394,-0.575197 -8.57481,-0.99567z"/>
   <path id="_359355816" class="fil5" d="M465.824 1115.39l-4.48111 -3.98622 7.47402 -1.25433c4.09016,-0.686221 7.7126,-0.949607 8.02205,-0.578741 0.320079,0.366142 -1.02284,2.72835 -2.95866,5.2441l-3.54213 4.56142 -4.51418 -3.98622z"/>
   <path id="_359356368" class="fil5" d="M534.024 1118.27l-3.5941 -1.1563 3.95906 -4.13859c3.35788,-3.51733 4.32992,-3.78071 6.42638,-1.82953 1.33937,1.19882 3.14646,3.66378 3.98977,5.39646 1.31221,2.72481 0.912993,3.14528 -2.80394,2.99055 -2.39292,-0.056693 -5.95867,-0.629528 -7.97717,-1.2626z"/>
   <path id="_359356440" class="fil5" d="M573.364 1114.29l-4.53189 -5.45906 3.87756 1.10551c2.12717,0.572835 6.68977,1.10669 10.1256,1.10669l6.21497 0.0507874 -4.66536 4.24252c-2.57008,2.36339 -5.06457,4.29922 -5.53583,4.35591 -0.50315,0 -2.93977,-2.41181 -5.48504,-5.40237z"/>
   <path id="_359356152" class="fil5" d="M493.47 1113.92c-1.83189,-2.15433 -3.30473,-4.46103 -3.30473,-5.14016 0,-0.629528 3.93425,-1.20827 8.78977,-1.20827l8.81221 0 -2.96575 3.67323c-5.21811,6.39567 -7.68544,6.97087 -11.3315,2.6752z"/>
   <path id="_359356056" class="fil5" d="M507.844 1113.55c5.00906,-4.92874 6.74292,-4.82717 10.0193,0.635434 2.22992,3.77126 2.1815,3.82559 -6.10985,3.77126l-8.3693 -0.103937 4.45985 -4.30276z"/>
   <path id="_359356296" class="fil5" d="M546.482 1112.71l-3.62244 -5.14016 3.8315 0c2.10118,0 5.98111,0.473622 8.57599,1.10079l4.77284 1.04882 -4.37481 4.14685c-2.44252,2.25473 -4.70079,4.0878 -4.98662,4.03701 -0.311811,-0.0531496 -2.20158,-2.41063 -4.19646,-5.19331z"/>
   <path id="_359355648" class="fil5" d="M521.302 1111.93l-3.67441 -4.35355 8.34449 0 8.33977 0 -3.67087 4.35355c-4.51181,5.35158 -4.82953,5.35158 -9.33898,0z"/>
   <path id="_359355264" class="fil5" d="M438.024 1106.27c0.627166,-1.62756 1.96654,-6.87284 2.98583,-11.6492l1.83662 -8.64804 17.1012 -9.5445c9.39331,-5.24764 19.8815,-11.9079 23.2642,-14.8417 3.39095,-2.93977 6.95315,-5.87717 7.95355,-6.50906 2.38465,-1.51772 47.5536,1.78701 67.513,4.98544 15.4016,2.46614 42.3343,7.81536 43.2544,8.55119 0.233858,0.207874 -2.12126,8.07402 -5.24764,17.5193 -3.09567,9.43583 -5.92796,18.1961 -6.24449,19.5012 -0.498426,1.78228 -2.38347,2.04921 -7.63111,1.15748 -25.6004,-4.19528 -99.3296,-3.82205 -127.714,0.737008 -16.1303,2.56299 -18.4654,2.41063 -17.0717,-1.25906z"/>
   <path id="_359355504" class="fil3" d="M568.146 1095.62c10.0524,-11.1721 3.17481,-29.5855 -11.0102,-29.5855 -9.13583,-0.0011811 -15.5858,7.19056 -15.5858,17.3126 0,15.7819 16.5756,23.4414 26.5961,12.2728z"/>
   <path id="_359355144" class="fil5" d="M551.392 1095.19c-8.4815,-4.71378 -7.87087,-19.8709 0.937796,-23.9138 8.55473,-3.93662 17.2606,2.25709 17.2606,12.2705 0.0011811,9.49371 -10.2579,16.1079 -18.1984,11.6433z"/>
   <path id="_359355384" class="fil3" d="M505.561 1094.51c9.31418,-8.75316 7.21418,-24.3792 -3.96024,-29.5796 -7.37127,-3.41339 -15.2386,-0.572835 -19.3524,6.92599 -4.51418,8.23111 -3.8563,14.3717 2.30669,21.1866 6.71221,7.49764 14.0032,8.0256 21.0059,1.46693z"/>
   <path id="_359355360" class="fil5" d="M490.641 1093.73c-11.5181,-5.13426 -7.53071,-25.9595 4.98071,-25.9595 12.2504,0 16.2638,18.8823 5.32678,25.1729 -4.98426,2.88544 -5.56418,2.88544 -10.3075,0.786615z"/>
   <path id="_359355744" class="fil5" d="M430.992 1101.44c2.20512,-6.39804 1.91929,-14.6327 -0.499607,-14.6327 -1.28386,-0.0011811 -2.01851,2.25591 -2.01851,6.08504 0,3.3567 -0.946064,7.02993 -2.07166,8.23465 -1.70433,1.77874 -1.91457,0.420473 -1.20473,-7.81418 0.472441,-5.50985 0.262205,-9.96497 -0.472441,-9.96497 -1.39016,0 -4.09134,8.28544 -5.08937,15.5764 -0.576378,4.30158 -0.576378,4.30158 -1.88977,-0.790158 -0.994489,-3.93307 -0.522048,-6.5504 2.07284,-11.589 1.83662,-3.56693 3.35551,-8.81694 3.35551,-11.589 0,-4.24843 2.96811,-8.39056 17.3138,-23.9114 9.54568,-10.337 20.6173,-23.1307 24.6532,-28.4823 6.97914,-9.22796 7.32048,-10.1728 7.05945,-19.5106 -0.132284,-5.40709 -0.707481,-10.2803 -1.23189,-10.9099 -1.8378,-2.03858 -4.25552,8.44016 -3.30473,14.1591 0.890552,5.14016 -0.0283465,6.8693 -10.0724,19.565 -6.06378,7.65591 -16.3689,19.2484 -22.8473,25.754 -11.9587,12.0095 -16.2614,18.4547 -16.2614,24.5433 0,1.83425 -1.33937,6.71103 -2.9941,10.8024 -1.65236,4.14685 -2.61851,8.28426 -2.09291,9.28347 0.549213,1.09724 0.179528,1.09724 -0.969686,-0.056693 -1.34173,-1.35945 -1.41851,-3.93189 -0.317717,-9.43583 0.839764,-4.14449 1.15512,-8.18386 0.734646,-8.96812 -1.68071,-2.99173 -3.64843,0.837402 -4.61693,9.06851 -0.579922,4.72678 -1.65118,8.12835 -2.3941,7.60631 -2.25,-1.57205 -1.51536,-10.0654 1.24016,-14.4213 1.41614,-2.25355 3.17244,-7.65945 3.88229,-12.0095 2.04567,-12.1736 6.9756,-21.815 17.8358,-34.9784 5.4815,-6.66733 9.96261,-12.3756 9.96261,-12.6413 0,-0.369685 -1.46339,-5.19331 -3.22441,-10.8626 -4.06181,-13.0016 -4.38189,-32.8311 -0.650788,-44.8855 3.95551,-12.6378 12.0083,-25.2295 24.7618,-38.5004 13.187,-13.6878 25.7244,-21.9225 31.7859,-20.9232 5.24292,0.894095 156.044,127.023 156.044,130.585 0.0011811,1.3689 -1.21063,2.46851 -2.73189,2.41299 -1.49173,0 -39.8433,-11.5866 -85.219,-25.7988 -72.4961,-22.6028 -82.9383,-26.276 -86.0611,-30.3662 -4.45512,-5.7189 -4.64055,-14.5288 -0.445276,-20.4532 1.73386,-2.41536 3.12638,-5.40473 3.12638,-6.66733 0,-3.82205 -7.68898,5.92796 -9.16064,11.6457 -1.72795,6.71457 1.47165,17.8854 6.16772,21.4547 1.83425,1.41378 15.6591,6.49961 30.6898,11.2772 25.6512,8.12717 27.4051,9.0189 28.7977,13.5295 3.27756,10.9063 -7.52717,23.6008 -23.1071,27.2173 -5.03977,1.15039 -11.4378,4.35 -15.8681,7.9193 -17.5536,14.1614 -29.7969,22.4977 -40.0524,27.2209 -6.0378,2.77914 -11.8335,5.92678 -12.8823,7.02048 -1.04646,1.10906 -2.61851,6.19252 -3.48544,11.2323 -1.83898,10.7445 -2.57362,12.4264 -5.56182,12.4264 -1.73032,0 -1.86024,-0.993308 -0.683859,-4.45748z"/>
   <path id="_359355240" class="fil5" d="M589.05 1061.58c-15.9957,-3.93189 -41.3587,-7.7126 -67.1209,-9.96379l-24.7606 -2.14961 9.3378 -3.8315c5.12008,-2.04567 12.5126,-5.60788 16.3925,-7.92166 6.13819,-3.61654 8.57835,-4.04055 17.9162,-3.35079 13.9004,1.0937 23.2677,-1.63465 26.752,-7.81772 1.44803,-2.57362 2.86063,-4.97835 3.07087,-5.34922 0.233858,-0.372048 11.2524,2.6752 24.5256,6.76536l24.0756 7.39371 -4.66536 8.86064c-2.57008,4.82481 -5.82638,11.3799 -7.18938,14.4248 -2.85709,6.29056 -3.82796,6.50552 -18.3343,2.93977z"/>
   <path id="_359355096" class="fil5" d="M534.257 1029.95c-1.30866,-0.891733 -1.25669,-1.99134 0.262205,-4.29922 1.28858,-1.9441 2.44252,-2.46851 3.07087,-1.30866 1.44095,2.56063 -1.17992,7.12914 -3.33307,5.60788z"/>
   <path id="_359355000" class="fil5" d="M539.978 1029.64c0,-2.19685 1.12441,-2.19685 2.35866,0 0.523229,1.00158 0.210236,1.73268 -0.7063,1.73268 -0.895276,0 -1.65236,-0.731103 -1.65236,-1.73268z"/>
   <path id="_233006824" class="fil5" d="M547.766 1028.69c0,-1.52126 0.711024,-2.25355 1.5815,-1.6252 2.01378,1.36654 2.0126,4.3004 0,4.3004 -0.870473,0 -1.5815,-1.20473 -1.5815,-2.6752z"/>
   <path id="_233002816" class="fil5" d="M555.136 1028.59c-0.627166,-0.673229 -1.12677,-2.40473 -1.12677,-3.92953 0,-1.93701 0.447638,-2.09528 1.73386,-0.682678 0.941339,1.05 1.46575,2.83229 1.12559,3.88229 -0.314173,1.10315 -1.09843,1.46929 -1.73268,0.729922z"/>
   <path id="_233014336" class="fil5" d="M542.677 1025.13c-0.598819,-0.675591 -1.12677,-2.46851 -1.12677,-3.93544 0,-1.9441 0.475985,-2.15197 1.73268,-0.735827 0.969686,1.10669 1.46929,2.88189 1.15158,3.93189 -0.338977,1.09724 -1.12323,1.41969 -1.75748,0.739371z"/>
   <path id="_233008648" class="fil5" d="M560.965 1024.35c-1.68425,-3.04488 0.230315,-3.66969 2.35158,-0.790158 1.23543,1.62756 1.36772,2.62441 0.324803,2.62441 -0.920079,0 -2.13071,-0.844489 -2.67638,-1.83425z"/>
   <path id="_233005072" class="fil5" d="M548.635 1021.09c-0.505512,-0.88819 -0.183071,-2.04449 0.675591,-2.72481 0.86693,-0.578741 1.57441,0.158268 1.57441,1.67599 0,3.0437 -0.916536,3.46181 -2.25,1.04882z"/>
   <path id="_233001040" class="fil5" d="M555.585 1018.26c0,-1.47284 0.679134,-2.15551 1.55079,-1.6252 2.01496,1.4126 2.01496,4.3441 0,4.3441 -0.871654,0 -1.55079,-1.19764 -1.55079,-2.7189z"/>
   <path id="_233026408" class="fil5" d="M536.882 1016.74c0,-3.0437 0.941339,-3.45709 2.28189,-1.04528 0.47126,0.894095 0.185433,2.04213 -0.707481,2.67402 -0.86693,0.625985 -1.57441,-0.103937 -1.57441,-1.62874z"/>
   <path id="_233020480" class="fil5" d="M543.098 1014.8c0,-1.46693 0.709843,-2.20276 1.57441,-1.6311 1.9937,1.41851 1.9937,4.35591 0,4.35591 -0.864568,0 -1.57441,-1.20354 -1.57441,-2.72481z"/>
   <path id="_233014840" class="fil5" d="M438.392 931.511c-0.448819,-7.50119 -0.448819,-24.9638 0,-38.8099 0.890552,-28.6878 0.20315,-31.5189 -8.57717,-34.6642 -7.18819,-2.57835 -9.75946,-4.71733 -9.75946,-8.1319 0,-2.20394 1.59921,-2.46024 9.44174,-1.56732 8.26418,0.990946 9.41576,0.72756 8.96812,-1.73268 -0.780709,-4.46103 -11.6941,-7.81654 -23.2394,-7.19056 -9.06969,0.525591 -10.1728,0.263386 -9.57402,-2.30197 1.23425,-5.3563 6.32599,-8.81103 13.9595,-9.60119 4.09016,-0.472441 10.148,-2.35866 13.3996,-4.30276 4.85552,-2.88425 8.13426,-3.40512 17.4484,-2.93977 20.4012,1.15512 24.2858,7.19292 29.6327,45.9981 2.04803,15.0543 3.75473,29.0587 3.80433,31.05 0.0271654,2.57244 -2.83465,5.71772 -9.99095,10.8579 -10.5461,7.55197 -24.1595,21.3449 -30.7666,31.154l-3.93544 5.82284 -0.811418 -13.6406z"/>
   <path id="_233014672" class="fil3" d="M453.555 840.78c2.35158,-2.88662 2.51457,-4.19528 0.990946,-7.8626 -2.20394,-5.40591 -4.77284,-4.19528 -3.72284,1.77756 0.602363,3.56929 0.129921,4.40788 -2.54646,4.40788 -2.64449,0 -3.27756,-1.10079 -3.27756,-5.45788 0,-4.55906 -0.367323,-5.08701 -2.36339,-3.20079 -3.01299,2.78858 -2.95984,6.71693 0.265748,10.6512 3.33307,4.14213 7.1315,4.03819 10.6536,-0.315355z"/>
  </g>
 </g>
 <rect class="fil6" width="2048" height="2048"/>
</svg>
